solid ascii
  facet normal -5.773503e-001 2.113249e-001 -7.886751e-001
    outer loop
      vertex   -1.094690e+003 -4.888081e+002 4.320585e+002
      vertex   -1.054275e+003 -4.336008e+002 4.172658e+002
      vertex   -1.094343e+003 -4.891545e+002 4.317121e+002
    endloop
  endfacet
  facet normal -5.773503e-001 2.113249e-001 -7.886751e-001
    outer loop
      vertex   -1.094343e+003 -4.891545e+002 4.317121e+002
      vertex   -1.054275e+003 -4.336008e+002 4.172658e+002
      vertex   -1.053929e+003 -4.339472e+002 4.169193e+002
    endloop
  endfacet
  facet normal -5.995718e-001 -7.797705e-001 1.801987e-001
    outer loop
      vertex   -1.094690e+003 -4.968081e+002 4.400585e+002
      vertex   -1.095038e+003 -4.966560e+002 4.395582e+002
      vertex   -1.094343e+003 -4.971545e+002 4.397121e+002
    endloop
  endfacet
  facet normal -5.995718e-001 -7.797705e-001 1.801987e-001
    outer loop
      vertex   -1.094343e+003 -4.971545e+002 4.397121e+002
      vertex   -1.095038e+003 -4.966560e+002 4.395582e+002
      vertex   -1.094691e+003 -4.970024e+002 4.392118e+002
    endloop
  endfacet
  facet normal -6.412086e-001 -7.583698e-001 1.171612e-001
    outer loop
      vertex   -1.094691e+003 -4.970024e+002 4.392118e+002
      vertex   -1.095038e+003 -4.966560e+002 4.395582e+002
      vertex   -1.095355e+003 -4.964659e+002 4.390507e+002
    endloop
  endfacet
  facet normal -6.788921e-001 -7.322935e-001 5.340143e-002
    outer loop
      vertex   -1.095009e+003 -4.968123e+002 4.387043e+002
      vertex   -1.095355e+003 -4.964659e+002 4.390507e+002
      vertex   -1.095640e+003 -4.962391e+002 4.385389e+002
    endloop
  endfacet
  facet normal -7.123900e-001 -7.017024e-001 -1.068761e-002
    outer loop
      vertex   -1.095294e+003 -4.965855e+002 4.381925e+002
      vertex   -1.095640e+003 -4.962391e+002 4.385389e+002
      vertex   -1.095891e+003 -4.959768e+002 4.380260e+002
    endloop
  endfacet
  facet normal -7.414958e-001 -6.667850e-001 -7.471076e-002
    outer loop
      vertex   -1.095544e+003 -4.963232e+002 4.376796e+002
      vertex   -1.095891e+003 -4.959768e+002 4.380260e+002
      vertex   -1.096106e+003 -4.956808e+002 4.375153e+002
    endloop
  endfacet
  facet normal -7.660300e-001 -6.277567e-001 -1.382733e-001
    outer loop
      vertex   -1.095759e+003 -4.960272e+002 4.371689e+002
      vertex   -1.096106e+003 -4.956808e+002 4.375153e+002
      vertex   -1.096283e+003 -4.953529e+002 4.370098e+002
    endloop
  endfacet
  facet normal -7.858414e-001 -5.848581e-001 -2.009833e-001
    outer loop
      vertex   -1.095937e+003 -4.956993e+002 4.366634e+002
      vertex   -1.096283e+003 -4.953529e+002 4.370098e+002
      vertex   -1.096422e+003 -4.949950e+002 4.365127e+002
    endloop
  endfacet
  facet normal -8.008078e-001 -5.383536e-001 -2.624542e-001
    outer loop
      vertex   -1.096076e+003 -4.953414e+002 4.361663e+002
      vertex   -1.096422e+003 -4.949950e+002 4.365127e+002
      vertex   -1.096522e+003 -4.946094e+002 4.360270e+002
    endloop
  endfacet
  facet normal -8.108370e-001 -4.885300e-001 -3.223070e-001
    outer loop
      vertex   -1.096176e+003 -4.949558e+002 4.356806e+002
      vertex   -1.096522e+003 -4.946094e+002 4.360270e+002
      vertex   -1.096583e+003 -4.941984e+002 4.355558e+002
    endloop
  endfacet
  facet normal -8.158671e-001 -4.356944e-001 -3.801727e-001
    outer loop
      vertex   -1.096236e+003 -4.945448e+002 4.352094e+002
      vertex   -1.096583e+003 -4.941984e+002 4.355558e+002
      vertex   -1.096603e+003 -4.937646e+002 4.351019e+002
    endloop
  endfacet
  facet normal -8.158671e-001 -3.801727e-001 -4.356944e-001
    outer loop
      vertex   -1.096256e+003 -4.941111e+002 4.347555e+002
      vertex   -1.096603e+003 -4.937646e+002 4.351019e+002
      vertex   -1.096583e+003 -4.933107e+002 4.346681e+002
    endloop
  endfacet
  facet normal -8.108370e-001 -3.223070e-001 -4.885300e-001
    outer loop
      vertex   -1.096236e+003 -4.936572e+002 4.343217e+002
      vertex   -1.096583e+003 -4.933107e+002 4.346681e+002
      vertex   -1.096522e+003 -4.928395e+002 4.342572e+002
    endloop
  endfacet
  facet normal -8.008078e-001 -2.624542e-001 -5.383536e-001
    outer loop
      vertex   -1.096176e+003 -4.931859e+002 4.339108e+002
      vertex   -1.096522e+003 -4.928395e+002 4.342572e+002
      vertex   -1.096422e+003 -4.923538e+002 4.338716e+002
    endloop
  endfacet
  facet normal -7.858414e-001 -2.009833e-001 -5.848581e-001
    outer loop
      vertex   -1.096076e+003 -4.927002e+002 4.335252e+002
      vertex   -1.096422e+003 -4.923538e+002 4.338716e+002
      vertex   -1.095937e+003 -4.922031e+002 4.331673e+002
    endloop
  endfacet
  facet normal -8.008078e-001 -2.624542e-001 -5.383536e-001
    outer loop
      vertex   -1.096076e+003 -4.927002e+002 4.335252e+002
      vertex   -1.096176e+003 -4.931859e+002 4.339108e+002
      vertex   -1.096422e+003 -4.923538e+002 4.338716e+002
    endloop
  endfacet
  facet normal -6.412086e-001 -7.583698e-001 1.171612e-001
    outer loop
      vertex   -1.094691e+003 -4.970024e+002 4.392118e+002
      vertex   -1.095355e+003 -4.964659e+002 4.390507e+002
      vertex   -1.095009e+003 -4.968123e+002 4.387043e+002
    endloop
  endfacet
  facet normal -6.788921e-001 -7.322935e-001 5.340143e-002
    outer loop
      vertex   -1.095009e+003 -4.968123e+002 4.387043e+002
      vertex   -1.095640e+003 -4.962391e+002 4.385389e+002
      vertex   -1.095294e+003 -4.965855e+002 4.381925e+002
    endloop
  endfacet
  facet normal -7.123900e-001 -7.017024e-001 -1.068761e-002
    outer loop
      vertex   -1.095294e+003 -4.965855e+002 4.381925e+002
      vertex   -1.095891e+003 -4.959768e+002 4.380260e+002
      vertex   -1.095544e+003 -4.963232e+002 4.376796e+002
    endloop
  endfacet
  facet normal -7.414958e-001 -6.667850e-001 -7.471076e-002
    outer loop
      vertex   -1.095544e+003 -4.963232e+002 4.376796e+002
      vertex   -1.096106e+003 -4.956808e+002 4.375153e+002
      vertex   -1.095759e+003 -4.960272e+002 4.371689e+002
    endloop
  endfacet
  facet normal -7.660300e-001 -6.277567e-001 -1.382733e-001
    outer loop
      vertex   -1.095759e+003 -4.960272e+002 4.371689e+002
      vertex   -1.096283e+003 -4.953529e+002 4.370098e+002
      vertex   -1.095937e+003 -4.956993e+002 4.366634e+002
    endloop
  endfacet
  facet normal -7.858414e-001 -5.848581e-001 -2.009833e-001
    outer loop
      vertex   -1.095937e+003 -4.956993e+002 4.366634e+002
      vertex   -1.096422e+003 -4.949950e+002 4.365127e+002
      vertex   -1.096076e+003 -4.953414e+002 4.361663e+002
    endloop
  endfacet
  facet normal -8.008078e-001 -5.383536e-001 -2.624542e-001
    outer loop
      vertex   -1.096076e+003 -4.953414e+002 4.361663e+002
      vertex   -1.096522e+003 -4.946094e+002 4.360270e+002
      vertex   -1.096176e+003 -4.949558e+002 4.356806e+002
    endloop
  endfacet
  facet normal -8.108370e-001 -4.885300e-001 -3.223070e-001
    outer loop
      vertex   -1.096176e+003 -4.949558e+002 4.356806e+002
      vertex   -1.096583e+003 -4.941984e+002 4.355558e+002
      vertex   -1.096236e+003 -4.945448e+002 4.352094e+002
    endloop
  endfacet
  facet normal -8.158671e-001 -4.356944e-001 -3.801727e-001
    outer loop
      vertex   -1.096236e+003 -4.945448e+002 4.352094e+002
      vertex   -1.096603e+003 -4.937646e+002 4.351019e+002
      vertex   -1.096256e+003 -4.941111e+002 4.347555e+002
    endloop
  endfacet
  facet normal -8.158671e-001 -3.801727e-001 -4.356944e-001
    outer loop
      vertex   -1.096256e+003 -4.941111e+002 4.347555e+002
      vertex   -1.096583e+003 -4.933107e+002 4.346681e+002
      vertex   -1.096236e+003 -4.936572e+002 4.343217e+002
    endloop
  endfacet
  facet normal -8.108370e-001 -3.223070e-001 -4.885300e-001
    outer loop
      vertex   -1.096236e+003 -4.936572e+002 4.343217e+002
      vertex   -1.096522e+003 -4.928395e+002 4.342572e+002
      vertex   -1.096176e+003 -4.931859e+002 4.339108e+002
    endloop
  endfacet
  facet normal -7.858414e-001 -2.009833e-001 -5.848581e-001
    outer loop
      vertex   -1.096422e+003 -4.923538e+002 4.338716e+002
      vertex   -1.096283e+003 -4.918567e+002 4.335137e+002
      vertex   -1.095937e+003 -4.922031e+002 4.331673e+002
    endloop
  endfacet
  facet normal -7.660300e-001 -1.382733e-001 -6.277567e-001
    outer loop
      vertex   -1.095937e+003 -4.922031e+002 4.331673e+002
      vertex   -1.096283e+003 -4.918567e+002 4.335137e+002
      vertex   -1.096106e+003 -4.913513e+002 4.331857e+002
    endloop
  endfacet
  facet normal -7.414958e-001 -7.471076e-002 -6.667850e-001
    outer loop
      vertex   -1.095759e+003 -4.916977e+002 4.328393e+002
      vertex   -1.096106e+003 -4.913513e+002 4.331857e+002
      vertex   -1.095891e+003 -4.908405e+002 4.328897e+002
    endloop
  endfacet
  facet normal -7.123900e-001 -1.068761e-002 -7.017024e-001
    outer loop
      vertex   -1.095544e+003 -4.911869e+002 4.325433e+002
      vertex   -1.095891e+003 -4.908405e+002 4.328897e+002
      vertex   -1.095640e+003 -4.903277e+002 4.326275e+002
    endloop
  endfacet
  facet normal -6.788921e-001 5.340143e-002 -7.322935e-001
    outer loop
      vertex   -1.095294e+003 -4.906741e+002 4.322811e+002
      vertex   -1.095640e+003 -4.903277e+002 4.326275e+002
      vertex   -1.095355e+003 -4.898159e+002 4.324006e+002
    endloop
  endfacet
  facet normal -6.412086e-001 1.171612e-001 -7.583698e-001
    outer loop
      vertex   -1.095009e+003 -4.901623e+002 4.320542e+002
      vertex   -1.095355e+003 -4.898159e+002 4.324006e+002
      vertex   -1.095038e+003 -4.893083e+002 4.322106e+002
    endloop
  endfacet
  facet normal -5.995718e-001 1.801987e-001 -7.797705e-001
    outer loop
      vertex   -1.094691e+003 -4.896547e+002 4.318642e+002
      vertex   -1.095038e+003 -4.893083e+002 4.322106e+002
      vertex   -1.094690e+003 -4.888081e+002 4.320585e+002
    endloop
  endfacet
  facet normal -5.995718e-001 1.801987e-001 -7.797705e-001
    outer loop
      vertex   -1.094343e+003 -4.891545e+002 4.317121e+002
      vertex   -1.094691e+003 -4.896547e+002 4.318642e+002
      vertex   -1.094690e+003 -4.888081e+002 4.320585e+002
    endloop
  endfacet
  facet normal -7.660300e-001 -1.382733e-001 -6.277567e-001
    outer loop
      vertex   -1.095937e+003 -4.922031e+002 4.331673e+002
      vertex   -1.096106e+003 -4.913513e+002 4.331857e+002
      vertex   -1.095759e+003 -4.916977e+002 4.328393e+002
    endloop
  endfacet
  facet normal -7.414958e-001 -7.471076e-002 -6.667850e-001
    outer loop
      vertex   -1.095759e+003 -4.916977e+002 4.328393e+002
      vertex   -1.095891e+003 -4.908405e+002 4.328897e+002
      vertex   -1.095544e+003 -4.911869e+002 4.325433e+002
    endloop
  endfacet
  facet normal -7.123900e-001 -1.068761e-002 -7.017024e-001
    outer loop
      vertex   -1.095544e+003 -4.911869e+002 4.325433e+002
      vertex   -1.095640e+003 -4.903277e+002 4.326275e+002
      vertex   -1.095294e+003 -4.906741e+002 4.322811e+002
    endloop
  endfacet
  facet normal -6.788921e-001 5.340143e-002 -7.322935e-001
    outer loop
      vertex   -1.095294e+003 -4.906741e+002 4.322811e+002
      vertex   -1.095355e+003 -4.898159e+002 4.324006e+002
      vertex   -1.095009e+003 -4.901623e+002 4.320542e+002
    endloop
  endfacet
  facet normal -6.412086e-001 1.171612e-001 -7.583698e-001
    outer loop
      vertex   -1.095009e+003 -4.901623e+002 4.320542e+002
      vertex   -1.095038e+003 -4.893083e+002 4.322106e+002
      vertex   -1.094691e+003 -4.896547e+002 4.318642e+002
    endloop
  endfacet
  facet normal -5.773503e-001 -7.886751e-001 2.113249e-001
    outer loop
      vertex   -1.054275e+003 -5.116008e+002 4.952658e+002
      vertex   -1.094690e+003 -4.968081e+002 4.400585e+002
      vertex   -1.053929e+003 -5.119472e+002 4.949193e+002
    endloop
  endfacet
  facet normal -5.773503e-001 -7.886751e-001 2.113249e-001
    outer loop
      vertex   -1.053929e+003 -5.119472e+002 4.949193e+002
      vertex   -1.094690e+003 -4.968081e+002 4.400585e+002
      vertex   -1.094343e+003 -4.971545e+002 4.397121e+002
    endloop
  endfacet
  facet normal 5.542385e-001 -2.421252e-001 7.963637e-001
    outer loop
      vertex   -1.045037e+003 -5.069820e+002 4.998846e+002
      vertex   -1.045414e+003 -5.074718e+002 4.999977e+002
      vertex   -1.044691e+003 -5.073284e+002 4.995381e+002
    endloop
  endfacet
  facet normal 5.542385e-001 -2.421252e-001 7.963637e-001
    outer loop
      vertex   -1.044691e+003 -5.073284e+002 4.995381e+002
      vertex   -1.045414e+003 -5.074718e+002 4.999977e+002
      vertex   -1.045068e+003 -5.078182e+002 4.996513e+002
    endloop
  endfacet
  facet normal 5.054881e-001 -3.025589e-001 8.080470e-001
    outer loop
      vertex   -1.045068e+003 -5.078182e+002 4.996513e+002
      vertex   -1.045414e+003 -5.074718e+002 4.999977e+002
      vertex   -1.045817e+003 -5.079482e+002 5.000713e+002
    endloop
  endfacet
  facet normal 4.536212e-001 -3.611272e-001 8.147484e-001
    outer loop
      vertex   -1.045470e+003 -5.082946e+002 4.997249e+002
      vertex   -1.045817e+003 -5.079482e+002 5.000713e+002
      vertex   -1.046243e+003 -5.084082e+002 5.001049e+002
    endloop
  endfacet
  facet normal 3.989576e-001 -4.174691e-001 8.164266e-001
    outer loop
      vertex   -1.045897e+003 -5.087546e+002 4.997585e+002
      vertex   -1.046243e+003 -5.084082e+002 5.001049e+002
      vertex   -1.046691e+003 -5.088490e+002 5.000982e+002
    endloop
  endfacet
  facet normal 3.418342e-001 -4.712371e-001 8.130713e-001
    outer loop
      vertex   -1.046344e+003 -5.091954e+002 4.997518e+002
      vertex   -1.046691e+003 -5.088490e+002 5.000982e+002
      vertex   -1.047157e+003 -5.092678e+002 5.000512e+002
    endloop
  endfacet
  facet normal 2.826034e-001 -5.220998e-001 8.047032e-001
    outer loop
      vertex   -1.046810e+003 -5.096142e+002 4.997048e+002
      vertex   -1.047157e+003 -5.092678e+002 5.000512e+002
      vertex   -1.047638e+003 -5.096621e+002 4.999644e+002
    endloop
  endfacet
  facet normal 2.216302e-001 -5.697435e-001 7.913737e-001
    outer loop
      vertex   -1.047291e+003 -5.100086e+002 4.996180e+002
      vertex   -1.047638e+003 -5.096621e+002 4.999644e+002
      vertex   -1.048131e+003 -5.100295e+002 4.998381e+002
    endloop
  endfacet
  facet normal 1.592906e-001 -6.138746e-001 7.731652e-001
    outer loop
      vertex   -1.047785e+003 -5.103759e+002 4.994917e+002
      vertex   -1.048131e+003 -5.100295e+002 4.998381e+002
      vertex   -1.048634e+003 -5.103677e+002 4.996733e+002
    endloop
  endfacet
  facet normal 9.596888e-002 -6.542210e-001 7.501899e-001
    outer loop
      vertex   -1.048288e+003 -5.107141e+002 4.993269e+002
      vertex   -1.048634e+003 -5.103677e+002 4.996733e+002
      vertex   -1.049144e+003 -5.106746e+002 4.994708e+002
    endloop
  endfacet
  facet normal 3.205551e-002 -6.905339e-001 7.225894e-001
    outer loop
      vertex   -1.048797e+003 -5.110210e+002 4.991244e+002
      vertex   -1.049144e+003 -5.106746e+002 4.994708e+002
      vertex   -1.049656e+003 -5.109483e+002 4.992320e+002
    endloop
  endfacet
  facet normal -3.205551e-002 -7.225894e-001 6.905339e-001
    outer loop
      vertex   -1.049310e+003 -5.112947e+002 4.988856e+002
      vertex   -1.049656e+003 -5.109483e+002 4.992320e+002
      vertex   -1.050169e+003 -5.111871e+002 4.989583e+002
    endloop
  endfacet
  facet normal -9.596888e-002 -7.501899e-001 6.542210e-001
    outer loop
      vertex   -1.049822e+003 -5.115335e+002 4.986119e+002
      vertex   -1.050169e+003 -5.111871e+002 4.989583e+002
      vertex   -1.050678e+003 -5.113895e+002 4.986514e+002
    endloop
  endfacet
  facet normal -1.592906e-001 -7.731652e-001 6.138746e-001
    outer loop
      vertex   -1.050332e+003 -5.117359e+002 4.983050e+002
      vertex   -1.050678e+003 -5.113895e+002 4.986514e+002
      vertex   -1.051181e+003 -5.115544e+002 4.983133e+002
    endloop
  endfacet
  facet normal -2.216302e-001 -7.913737e-001 5.697435e-001
    outer loop
      vertex   -1.050835e+003 -5.119008e+002 4.979669e+002
      vertex   -1.051181e+003 -5.115544e+002 4.983133e+002
      vertex   -1.051328e+003 -5.120270e+002 4.975995e+002
    endloop
  endfacet
  facet normal -1.592906e-001 -7.731652e-001 6.138746e-001
    outer loop
      vertex   -1.050835e+003 -5.119008e+002 4.979669e+002
      vertex   -1.050332e+003 -5.117359e+002 4.983050e+002
      vertex   -1.051181e+003 -5.115544e+002 4.983133e+002
    endloop
  endfacet
  facet normal 5.054881e-001 -3.025589e-001 8.080470e-001
    outer loop
      vertex   -1.045068e+003 -5.078182e+002 4.996513e+002
      vertex   -1.045817e+003 -5.079482e+002 5.000713e+002
      vertex   -1.045470e+003 -5.082946e+002 4.997249e+002
    endloop
  endfacet
  facet normal 4.536212e-001 -3.611272e-001 8.147484e-001
    outer loop
      vertex   -1.045470e+003 -5.082946e+002 4.997249e+002
      vertex   -1.046243e+003 -5.084082e+002 5.001049e+002
      vertex   -1.045897e+003 -5.087546e+002 4.997585e+002
    endloop
  endfacet
  facet normal 3.989576e-001 -4.174691e-001 8.164266e-001
    outer loop
      vertex   -1.045897e+003 -5.087546e+002 4.997585e+002
      vertex   -1.046691e+003 -5.088490e+002 5.000982e+002
      vertex   -1.046344e+003 -5.091954e+002 4.997518e+002
    endloop
  endfacet
  facet normal 3.418342e-001 -4.712371e-001 8.130713e-001
    outer loop
      vertex   -1.046344e+003 -5.091954e+002 4.997518e+002
      vertex   -1.047157e+003 -5.092678e+002 5.000512e+002
      vertex   -1.046810e+003 -5.096142e+002 4.997048e+002
    endloop
  endfacet
  facet normal 2.826034e-001 -5.220998e-001 8.047032e-001
    outer loop
      vertex   -1.046810e+003 -5.096142e+002 4.997048e+002
      vertex   -1.047638e+003 -5.096621e+002 4.999644e+002
      vertex   -1.047291e+003 -5.100086e+002 4.996180e+002
    endloop
  endfacet
  facet normal 2.216302e-001 -5.697435e-001 7.913737e-001
    outer loop
      vertex   -1.047291e+003 -5.100086e+002 4.996180e+002
      vertex   -1.048131e+003 -5.100295e+002 4.998381e+002
      vertex   -1.047785e+003 -5.103759e+002 4.994917e+002
    endloop
  endfacet
  facet normal 1.592906e-001 -6.138746e-001 7.731652e-001
    outer loop
      vertex   -1.047785e+003 -5.103759e+002 4.994917e+002
      vertex   -1.048634e+003 -5.103677e+002 4.996733e+002
      vertex   -1.048288e+003 -5.107141e+002 4.993269e+002
    endloop
  endfacet
  facet normal 9.596888e-002 -6.542210e-001 7.501899e-001
    outer loop
      vertex   -1.048288e+003 -5.107141e+002 4.993269e+002
      vertex   -1.049144e+003 -5.106746e+002 4.994708e+002
      vertex   -1.048797e+003 -5.110210e+002 4.991244e+002
    endloop
  endfacet
  facet normal 3.205551e-002 -6.905339e-001 7.225894e-001
    outer loop
      vertex   -1.048797e+003 -5.110210e+002 4.991244e+002
      vertex   -1.049656e+003 -5.109483e+002 4.992320e+002
      vertex   -1.049310e+003 -5.112947e+002 4.988856e+002
    endloop
  endfacet
  facet normal -3.205551e-002 -7.225894e-001 6.905339e-001
    outer loop
      vertex   -1.049310e+003 -5.112947e+002 4.988856e+002
      vertex   -1.050169e+003 -5.111871e+002 4.989583e+002
      vertex   -1.049822e+003 -5.115335e+002 4.986119e+002
    endloop
  endfacet
  facet normal -9.596888e-002 -7.501899e-001 6.542210e-001
    outer loop
      vertex   -1.049822e+003 -5.115335e+002 4.986119e+002
      vertex   -1.050678e+003 -5.113895e+002 4.986514e+002
      vertex   -1.050332e+003 -5.117359e+002 4.983050e+002
    endloop
  endfacet
  facet normal -2.216302e-001 -7.913737e-001 5.697435e-001
    outer loop
      vertex   -1.051181e+003 -5.115544e+002 4.983133e+002
      vertex   -1.051675e+003 -5.116806e+002 4.979459e+002
      vertex   -1.051328e+003 -5.120270e+002 4.975995e+002
    endloop
  endfacet
  facet normal -2.826034e-001 -8.047032e-001 5.220998e-001
    outer loop
      vertex   -1.051328e+003 -5.120270e+002 4.975995e+002
      vertex   -1.051675e+003 -5.116806e+002 4.979459e+002
      vertex   -1.052156e+003 -5.117675e+002 4.975516e+002
    endloop
  endfacet
  facet normal -3.418342e-001 -8.130713e-001 4.712371e-001
    outer loop
      vertex   -1.051810e+003 -5.121139e+002 4.972052e+002
      vertex   -1.052156e+003 -5.117675e+002 4.975516e+002
      vertex   -1.052622e+003 -5.118144e+002 4.971327e+002
    endloop
  endfacet
  facet normal -3.989576e-001 -8.164266e-001 4.174691e-001
    outer loop
      vertex   -1.052275e+003 -5.121608e+002 4.967863e+002
      vertex   -1.052622e+003 -5.118144e+002 4.971327e+002
      vertex   -1.053069e+003 -5.118211e+002 4.966919e+002
    endloop
  endfacet
  facet normal -4.536212e-001 -8.147484e-001 3.611272e-001
    outer loop
      vertex   -1.052723e+003 -5.121675e+002 4.963455e+002
      vertex   -1.053069e+003 -5.118211e+002 4.966919e+002
      vertex   -1.053496e+003 -5.117876e+002 4.962319e+002
    endloop
  endfacet
  facet normal -5.054881e-001 -8.080470e-001 3.025589e-001
    outer loop
      vertex   -1.053149e+003 -5.121340e+002 4.958855e+002
      vertex   -1.053496e+003 -5.117876e+002 4.962319e+002
      vertex   -1.053898e+003 -5.117140e+002 4.957556e+002
    endloop
  endfacet
  facet normal -5.542385e-001 -7.963637e-001 2.421252e-001
    outer loop
      vertex   -1.053552e+003 -5.120604e+002 4.954092e+002
      vertex   -1.053898e+003 -5.117140e+002 4.957556e+002
      vertex   -1.054275e+003 -5.116008e+002 4.952658e+002
    endloop
  endfacet
  facet normal -5.542385e-001 -7.963637e-001 2.421252e-001
    outer loop
      vertex   -1.053929e+003 -5.119472e+002 4.949193e+002
      vertex   -1.053552e+003 -5.120604e+002 4.954092e+002
      vertex   -1.054275e+003 -5.116008e+002 4.952658e+002
    endloop
  endfacet
  facet normal -2.826034e-001 -8.047032e-001 5.220998e-001
    outer loop
      vertex   -1.051328e+003 -5.120270e+002 4.975995e+002
      vertex   -1.052156e+003 -5.117675e+002 4.975516e+002
      vertex   -1.051810e+003 -5.121139e+002 4.972052e+002
    endloop
  endfacet
  facet normal -3.418342e-001 -8.130713e-001 4.712371e-001
    outer loop
      vertex   -1.051810e+003 -5.121139e+002 4.972052e+002
      vertex   -1.052622e+003 -5.118144e+002 4.971327e+002
      vertex   -1.052275e+003 -5.121608e+002 4.967863e+002
    endloop
  endfacet
  facet normal -3.989576e-001 -8.164266e-001 4.174691e-001
    outer loop
      vertex   -1.052275e+003 -5.121608e+002 4.967863e+002
      vertex   -1.053069e+003 -5.118211e+002 4.966919e+002
      vertex   -1.052723e+003 -5.121675e+002 4.963455e+002
    endloop
  endfacet
  facet normal -4.536212e-001 -8.147484e-001 3.611272e-001
    outer loop
      vertex   -1.052723e+003 -5.121675e+002 4.963455e+002
      vertex   -1.053496e+003 -5.117876e+002 4.962319e+002
      vertex   -1.053149e+003 -5.121340e+002 4.958855e+002
    endloop
  endfacet
  facet normal -5.054881e-001 -8.080470e-001 3.025589e-001
    outer loop
      vertex   -1.053149e+003 -5.121340e+002 4.958855e+002
      vertex   -1.053898e+003 -5.117140e+002 4.957556e+002
      vertex   -1.053552e+003 -5.120604e+002 4.954092e+002
    endloop
  endfacet
  facet normal 5.773503e-001 -2.113249e-001 7.886751e-001
    outer loop
      vertex   -1.004623e+003 -4.517747e+002 4.850918e+002
      vertex   -1.045037e+003 -5.069820e+002 4.998846e+002
      vertex   -1.004277e+003 -4.521211e+002 4.847454e+002
    endloop
  endfacet
  facet normal 5.773503e-001 -2.113249e-001 7.886751e-001
    outer loop
      vertex   -1.004277e+003 -4.521211e+002 4.847454e+002
      vertex   -1.045037e+003 -5.069820e+002 4.998846e+002
      vertex   -1.044691e+003 -5.073284e+002 4.995381e+002
    endloop
  endfacet
  facet normal 5.995718e-001 7.797705e-001 -1.801987e-001
    outer loop
      vertex   -1.004623e+003 -4.437747e+002 4.770918e+002
      vertex   -1.004275e+003 -4.439268e+002 4.775921e+002
      vertex   -1.004277e+003 -4.441211e+002 4.767454e+002
    endloop
  endfacet
  facet normal 5.995718e-001 7.797705e-001 -1.801987e-001
    outer loop
      vertex   -1.004277e+003 -4.441211e+002 4.767454e+002
      vertex   -1.004275e+003 -4.439268e+002 4.775921e+002
      vertex   -1.003928e+003 -4.442732e+002 4.772456e+002
    endloop
  endfacet
  facet normal 6.412086e-001 7.583698e-001 -1.171612e-001
    outer loop
      vertex   -1.003928e+003 -4.442732e+002 4.772456e+002
      vertex   -1.004275e+003 -4.439268e+002 4.775921e+002
      vertex   -1.003957e+003 -4.441169e+002 4.780996e+002
    endloop
  endfacet
  facet normal 6.788921e-001 7.322935e-001 -5.340143e-002
    outer loop
      vertex   -1.003611e+003 -4.444633e+002 4.777532e+002
      vertex   -1.003957e+003 -4.441169e+002 4.780996e+002
      vertex   -1.003672e+003 -4.443437e+002 4.786114e+002
    endloop
  endfacet
  facet normal 7.123900e-001 7.017024e-001 1.068761e-002
    outer loop
      vertex   -1.003326e+003 -4.446901e+002 4.782650e+002
      vertex   -1.003672e+003 -4.443437e+002 4.786114e+002
      vertex   -1.003422e+003 -4.446060e+002 4.791243e+002
    endloop
  endfacet
  facet normal 7.414958e-001 6.667850e-001 7.471076e-002
    outer loop
      vertex   -1.003075e+003 -4.449524e+002 4.787779e+002
      vertex   -1.003422e+003 -4.446060e+002 4.791243e+002
      vertex   -1.003207e+003 -4.449020e+002 4.796350e+002
    endloop
  endfacet
  facet normal 7.660300e-001 6.277567e-001 1.382733e-001
    outer loop
      vertex   -1.002861e+003 -4.452484e+002 4.792886e+002
      vertex   -1.003207e+003 -4.449020e+002 4.796350e+002
      vertex   -1.003029e+003 -4.452299e+002 4.801405e+002
    endloop
  endfacet
  facet normal 7.858414e-001 5.848581e-001 2.009833e-001
    outer loop
      vertex   -1.002683e+003 -4.455763e+002 4.797941e+002
      vertex   -1.003029e+003 -4.452299e+002 4.801405e+002
      vertex   -1.002890e+003 -4.455878e+002 4.806376e+002
    endloop
  endfacet
  facet normal 8.008078e-001 5.383536e-001 2.624542e-001
    outer loop
      vertex   -1.002544e+003 -4.459342e+002 4.802912e+002
      vertex   -1.002890e+003 -4.455878e+002 4.806376e+002
      vertex   -1.002790e+003 -4.459734e+002 4.811233e+002
    endloop
  endfacet
  facet normal 8.108370e-001 4.885300e-001 3.223070e-001
    outer loop
      vertex   -1.002444e+003 -4.463198e+002 4.807769e+002
      vertex   -1.002790e+003 -4.459734e+002 4.811233e+002
      vertex   -1.002730e+003 -4.463844e+002 4.815945e+002
    endloop
  endfacet
  facet normal 8.158671e-001 4.356944e-001 3.801727e-001
    outer loop
      vertex   -1.002384e+003 -4.467308e+002 4.812481e+002
      vertex   -1.002730e+003 -4.463844e+002 4.815945e+002
      vertex   -1.002710e+003 -4.468182e+002 4.820484e+002
    endloop
  endfacet
  facet normal 8.158671e-001 3.801727e-001 4.356944e-001
    outer loop
      vertex   -1.002363e+003 -4.471646e+002 4.817020e+002
      vertex   -1.002710e+003 -4.468182e+002 4.820484e+002
      vertex   -1.002730e+003 -4.472721e+002 4.824822e+002
    endloop
  endfacet
  facet normal 8.108370e-001 3.223070e-001 4.885300e-001
    outer loop
      vertex   -1.002384e+003 -4.476185e+002 4.821358e+002
      vertex   -1.002730e+003 -4.472721e+002 4.824822e+002
      vertex   -1.002790e+003 -4.477433e+002 4.828931e+002
    endloop
  endfacet
  facet normal 8.008078e-001 2.624542e-001 5.383536e-001
    outer loop
      vertex   -1.002444e+003 -4.480897e+002 4.825467e+002
      vertex   -1.002790e+003 -4.477433e+002 4.828931e+002
      vertex   -1.002890e+003 -4.482290e+002 4.832787e+002
    endloop
  endfacet
  facet normal 7.858414e-001 2.009833e-001 5.848581e-001
    outer loop
      vertex   -1.002544e+003 -4.485754e+002 4.829323e+002
      vertex   -1.002890e+003 -4.482290e+002 4.832787e+002
      vertex   -1.002683e+003 -4.490725e+002 4.832902e+002
    endloop
  endfacet
  facet normal 8.008078e-001 2.624542e-001 5.383536e-001
    outer loop
      vertex   -1.002544e+003 -4.485754e+002 4.829323e+002
      vertex   -1.002444e+003 -4.480897e+002 4.825467e+002
      vertex   -1.002890e+003 -4.482290e+002 4.832787e+002
    endloop
  endfacet
  facet normal 6.412086e-001 7.583698e-001 -1.171612e-001
    outer loop
      vertex   -1.003928e+003 -4.442732e+002 4.772456e+002
      vertex   -1.003957e+003 -4.441169e+002 4.780996e+002
      vertex   -1.003611e+003 -4.444633e+002 4.777532e+002
    endloop
  endfacet
  facet normal 6.788921e-001 7.322935e-001 -5.340143e-002
    outer loop
      vertex   -1.003611e+003 -4.444633e+002 4.777532e+002
      vertex   -1.003672e+003 -4.443437e+002 4.786114e+002
      vertex   -1.003326e+003 -4.446901e+002 4.782650e+002
    endloop
  endfacet
  facet normal 7.123900e-001 7.017024e-001 1.068761e-002
    outer loop
      vertex   -1.003326e+003 -4.446901e+002 4.782650e+002
      vertex   -1.003422e+003 -4.446060e+002 4.791243e+002
      vertex   -1.003075e+003 -4.449524e+002 4.787779e+002
    endloop
  endfacet
  facet normal 7.414958e-001 6.667850e-001 7.471076e-002
    outer loop
      vertex   -1.003075e+003 -4.449524e+002 4.787779e+002
      vertex   -1.003207e+003 -4.449020e+002 4.796350e+002
      vertex   -1.002861e+003 -4.452484e+002 4.792886e+002
    endloop
  endfacet
  facet normal 7.660300e-001 6.277567e-001 1.382733e-001
    outer loop
      vertex   -1.002861e+003 -4.452484e+002 4.792886e+002
      vertex   -1.003029e+003 -4.452299e+002 4.801405e+002
      vertex   -1.002683e+003 -4.455763e+002 4.797941e+002
    endloop
  endfacet
  facet normal 7.858414e-001 5.848581e-001 2.009833e-001
    outer loop
      vertex   -1.002683e+003 -4.455763e+002 4.797941e+002
      vertex   -1.002890e+003 -4.455878e+002 4.806376e+002
      vertex   -1.002544e+003 -4.459342e+002 4.802912e+002
    endloop
  endfacet
  facet normal 8.008078e-001 5.383536e-001 2.624542e-001
    outer loop
      vertex   -1.002544e+003 -4.459342e+002 4.802912e+002
      vertex   -1.002790e+003 -4.459734e+002 4.811233e+002
      vertex   -1.002444e+003 -4.463198e+002 4.807769e+002
    endloop
  endfacet
  facet normal 8.108370e-001 4.885300e-001 3.223070e-001
    outer loop
      vertex   -1.002444e+003 -4.463198e+002 4.807769e+002
      vertex   -1.002730e+003 -4.463844e+002 4.815945e+002
      vertex   -1.002384e+003 -4.467308e+002 4.812481e+002
    endloop
  endfacet
  facet normal 8.158671e-001 4.356944e-001 3.801727e-001
    outer loop
      vertex   -1.002384e+003 -4.467308e+002 4.812481e+002
      vertex   -1.002710e+003 -4.468182e+002 4.820484e+002
      vertex   -1.002363e+003 -4.471646e+002 4.817020e+002
    endloop
  endfacet
  facet normal 8.158671e-001 3.801727e-001 4.356944e-001
    outer loop
      vertex   -1.002363e+003 -4.471646e+002 4.817020e+002
      vertex   -1.002730e+003 -4.472721e+002 4.824822e+002
      vertex   -1.002384e+003 -4.476185e+002 4.821358e+002
    endloop
  endfacet
  facet normal 8.108370e-001 3.223070e-001 4.885300e-001
    outer loop
      vertex   -1.002384e+003 -4.476185e+002 4.821358e+002
      vertex   -1.002790e+003 -4.477433e+002 4.828931e+002
      vertex   -1.002444e+003 -4.480897e+002 4.825467e+002
    endloop
  endfacet
  facet normal 7.858414e-001 2.009833e-001 5.848581e-001
    outer loop
      vertex   -1.002890e+003 -4.482290e+002 4.832787e+002
      vertex   -1.003029e+003 -4.487261e+002 4.836366e+002
      vertex   -1.002683e+003 -4.490725e+002 4.832902e+002
    endloop
  endfacet
  facet normal 7.660300e-001 1.382733e-001 6.277567e-001
    outer loop
      vertex   -1.002683e+003 -4.490725e+002 4.832902e+002
      vertex   -1.003029e+003 -4.487261e+002 4.836366e+002
      vertex   -1.003207e+003 -4.492315e+002 4.839646e+002
    endloop
  endfacet
  facet normal 7.414958e-001 7.471076e-002 6.667850e-001
    outer loop
      vertex   -1.002861e+003 -4.495780e+002 4.836182e+002
      vertex   -1.003207e+003 -4.492315e+002 4.839646e+002
      vertex   -1.003422e+003 -4.497423e+002 4.842606e+002
    endloop
  endfacet
  facet normal 7.123900e-001 1.068761e-002 7.017024e-001
    outer loop
      vertex   -1.003075e+003 -4.500887e+002 4.839142e+002
      vertex   -1.003422e+003 -4.497423e+002 4.842606e+002
      vertex   -1.003672e+003 -4.502551e+002 4.845228e+002
    endloop
  endfacet
  facet normal 6.788921e-001 -5.340143e-002 7.322935e-001
    outer loop
      vertex   -1.003326e+003 -4.506015e+002 4.841764e+002
      vertex   -1.003672e+003 -4.502551e+002 4.845228e+002
      vertex   -1.003957e+003 -4.507669e+002 4.847497e+002
    endloop
  endfacet
  facet normal 6.412086e-001 -1.171612e-001 7.583698e-001
    outer loop
      vertex   -1.003611e+003 -4.511133e+002 4.844033e+002
      vertex   -1.003957e+003 -4.507669e+002 4.847497e+002
      vertex   -1.004275e+003 -4.512745e+002 4.849397e+002
    endloop
  endfacet
  facet normal 5.995718e-001 -1.801987e-001 7.797705e-001
    outer loop
      vertex   -1.003928e+003 -4.516209e+002 4.845933e+002
      vertex   -1.004275e+003 -4.512745e+002 4.849397e+002
      vertex   -1.004623e+003 -4.517747e+002 4.850918e+002
    endloop
  endfacet
  facet normal 5.995718e-001 -1.801987e-001 7.797705e-001
    outer loop
      vertex   -1.004277e+003 -4.521211e+002 4.847454e+002
      vertex   -1.003928e+003 -4.516209e+002 4.845933e+002
      vertex   -1.004623e+003 -4.517747e+002 4.850918e+002
    endloop
  endfacet
  facet normal 7.660300e-001 1.382733e-001 6.277567e-001
    outer loop
      vertex   -1.002683e+003 -4.490725e+002 4.832902e+002
      vertex   -1.003207e+003 -4.492315e+002 4.839646e+002
      vertex   -1.002861e+003 -4.495780e+002 4.836182e+002
    endloop
  endfacet
  facet normal 7.414958e-001 7.471076e-002 6.667850e-001
    outer loop
      vertex   -1.002861e+003 -4.495780e+002 4.836182e+002
      vertex   -1.003422e+003 -4.497423e+002 4.842606e+002
      vertex   -1.003075e+003 -4.500887e+002 4.839142e+002
    endloop
  endfacet
  facet normal 7.123900e-001 1.068761e-002 7.017024e-001
    outer loop
      vertex   -1.003075e+003 -4.500887e+002 4.839142e+002
      vertex   -1.003672e+003 -4.502551e+002 4.845228e+002
      vertex   -1.003326e+003 -4.506015e+002 4.841764e+002
    endloop
  endfacet
  facet normal 6.788921e-001 -5.340143e-002 7.322935e-001
    outer loop
      vertex   -1.003326e+003 -4.506015e+002 4.841764e+002
      vertex   -1.003957e+003 -4.507669e+002 4.847497e+002
      vertex   -1.003611e+003 -4.511133e+002 4.844033e+002
    endloop
  endfacet
  facet normal 6.412086e-001 -1.171612e-001 7.583698e-001
    outer loop
      vertex   -1.003611e+003 -4.511133e+002 4.844033e+002
      vertex   -1.004275e+003 -4.512745e+002 4.849397e+002
      vertex   -1.003928e+003 -4.516209e+002 4.845933e+002
    endloop
  endfacet
  facet normal 5.773503e-001 7.886751e-001 -2.113249e-001
    outer loop
      vertex   -1.045037e+003 -4.289820e+002 4.218846e+002
      vertex   -1.004623e+003 -4.437747e+002 4.770918e+002
      vertex   -1.044691e+003 -4.293284e+002 4.215381e+002
    endloop
  endfacet
  facet normal 5.773503e-001 7.886751e-001 -2.113249e-001
    outer loop
      vertex   -1.044691e+003 -4.293284e+002 4.215381e+002
      vertex   -1.004623e+003 -4.437747e+002 4.770918e+002
      vertex   -1.004277e+003 -4.441211e+002 4.767454e+002
    endloop
  endfacet
  facet normal -5.542385e-001 2.421252e-001 -7.963637e-001
    outer loop
      vertex   -1.054275e+003 -4.336008e+002 4.172658e+002
      vertex   -1.053898e+003 -4.331110e+002 4.171526e+002
      vertex   -1.053929e+003 -4.339472e+002 4.169193e+002
    endloop
  endfacet
  facet normal -5.542385e-001 2.421252e-001 -7.963637e-001
    outer loop
      vertex   -1.053929e+003 -4.339472e+002 4.169193e+002
      vertex   -1.053898e+003 -4.331110e+002 4.171526e+002
      vertex   -1.053552e+003 -4.334574e+002 4.168061e+002
    endloop
  endfacet
  facet normal -5.054881e-001 3.025589e-001 -8.080470e-001
    outer loop
      vertex   -1.053552e+003 -4.334574e+002 4.168061e+002
      vertex   -1.053898e+003 -4.331110e+002 4.171526e+002
      vertex   -1.053496e+003 -4.326346e+002 4.170790e+002
    endloop
  endfacet
  facet normal -4.536212e-001 3.611272e-001 -8.147484e-001
    outer loop
      vertex   -1.053149e+003 -4.329810e+002 4.167326e+002
      vertex   -1.053496e+003 -4.326346e+002 4.170790e+002
      vertex   -1.053069e+003 -4.321746e+002 4.170454e+002
    endloop
  endfacet
  facet normal -3.989576e-001 4.174691e-001 -8.164266e-001
    outer loop
      vertex   -1.052723e+003 -4.325210e+002 4.166990e+002
      vertex   -1.053069e+003 -4.321746e+002 4.170454e+002
      vertex   -1.052622e+003 -4.317338e+002 4.170521e+002
    endloop
  endfacet
  facet normal -3.418342e-001 4.712371e-001 -8.130713e-001
    outer loop
      vertex   -1.052275e+003 -4.320802e+002 4.167057e+002
      vertex   -1.052622e+003 -4.317338e+002 4.170521e+002
      vertex   -1.052156e+003 -4.313150e+002 4.170991e+002
    endloop
  endfacet
  facet normal -2.826034e-001 5.220998e-001 -8.047032e-001
    outer loop
      vertex   -1.051810e+003 -4.316614e+002 4.167527e+002
      vertex   -1.052156e+003 -4.313150e+002 4.170991e+002
      vertex   -1.051675e+003 -4.309207e+002 4.171859e+002
    endloop
  endfacet
  facet normal -2.216302e-001 5.697435e-001 -7.913737e-001
    outer loop
      vertex   -1.051328e+003 -4.312671e+002 4.168395e+002
      vertex   -1.051675e+003 -4.309207e+002 4.171859e+002
      vertex   -1.051181e+003 -4.305533e+002 4.173122e+002
    endloop
  endfacet
  facet normal -1.592906e-001 6.138746e-001 -7.731652e-001
    outer loop
      vertex   -1.050835e+003 -4.308997e+002 4.169658e+002
      vertex   -1.051181e+003 -4.305533e+002 4.173122e+002
      vertex   -1.050678e+003 -4.302151e+002 4.174770e+002
    endloop
  endfacet
  facet normal -9.596888e-002 6.542210e-001 -7.501899e-001
    outer loop
      vertex   -1.050332e+003 -4.305615e+002 4.171306e+002
      vertex   -1.050678e+003 -4.302151e+002 4.174770e+002
      vertex   -1.050169e+003 -4.299082e+002 4.176795e+002
    endloop
  endfacet
  facet normal -3.205551e-002 6.905339e-001 -7.225894e-001
    outer loop
      vertex   -1.049822e+003 -4.302546e+002 4.173331e+002
      vertex   -1.050169e+003 -4.299082e+002 4.176795e+002
      vertex   -1.049656e+003 -4.296345e+002 4.179183e+002
    endloop
  endfacet
  facet normal 3.205551e-002 7.225894e-001 -6.905339e-001
    outer loop
      vertex   -1.049310e+003 -4.299810e+002 4.175719e+002
      vertex   -1.049656e+003 -4.296345e+002 4.179183e+002
      vertex   -1.049144e+003 -4.293957e+002 4.181920e+002
    endloop
  endfacet
  facet normal 9.596888e-002 7.501899e-001 -6.542210e-001
    outer loop
      vertex   -1.048797e+003 -4.297421e+002 4.178456e+002
      vertex   -1.049144e+003 -4.293957e+002 4.181920e+002
      vertex   -1.048634e+003 -4.291933e+002 4.184989e+002
    endloop
  endfacet
  facet normal 1.592906e-001 7.731652e-001 -6.138746e-001
    outer loop
      vertex   -1.048288e+003 -4.295397e+002 4.181524e+002
      vertex   -1.048634e+003 -4.291933e+002 4.184989e+002
      vertex   -1.048131e+003 -4.290284e+002 4.188370e+002
    endloop
  endfacet
  facet normal 2.216302e-001 7.913737e-001 -5.697435e-001
    outer loop
      vertex   -1.047785e+003 -4.293748e+002 4.184906e+002
      vertex   -1.048131e+003 -4.290284e+002 4.188370e+002
      vertex   -1.047291e+003 -4.292486e+002 4.188580e+002
    endloop
  endfacet
  facet normal 1.592906e-001 7.731652e-001 -6.138746e-001
    outer loop
      vertex   -1.047785e+003 -4.293748e+002 4.184906e+002
      vertex   -1.048288e+003 -4.295397e+002 4.181524e+002
      vertex   -1.048131e+003 -4.290284e+002 4.188370e+002
    endloop
  endfacet
  facet normal -5.054881e-001 3.025589e-001 -8.080470e-001
    outer loop
      vertex   -1.053552e+003 -4.334574e+002 4.168061e+002
      vertex   -1.053496e+003 -4.326346e+002 4.170790e+002
      vertex   -1.053149e+003 -4.329810e+002 4.167326e+002
    endloop
  endfacet
  facet normal -4.536212e-001 3.611272e-001 -8.147484e-001
    outer loop
      vertex   -1.053149e+003 -4.329810e+002 4.167326e+002
      vertex   -1.053069e+003 -4.321746e+002 4.170454e+002
      vertex   -1.052723e+003 -4.325210e+002 4.166990e+002
    endloop
  endfacet
  facet normal -3.989576e-001 4.174691e-001 -8.164266e-001
    outer loop
      vertex   -1.052723e+003 -4.325210e+002 4.166990e+002
      vertex   -1.052622e+003 -4.317338e+002 4.170521e+002
      vertex   -1.052275e+003 -4.320802e+002 4.167057e+002
    endloop
  endfacet
  facet normal -3.418342e-001 4.712371e-001 -8.130713e-001
    outer loop
      vertex   -1.052275e+003 -4.320802e+002 4.167057e+002
      vertex   -1.052156e+003 -4.313150e+002 4.170991e+002
      vertex   -1.051810e+003 -4.316614e+002 4.167527e+002
    endloop
  endfacet
  facet normal -2.826034e-001 5.220998e-001 -8.047032e-001
    outer loop
      vertex   -1.051810e+003 -4.316614e+002 4.167527e+002
      vertex   -1.051675e+003 -4.309207e+002 4.171859e+002
      vertex   -1.051328e+003 -4.312671e+002 4.168395e+002
    endloop
  endfacet
  facet normal -2.216302e-001 5.697435e-001 -7.913737e-001
    outer loop
      vertex   -1.051328e+003 -4.312671e+002 4.168395e+002
      vertex   -1.051181e+003 -4.305533e+002 4.173122e+002
      vertex   -1.050835e+003 -4.308997e+002 4.169658e+002
    endloop
  endfacet
  facet normal -1.592906e-001 6.138746e-001 -7.731652e-001
    outer loop
      vertex   -1.050835e+003 -4.308997e+002 4.169658e+002
      vertex   -1.050678e+003 -4.302151e+002 4.174770e+002
      vertex   -1.050332e+003 -4.305615e+002 4.171306e+002
    endloop
  endfacet
  facet normal -9.596888e-002 6.542210e-001 -7.501899e-001
    outer loop
      vertex   -1.050332e+003 -4.305615e+002 4.171306e+002
      vertex   -1.050169e+003 -4.299082e+002 4.176795e+002
      vertex   -1.049822e+003 -4.302546e+002 4.173331e+002
    endloop
  endfacet
  facet normal -3.205551e-002 6.905339e-001 -7.225894e-001
    outer loop
      vertex   -1.049822e+003 -4.302546e+002 4.173331e+002
      vertex   -1.049656e+003 -4.296345e+002 4.179183e+002
      vertex   -1.049310e+003 -4.299810e+002 4.175719e+002
    endloop
  endfacet
  facet normal 3.205551e-002 7.225894e-001 -6.905339e-001
    outer loop
      vertex   -1.049310e+003 -4.299810e+002 4.175719e+002
      vertex   -1.049144e+003 -4.293957e+002 4.181920e+002
      vertex   -1.048797e+003 -4.297421e+002 4.178456e+002
    endloop
  endfacet
  facet normal 9.596888e-002 7.501899e-001 -6.542210e-001
    outer loop
      vertex   -1.048797e+003 -4.297421e+002 4.178456e+002
      vertex   -1.048634e+003 -4.291933e+002 4.184989e+002
      vertex   -1.048288e+003 -4.295397e+002 4.181524e+002
    endloop
  endfacet
  facet normal 2.216302e-001 7.913737e-001 -5.697435e-001
    outer loop
      vertex   -1.048131e+003 -4.290284e+002 4.188370e+002
      vertex   -1.047638e+003 -4.289022e+002 4.192044e+002
      vertex   -1.047291e+003 -4.292486e+002 4.188580e+002
    endloop
  endfacet
  facet normal 2.826034e-001 8.047032e-001 -5.220998e-001
    outer loop
      vertex   -1.047291e+003 -4.292486e+002 4.188580e+002
      vertex   -1.047638e+003 -4.289022e+002 4.192044e+002
      vertex   -1.047157e+003 -4.288153e+002 4.195987e+002
    endloop
  endfacet
  facet normal 3.418342e-001 8.130713e-001 -4.712371e-001
    outer loop
      vertex   -1.046810e+003 -4.291617e+002 4.192523e+002
      vertex   -1.047157e+003 -4.288153e+002 4.195987e+002
      vertex   -1.046691e+003 -4.287684e+002 4.200176e+002
    endloop
  endfacet
  facet normal 3.989576e-001 8.164266e-001 -4.174691e-001
    outer loop
      vertex   -1.046344e+003 -4.291148e+002 4.196712e+002
      vertex   -1.046691e+003 -4.287684e+002 4.200176e+002
      vertex   -1.046243e+003 -4.287617e+002 4.204584e+002
    endloop
  endfacet
  facet normal 4.536212e-001 8.147484e-001 -3.611272e-001
    outer loop
      vertex   -1.045897e+003 -4.291081e+002 4.201120e+002
      vertex   -1.046243e+003 -4.287617e+002 4.204584e+002
      vertex   -1.045817e+003 -4.287952e+002 4.209184e+002
    endloop
  endfacet
  facet normal 5.054881e-001 8.080470e-001 -3.025589e-001
    outer loop
      vertex   -1.045470e+003 -4.291416e+002 4.205719e+002
      vertex   -1.045817e+003 -4.287952e+002 4.209184e+002
      vertex   -1.045414e+003 -4.288688e+002 4.213947e+002
    endloop
  endfacet
  facet normal 5.542385e-001 7.963637e-001 -2.421252e-001
    outer loop
      vertex   -1.045068e+003 -4.292152e+002 4.210483e+002
      vertex   -1.045414e+003 -4.288688e+002 4.213947e+002
      vertex   -1.045037e+003 -4.289820e+002 4.218846e+002
    endloop
  endfacet
  facet normal 5.542385e-001 7.963637e-001 -2.421252e-001
    outer loop
      vertex   -1.044691e+003 -4.293284e+002 4.215381e+002
      vertex   -1.045068e+003 -4.292152e+002 4.210483e+002
      vertex   -1.045037e+003 -4.289820e+002 4.218846e+002
    endloop
  endfacet
  facet normal 2.826034e-001 8.047032e-001 -5.220998e-001
    outer loop
      vertex   -1.047291e+003 -4.292486e+002 4.188580e+002
      vertex   -1.047157e+003 -4.288153e+002 4.195987e+002
      vertex   -1.046810e+003 -4.291617e+002 4.192523e+002
    endloop
  endfacet
  facet normal 3.418342e-001 8.130713e-001 -4.712371e-001
    outer loop
      vertex   -1.046810e+003 -4.291617e+002 4.192523e+002
      vertex   -1.046691e+003 -4.287684e+002 4.200176e+002
      vertex   -1.046344e+003 -4.291148e+002 4.196712e+002
    endloop
  endfacet
  facet normal 3.989576e-001 8.164266e-001 -4.174691e-001
    outer loop
      vertex   -1.046344e+003 -4.291148e+002 4.196712e+002
      vertex   -1.046243e+003 -4.287617e+002 4.204584e+002
      vertex   -1.045897e+003 -4.291081e+002 4.201120e+002
    endloop
  endfacet
  facet normal 4.536212e-001 8.147484e-001 -3.611272e-001
    outer loop
      vertex   -1.045897e+003 -4.291081e+002 4.201120e+002
      vertex   -1.045817e+003 -4.287952e+002 4.209184e+002
      vertex   -1.045470e+003 -4.291416e+002 4.205719e+002
    endloop
  endfacet
  facet normal 5.054881e-001 8.080470e-001 -3.025589e-001
    outer loop
      vertex   -1.045470e+003 -4.291416e+002 4.205719e+002
      vertex   -1.045414e+003 -4.288688e+002 4.213947e+002
      vertex   -1.045068e+003 -4.292152e+002 4.210483e+002
    endloop
  endfacet
  facet normal 5.773503e-001 -5.773503e-001 -5.773503e-001
    outer loop
      vertex   -1.053552e+003 -4.334574e+002 4.168061e+002
      vertex   -1.053149e+003 -4.329810e+002 4.167326e+002
      vertex   -1.053929e+003 -4.339472e+002 4.169193e+002
    endloop
  endfacet
  facet normal 5.773503e-001 -5.773503e-001 -5.773503e-001
    outer loop
      vertex   -1.053929e+003 -4.339472e+002 4.169193e+002
      vertex   -1.053149e+003 -4.329810e+002 4.167326e+002
      vertex   -1.052723e+003 -4.325210e+002 4.166990e+002
    endloop
  endfacet
  facet normal 5.773503e-001 -5.773503e-001 -5.773503e-001
    outer loop
      vertex   -1.052275e+003 -4.320802e+002 4.167057e+002
      vertex   -1.053929e+003 -4.339472e+002 4.169193e+002
      vertex   -1.052723e+003 -4.325210e+002 4.166990e+002
    endloop
  endfacet
  facet normal 5.773503e-001 -5.773503e-001 -5.773503e-001
    outer loop
      vertex   -1.052275e+003 -4.320802e+002 4.167057e+002
      vertex   -1.051810e+003 -4.316614e+002 4.167527e+002
      vertex   -1.053929e+003 -4.339472e+002 4.169193e+002
    endloop
  endfacet
  facet normal 5.773503e-001 -5.773503e-001 -5.773503e-001
    outer loop
      vertex   -1.053929e+003 -4.339472e+002 4.169193e+002
      vertex   -1.051810e+003 -4.316614e+002 4.167527e+002
      vertex   -1.051328e+003 -4.312671e+002 4.168395e+002
    endloop
  endfacet
  facet normal 5.773503e-001 -5.773503e-001 -5.773503e-001
    outer loop
      vertex   -1.050835e+003 -4.308997e+002 4.169658e+002
      vertex   -1.053929e+003 -4.339472e+002 4.169193e+002
      vertex   -1.051328e+003 -4.312671e+002 4.168395e+002
    endloop
  endfacet
  facet normal 5.773503e-001 -5.773503e-001 -5.773503e-001
    outer loop
      vertex   -1.050835e+003 -4.308997e+002 4.169658e+002
      vertex   -1.050332e+003 -4.305615e+002 4.171306e+002
      vertex   -1.053929e+003 -4.339472e+002 4.169193e+002
    endloop
  endfacet
  facet normal 5.773503e-001 -5.773503e-001 -5.773503e-001
    outer loop
      vertex   -1.053929e+003 -4.339472e+002 4.169193e+002
      vertex   -1.050332e+003 -4.305615e+002 4.171306e+002
      vertex   -1.049822e+003 -4.302546e+002 4.173331e+002
    endloop
  endfacet
  facet normal 5.773503e-001 -5.773503e-001 -5.773503e-001
    outer loop
      vertex   -1.049310e+003 -4.299810e+002 4.175719e+002
      vertex   -1.053929e+003 -4.339472e+002 4.169193e+002
      vertex   -1.049822e+003 -4.302546e+002 4.173331e+002
    endloop
  endfacet
  facet normal 5.773503e-001 -5.773503e-001 -5.773503e-001
    outer loop
      vertex   -1.049310e+003 -4.299810e+002 4.175719e+002
      vertex   -1.048797e+003 -4.297421e+002 4.178456e+002
      vertex   -1.053929e+003 -4.339472e+002 4.169193e+002
    endloop
  endfacet
  facet normal 5.773503e-001 -5.773503e-001 -5.773503e-001
    outer loop
      vertex   -1.053929e+003 -4.339472e+002 4.169193e+002
      vertex   -1.048797e+003 -4.297421e+002 4.178456e+002
      vertex   -1.048288e+003 -4.295397e+002 4.181524e+002
    endloop
  endfacet
  facet normal 5.773503e-001 -5.773503e-001 -5.773503e-001
    outer loop
      vertex   -1.047785e+003 -4.293748e+002 4.184906e+002
      vertex   -1.053929e+003 -4.339472e+002 4.169193e+002
      vertex   -1.048288e+003 -4.295397e+002 4.181524e+002
    endloop
  endfacet
  facet normal 5.773503e-001 -5.773503e-001 -5.773503e-001
    outer loop
      vertex   -1.047785e+003 -4.293748e+002 4.184906e+002
      vertex   -1.047291e+003 -4.292486e+002 4.188580e+002
      vertex   -1.053929e+003 -4.339472e+002 4.169193e+002
    endloop
  endfacet
  facet normal 5.773503e-001 -5.773503e-001 -5.773503e-001
    outer loop
      vertex   -1.053929e+003 -4.339472e+002 4.169193e+002
      vertex   -1.047291e+003 -4.292486e+002 4.188580e+002
      vertex   -1.046810e+003 -4.291617e+002 4.192523e+002
    endloop
  endfacet
  facet normal 5.773503e-001 -5.773503e-001 -5.773503e-001
    outer loop
      vertex   -1.046344e+003 -4.291148e+002 4.196712e+002
      vertex   -1.053929e+003 -4.339472e+002 4.169193e+002
      vertex   -1.046810e+003 -4.291617e+002 4.192523e+002
    endloop
  endfacet
  facet normal 5.773503e-001 -5.773503e-001 -5.773503e-001
    outer loop
      vertex   -1.046344e+003 -4.291148e+002 4.196712e+002
      vertex   -1.045897e+003 -4.291081e+002 4.201120e+002
      vertex   -1.053929e+003 -4.339472e+002 4.169193e+002
    endloop
  endfacet
  facet normal 5.773503e-001 -5.773503e-001 -5.773503e-001
    outer loop
      vertex   -1.053929e+003 -4.339472e+002 4.169193e+002
      vertex   -1.045897e+003 -4.291081e+002 4.201120e+002
      vertex   -1.045470e+003 -4.291416e+002 4.205719e+002
    endloop
  endfacet
  facet normal 5.773503e-001 -5.773503e-001 -5.773503e-001
    outer loop
      vertex   -1.045068e+003 -4.292152e+002 4.210483e+002
      vertex   -1.053929e+003 -4.339472e+002 4.169193e+002
      vertex   -1.045470e+003 -4.291416e+002 4.205719e+002
    endloop
  endfacet
  facet normal 5.773503e-001 -5.773503e-001 -5.773503e-001
    outer loop
      vertex   -1.045068e+003 -4.292152e+002 4.210483e+002
      vertex   -1.044691e+003 -4.293284e+002 4.215381e+002
      vertex   -1.053929e+003 -4.339472e+002 4.169193e+002
    endloop
  endfacet
  facet normal 5.773503e-001 -5.773503e-001 -5.773503e-001
    outer loop
      vertex   -1.053929e+003 -4.339472e+002 4.169193e+002
      vertex   -1.044691e+003 -4.293284e+002 4.215381e+002
      vertex   -1.004277e+003 -4.441211e+002 4.767454e+002
    endloop
  endfacet
  facet normal 5.773503e-001 -5.773503e-001 -5.773503e-001
    outer loop
      vertex   -1.094343e+003 -4.891545e+002 4.317121e+002
      vertex   -1.004277e+003 -4.441211e+002 4.767454e+002
      vertex   -1.004277e+003 -4.521211e+002 4.847454e+002
    endloop
  endfacet
  facet normal 5.773503e-001 -5.773503e-001 -5.773503e-001
    outer loop
      vertex   -1.094343e+003 -4.971545e+002 4.397121e+002
      vertex   -1.004277e+003 -4.521211e+002 4.847454e+002
      vertex   -1.044691e+003 -5.073284e+002 4.995381e+002
    endloop
  endfacet
  facet normal 5.773503e-001 -5.773503e-001 -5.773503e-001
    outer loop
      vertex   -1.053929e+003 -5.119472e+002 4.949193e+002
      vertex   -1.044691e+003 -5.073284e+002 4.995381e+002
      vertex   -1.045068e+003 -5.078182e+002 4.996513e+002
    endloop
  endfacet
  facet normal 5.773503e-001 -5.773503e-001 -5.773503e-001
    outer loop
      vertex   -1.045470e+003 -5.082946e+002 4.997249e+002
      vertex   -1.053929e+003 -5.119472e+002 4.949193e+002
      vertex   -1.045068e+003 -5.078182e+002 4.996513e+002
    endloop
  endfacet
  facet normal 5.773503e-001 -5.773503e-001 -5.773503e-001
    outer loop
      vertex   -1.045470e+003 -5.082946e+002 4.997249e+002
      vertex   -1.045897e+003 -5.087546e+002 4.997585e+002
      vertex   -1.053929e+003 -5.119472e+002 4.949193e+002
    endloop
  endfacet
  facet normal 5.773503e-001 -5.773503e-001 -5.773503e-001
    outer loop
      vertex   -1.053929e+003 -5.119472e+002 4.949193e+002
      vertex   -1.045897e+003 -5.087546e+002 4.997585e+002
      vertex   -1.046344e+003 -5.091954e+002 4.997518e+002
    endloop
  endfacet
  facet normal 5.773503e-001 -5.773503e-001 -5.773503e-001
    outer loop
      vertex   -1.046810e+003 -5.096142e+002 4.997048e+002
      vertex   -1.053929e+003 -5.119472e+002 4.949193e+002
      vertex   -1.046344e+003 -5.091954e+002 4.997518e+002
    endloop
  endfacet
  facet normal 5.773503e-001 -5.773503e-001 -5.773503e-001
    outer loop
      vertex   -1.046810e+003 -5.096142e+002 4.997048e+002
      vertex   -1.047291e+003 -5.100086e+002 4.996180e+002
      vertex   -1.053929e+003 -5.119472e+002 4.949193e+002
    endloop
  endfacet
  facet normal 5.773503e-001 -5.773503e-001 -5.773503e-001
    outer loop
      vertex   -1.053929e+003 -5.119472e+002 4.949193e+002
      vertex   -1.047291e+003 -5.100086e+002 4.996180e+002
      vertex   -1.047785e+003 -5.103759e+002 4.994917e+002
    endloop
  endfacet
  facet normal 5.773503e-001 -5.773503e-001 -5.773503e-001
    outer loop
      vertex   -1.048288e+003 -5.107141e+002 4.993269e+002
      vertex   -1.053929e+003 -5.119472e+002 4.949193e+002
      vertex   -1.047785e+003 -5.103759e+002 4.994917e+002
    endloop
  endfacet
  facet normal 5.773503e-001 -5.773503e-001 -5.773503e-001
    outer loop
      vertex   -1.048288e+003 -5.107141e+002 4.993269e+002
      vertex   -1.048797e+003 -5.110210e+002 4.991244e+002
      vertex   -1.053929e+003 -5.119472e+002 4.949193e+002
    endloop
  endfacet
  facet normal 5.773503e-001 -5.773503e-001 -5.773503e-001
    outer loop
      vertex   -1.053929e+003 -5.119472e+002 4.949193e+002
      vertex   -1.048797e+003 -5.110210e+002 4.991244e+002
      vertex   -1.049310e+003 -5.112947e+002 4.988856e+002
    endloop
  endfacet
  facet normal 5.773503e-001 -5.773503e-001 -5.773503e-001
    outer loop
      vertex   -1.049822e+003 -5.115335e+002 4.986119e+002
      vertex   -1.053929e+003 -5.119472e+002 4.949193e+002
      vertex   -1.049310e+003 -5.112947e+002 4.988856e+002
    endloop
  endfacet
  facet normal 5.773503e-001 -5.773503e-001 -5.773503e-001
    outer loop
      vertex   -1.049822e+003 -5.115335e+002 4.986119e+002
      vertex   -1.050332e+003 -5.117359e+002 4.983050e+002
      vertex   -1.053929e+003 -5.119472e+002 4.949193e+002
    endloop
  endfacet
  facet normal 5.773503e-001 -5.773503e-001 -5.773503e-001
    outer loop
      vertex   -1.053929e+003 -5.119472e+002 4.949193e+002
      vertex   -1.050332e+003 -5.117359e+002 4.983050e+002
      vertex   -1.050835e+003 -5.119008e+002 4.979669e+002
    endloop
  endfacet
  facet normal 5.773503e-001 -5.773503e-001 -5.773503e-001
    outer loop
      vertex   -1.051328e+003 -5.120270e+002 4.975995e+002
      vertex   -1.053929e+003 -5.119472e+002 4.949193e+002
      vertex   -1.050835e+003 -5.119008e+002 4.979669e+002
    endloop
  endfacet
  facet normal 5.773503e-001 -5.773503e-001 -5.773503e-001
    outer loop
      vertex   -1.051328e+003 -5.120270e+002 4.975995e+002
      vertex   -1.051810e+003 -5.121139e+002 4.972052e+002
      vertex   -1.053929e+003 -5.119472e+002 4.949193e+002
    endloop
  endfacet
  facet normal 5.773503e-001 -5.773503e-001 -5.773503e-001
    outer loop
      vertex   -1.053929e+003 -5.119472e+002 4.949193e+002
      vertex   -1.051810e+003 -5.121139e+002 4.972052e+002
      vertex   -1.052275e+003 -5.121608e+002 4.967863e+002
    endloop
  endfacet
  facet normal 5.773503e-001 -5.773503e-001 -5.773503e-001
    outer loop
      vertex   -1.052723e+003 -5.121675e+002 4.963455e+002
      vertex   -1.053929e+003 -5.119472e+002 4.949193e+002
      vertex   -1.052275e+003 -5.121608e+002 4.967863e+002
    endloop
  endfacet
  facet normal 5.773503e-001 -5.773503e-001 -5.773503e-001
    outer loop
      vertex   -1.052723e+003 -5.121675e+002 4.963455e+002
      vertex   -1.053149e+003 -5.121340e+002 4.958855e+002
      vertex   -1.053929e+003 -5.119472e+002 4.949193e+002
    endloop
  endfacet
  facet normal 5.773503e-001 -5.773503e-001 -5.773503e-001
    outer loop
      vertex   -1.053929e+003 -5.119472e+002 4.949193e+002
      vertex   -1.053149e+003 -5.121340e+002 4.958855e+002
      vertex   -1.053552e+003 -5.120604e+002 4.954092e+002
    endloop
  endfacet
  facet normal 5.773503e-001 -5.773503e-001 -5.773503e-001
    outer loop
      vertex   -1.004277e+003 -4.441211e+002 4.767454e+002
      vertex   -1.003928e+003 -4.442732e+002 4.772456e+002
      vertex   -1.004277e+003 -4.521211e+002 4.847454e+002
    endloop
  endfacet
  facet normal 5.773503e-001 -5.773503e-001 -5.773503e-001
    outer loop
      vertex   -1.004277e+003 -4.521211e+002 4.847454e+002
      vertex   -1.003928e+003 -4.442732e+002 4.772456e+002
      vertex   -1.003611e+003 -4.444633e+002 4.777532e+002
    endloop
  endfacet
  facet normal 5.773503e-001 -5.773503e-001 -5.773503e-001
    outer loop
      vertex   -1.003326e+003 -4.446901e+002 4.782650e+002
      vertex   -1.004277e+003 -4.521211e+002 4.847454e+002
      vertex   -1.003611e+003 -4.444633e+002 4.777532e+002
    endloop
  endfacet
  facet normal 5.773503e-001 -5.773503e-001 -5.773503e-001
    outer loop
      vertex   -1.003326e+003 -4.446901e+002 4.782650e+002
      vertex   -1.003075e+003 -4.449524e+002 4.787779e+002
      vertex   -1.004277e+003 -4.521211e+002 4.847454e+002
    endloop
  endfacet
  facet normal 5.773503e-001 -5.773503e-001 -5.773503e-001
    outer loop
      vertex   -1.004277e+003 -4.521211e+002 4.847454e+002
      vertex   -1.003075e+003 -4.449524e+002 4.787779e+002
      vertex   -1.002861e+003 -4.452484e+002 4.792886e+002
    endloop
  endfacet
  facet normal 5.773503e-001 -5.773503e-001 -5.773503e-001
    outer loop
      vertex   -1.002683e+003 -4.455763e+002 4.797941e+002
      vertex   -1.004277e+003 -4.521211e+002 4.847454e+002
      vertex   -1.002861e+003 -4.452484e+002 4.792886e+002
    endloop
  endfacet
  facet normal 5.773503e-001 -5.773503e-001 -5.773503e-001
    outer loop
      vertex   -1.002683e+003 -4.455763e+002 4.797941e+002
      vertex   -1.002544e+003 -4.459342e+002 4.802912e+002
      vertex   -1.004277e+003 -4.521211e+002 4.847454e+002
    endloop
  endfacet
  facet normal 5.773503e-001 -5.773503e-001 -5.773503e-001
    outer loop
      vertex   -1.004277e+003 -4.521211e+002 4.847454e+002
      vertex   -1.002544e+003 -4.459342e+002 4.802912e+002
      vertex   -1.002444e+003 -4.463198e+002 4.807769e+002
    endloop
  endfacet
  facet normal 5.773503e-001 -5.773503e-001 -5.773503e-001
    outer loop
      vertex   -1.002384e+003 -4.467308e+002 4.812481e+002
      vertex   -1.004277e+003 -4.521211e+002 4.847454e+002
      vertex   -1.002444e+003 -4.463198e+002 4.807769e+002
    endloop
  endfacet
  facet normal 5.773503e-001 -5.773503e-001 -5.773503e-001
    outer loop
      vertex   -1.002384e+003 -4.467308e+002 4.812481e+002
      vertex   -1.002363e+003 -4.471646e+002 4.817020e+002
      vertex   -1.004277e+003 -4.521211e+002 4.847454e+002
    endloop
  endfacet
  facet normal 5.773503e-001 -5.773503e-001 -5.773503e-001
    outer loop
      vertex   -1.004277e+003 -4.521211e+002 4.847454e+002
      vertex   -1.002363e+003 -4.471646e+002 4.817020e+002
      vertex   -1.002384e+003 -4.476185e+002 4.821358e+002
    endloop
  endfacet
  facet normal 5.773503e-001 -5.773503e-001 -5.773503e-001
    outer loop
      vertex   -1.002444e+003 -4.480897e+002 4.825467e+002
      vertex   -1.004277e+003 -4.521211e+002 4.847454e+002
      vertex   -1.002384e+003 -4.476185e+002 4.821358e+002
    endloop
  endfacet
  facet normal 5.773503e-001 -5.773503e-001 -5.773503e-001
    outer loop
      vertex   -1.002444e+003 -4.480897e+002 4.825467e+002
      vertex   -1.002544e+003 -4.485754e+002 4.829323e+002
      vertex   -1.004277e+003 -4.521211e+002 4.847454e+002
    endloop
  endfacet
  facet normal 5.773503e-001 -5.773503e-001 -5.773503e-001
    outer loop
      vertex   -1.004277e+003 -4.521211e+002 4.847454e+002
      vertex   -1.002544e+003 -4.485754e+002 4.829323e+002
      vertex   -1.002683e+003 -4.490725e+002 4.832902e+002
    endloop
  endfacet
  facet normal 5.773503e-001 -5.773503e-001 -5.773503e-001
    outer loop
      vertex   -1.002861e+003 -4.495780e+002 4.836182e+002
      vertex   -1.004277e+003 -4.521211e+002 4.847454e+002
      vertex   -1.002683e+003 -4.490725e+002 4.832902e+002
    endloop
  endfacet
  facet normal 5.773503e-001 -5.773503e-001 -5.773503e-001
    outer loop
      vertex   -1.002861e+003 -4.495780e+002 4.836182e+002
      vertex   -1.003075e+003 -4.500887e+002 4.839142e+002
      vertex   -1.004277e+003 -4.521211e+002 4.847454e+002
    endloop
  endfacet
  facet normal 5.773503e-001 -5.773503e-001 -5.773503e-001
    outer loop
      vertex   -1.004277e+003 -4.521211e+002 4.847454e+002
      vertex   -1.003075e+003 -4.500887e+002 4.839142e+002
      vertex   -1.003326e+003 -4.506015e+002 4.841764e+002
    endloop
  endfacet
  facet normal 5.773503e-001 -5.773503e-001 -5.773503e-001
    outer loop
      vertex   -1.003611e+003 -4.511133e+002 4.844033e+002
      vertex   -1.004277e+003 -4.521211e+002 4.847454e+002
      vertex   -1.003326e+003 -4.506015e+002 4.841764e+002
    endloop
  endfacet
  facet normal 5.773503e-001 -5.773503e-001 -5.773503e-001
    outer loop
      vertex   -1.003611e+003 -4.511133e+002 4.844033e+002
      vertex   -1.003928e+003 -4.516209e+002 4.845933e+002
      vertex   -1.004277e+003 -4.521211e+002 4.847454e+002
    endloop
  endfacet
  facet normal 5.773503e-001 -5.773503e-001 -5.773503e-001
    outer loop
      vertex   -1.094343e+003 -4.891545e+002 4.317121e+002
      vertex   -1.004277e+003 -4.521211e+002 4.847454e+002
      vertex   -1.094343e+003 -4.971545e+002 4.397121e+002
    endloop
  endfacet
  facet normal 5.773503e-001 -5.773503e-001 -5.773503e-001
    outer loop
      vertex   -1.094691e+003 -4.896547e+002 4.318642e+002
      vertex   -1.094343e+003 -4.971545e+002 4.397121e+002
      vertex   -1.095009e+003 -4.901623e+002 4.320542e+002
    endloop
  endfacet
  facet normal 5.773503e-001 -5.773503e-001 -5.773503e-001
    outer loop
      vertex   -1.094691e+003 -4.896547e+002 4.318642e+002
      vertex   -1.094343e+003 -4.891545e+002 4.317121e+002
      vertex   -1.094343e+003 -4.971545e+002 4.397121e+002
    endloop
  endfacet
  facet normal 5.773503e-001 -5.773503e-001 -5.773503e-001
    outer loop
      vertex   -1.094343e+003 -4.971545e+002 4.397121e+002
      vertex   -1.044691e+003 -5.073284e+002 4.995381e+002
      vertex   -1.053929e+003 -5.119472e+002 4.949193e+002
    endloop
  endfacet
  facet normal 5.773503e-001 -5.773503e-001 -5.773503e-001
    outer loop
      vertex   -1.094691e+003 -4.970024e+002 4.392118e+002
      vertex   -1.095009e+003 -4.968123e+002 4.387043e+002
      vertex   -1.094343e+003 -4.971545e+002 4.397121e+002
    endloop
  endfacet
  facet normal 5.773503e-001 -5.773503e-001 -5.773503e-001
    outer loop
      vertex   -1.094343e+003 -4.971545e+002 4.397121e+002
      vertex   -1.095009e+003 -4.968123e+002 4.387043e+002
      vertex   -1.095294e+003 -4.965855e+002 4.381925e+002
    endloop
  endfacet
  facet normal 5.773503e-001 -5.773503e-001 -5.773503e-001
    outer loop
      vertex   -1.095544e+003 -4.963232e+002 4.376796e+002
      vertex   -1.094343e+003 -4.971545e+002 4.397121e+002
      vertex   -1.095294e+003 -4.965855e+002 4.381925e+002
    endloop
  endfacet
  facet normal 5.773503e-001 -5.773503e-001 -5.773503e-001
    outer loop
      vertex   -1.095544e+003 -4.963232e+002 4.376796e+002
      vertex   -1.095759e+003 -4.960272e+002 4.371689e+002
      vertex   -1.094343e+003 -4.971545e+002 4.397121e+002
    endloop
  endfacet
  facet normal 5.773503e-001 -5.773503e-001 -5.773503e-001
    outer loop
      vertex   -1.094343e+003 -4.971545e+002 4.397121e+002
      vertex   -1.095759e+003 -4.960272e+002 4.371689e+002
      vertex   -1.095937e+003 -4.956993e+002 4.366634e+002
    endloop
  endfacet
  facet normal 5.773503e-001 -5.773503e-001 -5.773503e-001
    outer loop
      vertex   -1.096076e+003 -4.953414e+002 4.361663e+002
      vertex   -1.094343e+003 -4.971545e+002 4.397121e+002
      vertex   -1.095937e+003 -4.956993e+002 4.366634e+002
    endloop
  endfacet
  facet normal 5.773503e-001 -5.773503e-001 -5.773503e-001
    outer loop
      vertex   -1.096076e+003 -4.953414e+002 4.361663e+002
      vertex   -1.096176e+003 -4.949558e+002 4.356806e+002
      vertex   -1.094343e+003 -4.971545e+002 4.397121e+002
    endloop
  endfacet
  facet normal 5.773503e-001 -5.773503e-001 -5.773503e-001
    outer loop
      vertex   -1.094343e+003 -4.971545e+002 4.397121e+002
      vertex   -1.096176e+003 -4.949558e+002 4.356806e+002
      vertex   -1.096236e+003 -4.945448e+002 4.352094e+002
    endloop
  endfacet
  facet normal 5.773503e-001 -5.773503e-001 -5.773503e-001
    outer loop
      vertex   -1.096256e+003 -4.941111e+002 4.347555e+002
      vertex   -1.094343e+003 -4.971545e+002 4.397121e+002
      vertex   -1.096236e+003 -4.945448e+002 4.352094e+002
    endloop
  endfacet
  facet normal 5.773503e-001 -5.773503e-001 -5.773503e-001
    outer loop
      vertex   -1.096256e+003 -4.941111e+002 4.347555e+002
      vertex   -1.096236e+003 -4.936572e+002 4.343217e+002
      vertex   -1.094343e+003 -4.971545e+002 4.397121e+002
    endloop
  endfacet
  facet normal 5.773503e-001 -5.773503e-001 -5.773503e-001
    outer loop
      vertex   -1.094343e+003 -4.971545e+002 4.397121e+002
      vertex   -1.096236e+003 -4.936572e+002 4.343217e+002
      vertex   -1.096176e+003 -4.931859e+002 4.339108e+002
    endloop
  endfacet
  facet normal 5.773503e-001 -5.773503e-001 -5.773503e-001
    outer loop
      vertex   -1.096076e+003 -4.927002e+002 4.335252e+002
      vertex   -1.094343e+003 -4.971545e+002 4.397121e+002
      vertex   -1.096176e+003 -4.931859e+002 4.339108e+002
    endloop
  endfacet
  facet normal 5.773503e-001 -5.773503e-001 -5.773503e-001
    outer loop
      vertex   -1.096076e+003 -4.927002e+002 4.335252e+002
      vertex   -1.095937e+003 -4.922031e+002 4.331673e+002
      vertex   -1.094343e+003 -4.971545e+002 4.397121e+002
    endloop
  endfacet
  facet normal 5.773503e-001 -5.773503e-001 -5.773503e-001
    outer loop
      vertex   -1.094343e+003 -4.971545e+002 4.397121e+002
      vertex   -1.095937e+003 -4.922031e+002 4.331673e+002
      vertex   -1.095759e+003 -4.916977e+002 4.328393e+002
    endloop
  endfacet
  facet normal 5.773503e-001 -5.773503e-001 -5.773503e-001
    outer loop
      vertex   -1.095544e+003 -4.911869e+002 4.325433e+002
      vertex   -1.094343e+003 -4.971545e+002 4.397121e+002
      vertex   -1.095759e+003 -4.916977e+002 4.328393e+002
    endloop
  endfacet
  facet normal 5.773503e-001 -5.773503e-001 -5.773503e-001
    outer loop
      vertex   -1.095544e+003 -4.911869e+002 4.325433e+002
      vertex   -1.095294e+003 -4.906741e+002 4.322811e+002
      vertex   -1.094343e+003 -4.971545e+002 4.397121e+002
    endloop
  endfacet
  facet normal 5.773503e-001 -5.773503e-001 -5.773503e-001
    outer loop
      vertex   -1.094343e+003 -4.971545e+002 4.397121e+002
      vertex   -1.095294e+003 -4.906741e+002 4.322811e+002
      vertex   -1.095009e+003 -4.901623e+002 4.320542e+002
    endloop
  endfacet
  facet normal 5.773503e-001 -5.773503e-001 -5.773503e-001
    outer loop
      vertex   -1.094343e+003 -4.891545e+002 4.317121e+002
      vertex   -1.053929e+003 -4.339472e+002 4.169193e+002
      vertex   -1.004277e+003 -4.441211e+002 4.767454e+002
    endloop
  endfacet
  facet normal -5.773503e-001 5.773503e-001 5.773503e-001
    outer loop
      vertex   -1.045414e+003 -4.288688e+002 4.213947e+002
      vertex   -1.054275e+003 -4.336008e+002 4.172658e+002
      vertex   -1.045037e+003 -4.289820e+002 4.218846e+002
    endloop
  endfacet
  facet normal -5.773503e-001 5.773503e-001 5.773503e-001
    outer loop
      vertex   -1.045414e+003 -4.288688e+002 4.213947e+002
      vertex   -1.045817e+003 -4.287952e+002 4.209184e+002
      vertex   -1.054275e+003 -4.336008e+002 4.172658e+002
    endloop
  endfacet
  facet normal -5.773503e-001 5.773503e-001 5.773503e-001
    outer loop
      vertex   -1.054275e+003 -4.336008e+002 4.172658e+002
      vertex   -1.045817e+003 -4.287952e+002 4.209184e+002
      vertex   -1.046243e+003 -4.287617e+002 4.204584e+002
    endloop
  endfacet
  facet normal -5.773503e-001 5.773503e-001 5.773503e-001
    outer loop
      vertex   -1.046691e+003 -4.287684e+002 4.200176e+002
      vertex   -1.054275e+003 -4.336008e+002 4.172658e+002
      vertex   -1.046243e+003 -4.287617e+002 4.204584e+002
    endloop
  endfacet
  facet normal -5.773503e-001 5.773503e-001 5.773503e-001
    outer loop
      vertex   -1.046691e+003 -4.287684e+002 4.200176e+002
      vertex   -1.047157e+003 -4.288153e+002 4.195987e+002
      vertex   -1.054275e+003 -4.336008e+002 4.172658e+002
    endloop
  endfacet
  facet normal -5.773503e-001 5.773503e-001 5.773503e-001
    outer loop
      vertex   -1.054275e+003 -4.336008e+002 4.172658e+002
      vertex   -1.047157e+003 -4.288153e+002 4.195987e+002
      vertex   -1.047638e+003 -4.289022e+002 4.192044e+002
    endloop
  endfacet
  facet normal -5.773503e-001 5.773503e-001 5.773503e-001
    outer loop
      vertex   -1.048131e+003 -4.290284e+002 4.188370e+002
      vertex   -1.054275e+003 -4.336008e+002 4.172658e+002
      vertex   -1.047638e+003 -4.289022e+002 4.192044e+002
    endloop
  endfacet
  facet normal -5.773503e-001 5.773503e-001 5.773503e-001
    outer loop
      vertex   -1.048131e+003 -4.290284e+002 4.188370e+002
      vertex   -1.048634e+003 -4.291933e+002 4.184989e+002
      vertex   -1.054275e+003 -4.336008e+002 4.172658e+002
    endloop
  endfacet
  facet normal -5.773503e-001 5.773503e-001 5.773503e-001
    outer loop
      vertex   -1.054275e+003 -4.336008e+002 4.172658e+002
      vertex   -1.048634e+003 -4.291933e+002 4.184989e+002
      vertex   -1.049144e+003 -4.293957e+002 4.181920e+002
    endloop
  endfacet
  facet normal -5.773503e-001 5.773503e-001 5.773503e-001
    outer loop
      vertex   -1.049656e+003 -4.296345e+002 4.179183e+002
      vertex   -1.054275e+003 -4.336008e+002 4.172658e+002
      vertex   -1.049144e+003 -4.293957e+002 4.181920e+002
    endloop
  endfacet
  facet normal -5.773503e-001 5.773503e-001 5.773503e-001
    outer loop
      vertex   -1.049656e+003 -4.296345e+002 4.179183e+002
      vertex   -1.050169e+003 -4.299082e+002 4.176795e+002
      vertex   -1.054275e+003 -4.336008e+002 4.172658e+002
    endloop
  endfacet
  facet normal -5.773503e-001 5.773503e-001 5.773503e-001
    outer loop
      vertex   -1.054275e+003 -4.336008e+002 4.172658e+002
      vertex   -1.050169e+003 -4.299082e+002 4.176795e+002
      vertex   -1.050678e+003 -4.302151e+002 4.174770e+002
    endloop
  endfacet
  facet normal -5.773503e-001 5.773503e-001 5.773503e-001
    outer loop
      vertex   -1.051181e+003 -4.305533e+002 4.173122e+002
      vertex   -1.054275e+003 -4.336008e+002 4.172658e+002
      vertex   -1.050678e+003 -4.302151e+002 4.174770e+002
    endloop
  endfacet
  facet normal -5.773503e-001 5.773503e-001 5.773503e-001
    outer loop
      vertex   -1.051181e+003 -4.305533e+002 4.173122e+002
      vertex   -1.051675e+003 -4.309207e+002 4.171859e+002
      vertex   -1.054275e+003 -4.336008e+002 4.172658e+002
    endloop
  endfacet
  facet normal -5.773503e-001 5.773503e-001 5.773503e-001
    outer loop
      vertex   -1.054275e+003 -4.336008e+002 4.172658e+002
      vertex   -1.051675e+003 -4.309207e+002 4.171859e+002
      vertex   -1.052156e+003 -4.313150e+002 4.170991e+002
    endloop
  endfacet
  facet normal -5.773503e-001 5.773503e-001 5.773503e-001
    outer loop
      vertex   -1.052622e+003 -4.317338e+002 4.170521e+002
      vertex   -1.054275e+003 -4.336008e+002 4.172658e+002
      vertex   -1.052156e+003 -4.313150e+002 4.170991e+002
    endloop
  endfacet
  facet normal -5.773503e-001 5.773503e-001 5.773503e-001
    outer loop
      vertex   -1.052622e+003 -4.317338e+002 4.170521e+002
      vertex   -1.053069e+003 -4.321746e+002 4.170454e+002
      vertex   -1.054275e+003 -4.336008e+002 4.172658e+002
    endloop
  endfacet
  facet normal -5.773503e-001 5.773503e-001 5.773503e-001
    outer loop
      vertex   -1.054275e+003 -4.336008e+002 4.172658e+002
      vertex   -1.053069e+003 -4.321746e+002 4.170454e+002
      vertex   -1.053496e+003 -4.326346e+002 4.170790e+002
    endloop
  endfacet
  facet normal -5.773503e-001 5.773503e-001 5.773503e-001
    outer loop
      vertex   -1.053898e+003 -4.331110e+002 4.171526e+002
      vertex   -1.054275e+003 -4.336008e+002 4.172658e+002
      vertex   -1.053496e+003 -4.326346e+002 4.170790e+002
    endloop
  endfacet
  facet normal -5.773503e-001 5.773503e-001 5.773503e-001
    outer loop
      vertex   -1.094690e+003 -4.888081e+002 4.320585e+002
      vertex   -1.054275e+003 -5.116008e+002 4.952658e+002
      vertex   -1.054275e+003 -4.336008e+002 4.172658e+002
    endloop
  endfacet
  facet normal -5.773503e-001 5.773503e-001 5.773503e-001
    outer loop
      vertex   -1.094690e+003 -4.888081e+002 4.320585e+002
      vertex   -1.094690e+003 -4.968081e+002 4.400585e+002
      vertex   -1.054275e+003 -5.116008e+002 4.952658e+002
    endloop
  endfacet
  facet normal -5.773503e-001 5.773503e-001 5.773503e-001
    outer loop
      vertex   -1.094690e+003 -4.888081e+002 4.320585e+002
      vertex   -1.095038e+003 -4.893083e+002 4.322106e+002
      vertex   -1.094690e+003 -4.968081e+002 4.400585e+002
    endloop
  endfacet
  facet normal -5.773503e-001 5.773503e-001 5.773503e-001
    outer loop
      vertex   -1.094690e+003 -4.968081e+002 4.400585e+002
      vertex   -1.095038e+003 -4.893083e+002 4.322106e+002
      vertex   -1.095355e+003 -4.898159e+002 4.324006e+002
    endloop
  endfacet
  facet normal -5.773503e-001 5.773503e-001 5.773503e-001
    outer loop
      vertex   -1.095640e+003 -4.903277e+002 4.326275e+002
      vertex   -1.094690e+003 -4.968081e+002 4.400585e+002
      vertex   -1.095355e+003 -4.898159e+002 4.324006e+002
    endloop
  endfacet
  facet normal -5.773503e-001 5.773503e-001 5.773503e-001
    outer loop
      vertex   -1.095640e+003 -4.903277e+002 4.326275e+002
      vertex   -1.095891e+003 -4.908405e+002 4.328897e+002
      vertex   -1.094690e+003 -4.968081e+002 4.400585e+002
    endloop
  endfacet
  facet normal -5.773503e-001 5.773503e-001 5.773503e-001
    outer loop
      vertex   -1.094690e+003 -4.968081e+002 4.400585e+002
      vertex   -1.095891e+003 -4.908405e+002 4.328897e+002
      vertex   -1.096106e+003 -4.913513e+002 4.331857e+002
    endloop
  endfacet
  facet normal -5.773503e-001 5.773503e-001 5.773503e-001
    outer loop
      vertex   -1.096283e+003 -4.918567e+002 4.335137e+002
      vertex   -1.094690e+003 -4.968081e+002 4.400585e+002
      vertex   -1.096106e+003 -4.913513e+002 4.331857e+002
    endloop
  endfacet
  facet normal -5.773503e-001 5.773503e-001 5.773503e-001
    outer loop
      vertex   -1.096283e+003 -4.918567e+002 4.335137e+002
      vertex   -1.096422e+003 -4.923538e+002 4.338716e+002
      vertex   -1.094690e+003 -4.968081e+002 4.400585e+002
    endloop
  endfacet
  facet normal -5.773503e-001 5.773503e-001 5.773503e-001
    outer loop
      vertex   -1.094690e+003 -4.968081e+002 4.400585e+002
      vertex   -1.096422e+003 -4.923538e+002 4.338716e+002
      vertex   -1.096522e+003 -4.928395e+002 4.342572e+002
    endloop
  endfacet
  facet normal -5.773503e-001 5.773503e-001 5.773503e-001
    outer loop
      vertex   -1.096583e+003 -4.933107e+002 4.346681e+002
      vertex   -1.094690e+003 -4.968081e+002 4.400585e+002
      vertex   -1.096522e+003 -4.928395e+002 4.342572e+002
    endloop
  endfacet
  facet normal -5.773503e-001 5.773503e-001 5.773503e-001
    outer loop
      vertex   -1.096583e+003 -4.933107e+002 4.346681e+002
      vertex   -1.096603e+003 -4.937646e+002 4.351019e+002
      vertex   -1.094690e+003 -4.968081e+002 4.400585e+002
    endloop
  endfacet
  facet normal -5.773503e-001 5.773503e-001 5.773503e-001
    outer loop
      vertex   -1.094690e+003 -4.968081e+002 4.400585e+002
      vertex   -1.096603e+003 -4.937646e+002 4.351019e+002
      vertex   -1.096583e+003 -4.941984e+002 4.355558e+002
    endloop
  endfacet
  facet normal -5.773503e-001 5.773503e-001 5.773503e-001
    outer loop
      vertex   -1.096522e+003 -4.946094e+002 4.360270e+002
      vertex   -1.094690e+003 -4.968081e+002 4.400585e+002
      vertex   -1.096583e+003 -4.941984e+002 4.355558e+002
    endloop
  endfacet
  facet normal -5.773503e-001 5.773503e-001 5.773503e-001
    outer loop
      vertex   -1.096522e+003 -4.946094e+002 4.360270e+002
      vertex   -1.096422e+003 -4.949950e+002 4.365127e+002
      vertex   -1.094690e+003 -4.968081e+002 4.400585e+002
    endloop
  endfacet
  facet normal -5.773503e-001 5.773503e-001 5.773503e-001
    outer loop
      vertex   -1.094690e+003 -4.968081e+002 4.400585e+002
      vertex   -1.096422e+003 -4.949950e+002 4.365127e+002
      vertex   -1.096283e+003 -4.953529e+002 4.370098e+002
    endloop
  endfacet
  facet normal -5.773503e-001 5.773503e-001 5.773503e-001
    outer loop
      vertex   -1.096106e+003 -4.956808e+002 4.375153e+002
      vertex   -1.094690e+003 -4.968081e+002 4.400585e+002
      vertex   -1.096283e+003 -4.953529e+002 4.370098e+002
    endloop
  endfacet
  facet normal -5.773503e-001 5.773503e-001 5.773503e-001
    outer loop
      vertex   -1.096106e+003 -4.956808e+002 4.375153e+002
      vertex   -1.095891e+003 -4.959768e+002 4.380260e+002
      vertex   -1.094690e+003 -4.968081e+002 4.400585e+002
    endloop
  endfacet
  facet normal -5.773503e-001 5.773503e-001 5.773503e-001
    outer loop
      vertex   -1.094690e+003 -4.968081e+002 4.400585e+002
      vertex   -1.095891e+003 -4.959768e+002 4.380260e+002
      vertex   -1.095640e+003 -4.962391e+002 4.385389e+002
    endloop
  endfacet
  facet normal -5.773503e-001 5.773503e-001 5.773503e-001
    outer loop
      vertex   -1.095355e+003 -4.964659e+002 4.390507e+002
      vertex   -1.094690e+003 -4.968081e+002 4.400585e+002
      vertex   -1.095640e+003 -4.962391e+002 4.385389e+002
    endloop
  endfacet
  facet normal -5.773503e-001 5.773503e-001 5.773503e-001
    outer loop
      vertex   -1.095355e+003 -4.964659e+002 4.390507e+002
      vertex   -1.095038e+003 -4.966560e+002 4.395582e+002
      vertex   -1.094690e+003 -4.968081e+002 4.400585e+002
    endloop
  endfacet
  facet normal -5.773503e-001 5.773503e-001 5.773503e-001
    outer loop
      vertex   -1.053898e+003 -5.117140e+002 4.957556e+002
      vertex   -1.053496e+003 -5.117876e+002 4.962319e+002
      vertex   -1.054275e+003 -5.116008e+002 4.952658e+002
    endloop
  endfacet
  facet normal -5.773503e-001 5.773503e-001 5.773503e-001
    outer loop
      vertex   -1.054275e+003 -5.116008e+002 4.952658e+002
      vertex   -1.053496e+003 -5.117876e+002 4.962319e+002
      vertex   -1.053069e+003 -5.118211e+002 4.966919e+002
    endloop
  endfacet
  facet normal -5.773503e-001 5.773503e-001 5.773503e-001
    outer loop
      vertex   -1.052622e+003 -5.118144e+002 4.971327e+002
      vertex   -1.054275e+003 -5.116008e+002 4.952658e+002
      vertex   -1.053069e+003 -5.118211e+002 4.966919e+002
    endloop
  endfacet
  facet normal -5.773503e-001 5.773503e-001 5.773503e-001
    outer loop
      vertex   -1.052622e+003 -5.118144e+002 4.971327e+002
      vertex   -1.052156e+003 -5.117675e+002 4.975516e+002
      vertex   -1.054275e+003 -5.116008e+002 4.952658e+002
    endloop
  endfacet
  facet normal -5.773503e-001 5.773503e-001 5.773503e-001
    outer loop
      vertex   -1.054275e+003 -5.116008e+002 4.952658e+002
      vertex   -1.052156e+003 -5.117675e+002 4.975516e+002
      vertex   -1.051675e+003 -5.116806e+002 4.979459e+002
    endloop
  endfacet
  facet normal -5.773503e-001 5.773503e-001 5.773503e-001
    outer loop
      vertex   -1.051181e+003 -5.115544e+002 4.983133e+002
      vertex   -1.054275e+003 -5.116008e+002 4.952658e+002
      vertex   -1.051675e+003 -5.116806e+002 4.979459e+002
    endloop
  endfacet
  facet normal -5.773503e-001 5.773503e-001 5.773503e-001
    outer loop
      vertex   -1.051181e+003 -5.115544e+002 4.983133e+002
      vertex   -1.050678e+003 -5.113895e+002 4.986514e+002
      vertex   -1.054275e+003 -5.116008e+002 4.952658e+002
    endloop
  endfacet
  facet normal -5.773503e-001 5.773503e-001 5.773503e-001
    outer loop
      vertex   -1.054275e+003 -5.116008e+002 4.952658e+002
      vertex   -1.050678e+003 -5.113895e+002 4.986514e+002
      vertex   -1.050169e+003 -5.111871e+002 4.989583e+002
    endloop
  endfacet
  facet normal -5.773503e-001 5.773503e-001 5.773503e-001
    outer loop
      vertex   -1.049656e+003 -5.109483e+002 4.992320e+002
      vertex   -1.054275e+003 -5.116008e+002 4.952658e+002
      vertex   -1.050169e+003 -5.111871e+002 4.989583e+002
    endloop
  endfacet
  facet normal -5.773503e-001 5.773503e-001 5.773503e-001
    outer loop
      vertex   -1.049656e+003 -5.109483e+002 4.992320e+002
      vertex   -1.049144e+003 -5.106746e+002 4.994708e+002
      vertex   -1.054275e+003 -5.116008e+002 4.952658e+002
    endloop
  endfacet
  facet normal -5.773503e-001 5.773503e-001 5.773503e-001
    outer loop
      vertex   -1.054275e+003 -5.116008e+002 4.952658e+002
      vertex   -1.049144e+003 -5.106746e+002 4.994708e+002
      vertex   -1.048634e+003 -5.103677e+002 4.996733e+002
    endloop
  endfacet
  facet normal -5.773503e-001 5.773503e-001 5.773503e-001
    outer loop
      vertex   -1.048131e+003 -5.100295e+002 4.998381e+002
      vertex   -1.054275e+003 -5.116008e+002 4.952658e+002
      vertex   -1.048634e+003 -5.103677e+002 4.996733e+002
    endloop
  endfacet
  facet normal -5.773503e-001 5.773503e-001 5.773503e-001
    outer loop
      vertex   -1.048131e+003 -5.100295e+002 4.998381e+002
      vertex   -1.047638e+003 -5.096621e+002 4.999644e+002
      vertex   -1.054275e+003 -5.116008e+002 4.952658e+002
    endloop
  endfacet
  facet normal -5.773503e-001 5.773503e-001 5.773503e-001
    outer loop
      vertex   -1.054275e+003 -5.116008e+002 4.952658e+002
      vertex   -1.047638e+003 -5.096621e+002 4.999644e+002
      vertex   -1.047157e+003 -5.092678e+002 5.000512e+002
    endloop
  endfacet
  facet normal -5.773503e-001 5.773503e-001 5.773503e-001
    outer loop
      vertex   -1.046691e+003 -5.088490e+002 5.000982e+002
      vertex   -1.054275e+003 -5.116008e+002 4.952658e+002
      vertex   -1.047157e+003 -5.092678e+002 5.000512e+002
    endloop
  endfacet
  facet normal -5.773503e-001 5.773503e-001 5.773503e-001
    outer loop
      vertex   -1.046691e+003 -5.088490e+002 5.000982e+002
      vertex   -1.046243e+003 -5.084082e+002 5.001049e+002
      vertex   -1.054275e+003 -5.116008e+002 4.952658e+002
    endloop
  endfacet
  facet normal -5.773503e-001 5.773503e-001 5.773503e-001
    outer loop
      vertex   -1.054275e+003 -5.116008e+002 4.952658e+002
      vertex   -1.046243e+003 -5.084082e+002 5.001049e+002
      vertex   -1.045817e+003 -5.079482e+002 5.000713e+002
    endloop
  endfacet
  facet normal -5.773503e-001 5.773503e-001 5.773503e-001
    outer loop
      vertex   -1.045414e+003 -5.074718e+002 4.999977e+002
      vertex   -1.054275e+003 -5.116008e+002 4.952658e+002
      vertex   -1.045817e+003 -5.079482e+002 5.000713e+002
    endloop
  endfacet
  facet normal -5.773503e-001 5.773503e-001 5.773503e-001
    outer loop
      vertex   -1.045414e+003 -5.074718e+002 4.999977e+002
      vertex   -1.045037e+003 -5.069820e+002 4.998846e+002
      vertex   -1.054275e+003 -5.116008e+002 4.952658e+002
    endloop
  endfacet
  facet normal -5.773503e-001 5.773503e-001 5.773503e-001
    outer loop
      vertex   -1.054275e+003 -5.116008e+002 4.952658e+002
      vertex   -1.045037e+003 -5.069820e+002 4.998846e+002
      vertex   -1.054275e+003 -4.336008e+002 4.172658e+002
    endloop
  endfacet
  facet normal -5.773503e-001 5.773503e-001 5.773503e-001
    outer loop
      vertex   -1.054275e+003 -4.336008e+002 4.172658e+002
      vertex   -1.045037e+003 -5.069820e+002 4.998846e+002
      vertex   -1.045037e+003 -4.289820e+002 4.218846e+002
    endloop
  endfacet
  facet normal -5.773503e-001 5.773503e-001 5.773503e-001
    outer loop
      vertex   -1.045037e+003 -4.289820e+002 4.218846e+002
      vertex   -1.045037e+003 -5.069820e+002 4.998846e+002
      vertex   -1.004623e+003 -4.517747e+002 4.850918e+002
    endloop
  endfacet
  facet normal -5.773503e-001 5.773503e-001 5.773503e-001
    outer loop
      vertex   -1.004623e+003 -4.437747e+002 4.770918e+002
      vertex   -1.004623e+003 -4.517747e+002 4.850918e+002
      vertex   -1.004275e+003 -4.439268e+002 4.775921e+002
    endloop
  endfacet
  facet normal -5.773503e-001 5.773503e-001 5.773503e-001
    outer loop
      vertex   -1.004623e+003 -4.437747e+002 4.770918e+002
      vertex   -1.045037e+003 -4.289820e+002 4.218846e+002
      vertex   -1.004623e+003 -4.517747e+002 4.850918e+002
    endloop
  endfacet
  facet normal -5.773503e-001 5.773503e-001 5.773503e-001
    outer loop
      vertex   -1.004275e+003 -4.512745e+002 4.849397e+002
      vertex   -1.003957e+003 -4.507669e+002 4.847497e+002
      vertex   -1.004623e+003 -4.517747e+002 4.850918e+002
    endloop
  endfacet
  facet normal -5.773503e-001 5.773503e-001 5.773503e-001
    outer loop
      vertex   -1.004623e+003 -4.517747e+002 4.850918e+002
      vertex   -1.003957e+003 -4.507669e+002 4.847497e+002
      vertex   -1.003672e+003 -4.502551e+002 4.845228e+002
    endloop
  endfacet
  facet normal -5.773503e-001 5.773503e-001 5.773503e-001
    outer loop
      vertex   -1.003422e+003 -4.497423e+002 4.842606e+002
      vertex   -1.004623e+003 -4.517747e+002 4.850918e+002
      vertex   -1.003672e+003 -4.502551e+002 4.845228e+002
    endloop
  endfacet
  facet normal -5.773503e-001 5.773503e-001 5.773503e-001
    outer loop
      vertex   -1.003422e+003 -4.497423e+002 4.842606e+002
      vertex   -1.003207e+003 -4.492315e+002 4.839646e+002
      vertex   -1.004623e+003 -4.517747e+002 4.850918e+002
    endloop
  endfacet
  facet normal -5.773503e-001 5.773503e-001 5.773503e-001
    outer loop
      vertex   -1.004623e+003 -4.517747e+002 4.850918e+002
      vertex   -1.003207e+003 -4.492315e+002 4.839646e+002
      vertex   -1.003029e+003 -4.487261e+002 4.836366e+002
    endloop
  endfacet
  facet normal -5.773503e-001 5.773503e-001 5.773503e-001
    outer loop
      vertex   -1.002890e+003 -4.482290e+002 4.832787e+002
      vertex   -1.004623e+003 -4.517747e+002 4.850918e+002
      vertex   -1.003029e+003 -4.487261e+002 4.836366e+002
    endloop
  endfacet
  facet normal -5.773503e-001 5.773503e-001 5.773503e-001
    outer loop
      vertex   -1.002890e+003 -4.482290e+002 4.832787e+002
      vertex   -1.002790e+003 -4.477433e+002 4.828931e+002
      vertex   -1.004623e+003 -4.517747e+002 4.850918e+002
    endloop
  endfacet
  facet normal -5.773503e-001 5.773503e-001 5.773503e-001
    outer loop
      vertex   -1.004623e+003 -4.517747e+002 4.850918e+002
      vertex   -1.002790e+003 -4.477433e+002 4.828931e+002
      vertex   -1.002730e+003 -4.472721e+002 4.824822e+002
    endloop
  endfacet
  facet normal -5.773503e-001 5.773503e-001 5.773503e-001
    outer loop
      vertex   -1.002710e+003 -4.468182e+002 4.820484e+002
      vertex   -1.004623e+003 -4.517747e+002 4.850918e+002
      vertex   -1.002730e+003 -4.472721e+002 4.824822e+002
    endloop
  endfacet
  facet normal -5.773503e-001 5.773503e-001 5.773503e-001
    outer loop
      vertex   -1.002710e+003 -4.468182e+002 4.820484e+002
      vertex   -1.002730e+003 -4.463844e+002 4.815945e+002
      vertex   -1.004623e+003 -4.517747e+002 4.850918e+002
    endloop
  endfacet
  facet normal -5.773503e-001 5.773503e-001 5.773503e-001
    outer loop
      vertex   -1.004623e+003 -4.517747e+002 4.850918e+002
      vertex   -1.002730e+003 -4.463844e+002 4.815945e+002
      vertex   -1.002790e+003 -4.459734e+002 4.811233e+002
    endloop
  endfacet
  facet normal -5.773503e-001 5.773503e-001 5.773503e-001
    outer loop
      vertex   -1.002890e+003 -4.455878e+002 4.806376e+002
      vertex   -1.004623e+003 -4.517747e+002 4.850918e+002
      vertex   -1.002790e+003 -4.459734e+002 4.811233e+002
    endloop
  endfacet
  facet normal -5.773503e-001 5.773503e-001 5.773503e-001
    outer loop
      vertex   -1.002890e+003 -4.455878e+002 4.806376e+002
      vertex   -1.003029e+003 -4.452299e+002 4.801405e+002
      vertex   -1.004623e+003 -4.517747e+002 4.850918e+002
    endloop
  endfacet
  facet normal -5.773503e-001 5.773503e-001 5.773503e-001
    outer loop
      vertex   -1.004623e+003 -4.517747e+002 4.850918e+002
      vertex   -1.003029e+003 -4.452299e+002 4.801405e+002
      vertex   -1.003207e+003 -4.449020e+002 4.796350e+002
    endloop
  endfacet
  facet normal -5.773503e-001 5.773503e-001 5.773503e-001
    outer loop
      vertex   -1.003422e+003 -4.446060e+002 4.791243e+002
      vertex   -1.004623e+003 -4.517747e+002 4.850918e+002
      vertex   -1.003207e+003 -4.449020e+002 4.796350e+002
    endloop
  endfacet
  facet normal -5.773503e-001 5.773503e-001 5.773503e-001
    outer loop
      vertex   -1.003422e+003 -4.446060e+002 4.791243e+002
      vertex   -1.003672e+003 -4.443437e+002 4.786114e+002
      vertex   -1.004623e+003 -4.517747e+002 4.850918e+002
    endloop
  endfacet
  facet normal -5.773503e-001 5.773503e-001 5.773503e-001
    outer loop
      vertex   -1.004623e+003 -4.517747e+002 4.850918e+002
      vertex   -1.003672e+003 -4.443437e+002 4.786114e+002
      vertex   -1.003957e+003 -4.441169e+002 4.780996e+002
    endloop
  endfacet
  facet normal -5.773503e-001 5.773503e-001 5.773503e-001
    outer loop
      vertex   -1.004275e+003 -4.439268e+002 4.775921e+002
      vertex   -1.004623e+003 -4.517747e+002 4.850918e+002
      vertex   -1.003957e+003 -4.441169e+002 4.780996e+002
    endloop
  endfacet
endsolid
