solid ascii
  facet normal -8.745141e-014 -1.000000e+000 -4.297362e-012
    outer loop
      vertex   -1.102543e+003 -4.353193e+002 5.230473e+002
      vertex   -1.102543e+003 -4.353193e+002 4.830473e+002
      vertex   -1.101243e+003 -4.353193e+002 5.230473e+002
    endloop
  endfacet
  facet normal -8.745141e-014 -1.000000e+000 -4.297362e-012
    outer loop
      vertex   -1.101243e+003 -4.353193e+002 5.230473e+002
      vertex   -1.102543e+003 -4.353193e+002 4.830473e+002
      vertex   -1.101243e+003 -4.353193e+002 4.830473e+002
    endloop
  endfacet
  facet normal 1.000000e+000 -9.573628e-014 3.581135e-013
    outer loop
      vertex   -1.101243e+003 -4.163193e+002 5.230473e+002
      vertex   -1.101243e+003 -4.353193e+002 5.230473e+002
      vertex   -1.101243e+003 -4.163193e+002 4.830473e+002
    endloop
  endfacet
  facet normal 1.000000e+000 -1.077033e-013 3.524292e-013
    outer loop
      vertex   -1.101243e+003 -4.163193e+002 4.830473e+002
      vertex   -1.101243e+003 -4.353193e+002 5.230473e+002
      vertex   -1.101243e+003 -4.353193e+002 4.830473e+002
    endloop
  endfacet
  facet normal 1.311771e-013 1.000000e+000 4.295941e-012
    outer loop
      vertex   -1.101243e+003 -4.163193e+002 5.230473e+002
      vertex   -1.101243e+003 -4.163193e+002 4.830473e+002
      vertex   -1.102543e+003 -4.163193e+002 5.230473e+002
    endloop
  endfacet
  facet normal 8.745141e-014 1.000000e+000 4.294520e-012
    outer loop
      vertex   -1.102543e+003 -4.163193e+002 5.230473e+002
      vertex   -1.101243e+003 -4.163193e+002 4.830473e+002
      vertex   -1.102543e+003 -4.163193e+002 4.830473e+002
    endloop
  endfacet
  facet normal -1.000000e+000 1.077033e-013 -3.524292e-013
    outer loop
      vertex   -1.102543e+003 -4.353193e+002 5.230473e+002
      vertex   -1.102543e+003 -4.163193e+002 5.230473e+002
      vertex   -1.102543e+003 -4.353193e+002 4.830473e+002
    endloop
  endfacet
  facet normal -1.000000e+000 1.077033e-013 -3.524292e-013
    outer loop
      vertex   -1.102543e+003 -4.353193e+002 4.830473e+002
      vertex   -1.102543e+003 -4.163193e+002 5.230473e+002
      vertex   -1.102543e+003 -4.163193e+002 4.830473e+002
    endloop
  endfacet
  facet normal 3.498057e-013 4.296166e-012 -1.000000e+000
    outer loop
      vertex   -1.102543e+003 -4.353193e+002 4.830473e+002
      vertex   -1.102543e+003 -4.163193e+002 4.830473e+002
      vertex   -1.101243e+003 -4.353193e+002 4.830473e+002
    endloop
  endfacet
  facet normal 3.498057e-013 4.296166e-012 -1.000000e+000
    outer loop
      vertex   -1.101243e+003 -4.353193e+002 4.830473e+002
      vertex   -1.102543e+003 -4.163193e+002 4.830473e+002
      vertex   -1.101243e+003 -4.163193e+002 4.830473e+002
    endloop
  endfacet
  facet normal -3.498057e-013 -4.296166e-012 1.000000e+000
    outer loop
      vertex   -1.102543e+003 -4.163193e+002 5.230473e+002
      vertex   -1.102543e+003 -4.353193e+002 5.230473e+002
      vertex   -1.101243e+003 -4.163193e+002 5.230473e+002
    endloop
  endfacet
  facet normal -3.498057e-013 -4.296166e-012 1.000000e+000
    outer loop
      vertex   -1.101243e+003 -4.163193e+002 5.230473e+002
      vertex   -1.102543e+003 -4.353193e+002 5.230473e+002
      vertex   -1.101243e+003 -4.353193e+002 5.230473e+002
    endloop
  endfacet
endsolid
