solid ascii
  facet normal 3.524292e-013 4.372571e-012 -1.000000e+000
    outer loop
      vertex   -1.068128e+003 -4.377343e+002 5.230473e+002
      vertex   -1.098128e+003 -4.377343e+002 5.230473e+002
      vertex   -1.068128e+003 -4.364343e+002 5.230473e+002
    endloop
  endfacet
  facet normal 3.562188e-013 4.285119e-012 -1.000000e+000
    outer loop
      vertex   -1.068128e+003 -4.364343e+002 5.230473e+002
      vertex   -1.098128e+003 -4.377343e+002 5.230473e+002
      vertex   -1.098128e+003 -4.364343e+002 5.230473e+002
    endloop
  endfacet
  facet normal -3.520771e-013 -4.273941e-012 1.000000e+000
    outer loop
      vertex   -1.098143e+003 -4.377493e+002 5.230623e+002
      vertex   -1.068113e+003 -4.377493e+002 5.230623e+002
      vertex   -1.098143e+003 -4.364193e+002 5.230623e+002
    endloop
  endfacet
  facet normal -3.520771e-013 -4.273941e-012 1.000000e+000
    outer loop
      vertex   -1.098143e+003 -4.364193e+002 5.230623e+002
      vertex   -1.068113e+003 -4.377493e+002 5.230623e+002
      vertex   -1.068113e+003 -4.364193e+002 5.230623e+002
    endloop
  endfacet
  facet normal -1.000000e+000 1.546545e-024 -3.536924e-013
    outer loop
      vertex   -1.068128e+003 -4.364343e+002 5.230473e+002
      vertex   -1.068128e+003 -4.364343e+002 4.780473e+002
      vertex   -1.068128e+003 -4.377343e+002 5.230473e+002
    endloop
  endfacet
  facet normal -1.000000e+000 1.749028e-013 -3.486396e-013
    outer loop
      vertex   -1.068128e+003 -4.377343e+002 5.230473e+002
      vertex   -1.068128e+003 -4.364343e+002 4.780473e+002
      vertex   -1.068128e+003 -4.377343e+002 4.780473e+002
    endloop
  endfacet
  facet normal -1.042129e-013 -1.000000e+000 -4.296099e-012
    outer loop
      vertex   -1.068128e+003 -4.364343e+002 5.230473e+002
      vertex   -1.098128e+003 -4.364343e+002 5.230473e+002
      vertex   -1.068128e+003 -4.364343e+002 4.780473e+002
    endloop
  endfacet
  facet normal -1.042129e-013 -1.000000e+000 -4.296099e-012
    outer loop
      vertex   -1.068128e+003 -4.364343e+002 4.780473e+002
      vertex   -1.098128e+003 -4.364343e+002 5.230473e+002
      vertex   -1.098128e+003 -4.364343e+002 4.780473e+002
    endloop
  endfacet
  facet normal 1.000000e+000 -1.493521e-024 3.486396e-013
    outer loop
      vertex   -1.098128e+003 -4.377343e+002 5.230473e+002
      vertex   -1.098128e+003 -4.377343e+002 4.780473e+002
      vertex   -1.098128e+003 -4.364343e+002 5.230473e+002
    endloop
  endfacet
  facet normal 1.000000e+000 -1.749028e-013 3.536924e-013
    outer loop
      vertex   -1.098128e+003 -4.364343e+002 5.230473e+002
      vertex   -1.098128e+003 -4.377343e+002 4.780473e+002
      vertex   -1.098128e+003 -4.364343e+002 4.780473e+002
    endloop
  endfacet
  facet normal 1.042129e-013 1.000000e+000 4.294836e-012
    outer loop
      vertex   -1.098128e+003 -4.377343e+002 5.230473e+002
      vertex   -1.068128e+003 -4.377343e+002 5.230473e+002
      vertex   -1.098128e+003 -4.377343e+002 4.780473e+002
    endloop
  endfacet
  facet normal 1.042129e-013 1.000000e+000 4.294836e-012
    outer loop
      vertex   -1.098128e+003 -4.377343e+002 4.780473e+002
      vertex   -1.068128e+003 -4.377343e+002 5.230473e+002
      vertex   -1.068128e+003 -4.377343e+002 4.780473e+002
    endloop
  endfacet
  facet normal 1.000000e+000 -1.709577e-013 3.535745e-013
    outer loop
      vertex   -1.068113e+003 -4.377493e+002 5.230623e+002
      vertex   -1.068113e+003 -4.377493e+002 4.780473e+002
      vertex   -1.068113e+003 -4.364193e+002 5.230623e+002
    endloop
  endfacet
  facet normal 1.000000e+000 -1.709577e-013 3.535745e-013
    outer loop
      vertex   -1.068113e+003 -4.364193e+002 5.230623e+002
      vertex   -1.068113e+003 -4.377493e+002 4.780473e+002
      vertex   -1.068113e+003 -4.364193e+002 4.780473e+002
    endloop
  endfacet
  facet normal 1.060017e-013 1.000000e+000 4.295930e-012
    outer loop
      vertex   -1.068113e+003 -4.364193e+002 4.780473e+002
      vertex   -1.098143e+003 -4.364193e+002 4.780473e+002
      vertex   -1.068113e+003 -4.364193e+002 5.230623e+002
    endloop
  endfacet
  facet normal 1.041088e-013 1.000000e+000 4.297193e-012
    outer loop
      vertex   -1.068113e+003 -4.364193e+002 5.230623e+002
      vertex   -1.098143e+003 -4.364193e+002 4.780473e+002
      vertex   -1.098143e+003 -4.364193e+002 5.230623e+002
    endloop
  endfacet
  facet normal -1.000000e+000 1.512884e-024 -3.535745e-013
    outer loop
      vertex   -1.098143e+003 -4.364193e+002 5.230623e+002
      vertex   -1.098143e+003 -4.364193e+002 4.780473e+002
      vertex   -1.098143e+003 -4.377493e+002 5.230623e+002
    endloop
  endfacet
  facet normal -1.000000e+000 1.526268e-024 -3.535745e-013
    outer loop
      vertex   -1.098143e+003 -4.377493e+002 5.230623e+002
      vertex   -1.098143e+003 -4.364193e+002 4.780473e+002
      vertex   -1.098143e+003 -4.377493e+002 4.780473e+002
    endloop
  endfacet
  facet normal -1.041088e-013 -1.000000e+000 -4.295930e-012
    outer loop
      vertex   -1.098143e+003 -4.377493e+002 4.780473e+002
      vertex   -1.068113e+003 -4.377493e+002 4.780473e+002
      vertex   -1.098143e+003 -4.377493e+002 5.230623e+002
    endloop
  endfacet
  facet normal -1.022159e-013 -1.000000e+000 -4.294668e-012
    outer loop
      vertex   -1.098143e+003 -4.377493e+002 5.230623e+002
      vertex   -1.068113e+003 -4.377493e+002 4.780473e+002
      vertex   -1.068113e+003 -4.377493e+002 5.230623e+002
    endloop
  endfacet
  facet normal -5.392837e-013 4.328845e-012 -1.000000e+000
    outer loop
      vertex   -1.068128e+003 -4.364343e+002 4.780473e+002
      vertex   -1.068113e+003 -4.364193e+002 4.780473e+002
      vertex   -1.068128e+003 -4.377343e+002 4.780473e+002
    endloop
  endfacet
  facet normal 3.524292e-013 3.437132e-012 -1.000000e+000
    outer loop
      vertex   -1.068128e+003 -4.364343e+002 4.780473e+002
      vertex   -1.098128e+003 -4.364343e+002 4.780473e+002
      vertex   -1.068113e+003 -4.364193e+002 4.780473e+002
    endloop
  endfacet
  facet normal 3.520771e-013 4.141638e-012 -1.000000e+000
    outer loop
      vertex   -1.068113e+003 -4.364193e+002 4.780473e+002
      vertex   -1.098128e+003 -4.364343e+002 4.780473e+002
      vertex   -1.098143e+003 -4.364193e+002 4.780473e+002
    endloop
  endfacet
  facet normal 5.392837e-013 4.328845e-012 -1.000000e+000
    outer loop
      vertex   -1.098143e+003 -4.364193e+002 4.780473e+002
      vertex   -1.098128e+003 -4.364343e+002 4.780473e+002
      vertex   -1.098128e+003 -4.377343e+002 4.780473e+002
    endloop
  endfacet
  facet normal 3.524292e-013 3.437132e-012 -1.000000e+000
    outer loop
      vertex   -1.098143e+003 -4.377493e+002 4.780473e+002
      vertex   -1.098128e+003 -4.377343e+002 4.780473e+002
      vertex   -1.068128e+003 -4.377343e+002 4.780473e+002
    endloop
  endfacet
  facet normal 5.271194e-013 4.316681e-012 -1.000000e+000
    outer loop
      vertex   -1.068113e+003 -4.377493e+002 4.780473e+002
      vertex   -1.068128e+003 -4.377343e+002 4.780473e+002
      vertex   -1.068113e+003 -4.364193e+002 4.780473e+002
    endloop
  endfacet
  facet normal 3.520771e-013 4.141638e-012 -1.000000e+000
    outer loop
      vertex   -1.068113e+003 -4.377493e+002 4.780473e+002
      vertex   -1.098143e+003 -4.377493e+002 4.780473e+002
      vertex   -1.068128e+003 -4.377343e+002 4.780473e+002
    endloop
  endfacet
  facet normal -5.271194e-013 4.316681e-012 -1.000000e+000
    outer loop
      vertex   -1.098143e+003 -4.364193e+002 4.780473e+002
      vertex   -1.098128e+003 -4.377343e+002 4.780473e+002
      vertex   -1.098143e+003 -4.377493e+002 4.780473e+002
    endloop
  endfacet
endsolid
