solid ascii
  facet normal 3.419153e-013 4.295367e-012 -1.000000e+000
    outer loop
      vertex   -1.101228e+003 -4.163043e+002 5.230623e+002
      vertex   -1.101228e+003 -4.353343e+002 5.230623e+002
      vertex   -1.102558e+003 -4.163043e+002 5.230623e+002
    endloop
  endfacet
  facet normal 4.273941e-013 4.301341e-012 -1.000000e+000
    outer loop
      vertex   -1.102558e+003 -4.163043e+002 5.230623e+002
      vertex   -1.101228e+003 -4.353343e+002 5.230623e+002
      vertex   -1.102558e+003 -4.353343e+002 5.230623e+002
    endloop
  endfacet
  facet normal -3.202446e-013 -4.299805e-012 1.000000e+000
    outer loop
      vertex   -1.102958e+003 -4.159043e+002 5.234623e+002
      vertex   -1.102958e+003 -4.357343e+002 5.234623e+002
      vertex   -1.100828e+003 -4.159043e+002 5.234623e+002
    endloop
  endfacet
  facet normal -3.736187e-013 -4.294072e-012 1.000000e+000
    outer loop
      vertex   -1.100828e+003 -4.159043e+002 5.234623e+002
      vertex   -1.102958e+003 -4.357343e+002 5.234623e+002
      vertex   -1.100828e+003 -4.357343e+002 5.234623e+002
    endloop
  endfacet
  facet normal -1.282182e-013 -1.000000e+000 -4.294668e-012
    outer loop
      vertex   -1.101228e+003 -4.163043e+002 4.780473e+002
      vertex   -1.101228e+003 -4.163043e+002 5.230623e+002
      vertex   -1.102558e+003 -4.163043e+002 4.780473e+002
    endloop
  endfacet
  facet normal -8.547883e-014 -1.000000e+000 -4.295930e-012
    outer loop
      vertex   -1.102558e+003 -4.163043e+002 4.780473e+002
      vertex   -1.101228e+003 -4.163043e+002 5.230623e+002
      vertex   -1.102558e+003 -4.163043e+002 5.230623e+002
    endloop
  endfacet
  facet normal -1.000000e+000 1.075335e-013 -3.535745e-013
    outer loop
      vertex   -1.101228e+003 -4.163043e+002 4.780473e+002
      vertex   -1.101228e+003 -4.353343e+002 4.780473e+002
      vertex   -1.101228e+003 -4.163043e+002 5.230623e+002
    endloop
  endfacet
  facet normal -1.000000e+000 1.075335e-013 -3.535745e-013
    outer loop
      vertex   -1.101228e+003 -4.163043e+002 5.230623e+002
      vertex   -1.101228e+003 -4.353343e+002 4.780473e+002
      vertex   -1.101228e+003 -4.353343e+002 5.230623e+002
    endloop
  endfacet
  facet normal 8.006115e-014 1.000000e+000 4.296894e-012
    outer loop
      vertex   -1.100828e+003 -4.159043e+002 4.780473e+002
      vertex   -1.102958e+003 -4.159043e+002 4.780473e+002
      vertex   -1.100828e+003 -4.159043e+002 5.234623e+002
    endloop
  endfacet
  facet normal 1.067482e-013 1.000000e+000 4.295643e-012
    outer loop
      vertex   -1.100828e+003 -4.159043e+002 5.234623e+002
      vertex   -1.102958e+003 -4.159043e+002 4.780473e+002
      vertex   -1.102958e+003 -4.159043e+002 5.234623e+002
    endloop
  endfacet
  facet normal -1.000000e+000 1.031953e-013 -3.554669e-013
    outer loop
      vertex   -1.102958e+003 -4.159043e+002 4.780473e+002
      vertex   -1.102958e+003 -4.357343e+002 4.780473e+002
      vertex   -1.102958e+003 -4.159043e+002 5.234623e+002
    endloop
  endfacet
  facet normal -1.000000e+000 1.031953e-013 -3.554669e-013
    outer loop
      vertex   -1.102958e+003 -4.159043e+002 5.234623e+002
      vertex   -1.102958e+003 -4.357343e+002 4.780473e+002
      vertex   -1.102958e+003 -4.357343e+002 5.234623e+002
    endloop
  endfacet
  facet normal 1.282182e-013 1.000000e+000 4.297193e-012
    outer loop
      vertex   -1.102558e+003 -4.353343e+002 4.780473e+002
      vertex   -1.102558e+003 -4.353343e+002 5.230623e+002
      vertex   -1.101228e+003 -4.353343e+002 4.780473e+002
    endloop
  endfacet
  facet normal 1.282182e-013 1.000000e+000 4.297193e-012
    outer loop
      vertex   -1.101228e+003 -4.353343e+002 4.780473e+002
      vertex   -1.102558e+003 -4.353343e+002 5.230623e+002
      vertex   -1.101228e+003 -4.353343e+002 5.230623e+002
    endloop
  endfacet
  facet normal 1.000000e+000 -9.558536e-014 3.535745e-013
    outer loop
      vertex   -1.102558e+003 -4.353343e+002 4.780473e+002
      vertex   -1.102558e+003 -4.163043e+002 4.780473e+002
      vertex   -1.102558e+003 -4.353343e+002 5.230623e+002
    endloop
  endfacet
  facet normal 1.000000e+000 -9.558536e-014 3.535745e-013
    outer loop
      vertex   -1.102558e+003 -4.353343e+002 5.230623e+002
      vertex   -1.102558e+003 -4.163043e+002 4.780473e+002
      vertex   -1.102558e+003 -4.163043e+002 5.230623e+002
    endloop
  endfacet
  facet normal -8.006115e-014 -1.000000e+000 -4.294391e-012
    outer loop
      vertex   -1.102958e+003 -4.357343e+002 4.780473e+002
      vertex   -1.100828e+003 -4.357343e+002 4.780473e+002
      vertex   -1.102958e+003 -4.357343e+002 5.234623e+002
    endloop
  endfacet
  facet normal -1.334353e-013 -1.000000e+000 -4.296894e-012
    outer loop
      vertex   -1.102958e+003 -4.357343e+002 5.234623e+002
      vertex   -1.100828e+003 -4.357343e+002 4.780473e+002
      vertex   -1.100828e+003 -4.357343e+002 5.234623e+002
    endloop
  endfacet
  facet normal 1.000000e+000 -1.031953e-013 3.554669e-013
    outer loop
      vertex   -1.100828e+003 -4.357343e+002 4.780473e+002
      vertex   -1.100828e+003 -4.159043e+002 4.780473e+002
      vertex   -1.100828e+003 -4.357343e+002 5.234623e+002
    endloop
  endfacet
  facet normal 1.000000e+000 -1.031953e-013 3.554669e-013
    outer loop
      vertex   -1.100828e+003 -4.357343e+002 5.234623e+002
      vertex   -1.100828e+003 -4.159043e+002 4.780473e+002
      vertex   -1.100828e+003 -4.159043e+002 5.234623e+002
    endloop
  endfacet
  facet normal 2.991759e-013 4.136107e-012 -1.000000e+000
    outer loop
      vertex   -1.101228e+003 -4.353343e+002 4.780473e+002
      vertex   -1.100828e+003 -4.357343e+002 4.780473e+002
      vertex   -1.102558e+003 -4.353343e+002 4.780473e+002
    endloop
  endfacet
  facet normal 4.554493e-013 4.292380e-012 -1.000000e+000
    outer loop
      vertex   -1.101228e+003 -4.353343e+002 4.780473e+002
      vertex   -1.101228e+003 -4.163043e+002 4.780473e+002
      vertex   -1.100828e+003 -4.357343e+002 4.780473e+002
    endloop
  endfacet
  facet normal 5.376189e-013 4.294072e-012 -1.000000e+000
    outer loop
      vertex   -1.100828e+003 -4.357343e+002 4.780473e+002
      vertex   -1.101228e+003 -4.163043e+002 4.780473e+002
      vertex   -1.100828e+003 -4.159043e+002 4.780473e+002
    endloop
  endfacet
  facet normal 2.991759e-013 4.532515e-012 -1.000000e+000
    outer loop
      vertex   -1.100828e+003 -4.159043e+002 4.780473e+002
      vertex   -1.101228e+003 -4.163043e+002 4.780473e+002
      vertex   -1.102558e+003 -4.163043e+002 4.780473e+002
    endloop
  endfacet
  facet normal 4.554493e-013 4.292380e-012 -1.000000e+000
    outer loop
      vertex   -1.102958e+003 -4.159043e+002 4.780473e+002
      vertex   -1.102558e+003 -4.163043e+002 4.780473e+002
      vertex   -1.102558e+003 -4.353343e+002 4.780473e+002
    endloop
  endfacet
  facet normal 3.736187e-013 4.458072e-012 -1.000000e+000
    outer loop
      vertex   -1.102958e+003 -4.357343e+002 4.780473e+002
      vertex   -1.102558e+003 -4.353343e+002 4.780473e+002
      vertex   -1.100828e+003 -4.357343e+002 4.780473e+002
    endloop
  endfacet
  facet normal 5.376189e-013 4.294072e-012 -1.000000e+000
    outer loop
      vertex   -1.102958e+003 -4.357343e+002 4.780473e+002
      vertex   -1.102958e+003 -4.159043e+002 4.780473e+002
      vertex   -1.102558e+003 -4.353343e+002 4.780473e+002
    endloop
  endfacet
  facet normal 3.736187e-013 4.210549e-012 -1.000000e+000
    outer loop
      vertex   -1.100828e+003 -4.159043e+002 4.780473e+002
      vertex   -1.102558e+003 -4.163043e+002 4.780473e+002
      vertex   -1.102958e+003 -4.159043e+002 4.780473e+002
    endloop
  endfacet
endsolid
