solid ascii
  facet normal -1.000000e+000 1.172029e-013 -3.592504e-013
    outer loop
      vertex   -1.100328e+003 -4.355193e+002 5.280473e+002
      vertex   -1.100328e+003 -4.161193e+002 5.280473e+002
      vertex   -1.100328e+003 -4.355193e+002 4.780473e+002
    endloop
  endfacet
  facet normal -1.000000e+000 1.054826e-013 -3.547029e-013
    outer loop
      vertex   -1.100328e+003 -4.355193e+002 4.780473e+002
      vertex   -1.100328e+003 -4.161193e+002 5.280473e+002
      vertex   -1.100328e+003 -4.161193e+002 4.780473e+002
    endloop
  endfacet
  facet normal -1.056514e-013 -1.000000e+000 -4.297362e-012
    outer loop
      vertex   -1.062128e+003 -4.355193e+002 5.280473e+002
      vertex   -1.100328e+003 -4.355193e+002 5.280473e+002
      vertex   -1.062128e+003 -4.355193e+002 4.780473e+002
    endloop
  endfacet
  facet normal -1.056514e-013 -1.000000e+000 -4.297362e-012
    outer loop
      vertex   -1.062128e+003 -4.355193e+002 4.780473e+002
      vertex   -1.100328e+003 -4.355193e+002 5.280473e+002
      vertex   -1.100328e+003 -4.355193e+002 4.780473e+002
    endloop
  endfacet
  facet normal 1.000000e+000 -1.426887e-024 3.592504e-013
    outer loop
      vertex   -1.062128e+003 -4.355193e+002 5.280473e+002
      vertex   -1.062128e+003 -4.355193e+002 4.780473e+002
      vertex   -1.062128e+003 -4.353193e+002 5.280473e+002
    endloop
  endfacet
  facet normal 1.000000e+000 -1.531577e-024 3.592504e-013
    outer loop
      vertex   -1.062128e+003 -4.353193e+002 5.280473e+002
      vertex   -1.062128e+003 -4.355193e+002 4.780473e+002
      vertex   -1.062128e+003 -4.353193e+002 4.780473e+002
    endloop
  endfacet
  facet normal 1.047116e-013 1.000000e+000 4.297362e-012
    outer loop
      vertex   -1.100128e+003 -4.353193e+002 5.280473e+002
      vertex   -1.062128e+003 -4.353193e+002 5.280473e+002
      vertex   -1.100128e+003 -4.353193e+002 4.780473e+002
    endloop
  endfacet
  facet normal 1.047116e-013 1.000000e+000 4.297362e-012
    outer loop
      vertex   -1.100128e+003 -4.353193e+002 4.780473e+002
      vertex   -1.062128e+003 -4.353193e+002 5.280473e+002
      vertex   -1.062128e+003 -4.353193e+002 4.780473e+002
    endloop
  endfacet
  facet normal 1.000000e+000 -9.573628e-014 3.592504e-013
    outer loop
      vertex   -1.100128e+003 -4.163193e+002 5.280473e+002
      vertex   -1.100128e+003 -4.353193e+002 5.280473e+002
      vertex   -1.100128e+003 -4.163193e+002 4.780473e+002
    endloop
  endfacet
  facet normal 1.000000e+000 -1.077033e-013 3.547029e-013
    outer loop
      vertex   -1.100128e+003 -4.163193e+002 4.780473e+002
      vertex   -1.100128e+003 -4.353193e+002 5.280473e+002
      vertex   -1.100128e+003 -4.353193e+002 4.780473e+002
    endloop
  endfacet
  facet normal -1.077033e-013 -1.000000e+000 -4.297362e-012
    outer loop
      vertex   -1.062128e+003 -4.163193e+002 5.280473e+002
      vertex   -1.100128e+003 -4.163193e+002 5.280473e+002
      vertex   -1.062128e+003 -4.163193e+002 4.780473e+002
    endloop
  endfacet
  facet normal -1.047116e-013 -1.000000e+000 -4.295089e-012
    outer loop
      vertex   -1.062128e+003 -4.163193e+002 4.780473e+002
      vertex   -1.100128e+003 -4.163193e+002 5.280473e+002
      vertex   -1.100128e+003 -4.163193e+002 4.780473e+002
    endloop
  endfacet
  facet normal 1.000000e+000 -1.613002e-024 3.547029e-013
    outer loop
      vertex   -1.062128e+003 -4.163193e+002 5.280473e+002
      vertex   -1.062128e+003 -4.163193e+002 4.780473e+002
      vertex   -1.062128e+003 -4.161193e+002 5.280473e+002
    endloop
  endfacet
  facet normal 1.000000e+000 -1.613002e-024 3.547029e-013
    outer loop
      vertex   -1.062128e+003 -4.161193e+002 5.280473e+002
      vertex   -1.062128e+003 -4.163193e+002 4.780473e+002
      vertex   -1.062128e+003 -4.161193e+002 4.780473e+002
    endloop
  endfacet
  facet normal 1.041633e-013 1.000000e+000 4.297362e-012
    outer loop
      vertex   -1.100328e+003 -4.161193e+002 5.280473e+002
      vertex   -1.062128e+003 -4.161193e+002 5.280473e+002
      vertex   -1.100328e+003 -4.161193e+002 4.780473e+002
    endloop
  endfacet
  facet normal 1.056514e-013 1.000000e+000 4.296226e-012
    outer loop
      vertex   -1.100328e+003 -4.161193e+002 4.780473e+002
      vertex   -1.062128e+003 -4.161193e+002 5.280473e+002
      vertex   -1.062128e+003 -4.161193e+002 4.780473e+002
    endloop
  endfacet
  facet normal 3.541553e-013 4.617412e-012 -1.000000e+000
    outer loop
      vertex   -1.062128e+003 -4.161193e+002 4.780473e+002
      vertex   -1.100128e+003 -4.163193e+002 4.780473e+002
      vertex   -1.100328e+003 -4.161193e+002 4.780473e+002
    endloop
  endfacet
  facet normal 3.545234e-013 4.547474e-012 -1.000000e+000
    outer loop
      vertex   -1.062128e+003 -4.161193e+002 4.780473e+002
      vertex   -1.062128e+003 -4.163193e+002 4.780473e+002
      vertex   -1.100128e+003 -4.163193e+002 4.780473e+002
    endloop
  endfacet
  facet normal 2.991759e-014 4.293174e-012 -1.000000e+000
    outer loop
      vertex   -1.100128e+003 -4.163193e+002 4.780473e+002
      vertex   -1.100128e+003 -4.353193e+002 4.780473e+002
      vertex   -1.100328e+003 -4.161193e+002 4.780473e+002
    endloop
  endfacet
  facet normal 8.145603e-013 4.301347e-012 -1.000000e+000
    outer loop
      vertex   -1.100328e+003 -4.161193e+002 4.780473e+002
      vertex   -1.100128e+003 -4.353193e+002 4.780473e+002
      vertex   -1.100328e+003 -4.355193e+002 4.780473e+002
    endloop
  endfacet
  facet normal 3.556434e-013 4.760264e-012 -1.000000e+000
    outer loop
      vertex   -1.100328e+003 -4.355193e+002 4.780473e+002
      vertex   -1.100128e+003 -4.353193e+002 4.780473e+002
      vertex   -1.062128e+003 -4.355193e+002 4.780473e+002
    endloop
  endfacet
  facet normal 3.530275e-013 4.263256e-012 -1.000000e+000
    outer loop
      vertex   -1.062128e+003 -4.355193e+002 4.780473e+002
      vertex   -1.100128e+003 -4.353193e+002 4.780473e+002
      vertex   -1.062128e+003 -4.353193e+002 4.780473e+002
    endloop
  endfacet
  facet normal -3.530275e-013 -4.547474e-012 1.000000e+000
    outer loop
      vertex   -1.062128e+003 -4.163193e+002 5.280473e+002
      vertex   -1.062128e+003 -4.161193e+002 5.280473e+002
      vertex   -1.100128e+003 -4.163193e+002 5.280473e+002
    endloop
  endfacet
  facet normal -3.541553e-013 -4.333195e-012 1.000000e+000
    outer loop
      vertex   -1.100128e+003 -4.163193e+002 5.280473e+002
      vertex   -1.062128e+003 -4.161193e+002 5.280473e+002
      vertex   -1.100328e+003 -4.161193e+002 5.280473e+002
    endloop
  endfacet
  facet normal -3.223080e-013 -4.301347e-012 1.000000e+000
    outer loop
      vertex   -1.100328e+003 -4.355193e+002 5.280473e+002
      vertex   -1.100128e+003 -4.163193e+002 5.280473e+002
      vertex   -1.100328e+003 -4.161193e+002 5.280473e+002
    endloop
  endfacet
  facet normal -8.197419e-013 -4.296166e-012 1.000000e+000
    outer loop
      vertex   -1.100328e+003 -4.355193e+002 5.280473e+002
      vertex   -1.100128e+003 -4.353193e+002 5.280473e+002
      vertex   -1.100128e+003 -4.163193e+002 5.280473e+002
    endloop
  endfacet
  facet normal -3.571314e-013 -4.758776e-012 1.000000e+000
    outer loop
      vertex   -1.100328e+003 -4.355193e+002 5.280473e+002
      vertex   -1.062128e+003 -4.355193e+002 5.280473e+002
      vertex   -1.100128e+003 -4.353193e+002 5.280473e+002
    endloop
  endfacet
  facet normal -3.530275e-013 -3.979039e-012 1.000000e+000
    outer loop
      vertex   -1.100128e+003 -4.353193e+002 5.280473e+002
      vertex   -1.062128e+003 -4.355193e+002 5.280473e+002
      vertex   -1.062128e+003 -4.353193e+002 5.280473e+002
    endloop
  endfacet
endsolid
