solid ascii
  facet normal 3.498057e-013 4.296166e-012 -1.000000e+000
    outer loop
      vertex   -1.102543e+003 -4.353193e+002 5.230473e+002
      vertex   -1.102543e+003 -4.163193e+002 5.230473e+002
      vertex   -1.101243e+003 -4.353193e+002 5.230473e+002
    endloop
  endfacet
  facet normal 3.498057e-013 4.296166e-012 -1.000000e+000
    outer loop
      vertex   -1.101243e+003 -4.353193e+002 5.230473e+002
      vertex   -1.102543e+003 -4.163193e+002 5.230473e+002
      vertex   -1.101243e+003 -4.163193e+002 5.230473e+002
    endloop
  endfacet
  facet normal -3.419153e-013 -4.301341e-012 1.000000e+000
    outer loop
      vertex   -1.102558e+003 -4.163043e+002 5.230623e+002
      vertex   -1.102558e+003 -4.353343e+002 5.230623e+002
      vertex   -1.101228e+003 -4.163043e+002 5.230623e+002
    endloop
  endfacet
  facet normal -4.273941e-013 -4.295367e-012 1.000000e+000
    outer loop
      vertex   -1.101228e+003 -4.163043e+002 5.230623e+002
      vertex   -1.102558e+003 -4.353343e+002 5.230623e+002
      vertex   -1.101228e+003 -4.353343e+002 5.230623e+002
    endloop
  endfacet
  facet normal 8.745141e-014 1.000000e+000 4.296099e-012
    outer loop
      vertex   -1.101243e+003 -4.353193e+002 5.230473e+002
      vertex   -1.101243e+003 -4.353193e+002 4.780473e+002
      vertex   -1.102543e+003 -4.353193e+002 5.230473e+002
    endloop
  endfacet
  facet normal 1.311771e-013 1.000000e+000 4.297362e-012
    outer loop
      vertex   -1.102543e+003 -4.353193e+002 5.230473e+002
      vertex   -1.101243e+003 -4.353193e+002 4.780473e+002
      vertex   -1.102543e+003 -4.353193e+002 4.780473e+002
    endloop
  endfacet
  facet normal -1.000000e+000 9.573628e-014 -3.536924e-013
    outer loop
      vertex   -1.101243e+003 -4.353193e+002 5.230473e+002
      vertex   -1.101243e+003 -4.163193e+002 5.230473e+002
      vertex   -1.101243e+003 -4.353193e+002 4.780473e+002
    endloop
  endfacet
  facet normal -1.000000e+000 9.573628e-014 -3.536924e-013
    outer loop
      vertex   -1.101243e+003 -4.353193e+002 4.780473e+002
      vertex   -1.101243e+003 -4.163193e+002 5.230473e+002
      vertex   -1.101243e+003 -4.163193e+002 4.780473e+002
    endloop
  endfacet
  facet normal -1.311771e-013 -1.000000e+000 -4.294836e-012
    outer loop
      vertex   -1.102543e+003 -4.163193e+002 5.230473e+002
      vertex   -1.102543e+003 -4.163193e+002 4.780473e+002
      vertex   -1.101243e+003 -4.163193e+002 5.230473e+002
    endloop
  endfacet
  facet normal -1.311771e-013 -1.000000e+000 -4.294836e-012
    outer loop
      vertex   -1.101243e+003 -4.163193e+002 5.230473e+002
      vertex   -1.102543e+003 -4.163193e+002 4.780473e+002
      vertex   -1.101243e+003 -4.163193e+002 4.780473e+002
    endloop
  endfacet
  facet normal 1.000000e+000 -1.077033e-013 3.536924e-013
    outer loop
      vertex   -1.102543e+003 -4.163193e+002 5.230473e+002
      vertex   -1.102543e+003 -4.353193e+002 5.230473e+002
      vertex   -1.102543e+003 -4.163193e+002 4.780473e+002
    endloop
  endfacet
  facet normal 1.000000e+000 -1.077033e-013 3.536924e-013
    outer loop
      vertex   -1.102543e+003 -4.163193e+002 4.780473e+002
      vertex   -1.102543e+003 -4.353193e+002 5.230473e+002
      vertex   -1.102543e+003 -4.353193e+002 4.780473e+002
    endloop
  endfacet
  facet normal -4.273941e-014 -1.000000e+000 -4.297193e-012
    outer loop
      vertex   -1.102558e+003 -4.353343e+002 5.230623e+002
      vertex   -1.102558e+003 -4.353343e+002 4.780473e+002
      vertex   -1.101228e+003 -4.353343e+002 5.230623e+002
    endloop
  endfacet
  facet normal -1.282182e-013 -1.000000e+000 -4.294668e-012
    outer loop
      vertex   -1.101228e+003 -4.353343e+002 5.230623e+002
      vertex   -1.102558e+003 -4.353343e+002 4.780473e+002
      vertex   -1.101228e+003 -4.353343e+002 4.780473e+002
    endloop
  endfacet
  facet normal 1.000000e+000 -1.075335e-013 3.535745e-013
    outer loop
      vertex   -1.101228e+003 -4.353343e+002 4.780473e+002
      vertex   -1.101228e+003 -4.163043e+002 4.780473e+002
      vertex   -1.101228e+003 -4.353343e+002 5.230623e+002
    endloop
  endfacet
  facet normal 1.000000e+000 -1.075335e-013 3.535745e-013
    outer loop
      vertex   -1.101228e+003 -4.353343e+002 5.230623e+002
      vertex   -1.101228e+003 -4.163043e+002 4.780473e+002
      vertex   -1.101228e+003 -4.163043e+002 5.230623e+002
    endloop
  endfacet
  facet normal 8.547883e-014 1.000000e+000 4.294668e-012
    outer loop
      vertex   -1.101228e+003 -4.163043e+002 5.230623e+002
      vertex   -1.101228e+003 -4.163043e+002 4.780473e+002
      vertex   -1.102558e+003 -4.163043e+002 5.230623e+002
    endloop
  endfacet
  facet normal 1.282182e-013 1.000000e+000 4.295930e-012
    outer loop
      vertex   -1.102558e+003 -4.163043e+002 5.230623e+002
      vertex   -1.101228e+003 -4.163043e+002 4.780473e+002
      vertex   -1.102558e+003 -4.163043e+002 4.780473e+002
    endloop
  endfacet
  facet normal -1.000000e+000 9.558536e-014 -3.535745e-013
    outer loop
      vertex   -1.102558e+003 -4.163043e+002 4.780473e+002
      vertex   -1.102558e+003 -4.353343e+002 4.780473e+002
      vertex   -1.102558e+003 -4.163043e+002 5.230623e+002
    endloop
  endfacet
  facet normal -1.000000e+000 9.558536e-014 -3.535745e-013
    outer loop
      vertex   -1.102558e+003 -4.163043e+002 5.230623e+002
      vertex   -1.102558e+003 -4.353343e+002 4.780473e+002
      vertex   -1.102558e+003 -4.353343e+002 5.230623e+002
    endloop
  endfacet
  facet normal 3.498057e-013 4.139367e-012 -1.000000e+000
    outer loop
      vertex   -1.101243e+003 -4.353193e+002 4.780473e+002
      vertex   -1.101228e+003 -4.353343e+002 4.780473e+002
      vertex   -1.102543e+003 -4.353193e+002 4.780473e+002
    endloop
  endfacet
  facet normal 5.066045e-013 4.296166e-012 -1.000000e+000
    outer loop
      vertex   -1.101243e+003 -4.353193e+002 4.780473e+002
      vertex   -1.101243e+003 -4.163193e+002 4.780473e+002
      vertex   -1.101228e+003 -4.353343e+002 4.780473e+002
    endloop
  endfacet
  facet normal -4.292380e-012 4.292380e-012 -1.000000e+000
    outer loop
      vertex   -1.101228e+003 -4.353343e+002 4.780473e+002
      vertex   -1.101243e+003 -4.163193e+002 4.780473e+002
      vertex   -1.101228e+003 -4.163043e+002 4.780473e+002
    endloop
  endfacet
  facet normal 3.498057e-013 -3.498057e-013 -1.000000e+000
    outer loop
      vertex   -1.101228e+003 -4.163043e+002 4.780473e+002
      vertex   -1.101243e+003 -4.163193e+002 4.780473e+002
      vertex   -1.102543e+003 -4.163193e+002 4.780473e+002
    endloop
  endfacet
  facet normal 5.066045e-013 4.296166e-012 -1.000000e+000
    outer loop
      vertex   -1.102558e+003 -4.163043e+002 4.780473e+002
      vertex   -1.102543e+003 -4.163193e+002 4.780473e+002
      vertex   -1.102543e+003 -4.353193e+002 4.780473e+002
    endloop
  endfacet
  facet normal 2.991759e-013 -2.991759e-013 -1.000000e+000
    outer loop
      vertex   -1.102558e+003 -4.353343e+002 4.780473e+002
      vertex   -1.102543e+003 -4.353193e+002 4.780473e+002
      vertex   -1.101228e+003 -4.353343e+002 4.780473e+002
    endloop
  endfacet
  facet normal -4.292380e-012 4.292380e-012 -1.000000e+000
    outer loop
      vertex   -1.102558e+003 -4.353343e+002 4.780473e+002
      vertex   -1.102558e+003 -4.163043e+002 4.780473e+002
      vertex   -1.102543e+003 -4.353193e+002 4.780473e+002
    endloop
  endfacet
  facet normal 2.991759e-013 4.088737e-012 -1.000000e+000
    outer loop
      vertex   -1.101228e+003 -4.163043e+002 4.780473e+002
      vertex   -1.102543e+003 -4.163193e+002 4.780473e+002
      vertex   -1.102558e+003 -4.163043e+002 4.780473e+002
    endloop
  endfacet
endsolid
