solid ascii
  facet normal 3.520771e-013 4.273941e-012 -1.000000e+000
    outer loop
      vertex   -1.068113e+003 -4.377493e+002 5.230623e+002
      vertex   -1.098143e+003 -4.377493e+002 5.230623e+002
      vertex   -1.068113e+003 -4.364193e+002 5.230623e+002
    endloop
  endfacet
  facet normal 3.520771e-013 4.273941e-012 -1.000000e+000
    outer loop
      vertex   -1.068113e+003 -4.364193e+002 5.230623e+002
      vertex   -1.098143e+003 -4.377493e+002 5.230623e+002
      vertex   -1.098143e+003 -4.364193e+002 5.230623e+002
    endloop
  endfacet
  facet normal -3.540038e-013 -4.323302e-012 1.000000e+000
    outer loop
      vertex   -1.067713e+003 -4.360193e+002 5.234623e+002
      vertex   -1.098543e+003 -4.360193e+002 5.234623e+002
      vertex   -1.067713e+003 -4.381493e+002 5.234623e+002
    endloop
  endfacet
  facet normal -3.540038e-013 -4.323302e-012 1.000000e+000
    outer loop
      vertex   -1.067713e+003 -4.381493e+002 5.234623e+002
      vertex   -1.098543e+003 -4.360193e+002 5.234623e+002
      vertex   -1.098543e+003 -4.381493e+002 5.234623e+002
    endloop
  endfacet
  facet normal 1.041088e-013 1.000000e+000 4.294668e-012
    outer loop
      vertex   -1.068113e+003 -4.377493e+002 4.780473e+002
      vertex   -1.098143e+003 -4.377493e+002 4.780473e+002
      vertex   -1.068113e+003 -4.377493e+002 5.230623e+002
    endloop
  endfacet
  facet normal 1.022159e-013 1.000000e+000 4.295930e-012
    outer loop
      vertex   -1.068113e+003 -4.377493e+002 5.230623e+002
      vertex   -1.098143e+003 -4.377493e+002 4.780473e+002
      vertex   -1.098143e+003 -4.377493e+002 5.230623e+002
    endloop
  endfacet
  facet normal 1.000000e+000 -1.524973e-024 3.535745e-013
    outer loop
      vertex   -1.098143e+003 -4.364193e+002 4.780473e+002
      vertex   -1.098143e+003 -4.364193e+002 5.230623e+002
      vertex   -1.098143e+003 -4.377493e+002 4.780473e+002
    endloop
  endfacet
  facet normal 1.000000e+000 -1.511157e-024 3.535745e-013
    outer loop
      vertex   -1.098143e+003 -4.377493e+002 4.780473e+002
      vertex   -1.098143e+003 -4.364193e+002 5.230623e+002
      vertex   -1.098143e+003 -4.377493e+002 5.230623e+002
    endloop
  endfacet
  facet normal -1.000000e+000 1.067482e-013 -3.504604e-013
    outer loop
      vertex   -1.098543e+003 -4.360193e+002 4.780473e+002
      vertex   -1.098543e+003 -4.381493e+002 4.780473e+002
      vertex   -1.098543e+003 -4.360193e+002 5.234623e+002
    endloop
  endfacet
  facet normal -1.000000e+000 2.134964e-013 -3.554669e-013
    outer loop
      vertex   -1.098543e+003 -4.360193e+002 5.234623e+002
      vertex   -1.098543e+003 -4.381493e+002 4.780473e+002
      vertex   -1.098543e+003 -4.381493e+002 5.234623e+002
    endloop
  endfacet
  facet normal -1.069386e-013 -1.000000e+000 -4.296894e-012
    outer loop
      vertex   -1.098543e+003 -4.381493e+002 4.780473e+002
      vertex   -1.067713e+003 -4.381493e+002 4.780473e+002
      vertex   -1.098543e+003 -4.381493e+002 5.234623e+002
    endloop
  endfacet
  facet normal -1.032511e-013 -1.000000e+000 -4.294391e-012
    outer loop
      vertex   -1.098543e+003 -4.381493e+002 5.234623e+002
      vertex   -1.067713e+003 -4.381493e+002 4.780473e+002
      vertex   -1.067713e+003 -4.381493e+002 5.234623e+002
    endloop
  endfacet
  facet normal -1.060017e-013 -1.000000e+000 -4.297193e-012
    outer loop
      vertex   -1.098143e+003 -4.364193e+002 4.780473e+002
      vertex   -1.068113e+003 -4.364193e+002 4.780473e+002
      vertex   -1.098143e+003 -4.364193e+002 5.230623e+002
    endloop
  endfacet
  facet normal -1.041088e-013 -1.000000e+000 -4.295930e-012
    outer loop
      vertex   -1.098143e+003 -4.364193e+002 5.230623e+002
      vertex   -1.068113e+003 -4.364193e+002 4.780473e+002
      vertex   -1.068113e+003 -4.364193e+002 5.230623e+002
    endloop
  endfacet
  facet normal -1.000000e+000 1.709577e-013 -3.535745e-013
    outer loop
      vertex   -1.068113e+003 -4.377493e+002 4.780473e+002
      vertex   -1.068113e+003 -4.377493e+002 5.230623e+002
      vertex   -1.068113e+003 -4.364193e+002 4.780473e+002
    endloop
  endfacet
  facet normal -1.000000e+000 1.709577e-013 -3.535745e-013
    outer loop
      vertex   -1.068113e+003 -4.364193e+002 4.780473e+002
      vertex   -1.068113e+003 -4.377493e+002 5.230623e+002
      vertex   -1.068113e+003 -4.364193e+002 5.230623e+002
    endloop
  endfacet
  facet normal 1.000000e+000 -2.134964e-013 3.504604e-013
    outer loop
      vertex   -1.067713e+003 -4.381493e+002 4.780473e+002
      vertex   -1.067713e+003 -4.360193e+002 4.780473e+002
      vertex   -1.067713e+003 -4.381493e+002 5.234623e+002
    endloop
  endfacet
  facet normal 1.000000e+000 -1.067482e-013 3.554669e-013
    outer loop
      vertex   -1.067713e+003 -4.381493e+002 5.234623e+002
      vertex   -1.067713e+003 -4.360193e+002 4.780473e+002
      vertex   -1.067713e+003 -4.360193e+002 5.234623e+002
    endloop
  endfacet
  facet normal 1.032511e-013 1.000000e+000 4.295643e-012
    outer loop
      vertex   -1.067713e+003 -4.360193e+002 4.780473e+002
      vertex   -1.098543e+003 -4.360193e+002 4.780473e+002
      vertex   -1.067713e+003 -4.360193e+002 5.234623e+002
    endloop
  endfacet
  facet normal 1.032511e-013 1.000000e+000 4.295643e-012
    outer loop
      vertex   -1.067713e+003 -4.360193e+002 5.234623e+002
      vertex   -1.098543e+003 -4.360193e+002 4.780473e+002
      vertex   -1.098543e+003 -4.360193e+002 5.234623e+002
    endloop
  endfacet
  facet normal 3.729014e-013 4.316681e-012 -1.000000e+000
    outer loop
      vertex   -1.068113e+003 -4.377493e+002 4.780473e+002
      vertex   -1.068113e+003 -4.364193e+002 4.780473e+002
      vertex   -1.067713e+003 -4.360193e+002 4.780473e+002
    endloop
  endfacet
  facet normal 4.596845e-013 4.296615e-012 -1.000000e+000
    outer loop
      vertex   -1.067713e+003 -4.381493e+002 4.780473e+002
      vertex   -1.068113e+003 -4.377493e+002 4.780473e+002
      vertex   -1.067713e+003 -4.360193e+002 4.780473e+002
    endloop
  endfacet
  facet normal 3.540038e-013 4.190935e-012 -1.000000e+000
    outer loop
      vertex   -1.067713e+003 -4.381493e+002 4.780473e+002
      vertex   -1.098543e+003 -4.381493e+002 4.780473e+002
      vertex   -1.068113e+003 -4.377493e+002 4.780473e+002
    endloop
  endfacet
  facet normal 3.520771e-013 4.337505e-012 -1.000000e+000
    outer loop
      vertex   -1.068113e+003 -4.377493e+002 4.780473e+002
      vertex   -1.098543e+003 -4.381493e+002 4.780473e+002
      vertex   -1.098143e+003 -4.377493e+002 4.780473e+002
    endloop
  endfacet
  facet normal 3.662798e-013 4.323302e-012 -1.000000e+000
    outer loop
      vertex   -1.098143e+003 -4.377493e+002 4.780473e+002
      vertex   -1.098543e+003 -4.381493e+002 4.780473e+002
      vertex   -1.098543e+003 -4.360193e+002 4.780473e+002
    endloop
  endfacet
  facet normal 3.521600e-013 4.331199e-012 -1.000000e+000
    outer loop
      vertex   -1.098143e+003 -4.364193e+002 4.780473e+002
      vertex   -1.098543e+003 -4.360193e+002 4.780473e+002
      vertex   -1.067713e+003 -4.360193e+002 4.780473e+002
    endloop
  endfacet
  facet normal 3.520771e-013 4.337505e-012 -1.000000e+000
    outer loop
      vertex   -1.068113e+003 -4.364193e+002 4.780473e+002
      vertex   -1.098143e+003 -4.364193e+002 4.780473e+002
      vertex   -1.067713e+003 -4.360193e+002 4.780473e+002
    endloop
  endfacet
  facet normal 3.376414e-013 4.316681e-012 -1.000000e+000
    outer loop
      vertex   -1.098143e+003 -4.364193e+002 4.780473e+002
      vertex   -1.098143e+003 -4.377493e+002 4.780473e+002
      vertex   -1.098543e+003 -4.360193e+002 4.780473e+002
    endloop
  endfacet
endsolid
