solid ascii
  facet normal 1.000000e+000 -1.527103e-024 3.524292e-013
    outer loop
      vertex   -1.068128e+003 -4.139043e+002 4.830473e+002
      vertex   -1.068128e+003 -4.139043e+002 5.230473e+002
      vertex   -1.068128e+003 -4.152043e+002 4.830473e+002
    endloop
  endfacet
  facet normal 1.000000e+000 -1.749028e-013 3.581135e-013
    outer loop
      vertex   -1.068128e+003 -4.152043e+002 4.830473e+002
      vertex   -1.068128e+003 -4.139043e+002 5.230473e+002
      vertex   -1.068128e+003 -4.152043e+002 5.230473e+002
    endloop
  endfacet
  facet normal 3.562188e-013 4.241394e-012 -1.000000e+000
    outer loop
      vertex   -1.098128e+003 -4.139043e+002 4.830473e+002
      vertex   -1.068128e+003 -4.139043e+002 4.830473e+002
      vertex   -1.098128e+003 -4.152043e+002 4.830473e+002
    endloop
  endfacet
  facet normal 3.524292e-013 4.328845e-012 -1.000000e+000
    outer loop
      vertex   -1.098128e+003 -4.152043e+002 4.830473e+002
      vertex   -1.068128e+003 -4.139043e+002 4.830473e+002
      vertex   -1.068128e+003 -4.152043e+002 4.830473e+002
    endloop
  endfacet
  facet normal -1.000000e+000 1.749028e-013 -3.524292e-013
    outer loop
      vertex   -1.098128e+003 -4.139043e+002 5.230473e+002
      vertex   -1.098128e+003 -4.139043e+002 4.830473e+002
      vertex   -1.098128e+003 -4.152043e+002 5.230473e+002
    endloop
  endfacet
  facet normal -1.000000e+000 1.518900e-024 -3.581135e-013
    outer loop
      vertex   -1.098128e+003 -4.152043e+002 5.230473e+002
      vertex   -1.098128e+003 -4.139043e+002 4.830473e+002
      vertex   -1.098128e+003 -4.152043e+002 4.830473e+002
    endloop
  endfacet
  facet normal -3.524292e-013 -4.285119e-012 1.000000e+000
    outer loop
      vertex   -1.068128e+003 -4.139043e+002 5.230473e+002
      vertex   -1.098128e+003 -4.139043e+002 5.230473e+002
      vertex   -1.068128e+003 -4.152043e+002 5.230473e+002
    endloop
  endfacet
  facet normal -3.524292e-013 -4.285119e-012 1.000000e+000
    outer loop
      vertex   -1.068128e+003 -4.152043e+002 5.230473e+002
      vertex   -1.098128e+003 -4.139043e+002 5.230473e+002
      vertex   -1.098128e+003 -4.152043e+002 5.230473e+002
    endloop
  endfacet
  facet normal -1.023182e-013 -1.000000e+000 -4.294520e-012
    outer loop
      vertex   -1.068128e+003 -4.152043e+002 5.230473e+002
      vertex   -1.098128e+003 -4.152043e+002 5.230473e+002
      vertex   -1.068128e+003 -4.152043e+002 4.830473e+002
    endloop
  endfacet
  facet normal -1.023182e-013 -1.000000e+000 -4.294520e-012
    outer loop
      vertex   -1.068128e+003 -4.152043e+002 4.830473e+002
      vertex   -1.098128e+003 -4.152043e+002 5.230473e+002
      vertex   -1.098128e+003 -4.152043e+002 4.830473e+002
    endloop
  endfacet
  facet normal 1.042129e-013 1.000000e+000 4.295941e-012
    outer loop
      vertex   -1.098128e+003 -4.139043e+002 5.230473e+002
      vertex   -1.068128e+003 -4.139043e+002 5.230473e+002
      vertex   -1.098128e+003 -4.139043e+002 4.830473e+002
    endloop
  endfacet
  facet normal 1.042129e-013 1.000000e+000 4.295941e-012
    outer loop
      vertex   -1.098128e+003 -4.139043e+002 4.830473e+002
      vertex   -1.068128e+003 -4.139043e+002 5.230473e+002
      vertex   -1.068128e+003 -4.139043e+002 4.830473e+002
    endloop
  endfacet
endsolid
