solid ascii
  facet normal -5.773503e-001 -2.113249e-001 7.886751e-001
    outer loop
      vertex   -1.094112e+003 -3.622531e+002 5.746134e+002
      vertex   -1.053698e+003 -4.174604e+002 5.894062e+002
      vertex   -1.093766e+003 -3.619067e+002 5.749598e+002
    endloop
  endfacet
  facet normal -5.773503e-001 -2.113249e-001 7.886751e-001
    outer loop
      vertex   -1.093766e+003 -3.619067e+002 5.749598e+002
      vertex   -1.053698e+003 -4.174604e+002 5.894062e+002
      vertex   -1.053351e+003 -4.171140e+002 5.897526e+002
    endloop
  endfacet
  facet normal -5.995718e-001 7.797705e-001 -1.801987e-001
    outer loop
      vertex   -1.094112e+003 -3.542531e+002 5.666134e+002
      vertex   -1.094460e+003 -3.544052e+002 5.671137e+002
      vertex   -1.093766e+003 -3.539067e+002 5.669598e+002
    endloop
  endfacet
  facet normal -5.995718e-001 7.797705e-001 -1.801987e-001
    outer loop
      vertex   -1.093766e+003 -3.539067e+002 5.669598e+002
      vertex   -1.094460e+003 -3.544052e+002 5.671137e+002
      vertex   -1.094114e+003 -3.540588e+002 5.674601e+002
    endloop
  endfacet
  facet normal -6.412086e-001 7.583698e-001 -1.171612e-001
    outer loop
      vertex   -1.094114e+003 -3.540588e+002 5.674601e+002
      vertex   -1.094460e+003 -3.544052e+002 5.671137e+002
      vertex   -1.094778e+003 -3.545953e+002 5.676213e+002
    endloop
  endfacet
  facet normal -6.788921e-001 7.322935e-001 -5.340143e-002
    outer loop
      vertex   -1.094432e+003 -3.542489e+002 5.679677e+002
      vertex   -1.094778e+003 -3.545953e+002 5.676213e+002
      vertex   -1.095063e+003 -3.548221e+002 5.681330e+002
    endloop
  endfacet
  facet normal -7.123900e-001 7.017024e-001 1.068761e-002
    outer loop
      vertex   -1.094716e+003 -3.544757e+002 5.684795e+002
      vertex   -1.095063e+003 -3.548221e+002 5.681330e+002
      vertex   -1.095313e+003 -3.550843e+002 5.686459e+002
    endloop
  endfacet
  facet normal -7.414958e-001 6.667850e-001 7.471076e-002
    outer loop
      vertex   -1.094967e+003 -3.547379e+002 5.689923e+002
      vertex   -1.095313e+003 -3.550843e+002 5.686459e+002
      vertex   -1.095528e+003 -3.553804e+002 5.691566e+002
    endloop
  endfacet
  facet normal -7.660300e-001 6.277567e-001 1.382733e-001
    outer loop
      vertex   -1.095182e+003 -3.550339e+002 5.695030e+002
      vertex   -1.095528e+003 -3.553804e+002 5.691566e+002
      vertex   -1.095706e+003 -3.557083e+002 5.696621e+002
    endloop
  endfacet
  facet normal -7.858414e-001 5.848581e-001 2.009833e-001
    outer loop
      vertex   -1.095359e+003 -3.553619e+002 5.700085e+002
      vertex   -1.095706e+003 -3.557083e+002 5.696621e+002
      vertex   -1.095845e+003 -3.560662e+002 5.701592e+002
    endloop
  endfacet
  facet normal -8.008078e-001 5.383536e-001 2.624542e-001
    outer loop
      vertex   -1.095499e+003 -3.557198e+002 5.705056e+002
      vertex   -1.095845e+003 -3.560662e+002 5.701592e+002
      vertex   -1.095945e+003 -3.564518e+002 5.706449e+002
    endloop
  endfacet
  facet normal -8.108370e-001 4.885300e-001 3.223070e-001
    outer loop
      vertex   -1.095599e+003 -3.561054e+002 5.709913e+002
      vertex   -1.095945e+003 -3.564518e+002 5.706449e+002
      vertex   -1.096005e+003 -3.568628e+002 5.711161e+002
    endloop
  endfacet
  facet normal -8.158671e-001 4.356944e-001 3.801727e-001
    outer loop
      vertex   -1.095659e+003 -3.565164e+002 5.714625e+002
      vertex   -1.096005e+003 -3.568628e+002 5.711161e+002
      vertex   -1.096025e+003 -3.572965e+002 5.715700e+002
    endloop
  endfacet
  facet normal -8.158671e-001 3.801727e-001 4.356944e-001
    outer loop
      vertex   -1.095679e+003 -3.569501e+002 5.719164e+002
      vertex   -1.096025e+003 -3.572965e+002 5.715700e+002
      vertex   -1.096005e+003 -3.577504e+002 5.720038e+002
    endloop
  endfacet
  facet normal -8.108370e-001 3.223070e-001 4.885300e-001
    outer loop
      vertex   -1.095659e+003 -3.574040e+002 5.723502e+002
      vertex   -1.096005e+003 -3.577504e+002 5.720038e+002
      vertex   -1.095945e+003 -3.582217e+002 5.724147e+002
    endloop
  endfacet
  facet normal -8.008078e-001 2.624542e-001 5.383536e-001
    outer loop
      vertex   -1.095599e+003 -3.578753e+002 5.727611e+002
      vertex   -1.095945e+003 -3.582217e+002 5.724147e+002
      vertex   -1.095845e+003 -3.587073e+002 5.728003e+002
    endloop
  endfacet
  facet normal -7.858414e-001 2.009833e-001 5.848581e-001
    outer loop
      vertex   -1.095499e+003 -3.583609e+002 5.731468e+002
      vertex   -1.095845e+003 -3.587073e+002 5.728003e+002
      vertex   -1.095359e+003 -3.588580e+002 5.735046e+002
    endloop
  endfacet
  facet normal -8.008078e-001 2.624542e-001 5.383536e-001
    outer loop
      vertex   -1.095499e+003 -3.583609e+002 5.731468e+002
      vertex   -1.095599e+003 -3.578753e+002 5.727611e+002
      vertex   -1.095845e+003 -3.587073e+002 5.728003e+002
    endloop
  endfacet
  facet normal -6.412086e-001 7.583698e-001 -1.171612e-001
    outer loop
      vertex   -1.094114e+003 -3.540588e+002 5.674601e+002
      vertex   -1.094778e+003 -3.545953e+002 5.676213e+002
      vertex   -1.094432e+003 -3.542489e+002 5.679677e+002
    endloop
  endfacet
  facet normal -6.788921e-001 7.322935e-001 -5.340143e-002
    outer loop
      vertex   -1.094432e+003 -3.542489e+002 5.679677e+002
      vertex   -1.095063e+003 -3.548221e+002 5.681330e+002
      vertex   -1.094716e+003 -3.544757e+002 5.684795e+002
    endloop
  endfacet
  facet normal -7.123900e-001 7.017024e-001 1.068761e-002
    outer loop
      vertex   -1.094716e+003 -3.544757e+002 5.684795e+002
      vertex   -1.095313e+003 -3.550843e+002 5.686459e+002
      vertex   -1.094967e+003 -3.547379e+002 5.689923e+002
    endloop
  endfacet
  facet normal -7.414958e-001 6.667850e-001 7.471076e-002
    outer loop
      vertex   -1.094967e+003 -3.547379e+002 5.689923e+002
      vertex   -1.095528e+003 -3.553804e+002 5.691566e+002
      vertex   -1.095182e+003 -3.550339e+002 5.695030e+002
    endloop
  endfacet
  facet normal -7.660300e-001 6.277567e-001 1.382733e-001
    outer loop
      vertex   -1.095182e+003 -3.550339e+002 5.695030e+002
      vertex   -1.095706e+003 -3.557083e+002 5.696621e+002
      vertex   -1.095359e+003 -3.553619e+002 5.700085e+002
    endloop
  endfacet
  facet normal -7.858414e-001 5.848581e-001 2.009833e-001
    outer loop
      vertex   -1.095359e+003 -3.553619e+002 5.700085e+002
      vertex   -1.095845e+003 -3.560662e+002 5.701592e+002
      vertex   -1.095499e+003 -3.557198e+002 5.705056e+002
    endloop
  endfacet
  facet normal -8.008078e-001 5.383536e-001 2.624542e-001
    outer loop
      vertex   -1.095499e+003 -3.557198e+002 5.705056e+002
      vertex   -1.095945e+003 -3.564518e+002 5.706449e+002
      vertex   -1.095599e+003 -3.561054e+002 5.709913e+002
    endloop
  endfacet
  facet normal -8.108370e-001 4.885300e-001 3.223070e-001
    outer loop
      vertex   -1.095599e+003 -3.561054e+002 5.709913e+002
      vertex   -1.096005e+003 -3.568628e+002 5.711161e+002
      vertex   -1.095659e+003 -3.565164e+002 5.714625e+002
    endloop
  endfacet
  facet normal -8.158671e-001 4.356944e-001 3.801727e-001
    outer loop
      vertex   -1.095659e+003 -3.565164e+002 5.714625e+002
      vertex   -1.096025e+003 -3.572965e+002 5.715700e+002
      vertex   -1.095679e+003 -3.569501e+002 5.719164e+002
    endloop
  endfacet
  facet normal -8.158671e-001 3.801727e-001 4.356944e-001
    outer loop
      vertex   -1.095679e+003 -3.569501e+002 5.719164e+002
      vertex   -1.096005e+003 -3.577504e+002 5.720038e+002
      vertex   -1.095659e+003 -3.574040e+002 5.723502e+002
    endloop
  endfacet
  facet normal -8.108370e-001 3.223070e-001 4.885300e-001
    outer loop
      vertex   -1.095659e+003 -3.574040e+002 5.723502e+002
      vertex   -1.095945e+003 -3.582217e+002 5.724147e+002
      vertex   -1.095599e+003 -3.578753e+002 5.727611e+002
    endloop
  endfacet
  facet normal -7.858414e-001 2.009833e-001 5.848581e-001
    outer loop
      vertex   -1.095845e+003 -3.587073e+002 5.728003e+002
      vertex   -1.095706e+003 -3.592044e+002 5.731582e+002
      vertex   -1.095359e+003 -3.588580e+002 5.735046e+002
    endloop
  endfacet
  facet normal -7.660300e-001 1.382733e-001 6.277567e-001
    outer loop
      vertex   -1.095359e+003 -3.588580e+002 5.735046e+002
      vertex   -1.095706e+003 -3.592044e+002 5.731582e+002
      vertex   -1.095528e+003 -3.597099e+002 5.734862e+002
    endloop
  endfacet
  facet normal -7.414958e-001 7.471076e-002 6.667850e-001
    outer loop
      vertex   -1.095182e+003 -3.593635e+002 5.738326e+002
      vertex   -1.095528e+003 -3.597099e+002 5.734862e+002
      vertex   -1.095313e+003 -3.602207e+002 5.737822e+002
    endloop
  endfacet
  facet normal -7.123900e-001 1.068761e-002 7.017024e-001
    outer loop
      vertex   -1.094967e+003 -3.598742e+002 5.741286e+002
      vertex   -1.095313e+003 -3.602207e+002 5.737822e+002
      vertex   -1.095063e+003 -3.607335e+002 5.740444e+002
    endloop
  endfacet
  facet normal -6.788921e-001 -5.340143e-002 7.322935e-001
    outer loop
      vertex   -1.094716e+003 -3.603871e+002 5.743909e+002
      vertex   -1.095063e+003 -3.607335e+002 5.740444e+002
      vertex   -1.094778e+003 -3.612453e+002 5.742713e+002
    endloop
  endfacet
  facet normal -6.412086e-001 -1.171612e-001 7.583698e-001
    outer loop
      vertex   -1.094432e+003 -3.608989e+002 5.746177e+002
      vertex   -1.094778e+003 -3.612453e+002 5.742713e+002
      vertex   -1.094460e+003 -3.617529e+002 5.744613e+002
    endloop
  endfacet
  facet normal -5.995718e-001 -1.801987e-001 7.797705e-001
    outer loop
      vertex   -1.094114e+003 -3.614065e+002 5.748078e+002
      vertex   -1.094460e+003 -3.617529e+002 5.744613e+002
      vertex   -1.094112e+003 -3.622531e+002 5.746134e+002
    endloop
  endfacet
  facet normal -5.995718e-001 -1.801987e-001 7.797705e-001
    outer loop
      vertex   -1.093766e+003 -3.619067e+002 5.749598e+002
      vertex   -1.094114e+003 -3.614065e+002 5.748078e+002
      vertex   -1.094112e+003 -3.622531e+002 5.746134e+002
    endloop
  endfacet
  facet normal -7.660300e-001 1.382733e-001 6.277567e-001
    outer loop
      vertex   -1.095359e+003 -3.588580e+002 5.735046e+002
      vertex   -1.095528e+003 -3.597099e+002 5.734862e+002
      vertex   -1.095182e+003 -3.593635e+002 5.738326e+002
    endloop
  endfacet
  facet normal -7.414958e-001 7.471076e-002 6.667850e-001
    outer loop
      vertex   -1.095182e+003 -3.593635e+002 5.738326e+002
      vertex   -1.095313e+003 -3.602207e+002 5.737822e+002
      vertex   -1.094967e+003 -3.598742e+002 5.741286e+002
    endloop
  endfacet
  facet normal -7.123900e-001 1.068761e-002 7.017024e-001
    outer loop
      vertex   -1.094967e+003 -3.598742e+002 5.741286e+002
      vertex   -1.095063e+003 -3.607335e+002 5.740444e+002
      vertex   -1.094716e+003 -3.603871e+002 5.743909e+002
    endloop
  endfacet
  facet normal -6.788921e-001 -5.340143e-002 7.322935e-001
    outer loop
      vertex   -1.094716e+003 -3.603871e+002 5.743909e+002
      vertex   -1.094778e+003 -3.612453e+002 5.742713e+002
      vertex   -1.094432e+003 -3.608989e+002 5.746177e+002
    endloop
  endfacet
  facet normal -6.412086e-001 -1.171612e-001 7.583698e-001
    outer loop
      vertex   -1.094432e+003 -3.608989e+002 5.746177e+002
      vertex   -1.094460e+003 -3.617529e+002 5.744613e+002
      vertex   -1.094114e+003 -3.614065e+002 5.748078e+002
    endloop
  endfacet
  facet normal -5.773503e-001 7.886751e-001 -2.113249e-001
    outer loop
      vertex   -1.053698e+003 -3.394604e+002 5.114062e+002
      vertex   -1.094112e+003 -3.542531e+002 5.666134e+002
      vertex   -1.053351e+003 -3.391140e+002 5.117526e+002
    endloop
  endfacet
  facet normal -5.773503e-001 7.886751e-001 -2.113249e-001
    outer loop
      vertex   -1.053351e+003 -3.391140e+002 5.117526e+002
      vertex   -1.094112e+003 -3.542531e+002 5.666134e+002
      vertex   -1.093766e+003 -3.539067e+002 5.669598e+002
    endloop
  endfacet
  facet normal 5.542385e-001 2.421252e-001 -7.963637e-001
    outer loop
      vertex   -1.044460e+003 -3.440792e+002 5.067874e+002
      vertex   -1.044837e+003 -3.435894e+002 5.066742e+002
      vertex   -1.044114e+003 -3.437328e+002 5.071338e+002
    endloop
  endfacet
  facet normal 5.542385e-001 2.421252e-001 -7.963637e-001
    outer loop
      vertex   -1.044114e+003 -3.437328e+002 5.071338e+002
      vertex   -1.044837e+003 -3.435894e+002 5.066742e+002
      vertex   -1.044490e+003 -3.432429e+002 5.070206e+002
    endloop
  endfacet
  facet normal 5.054881e-001 3.025589e-001 -8.080470e-001
    outer loop
      vertex   -1.044490e+003 -3.432429e+002 5.070206e+002
      vertex   -1.044837e+003 -3.435894e+002 5.066742e+002
      vertex   -1.045240e+003 -3.431130e+002 5.066006e+002
    endloop
  endfacet
  facet normal 4.536212e-001 3.611272e-001 -8.147484e-001
    outer loop
      vertex   -1.044893e+003 -3.427666e+002 5.069470e+002
      vertex   -1.045240e+003 -3.431130e+002 5.066006e+002
      vertex   -1.045666e+003 -3.426530e+002 5.065670e+002
    endloop
  endfacet
  facet normal 3.989576e-001 4.174691e-001 -8.164266e-001
    outer loop
      vertex   -1.045320e+003 -3.423066e+002 5.069135e+002
      vertex   -1.045666e+003 -3.426530e+002 5.065670e+002
      vertex   -1.046113e+003 -3.422122e+002 5.065738e+002
    endloop
  endfacet
  facet normal 3.418342e-001 4.712371e-001 -8.130713e-001
    outer loop
      vertex   -1.045767e+003 -3.418658e+002 5.069202e+002
      vertex   -1.046113e+003 -3.422122e+002 5.065738e+002
      vertex   -1.046579e+003 -3.417934e+002 5.066207e+002
    endloop
  endfacet
  facet normal 2.826034e-001 5.220998e-001 -8.047032e-001
    outer loop
      vertex   -1.046233e+003 -3.414470e+002 5.069671e+002
      vertex   -1.046579e+003 -3.417934e+002 5.066207e+002
      vertex   -1.047060e+003 -3.413990e+002 5.067075e+002
    endloop
  endfacet
  facet normal 2.216302e-001 5.697435e-001 -7.913737e-001
    outer loop
      vertex   -1.046714e+003 -3.410526e+002 5.070540e+002
      vertex   -1.047060e+003 -3.413990e+002 5.067075e+002
      vertex   -1.047554e+003 -3.410317e+002 5.068338e+002
    endloop
  endfacet
  facet normal 1.592906e-001 6.138746e-001 -7.731652e-001
    outer loop
      vertex   -1.047208e+003 -3.406852e+002 5.071802e+002
      vertex   -1.047554e+003 -3.410317e+002 5.068338e+002
      vertex   -1.048057e+003 -3.406935e+002 5.069987e+002
    endloop
  endfacet
  facet normal 9.596888e-002 6.542210e-001 -7.501899e-001
    outer loop
      vertex   -1.047711e+003 -3.403471e+002 5.073451e+002
      vertex   -1.048057e+003 -3.406935e+002 5.069987e+002
      vertex   -1.048566e+003 -3.403866e+002 5.072011e+002
    endloop
  endfacet
  facet normal 3.205551e-002 6.905339e-001 -7.225894e-001
    outer loop
      vertex   -1.048220e+003 -3.400402e+002 5.075475e+002
      vertex   -1.048566e+003 -3.403866e+002 5.072011e+002
      vertex   -1.049079e+003 -3.401129e+002 5.074399e+002
    endloop
  endfacet
  facet normal -3.205551e-002 7.225894e-001 -6.905339e-001
    outer loop
      vertex   -1.048733e+003 -3.397665e+002 5.077863e+002
      vertex   -1.049079e+003 -3.401129e+002 5.074399e+002
      vertex   -1.049591e+003 -3.398741e+002 5.077136e+002
    endloop
  endfacet
  facet normal -9.596888e-002 7.501899e-001 -6.542210e-001
    outer loop
      vertex   -1.049245e+003 -3.395277e+002 5.080600e+002
      vertex   -1.049591e+003 -3.398741e+002 5.077136e+002
      vertex   -1.050101e+003 -3.396717e+002 5.080205e+002
    endloop
  endfacet
  facet normal -1.592906e-001 7.731652e-001 -6.138746e-001
    outer loop
      vertex   -1.049754e+003 -3.393252e+002 5.083669e+002
      vertex   -1.050101e+003 -3.396717e+002 5.080205e+002
      vertex   -1.050604e+003 -3.395068e+002 5.083586e+002
    endloop
  endfacet
  facet normal -2.216302e-001 7.913737e-001 -5.697435e-001
    outer loop
      vertex   -1.050257e+003 -3.391604e+002 5.087051e+002
      vertex   -1.050604e+003 -3.395068e+002 5.083586e+002
      vertex   -1.050751e+003 -3.390341e+002 5.090724e+002
    endloop
  endfacet
  facet normal -1.592906e-001 7.731652e-001 -6.138746e-001
    outer loop
      vertex   -1.050257e+003 -3.391604e+002 5.087051e+002
      vertex   -1.049754e+003 -3.393252e+002 5.083669e+002
      vertex   -1.050604e+003 -3.395068e+002 5.083586e+002
    endloop
  endfacet
  facet normal 5.054881e-001 3.025589e-001 -8.080470e-001
    outer loop
      vertex   -1.044490e+003 -3.432429e+002 5.070206e+002
      vertex   -1.045240e+003 -3.431130e+002 5.066006e+002
      vertex   -1.044893e+003 -3.427666e+002 5.069470e+002
    endloop
  endfacet
  facet normal 4.536212e-001 3.611272e-001 -8.147484e-001
    outer loop
      vertex   -1.044893e+003 -3.427666e+002 5.069470e+002
      vertex   -1.045666e+003 -3.426530e+002 5.065670e+002
      vertex   -1.045320e+003 -3.423066e+002 5.069135e+002
    endloop
  endfacet
  facet normal 3.989576e-001 4.174691e-001 -8.164266e-001
    outer loop
      vertex   -1.045320e+003 -3.423066e+002 5.069135e+002
      vertex   -1.046113e+003 -3.422122e+002 5.065738e+002
      vertex   -1.045767e+003 -3.418658e+002 5.069202e+002
    endloop
  endfacet
  facet normal 3.418342e-001 4.712371e-001 -8.130713e-001
    outer loop
      vertex   -1.045767e+003 -3.418658e+002 5.069202e+002
      vertex   -1.046579e+003 -3.417934e+002 5.066207e+002
      vertex   -1.046233e+003 -3.414470e+002 5.069671e+002
    endloop
  endfacet
  facet normal 2.826034e-001 5.220998e-001 -8.047032e-001
    outer loop
      vertex   -1.046233e+003 -3.414470e+002 5.069671e+002
      vertex   -1.047060e+003 -3.413990e+002 5.067075e+002
      vertex   -1.046714e+003 -3.410526e+002 5.070540e+002
    endloop
  endfacet
  facet normal 2.216302e-001 5.697435e-001 -7.913737e-001
    outer loop
      vertex   -1.046714e+003 -3.410526e+002 5.070540e+002
      vertex   -1.047554e+003 -3.410317e+002 5.068338e+002
      vertex   -1.047208e+003 -3.406852e+002 5.071802e+002
    endloop
  endfacet
  facet normal 1.592906e-001 6.138746e-001 -7.731652e-001
    outer loop
      vertex   -1.047208e+003 -3.406852e+002 5.071802e+002
      vertex   -1.048057e+003 -3.406935e+002 5.069987e+002
      vertex   -1.047711e+003 -3.403471e+002 5.073451e+002
    endloop
  endfacet
  facet normal 9.596888e-002 6.542210e-001 -7.501899e-001
    outer loop
      vertex   -1.047711e+003 -3.403471e+002 5.073451e+002
      vertex   -1.048566e+003 -3.403866e+002 5.072011e+002
      vertex   -1.048220e+003 -3.400402e+002 5.075475e+002
    endloop
  endfacet
  facet normal 3.205551e-002 6.905339e-001 -7.225894e-001
    outer loop
      vertex   -1.048220e+003 -3.400402e+002 5.075475e+002
      vertex   -1.049079e+003 -3.401129e+002 5.074399e+002
      vertex   -1.048733e+003 -3.397665e+002 5.077863e+002
    endloop
  endfacet
  facet normal -3.205551e-002 7.225894e-001 -6.905339e-001
    outer loop
      vertex   -1.048733e+003 -3.397665e+002 5.077863e+002
      vertex   -1.049591e+003 -3.398741e+002 5.077136e+002
      vertex   -1.049245e+003 -3.395277e+002 5.080600e+002
    endloop
  endfacet
  facet normal -9.596888e-002 7.501899e-001 -6.542210e-001
    outer loop
      vertex   -1.049245e+003 -3.395277e+002 5.080600e+002
      vertex   -1.050101e+003 -3.396717e+002 5.080205e+002
      vertex   -1.049754e+003 -3.393252e+002 5.083669e+002
    endloop
  endfacet
  facet normal -2.216302e-001 7.913737e-001 -5.697435e-001
    outer loop
      vertex   -1.050604e+003 -3.395068e+002 5.083586e+002
      vertex   -1.051097e+003 -3.393805e+002 5.087260e+002
      vertex   -1.050751e+003 -3.390341e+002 5.090724e+002
    endloop
  endfacet
  facet normal -2.826034e-001 8.047032e-001 -5.220998e-001
    outer loop
      vertex   -1.050751e+003 -3.390341e+002 5.090724e+002
      vertex   -1.051097e+003 -3.393805e+002 5.087260e+002
      vertex   -1.051579e+003 -3.392937e+002 5.091204e+002
    endloop
  endfacet
  facet normal -3.418342e-001 8.130713e-001 -4.712371e-001
    outer loop
      vertex   -1.051232e+003 -3.389473e+002 5.094668e+002
      vertex   -1.051579e+003 -3.392937e+002 5.091204e+002
      vertex   -1.052044e+003 -3.392468e+002 5.095392e+002
    endloop
  endfacet
  facet normal -3.989576e-001 8.164266e-001 -4.174691e-001
    outer loop
      vertex   -1.051698e+003 -3.389003e+002 5.098856e+002
      vertex   -1.052044e+003 -3.392468e+002 5.095392e+002
      vertex   -1.052492e+003 -3.392400e+002 5.099800e+002
    endloop
  endfacet
  facet normal -4.536212e-001 8.147484e-001 -3.611272e-001
    outer loop
      vertex   -1.052145e+003 -3.388936e+002 5.103264e+002
      vertex   -1.052492e+003 -3.392400e+002 5.099800e+002
      vertex   -1.052918e+003 -3.392736e+002 5.104400e+002
    endloop
  endfacet
  facet normal -5.054881e-001 8.080470e-001 -3.025589e-001
    outer loop
      vertex   -1.052572e+003 -3.389272e+002 5.107864e+002
      vertex   -1.052918e+003 -3.392736e+002 5.104400e+002
      vertex   -1.053321e+003 -3.393472e+002 5.109164e+002
    endloop
  endfacet
  facet normal -5.542385e-001 7.963637e-001 -2.421252e-001
    outer loop
      vertex   -1.052975e+003 -3.390008e+002 5.112628e+002
      vertex   -1.053321e+003 -3.393472e+002 5.109164e+002
      vertex   -1.053698e+003 -3.394604e+002 5.114062e+002
    endloop
  endfacet
  facet normal -5.542385e-001 7.963637e-001 -2.421252e-001
    outer loop
      vertex   -1.053351e+003 -3.391140e+002 5.117526e+002
      vertex   -1.052975e+003 -3.390008e+002 5.112628e+002
      vertex   -1.053698e+003 -3.394604e+002 5.114062e+002
    endloop
  endfacet
  facet normal -2.826034e-001 8.047032e-001 -5.220998e-001
    outer loop
      vertex   -1.050751e+003 -3.390341e+002 5.090724e+002
      vertex   -1.051579e+003 -3.392937e+002 5.091204e+002
      vertex   -1.051232e+003 -3.389473e+002 5.094668e+002
    endloop
  endfacet
  facet normal -3.418342e-001 8.130713e-001 -4.712371e-001
    outer loop
      vertex   -1.051232e+003 -3.389473e+002 5.094668e+002
      vertex   -1.052044e+003 -3.392468e+002 5.095392e+002
      vertex   -1.051698e+003 -3.389003e+002 5.098856e+002
    endloop
  endfacet
  facet normal -3.989576e-001 8.164266e-001 -4.174691e-001
    outer loop
      vertex   -1.051698e+003 -3.389003e+002 5.098856e+002
      vertex   -1.052492e+003 -3.392400e+002 5.099800e+002
      vertex   -1.052145e+003 -3.388936e+002 5.103264e+002
    endloop
  endfacet
  facet normal -4.536212e-001 8.147484e-001 -3.611272e-001
    outer loop
      vertex   -1.052145e+003 -3.388936e+002 5.103264e+002
      vertex   -1.052918e+003 -3.392736e+002 5.104400e+002
      vertex   -1.052572e+003 -3.389272e+002 5.107864e+002
    endloop
  endfacet
  facet normal -5.054881e-001 8.080470e-001 -3.025589e-001
    outer loop
      vertex   -1.052572e+003 -3.389272e+002 5.107864e+002
      vertex   -1.053321e+003 -3.393472e+002 5.109164e+002
      vertex   -1.052975e+003 -3.390008e+002 5.112628e+002
    endloop
  endfacet
  facet normal 5.773503e-001 2.113249e-001 -7.886751e-001
    outer loop
      vertex   -1.004046e+003 -3.992864e+002 5.215801e+002
      vertex   -1.044460e+003 -3.440792e+002 5.067874e+002
      vertex   -1.003699e+003 -3.989400e+002 5.219265e+002
    endloop
  endfacet
  facet normal 5.773503e-001 2.113249e-001 -7.886751e-001
    outer loop
      vertex   -1.003699e+003 -3.989400e+002 5.219265e+002
      vertex   -1.044460e+003 -3.440792e+002 5.067874e+002
      vertex   -1.044114e+003 -3.437328e+002 5.071338e+002
    endloop
  endfacet
  facet normal 5.995718e-001 -7.797705e-001 1.801987e-001
    outer loop
      vertex   -1.004046e+003 -4.072864e+002 5.295801e+002
      vertex   -1.003697e+003 -4.071343e+002 5.290799e+002
      vertex   -1.003699e+003 -4.069400e+002 5.299265e+002
    endloop
  endfacet
  facet normal 5.995718e-001 -7.797705e-001 1.801987e-001
    outer loop
      vertex   -1.003699e+003 -4.069400e+002 5.299265e+002
      vertex   -1.003697e+003 -4.071343e+002 5.290799e+002
      vertex   -1.003351e+003 -4.067879e+002 5.294263e+002
    endloop
  endfacet
  facet normal 6.412086e-001 -7.583698e-001 1.171612e-001
    outer loop
      vertex   -1.003351e+003 -4.067879e+002 5.294263e+002
      vertex   -1.003697e+003 -4.071343e+002 5.290799e+002
      vertex   -1.003380e+003 -4.069443e+002 5.285723e+002
    endloop
  endfacet
  facet normal 6.788921e-001 -7.322935e-001 5.340143e-002
    outer loop
      vertex   -1.003034e+003 -4.065979e+002 5.289187e+002
      vertex   -1.003380e+003 -4.069443e+002 5.285723e+002
      vertex   -1.003095e+003 -4.067174e+002 5.280605e+002
    endloop
  endfacet
  facet normal 7.123900e-001 -7.017024e-001 -1.068761e-002
    outer loop
      vertex   -1.002749e+003 -4.063710e+002 5.284069e+002
      vertex   -1.003095e+003 -4.067174e+002 5.280605e+002
      vertex   -1.002844e+003 -4.064552e+002 5.275477e+002
    endloop
  endfacet
  facet normal 7.414958e-001 -6.667850e-001 -7.471076e-002
    outer loop
      vertex   -1.002498e+003 -4.061088e+002 5.278941e+002
      vertex   -1.002844e+003 -4.064552e+002 5.275477e+002
      vertex   -1.002630e+003 -4.061592e+002 5.270369e+002
    endloop
  endfacet
  facet normal 7.660300e-001 -6.277567e-001 -1.382733e-001
    outer loop
      vertex   -1.002283e+003 -4.058128e+002 5.273833e+002
      vertex   -1.002630e+003 -4.061592e+002 5.270369e+002
      vertex   -1.002452e+003 -4.058312e+002 5.265314e+002
    endloop
  endfacet
  facet normal 7.858414e-001 -5.848581e-001 -2.009833e-001
    outer loop
      vertex   -1.002106e+003 -4.054848e+002 5.268779e+002
      vertex   -1.002452e+003 -4.058312e+002 5.265314e+002
      vertex   -1.002313e+003 -4.054733e+002 5.260343e+002
    endloop
  endfacet
  facet normal 8.008078e-001 -5.383536e-001 -2.624542e-001
    outer loop
      vertex   -1.001967e+003 -4.051269e+002 5.263807e+002
      vertex   -1.002313e+003 -4.054733e+002 5.260343e+002
      vertex   -1.002213e+003 -4.050877e+002 5.255487e+002
    endloop
  endfacet
  facet normal 8.108370e-001 -4.885300e-001 -3.223070e-001
    outer loop
      vertex   -1.001866e+003 -4.047413e+002 5.258951e+002
      vertex   -1.002213e+003 -4.050877e+002 5.255487e+002
      vertex   -1.002153e+003 -4.046768e+002 5.250774e+002
    endloop
  endfacet
  facet normal 8.158671e-001 -4.356944e-001 -3.801727e-001
    outer loop
      vertex   -1.001806e+003 -4.043304e+002 5.254238e+002
      vertex   -1.002153e+003 -4.046768e+002 5.250774e+002
      vertex   -1.002132e+003 -4.042430e+002 5.246235e+002
    endloop
  endfacet
  facet normal 8.158671e-001 -3.801727e-001 -4.356944e-001
    outer loop
      vertex   -1.001786e+003 -4.038966e+002 5.249699e+002
      vertex   -1.002132e+003 -4.042430e+002 5.246235e+002
      vertex   -1.002153e+003 -4.037891e+002 5.241898e+002
    endloop
  endfacet
  facet normal 8.108370e-001 -3.223070e-001 -4.885300e-001
    outer loop
      vertex   -1.001806e+003 -4.034427e+002 5.245362e+002
      vertex   -1.002153e+003 -4.037891e+002 5.241898e+002
      vertex   -1.002213e+003 -4.033179e+002 5.237788e+002
    endloop
  endfacet
  facet normal 8.008078e-001 -2.624542e-001 -5.383536e-001
    outer loop
      vertex   -1.001866e+003 -4.029715e+002 5.241252e+002
      vertex   -1.002213e+003 -4.033179e+002 5.237788e+002
      vertex   -1.002313e+003 -4.028322e+002 5.233932e+002
    endloop
  endfacet
  facet normal 7.858414e-001 -2.009833e-001 -5.848581e-001
    outer loop
      vertex   -1.001967e+003 -4.024858e+002 5.237396e+002
      vertex   -1.002313e+003 -4.028322e+002 5.233932e+002
      vertex   -1.002106e+003 -4.019887e+002 5.233817e+002
    endloop
  endfacet
  facet normal 8.008078e-001 -2.624542e-001 -5.383536e-001
    outer loop
      vertex   -1.001967e+003 -4.024858e+002 5.237396e+002
      vertex   -1.001866e+003 -4.029715e+002 5.241252e+002
      vertex   -1.002313e+003 -4.028322e+002 5.233932e+002
    endloop
  endfacet
  facet normal 6.412086e-001 -7.583698e-001 1.171612e-001
    outer loop
      vertex   -1.003351e+003 -4.067879e+002 5.294263e+002
      vertex   -1.003380e+003 -4.069443e+002 5.285723e+002
      vertex   -1.003034e+003 -4.065979e+002 5.289187e+002
    endloop
  endfacet
  facet normal 6.788921e-001 -7.322935e-001 5.340143e-002
    outer loop
      vertex   -1.003034e+003 -4.065979e+002 5.289187e+002
      vertex   -1.003095e+003 -4.067174e+002 5.280605e+002
      vertex   -1.002749e+003 -4.063710e+002 5.284069e+002
    endloop
  endfacet
  facet normal 7.123900e-001 -7.017024e-001 -1.068761e-002
    outer loop
      vertex   -1.002749e+003 -4.063710e+002 5.284069e+002
      vertex   -1.002844e+003 -4.064552e+002 5.275477e+002
      vertex   -1.002498e+003 -4.061088e+002 5.278941e+002
    endloop
  endfacet
  facet normal 7.414958e-001 -6.667850e-001 -7.471076e-002
    outer loop
      vertex   -1.002498e+003 -4.061088e+002 5.278941e+002
      vertex   -1.002630e+003 -4.061592e+002 5.270369e+002
      vertex   -1.002283e+003 -4.058128e+002 5.273833e+002
    endloop
  endfacet
  facet normal 7.660300e-001 -6.277567e-001 -1.382733e-001
    outer loop
      vertex   -1.002283e+003 -4.058128e+002 5.273833e+002
      vertex   -1.002452e+003 -4.058312e+002 5.265314e+002
      vertex   -1.002106e+003 -4.054848e+002 5.268779e+002
    endloop
  endfacet
  facet normal 7.858414e-001 -5.848581e-001 -2.009833e-001
    outer loop
      vertex   -1.002106e+003 -4.054848e+002 5.268779e+002
      vertex   -1.002313e+003 -4.054733e+002 5.260343e+002
      vertex   -1.001967e+003 -4.051269e+002 5.263807e+002
    endloop
  endfacet
  facet normal 8.008078e-001 -5.383536e-001 -2.624542e-001
    outer loop
      vertex   -1.001967e+003 -4.051269e+002 5.263807e+002
      vertex   -1.002213e+003 -4.050877e+002 5.255487e+002
      vertex   -1.001866e+003 -4.047413e+002 5.258951e+002
    endloop
  endfacet
  facet normal 8.108370e-001 -4.885300e-001 -3.223070e-001
    outer loop
      vertex   -1.001866e+003 -4.047413e+002 5.258951e+002
      vertex   -1.002153e+003 -4.046768e+002 5.250774e+002
      vertex   -1.001806e+003 -4.043304e+002 5.254238e+002
    endloop
  endfacet
  facet normal 8.158671e-001 -4.356944e-001 -3.801727e-001
    outer loop
      vertex   -1.001806e+003 -4.043304e+002 5.254238e+002
      vertex   -1.002132e+003 -4.042430e+002 5.246235e+002
      vertex   -1.001786e+003 -4.038966e+002 5.249699e+002
    endloop
  endfacet
  facet normal 8.158671e-001 -3.801727e-001 -4.356944e-001
    outer loop
      vertex   -1.001786e+003 -4.038966e+002 5.249699e+002
      vertex   -1.002153e+003 -4.037891e+002 5.241898e+002
      vertex   -1.001806e+003 -4.034427e+002 5.245362e+002
    endloop
  endfacet
  facet normal 8.108370e-001 -3.223070e-001 -4.885300e-001
    outer loop
      vertex   -1.001806e+003 -4.034427e+002 5.245362e+002
      vertex   -1.002213e+003 -4.033179e+002 5.237788e+002
      vertex   -1.001866e+003 -4.029715e+002 5.241252e+002
    endloop
  endfacet
  facet normal 7.858414e-001 -2.009833e-001 -5.848581e-001
    outer loop
      vertex   -1.002313e+003 -4.028322e+002 5.233932e+002
      vertex   -1.002452e+003 -4.023351e+002 5.230353e+002
      vertex   -1.002106e+003 -4.019887e+002 5.233817e+002
    endloop
  endfacet
  facet normal 7.660300e-001 -1.382733e-001 -6.277567e-001
    outer loop
      vertex   -1.002106e+003 -4.019887e+002 5.233817e+002
      vertex   -1.002452e+003 -4.023351e+002 5.230353e+002
      vertex   -1.002630e+003 -4.018296e+002 5.227074e+002
    endloop
  endfacet
  facet normal 7.414958e-001 -7.471076e-002 -6.667850e-001
    outer loop
      vertex   -1.002283e+003 -4.014832e+002 5.230538e+002
      vertex   -1.002630e+003 -4.018296e+002 5.227074e+002
      vertex   -1.002844e+003 -4.013189e+002 5.224113e+002
    endloop
  endfacet
  facet normal 7.123900e-001 -1.068761e-002 -7.017024e-001
    outer loop
      vertex   -1.002498e+003 -4.009725e+002 5.227578e+002
      vertex   -1.002844e+003 -4.013189e+002 5.224113e+002
      vertex   -1.003095e+003 -4.008060e+002 5.221491e+002
    endloop
  endfacet
  facet normal 6.788921e-001 5.340143e-002 -7.322935e-001
    outer loop
      vertex   -1.002749e+003 -4.004596e+002 5.224955e+002
      vertex   -1.003095e+003 -4.008060e+002 5.221491e+002
      vertex   -1.003380e+003 -4.002943e+002 5.219223e+002
    endloop
  endfacet
  facet normal 6.412086e-001 1.171612e-001 -7.583698e-001
    outer loop
      vertex   -1.003034e+003 -3.999478e+002 5.222687e+002
      vertex   -1.003380e+003 -4.002943e+002 5.219223e+002
      vertex   -1.003697e+003 -3.997867e+002 5.217322e+002
    endloop
  endfacet
  facet normal 5.995718e-001 1.801987e-001 -7.797705e-001
    outer loop
      vertex   -1.003351e+003 -3.994403e+002 5.220786e+002
      vertex   -1.003697e+003 -3.997867e+002 5.217322e+002
      vertex   -1.004046e+003 -3.992864e+002 5.215801e+002
    endloop
  endfacet
  facet normal 5.995718e-001 1.801987e-001 -7.797705e-001
    outer loop
      vertex   -1.003699e+003 -3.989400e+002 5.219265e+002
      vertex   -1.003351e+003 -3.994403e+002 5.220786e+002
      vertex   -1.004046e+003 -3.992864e+002 5.215801e+002
    endloop
  endfacet
  facet normal 7.660300e-001 -1.382733e-001 -6.277567e-001
    outer loop
      vertex   -1.002106e+003 -4.019887e+002 5.233817e+002
      vertex   -1.002630e+003 -4.018296e+002 5.227074e+002
      vertex   -1.002283e+003 -4.014832e+002 5.230538e+002
    endloop
  endfacet
  facet normal 7.414958e-001 -7.471076e-002 -6.667850e-001
    outer loop
      vertex   -1.002283e+003 -4.014832e+002 5.230538e+002
      vertex   -1.002844e+003 -4.013189e+002 5.224113e+002
      vertex   -1.002498e+003 -4.009725e+002 5.227578e+002
    endloop
  endfacet
  facet normal 7.123900e-001 -1.068761e-002 -7.017024e-001
    outer loop
      vertex   -1.002498e+003 -4.009725e+002 5.227578e+002
      vertex   -1.003095e+003 -4.008060e+002 5.221491e+002
      vertex   -1.002749e+003 -4.004596e+002 5.224955e+002
    endloop
  endfacet
  facet normal 6.788921e-001 5.340143e-002 -7.322935e-001
    outer loop
      vertex   -1.002749e+003 -4.004596e+002 5.224955e+002
      vertex   -1.003380e+003 -4.002943e+002 5.219223e+002
      vertex   -1.003034e+003 -3.999478e+002 5.222687e+002
    endloop
  endfacet
  facet normal 6.412086e-001 1.171612e-001 -7.583698e-001
    outer loop
      vertex   -1.003034e+003 -3.999478e+002 5.222687e+002
      vertex   -1.003697e+003 -3.997867e+002 5.217322e+002
      vertex   -1.003351e+003 -3.994403e+002 5.220786e+002
    endloop
  endfacet
  facet normal 5.773503e-001 -7.886751e-001 2.113249e-001
    outer loop
      vertex   -1.044460e+003 -4.220792e+002 5.847874e+002
      vertex   -1.004046e+003 -4.072864e+002 5.295801e+002
      vertex   -1.044114e+003 -4.217328e+002 5.851338e+002
    endloop
  endfacet
  facet normal 5.773503e-001 -7.886751e-001 2.113249e-001
    outer loop
      vertex   -1.044114e+003 -4.217328e+002 5.851338e+002
      vertex   -1.004046e+003 -4.072864e+002 5.295801e+002
      vertex   -1.003699e+003 -4.069400e+002 5.299265e+002
    endloop
  endfacet
  facet normal -5.542385e-001 -2.421252e-001 7.963637e-001
    outer loop
      vertex   -1.053698e+003 -4.174604e+002 5.894062e+002
      vertex   -1.053321e+003 -4.179502e+002 5.895194e+002
      vertex   -1.053351e+003 -4.171140e+002 5.897526e+002
    endloop
  endfacet
  facet normal -5.542385e-001 -2.421252e-001 7.963637e-001
    outer loop
      vertex   -1.053351e+003 -4.171140e+002 5.897526e+002
      vertex   -1.053321e+003 -4.179502e+002 5.895194e+002
      vertex   -1.052975e+003 -4.176038e+002 5.898658e+002
    endloop
  endfacet
  facet normal -5.054881e-001 -3.025589e-001 8.080470e-001
    outer loop
      vertex   -1.052975e+003 -4.176038e+002 5.898658e+002
      vertex   -1.053321e+003 -4.179502e+002 5.895194e+002
      vertex   -1.052918e+003 -4.184266e+002 5.895930e+002
    endloop
  endfacet
  facet normal -4.536212e-001 -3.611272e-001 8.147484e-001
    outer loop
      vertex   -1.052572e+003 -4.180802e+002 5.899394e+002
      vertex   -1.052918e+003 -4.184266e+002 5.895930e+002
      vertex   -1.052492e+003 -4.188866e+002 5.896265e+002
    endloop
  endfacet
  facet normal -3.989576e-001 -4.174691e-001 8.164266e-001
    outer loop
      vertex   -1.052145e+003 -4.185402e+002 5.899729e+002
      vertex   -1.052492e+003 -4.188866e+002 5.896265e+002
      vertex   -1.052044e+003 -4.193273e+002 5.896198e+002
    endloop
  endfacet
  facet normal -3.418342e-001 -4.712371e-001 8.130713e-001
    outer loop
      vertex   -1.051698e+003 -4.189809e+002 5.899662e+002
      vertex   -1.052044e+003 -4.193273e+002 5.896198e+002
      vertex   -1.051579e+003 -4.197462e+002 5.895729e+002
    endloop
  endfacet
  facet normal -2.826034e-001 -5.220998e-001 8.047032e-001
    outer loop
      vertex   -1.051232e+003 -4.193998e+002 5.899193e+002
      vertex   -1.051579e+003 -4.197462e+002 5.895729e+002
      vertex   -1.051097e+003 -4.201405e+002 5.894860e+002
    endloop
  endfacet
  facet normal -2.216302e-001 -5.697435e-001 7.913737e-001
    outer loop
      vertex   -1.050751e+003 -4.197941e+002 5.898324e+002
      vertex   -1.051097e+003 -4.201405e+002 5.894860e+002
      vertex   -1.050604e+003 -4.205079e+002 5.893598e+002
    endloop
  endfacet
  facet normal -1.592906e-001 -6.138746e-001 7.731652e-001
    outer loop
      vertex   -1.050257e+003 -4.201615e+002 5.897062e+002
      vertex   -1.050604e+003 -4.205079e+002 5.893598e+002
      vertex   -1.050101e+003 -4.208461e+002 5.891949e+002
    endloop
  endfacet
  facet normal -9.596888e-002 -6.542210e-001 7.501899e-001
    outer loop
      vertex   -1.049754e+003 -4.204997e+002 5.895413e+002
      vertex   -1.050101e+003 -4.208461e+002 5.891949e+002
      vertex   -1.049591e+003 -4.211529e+002 5.889924e+002
    endloop
  endfacet
  facet normal -3.205551e-002 -6.905339e-001 7.225894e-001
    outer loop
      vertex   -1.049245e+003 -4.208065e+002 5.893388e+002
      vertex   -1.049591e+003 -4.211529e+002 5.889924e+002
      vertex   -1.049079e+003 -4.214266e+002 5.887536e+002
    endloop
  endfacet
  facet normal 3.205551e-002 -7.225894e-001 6.905339e-001
    outer loop
      vertex   -1.048733e+003 -4.210802e+002 5.891000e+002
      vertex   -1.049079e+003 -4.214266e+002 5.887536e+002
      vertex   -1.048566e+003 -4.216654e+002 5.884799e+002
    endloop
  endfacet
  facet normal 9.596888e-002 -7.501899e-001 6.542210e-001
    outer loop
      vertex   -1.048220e+003 -4.213190e+002 5.888264e+002
      vertex   -1.048566e+003 -4.216654e+002 5.884799e+002
      vertex   -1.048057e+003 -4.218679e+002 5.881731e+002
    endloop
  endfacet
  facet normal 1.592906e-001 -7.731652e-001 6.138746e-001
    outer loop
      vertex   -1.047711e+003 -4.215215e+002 5.885195e+002
      vertex   -1.048057e+003 -4.218679e+002 5.881731e+002
      vertex   -1.047554e+003 -4.220328e+002 5.878349e+002
    endloop
  endfacet
  facet normal 2.216302e-001 -7.913737e-001 5.697435e-001
    outer loop
      vertex   -1.047208e+003 -4.216863e+002 5.881813e+002
      vertex   -1.047554e+003 -4.220328e+002 5.878349e+002
      vertex   -1.046714e+003 -4.218126e+002 5.878139e+002
    endloop
  endfacet
  facet normal 1.592906e-001 -7.731652e-001 6.138746e-001
    outer loop
      vertex   -1.047208e+003 -4.216863e+002 5.881813e+002
      vertex   -1.047711e+003 -4.215215e+002 5.885195e+002
      vertex   -1.047554e+003 -4.220328e+002 5.878349e+002
    endloop
  endfacet
  facet normal -5.054881e-001 -3.025589e-001 8.080470e-001
    outer loop
      vertex   -1.052975e+003 -4.176038e+002 5.898658e+002
      vertex   -1.052918e+003 -4.184266e+002 5.895930e+002
      vertex   -1.052572e+003 -4.180802e+002 5.899394e+002
    endloop
  endfacet
  facet normal -4.536212e-001 -3.611272e-001 8.147484e-001
    outer loop
      vertex   -1.052572e+003 -4.180802e+002 5.899394e+002
      vertex   -1.052492e+003 -4.188866e+002 5.896265e+002
      vertex   -1.052145e+003 -4.185402e+002 5.899729e+002
    endloop
  endfacet
  facet normal -3.989576e-001 -4.174691e-001 8.164266e-001
    outer loop
      vertex   -1.052145e+003 -4.185402e+002 5.899729e+002
      vertex   -1.052044e+003 -4.193273e+002 5.896198e+002
      vertex   -1.051698e+003 -4.189809e+002 5.899662e+002
    endloop
  endfacet
  facet normal -3.418342e-001 -4.712371e-001 8.130713e-001
    outer loop
      vertex   -1.051698e+003 -4.189809e+002 5.899662e+002
      vertex   -1.051579e+003 -4.197462e+002 5.895729e+002
      vertex   -1.051232e+003 -4.193998e+002 5.899193e+002
    endloop
  endfacet
  facet normal -2.826034e-001 -5.220998e-001 8.047032e-001
    outer loop
      vertex   -1.051232e+003 -4.193998e+002 5.899193e+002
      vertex   -1.051097e+003 -4.201405e+002 5.894860e+002
      vertex   -1.050751e+003 -4.197941e+002 5.898324e+002
    endloop
  endfacet
  facet normal -2.216302e-001 -5.697435e-001 7.913737e-001
    outer loop
      vertex   -1.050751e+003 -4.197941e+002 5.898324e+002
      vertex   -1.050604e+003 -4.205079e+002 5.893598e+002
      vertex   -1.050257e+003 -4.201615e+002 5.897062e+002
    endloop
  endfacet
  facet normal -1.592906e-001 -6.138746e-001 7.731652e-001
    outer loop
      vertex   -1.050257e+003 -4.201615e+002 5.897062e+002
      vertex   -1.050101e+003 -4.208461e+002 5.891949e+002
      vertex   -1.049754e+003 -4.204997e+002 5.895413e+002
    endloop
  endfacet
  facet normal -9.596888e-002 -6.542210e-001 7.501899e-001
    outer loop
      vertex   -1.049754e+003 -4.204997e+002 5.895413e+002
      vertex   -1.049591e+003 -4.211529e+002 5.889924e+002
      vertex   -1.049245e+003 -4.208065e+002 5.893388e+002
    endloop
  endfacet
  facet normal -3.205551e-002 -6.905339e-001 7.225894e-001
    outer loop
      vertex   -1.049245e+003 -4.208065e+002 5.893388e+002
      vertex   -1.049079e+003 -4.214266e+002 5.887536e+002
      vertex   -1.048733e+003 -4.210802e+002 5.891000e+002
    endloop
  endfacet
  facet normal 3.205551e-002 -7.225894e-001 6.905339e-001
    outer loop
      vertex   -1.048733e+003 -4.210802e+002 5.891000e+002
      vertex   -1.048566e+003 -4.216654e+002 5.884799e+002
      vertex   -1.048220e+003 -4.213190e+002 5.888264e+002
    endloop
  endfacet
  facet normal 9.596888e-002 -7.501899e-001 6.542210e-001
    outer loop
      vertex   -1.048220e+003 -4.213190e+002 5.888264e+002
      vertex   -1.048057e+003 -4.218679e+002 5.881731e+002
      vertex   -1.047711e+003 -4.215215e+002 5.885195e+002
    endloop
  endfacet
  facet normal 2.216302e-001 -7.913737e-001 5.697435e-001
    outer loop
      vertex   -1.047554e+003 -4.220328e+002 5.878349e+002
      vertex   -1.047060e+003 -4.221590e+002 5.874675e+002
      vertex   -1.046714e+003 -4.218126e+002 5.878139e+002
    endloop
  endfacet
  facet normal 2.826034e-001 -8.047032e-001 5.220998e-001
    outer loop
      vertex   -1.046714e+003 -4.218126e+002 5.878139e+002
      vertex   -1.047060e+003 -4.221590e+002 5.874675e+002
      vertex   -1.046579e+003 -4.222459e+002 5.870732e+002
    endloop
  endfacet
  facet normal 3.418342e-001 -8.130713e-001 4.712371e-001
    outer loop
      vertex   -1.046233e+003 -4.218995e+002 5.874196e+002
      vertex   -1.046579e+003 -4.222459e+002 5.870732e+002
      vertex   -1.046113e+003 -4.222928e+002 5.866543e+002
    endloop
  endfacet
  facet normal 3.989576e-001 -8.164266e-001 4.174691e-001
    outer loop
      vertex   -1.045767e+003 -4.219464e+002 5.870008e+002
      vertex   -1.046113e+003 -4.222928e+002 5.866543e+002
      vertex   -1.045666e+003 -4.222995e+002 5.862136e+002
    endloop
  endfacet
  facet normal 4.536212e-001 -8.147484e-001 3.611272e-001
    outer loop
      vertex   -1.045320e+003 -4.219531e+002 5.865600e+002
      vertex   -1.045666e+003 -4.222995e+002 5.862136e+002
      vertex   -1.045240e+003 -4.222660e+002 5.857536e+002
    endloop
  endfacet
  facet normal 5.054881e-001 -8.080470e-001 3.025589e-001
    outer loop
      vertex   -1.044893e+003 -4.219196e+002 5.861000e+002
      vertex   -1.045240e+003 -4.222660e+002 5.857536e+002
      vertex   -1.044837e+003 -4.221924e+002 5.852772e+002
    endloop
  endfacet
  facet normal 5.542385e-001 -7.963637e-001 2.421252e-001
    outer loop
      vertex   -1.044490e+003 -4.218460e+002 5.856236e+002
      vertex   -1.044837e+003 -4.221924e+002 5.852772e+002
      vertex   -1.044460e+003 -4.220792e+002 5.847874e+002
    endloop
  endfacet
  facet normal 5.542385e-001 -7.963637e-001 2.421252e-001
    outer loop
      vertex   -1.044114e+003 -4.217328e+002 5.851338e+002
      vertex   -1.044490e+003 -4.218460e+002 5.856236e+002
      vertex   -1.044460e+003 -4.220792e+002 5.847874e+002
    endloop
  endfacet
  facet normal 2.826034e-001 -8.047032e-001 5.220998e-001
    outer loop
      vertex   -1.046714e+003 -4.218126e+002 5.878139e+002
      vertex   -1.046579e+003 -4.222459e+002 5.870732e+002
      vertex   -1.046233e+003 -4.218995e+002 5.874196e+002
    endloop
  endfacet
  facet normal 3.418342e-001 -8.130713e-001 4.712371e-001
    outer loop
      vertex   -1.046233e+003 -4.218995e+002 5.874196e+002
      vertex   -1.046113e+003 -4.222928e+002 5.866543e+002
      vertex   -1.045767e+003 -4.219464e+002 5.870008e+002
    endloop
  endfacet
  facet normal 3.989576e-001 -8.164266e-001 4.174691e-001
    outer loop
      vertex   -1.045767e+003 -4.219464e+002 5.870008e+002
      vertex   -1.045666e+003 -4.222995e+002 5.862136e+002
      vertex   -1.045320e+003 -4.219531e+002 5.865600e+002
    endloop
  endfacet
  facet normal 4.536212e-001 -8.147484e-001 3.611272e-001
    outer loop
      vertex   -1.045320e+003 -4.219531e+002 5.865600e+002
      vertex   -1.045240e+003 -4.222660e+002 5.857536e+002
      vertex   -1.044893e+003 -4.219196e+002 5.861000e+002
    endloop
  endfacet
  facet normal 5.054881e-001 -8.080470e-001 3.025589e-001
    outer loop
      vertex   -1.044893e+003 -4.219196e+002 5.861000e+002
      vertex   -1.044837e+003 -4.221924e+002 5.852772e+002
      vertex   -1.044490e+003 -4.218460e+002 5.856236e+002
    endloop
  endfacet
  facet normal 5.773503e-001 5.773503e-001 5.773503e-001
    outer loop
      vertex   -1.052975e+003 -4.176038e+002 5.898658e+002
      vertex   -1.052572e+003 -4.180802e+002 5.899394e+002
      vertex   -1.053351e+003 -4.171140e+002 5.897526e+002
    endloop
  endfacet
  facet normal 5.773503e-001 5.773503e-001 5.773503e-001
    outer loop
      vertex   -1.053351e+003 -4.171140e+002 5.897526e+002
      vertex   -1.052572e+003 -4.180802e+002 5.899394e+002
      vertex   -1.052145e+003 -4.185402e+002 5.899729e+002
    endloop
  endfacet
  facet normal 5.773503e-001 5.773503e-001 5.773503e-001
    outer loop
      vertex   -1.051698e+003 -4.189809e+002 5.899662e+002
      vertex   -1.053351e+003 -4.171140e+002 5.897526e+002
      vertex   -1.052145e+003 -4.185402e+002 5.899729e+002
    endloop
  endfacet
  facet normal 5.773503e-001 5.773503e-001 5.773503e-001
    outer loop
      vertex   -1.051698e+003 -4.189809e+002 5.899662e+002
      vertex   -1.051232e+003 -4.193998e+002 5.899193e+002
      vertex   -1.053351e+003 -4.171140e+002 5.897526e+002
    endloop
  endfacet
  facet normal 5.773503e-001 5.773503e-001 5.773503e-001
    outer loop
      vertex   -1.053351e+003 -4.171140e+002 5.897526e+002
      vertex   -1.051232e+003 -4.193998e+002 5.899193e+002
      vertex   -1.050751e+003 -4.197941e+002 5.898324e+002
    endloop
  endfacet
  facet normal 5.773503e-001 5.773503e-001 5.773503e-001
    outer loop
      vertex   -1.050257e+003 -4.201615e+002 5.897062e+002
      vertex   -1.053351e+003 -4.171140e+002 5.897526e+002
      vertex   -1.050751e+003 -4.197941e+002 5.898324e+002
    endloop
  endfacet
  facet normal 5.773503e-001 5.773503e-001 5.773503e-001
    outer loop
      vertex   -1.050257e+003 -4.201615e+002 5.897062e+002
      vertex   -1.049754e+003 -4.204997e+002 5.895413e+002
      vertex   -1.053351e+003 -4.171140e+002 5.897526e+002
    endloop
  endfacet
  facet normal 5.773503e-001 5.773503e-001 5.773503e-001
    outer loop
      vertex   -1.053351e+003 -4.171140e+002 5.897526e+002
      vertex   -1.049754e+003 -4.204997e+002 5.895413e+002
      vertex   -1.049245e+003 -4.208065e+002 5.893388e+002
    endloop
  endfacet
  facet normal 5.773503e-001 5.773503e-001 5.773503e-001
    outer loop
      vertex   -1.048733e+003 -4.210802e+002 5.891000e+002
      vertex   -1.053351e+003 -4.171140e+002 5.897526e+002
      vertex   -1.049245e+003 -4.208065e+002 5.893388e+002
    endloop
  endfacet
  facet normal 5.773503e-001 5.773503e-001 5.773503e-001
    outer loop
      vertex   -1.048733e+003 -4.210802e+002 5.891000e+002
      vertex   -1.048220e+003 -4.213190e+002 5.888264e+002
      vertex   -1.053351e+003 -4.171140e+002 5.897526e+002
    endloop
  endfacet
  facet normal 5.773503e-001 5.773503e-001 5.773503e-001
    outer loop
      vertex   -1.053351e+003 -4.171140e+002 5.897526e+002
      vertex   -1.048220e+003 -4.213190e+002 5.888264e+002
      vertex   -1.047711e+003 -4.215215e+002 5.885195e+002
    endloop
  endfacet
  facet normal 5.773503e-001 5.773503e-001 5.773503e-001
    outer loop
      vertex   -1.047208e+003 -4.216863e+002 5.881813e+002
      vertex   -1.053351e+003 -4.171140e+002 5.897526e+002
      vertex   -1.047711e+003 -4.215215e+002 5.885195e+002
    endloop
  endfacet
  facet normal 5.773503e-001 5.773503e-001 5.773503e-001
    outer loop
      vertex   -1.047208e+003 -4.216863e+002 5.881813e+002
      vertex   -1.046714e+003 -4.218126e+002 5.878139e+002
      vertex   -1.053351e+003 -4.171140e+002 5.897526e+002
    endloop
  endfacet
  facet normal 5.773503e-001 5.773503e-001 5.773503e-001
    outer loop
      vertex   -1.053351e+003 -4.171140e+002 5.897526e+002
      vertex   -1.046714e+003 -4.218126e+002 5.878139e+002
      vertex   -1.046233e+003 -4.218995e+002 5.874196e+002
    endloop
  endfacet
  facet normal 5.773503e-001 5.773503e-001 5.773503e-001
    outer loop
      vertex   -1.045767e+003 -4.219464e+002 5.870008e+002
      vertex   -1.053351e+003 -4.171140e+002 5.897526e+002
      vertex   -1.046233e+003 -4.218995e+002 5.874196e+002
    endloop
  endfacet
  facet normal 5.773503e-001 5.773503e-001 5.773503e-001
    outer loop
      vertex   -1.045767e+003 -4.219464e+002 5.870008e+002
      vertex   -1.045320e+003 -4.219531e+002 5.865600e+002
      vertex   -1.053351e+003 -4.171140e+002 5.897526e+002
    endloop
  endfacet
  facet normal 5.773503e-001 5.773503e-001 5.773503e-001
    outer loop
      vertex   -1.053351e+003 -4.171140e+002 5.897526e+002
      vertex   -1.045320e+003 -4.219531e+002 5.865600e+002
      vertex   -1.044893e+003 -4.219196e+002 5.861000e+002
    endloop
  endfacet
  facet normal 5.773503e-001 5.773503e-001 5.773503e-001
    outer loop
      vertex   -1.044490e+003 -4.218460e+002 5.856236e+002
      vertex   -1.053351e+003 -4.171140e+002 5.897526e+002
      vertex   -1.044893e+003 -4.219196e+002 5.861000e+002
    endloop
  endfacet
  facet normal 5.773503e-001 5.773503e-001 5.773503e-001
    outer loop
      vertex   -1.044490e+003 -4.218460e+002 5.856236e+002
      vertex   -1.044114e+003 -4.217328e+002 5.851338e+002
      vertex   -1.053351e+003 -4.171140e+002 5.897526e+002
    endloop
  endfacet
  facet normal 5.773503e-001 5.773503e-001 5.773503e-001
    outer loop
      vertex   -1.053351e+003 -4.171140e+002 5.897526e+002
      vertex   -1.044114e+003 -4.217328e+002 5.851338e+002
      vertex   -1.003699e+003 -4.069400e+002 5.299265e+002
    endloop
  endfacet
  facet normal 5.773503e-001 5.773503e-001 5.773503e-001
    outer loop
      vertex   -1.093766e+003 -3.619067e+002 5.749598e+002
      vertex   -1.003699e+003 -4.069400e+002 5.299265e+002
      vertex   -1.003699e+003 -3.989400e+002 5.219265e+002
    endloop
  endfacet
  facet normal 5.773503e-001 5.773503e-001 5.773503e-001
    outer loop
      vertex   -1.093766e+003 -3.539067e+002 5.669598e+002
      vertex   -1.003699e+003 -3.989400e+002 5.219265e+002
      vertex   -1.044114e+003 -3.437328e+002 5.071338e+002
    endloop
  endfacet
  facet normal 5.773503e-001 5.773503e-001 5.773503e-001
    outer loop
      vertex   -1.053351e+003 -3.391140e+002 5.117526e+002
      vertex   -1.044114e+003 -3.437328e+002 5.071338e+002
      vertex   -1.044490e+003 -3.432429e+002 5.070206e+002
    endloop
  endfacet
  facet normal 5.773503e-001 5.773503e-001 5.773503e-001
    outer loop
      vertex   -1.044893e+003 -3.427666e+002 5.069470e+002
      vertex   -1.053351e+003 -3.391140e+002 5.117526e+002
      vertex   -1.044490e+003 -3.432429e+002 5.070206e+002
    endloop
  endfacet
  facet normal 5.773503e-001 5.773503e-001 5.773503e-001
    outer loop
      vertex   -1.044893e+003 -3.427666e+002 5.069470e+002
      vertex   -1.045320e+003 -3.423066e+002 5.069135e+002
      vertex   -1.053351e+003 -3.391140e+002 5.117526e+002
    endloop
  endfacet
  facet normal 5.773503e-001 5.773503e-001 5.773503e-001
    outer loop
      vertex   -1.053351e+003 -3.391140e+002 5.117526e+002
      vertex   -1.045320e+003 -3.423066e+002 5.069135e+002
      vertex   -1.045767e+003 -3.418658e+002 5.069202e+002
    endloop
  endfacet
  facet normal 5.773503e-001 5.773503e-001 5.773503e-001
    outer loop
      vertex   -1.046233e+003 -3.414470e+002 5.069671e+002
      vertex   -1.053351e+003 -3.391140e+002 5.117526e+002
      vertex   -1.045767e+003 -3.418658e+002 5.069202e+002
    endloop
  endfacet
  facet normal 5.773503e-001 5.773503e-001 5.773503e-001
    outer loop
      vertex   -1.046233e+003 -3.414470e+002 5.069671e+002
      vertex   -1.046714e+003 -3.410526e+002 5.070540e+002
      vertex   -1.053351e+003 -3.391140e+002 5.117526e+002
    endloop
  endfacet
  facet normal 5.773503e-001 5.773503e-001 5.773503e-001
    outer loop
      vertex   -1.053351e+003 -3.391140e+002 5.117526e+002
      vertex   -1.046714e+003 -3.410526e+002 5.070540e+002
      vertex   -1.047208e+003 -3.406852e+002 5.071802e+002
    endloop
  endfacet
  facet normal 5.773503e-001 5.773503e-001 5.773503e-001
    outer loop
      vertex   -1.047711e+003 -3.403471e+002 5.073451e+002
      vertex   -1.053351e+003 -3.391140e+002 5.117526e+002
      vertex   -1.047208e+003 -3.406852e+002 5.071802e+002
    endloop
  endfacet
  facet normal 5.773503e-001 5.773503e-001 5.773503e-001
    outer loop
      vertex   -1.047711e+003 -3.403471e+002 5.073451e+002
      vertex   -1.048220e+003 -3.400402e+002 5.075475e+002
      vertex   -1.053351e+003 -3.391140e+002 5.117526e+002
    endloop
  endfacet
  facet normal 5.773503e-001 5.773503e-001 5.773503e-001
    outer loop
      vertex   -1.053351e+003 -3.391140e+002 5.117526e+002
      vertex   -1.048220e+003 -3.400402e+002 5.075475e+002
      vertex   -1.048733e+003 -3.397665e+002 5.077863e+002
    endloop
  endfacet
  facet normal 5.773503e-001 5.773503e-001 5.773503e-001
    outer loop
      vertex   -1.049245e+003 -3.395277e+002 5.080600e+002
      vertex   -1.053351e+003 -3.391140e+002 5.117526e+002
      vertex   -1.048733e+003 -3.397665e+002 5.077863e+002
    endloop
  endfacet
  facet normal 5.773503e-001 5.773503e-001 5.773503e-001
    outer loop
      vertex   -1.049245e+003 -3.395277e+002 5.080600e+002
      vertex   -1.049754e+003 -3.393252e+002 5.083669e+002
      vertex   -1.053351e+003 -3.391140e+002 5.117526e+002
    endloop
  endfacet
  facet normal 5.773503e-001 5.773503e-001 5.773503e-001
    outer loop
      vertex   -1.053351e+003 -3.391140e+002 5.117526e+002
      vertex   -1.049754e+003 -3.393252e+002 5.083669e+002
      vertex   -1.050257e+003 -3.391604e+002 5.087051e+002
    endloop
  endfacet
  facet normal 5.773503e-001 5.773503e-001 5.773503e-001
    outer loop
      vertex   -1.050751e+003 -3.390341e+002 5.090724e+002
      vertex   -1.053351e+003 -3.391140e+002 5.117526e+002
      vertex   -1.050257e+003 -3.391604e+002 5.087051e+002
    endloop
  endfacet
  facet normal 5.773503e-001 5.773503e-001 5.773503e-001
    outer loop
      vertex   -1.050751e+003 -3.390341e+002 5.090724e+002
      vertex   -1.051232e+003 -3.389473e+002 5.094668e+002
      vertex   -1.053351e+003 -3.391140e+002 5.117526e+002
    endloop
  endfacet
  facet normal 5.773503e-001 5.773503e-001 5.773503e-001
    outer loop
      vertex   -1.053351e+003 -3.391140e+002 5.117526e+002
      vertex   -1.051232e+003 -3.389473e+002 5.094668e+002
      vertex   -1.051698e+003 -3.389003e+002 5.098856e+002
    endloop
  endfacet
  facet normal 5.773503e-001 5.773503e-001 5.773503e-001
    outer loop
      vertex   -1.052145e+003 -3.388936e+002 5.103264e+002
      vertex   -1.053351e+003 -3.391140e+002 5.117526e+002
      vertex   -1.051698e+003 -3.389003e+002 5.098856e+002
    endloop
  endfacet
  facet normal 5.773503e-001 5.773503e-001 5.773503e-001
    outer loop
      vertex   -1.052145e+003 -3.388936e+002 5.103264e+002
      vertex   -1.052572e+003 -3.389272e+002 5.107864e+002
      vertex   -1.053351e+003 -3.391140e+002 5.117526e+002
    endloop
  endfacet
  facet normal 5.773503e-001 5.773503e-001 5.773503e-001
    outer loop
      vertex   -1.053351e+003 -3.391140e+002 5.117526e+002
      vertex   -1.052572e+003 -3.389272e+002 5.107864e+002
      vertex   -1.052975e+003 -3.390008e+002 5.112628e+002
    endloop
  endfacet
  facet normal 5.773503e-001 5.773503e-001 5.773503e-001
    outer loop
      vertex   -1.003699e+003 -4.069400e+002 5.299265e+002
      vertex   -1.003351e+003 -4.067879e+002 5.294263e+002
      vertex   -1.003699e+003 -3.989400e+002 5.219265e+002
    endloop
  endfacet
  facet normal 5.773503e-001 5.773503e-001 5.773503e-001
    outer loop
      vertex   -1.003699e+003 -3.989400e+002 5.219265e+002
      vertex   -1.003351e+003 -4.067879e+002 5.294263e+002
      vertex   -1.003034e+003 -4.065979e+002 5.289187e+002
    endloop
  endfacet
  facet normal 5.773503e-001 5.773503e-001 5.773503e-001
    outer loop
      vertex   -1.002749e+003 -4.063710e+002 5.284069e+002
      vertex   -1.003699e+003 -3.989400e+002 5.219265e+002
      vertex   -1.003034e+003 -4.065979e+002 5.289187e+002
    endloop
  endfacet
  facet normal 5.773503e-001 5.773503e-001 5.773503e-001
    outer loop
      vertex   -1.002749e+003 -4.063710e+002 5.284069e+002
      vertex   -1.002498e+003 -4.061088e+002 5.278941e+002
      vertex   -1.003699e+003 -3.989400e+002 5.219265e+002
    endloop
  endfacet
  facet normal 5.773503e-001 5.773503e-001 5.773503e-001
    outer loop
      vertex   -1.003699e+003 -3.989400e+002 5.219265e+002
      vertex   -1.002498e+003 -4.061088e+002 5.278941e+002
      vertex   -1.002283e+003 -4.058128e+002 5.273833e+002
    endloop
  endfacet
  facet normal 5.773503e-001 5.773503e-001 5.773503e-001
    outer loop
      vertex   -1.002106e+003 -4.054848e+002 5.268779e+002
      vertex   -1.003699e+003 -3.989400e+002 5.219265e+002
      vertex   -1.002283e+003 -4.058128e+002 5.273833e+002
    endloop
  endfacet
  facet normal 5.773503e-001 5.773503e-001 5.773503e-001
    outer loop
      vertex   -1.002106e+003 -4.054848e+002 5.268779e+002
      vertex   -1.001967e+003 -4.051269e+002 5.263807e+002
      vertex   -1.003699e+003 -3.989400e+002 5.219265e+002
    endloop
  endfacet
  facet normal 5.773503e-001 5.773503e-001 5.773503e-001
    outer loop
      vertex   -1.003699e+003 -3.989400e+002 5.219265e+002
      vertex   -1.001967e+003 -4.051269e+002 5.263807e+002
      vertex   -1.001866e+003 -4.047413e+002 5.258951e+002
    endloop
  endfacet
  facet normal 5.773503e-001 5.773503e-001 5.773503e-001
    outer loop
      vertex   -1.001806e+003 -4.043304e+002 5.254238e+002
      vertex   -1.003699e+003 -3.989400e+002 5.219265e+002
      vertex   -1.001866e+003 -4.047413e+002 5.258951e+002
    endloop
  endfacet
  facet normal 5.773503e-001 5.773503e-001 5.773503e-001
    outer loop
      vertex   -1.001806e+003 -4.043304e+002 5.254238e+002
      vertex   -1.001786e+003 -4.038966e+002 5.249699e+002
      vertex   -1.003699e+003 -3.989400e+002 5.219265e+002
    endloop
  endfacet
  facet normal 5.773503e-001 5.773503e-001 5.773503e-001
    outer loop
      vertex   -1.003699e+003 -3.989400e+002 5.219265e+002
      vertex   -1.001786e+003 -4.038966e+002 5.249699e+002
      vertex   -1.001806e+003 -4.034427e+002 5.245362e+002
    endloop
  endfacet
  facet normal 5.773503e-001 5.773503e-001 5.773503e-001
    outer loop
      vertex   -1.001866e+003 -4.029715e+002 5.241252e+002
      vertex   -1.003699e+003 -3.989400e+002 5.219265e+002
      vertex   -1.001806e+003 -4.034427e+002 5.245362e+002
    endloop
  endfacet
  facet normal 5.773503e-001 5.773503e-001 5.773503e-001
    outer loop
      vertex   -1.001866e+003 -4.029715e+002 5.241252e+002
      vertex   -1.001967e+003 -4.024858e+002 5.237396e+002
      vertex   -1.003699e+003 -3.989400e+002 5.219265e+002
    endloop
  endfacet
  facet normal 5.773503e-001 5.773503e-001 5.773503e-001
    outer loop
      vertex   -1.003699e+003 -3.989400e+002 5.219265e+002
      vertex   -1.001967e+003 -4.024858e+002 5.237396e+002
      vertex   -1.002106e+003 -4.019887e+002 5.233817e+002
    endloop
  endfacet
  facet normal 5.773503e-001 5.773503e-001 5.773503e-001
    outer loop
      vertex   -1.002283e+003 -4.014832e+002 5.230538e+002
      vertex   -1.003699e+003 -3.989400e+002 5.219265e+002
      vertex   -1.002106e+003 -4.019887e+002 5.233817e+002
    endloop
  endfacet
  facet normal 5.773503e-001 5.773503e-001 5.773503e-001
    outer loop
      vertex   -1.002283e+003 -4.014832e+002 5.230538e+002
      vertex   -1.002498e+003 -4.009725e+002 5.227578e+002
      vertex   -1.003699e+003 -3.989400e+002 5.219265e+002
    endloop
  endfacet
  facet normal 5.773503e-001 5.773503e-001 5.773503e-001
    outer loop
      vertex   -1.003699e+003 -3.989400e+002 5.219265e+002
      vertex   -1.002498e+003 -4.009725e+002 5.227578e+002
      vertex   -1.002749e+003 -4.004596e+002 5.224955e+002
    endloop
  endfacet
  facet normal 5.773503e-001 5.773503e-001 5.773503e-001
    outer loop
      vertex   -1.003034e+003 -3.999478e+002 5.222687e+002
      vertex   -1.003699e+003 -3.989400e+002 5.219265e+002
      vertex   -1.002749e+003 -4.004596e+002 5.224955e+002
    endloop
  endfacet
  facet normal 5.773503e-001 5.773503e-001 5.773503e-001
    outer loop
      vertex   -1.003034e+003 -3.999478e+002 5.222687e+002
      vertex   -1.003351e+003 -3.994403e+002 5.220786e+002
      vertex   -1.003699e+003 -3.989400e+002 5.219265e+002
    endloop
  endfacet
  facet normal 5.773503e-001 5.773503e-001 5.773503e-001
    outer loop
      vertex   -1.093766e+003 -3.619067e+002 5.749598e+002
      vertex   -1.003699e+003 -3.989400e+002 5.219265e+002
      vertex   -1.093766e+003 -3.539067e+002 5.669598e+002
    endloop
  endfacet
  facet normal 5.773503e-001 5.773503e-001 5.773503e-001
    outer loop
      vertex   -1.094114e+003 -3.614065e+002 5.748078e+002
      vertex   -1.093766e+003 -3.539067e+002 5.669598e+002
      vertex   -1.094432e+003 -3.608989e+002 5.746177e+002
    endloop
  endfacet
  facet normal 5.773503e-001 5.773503e-001 5.773503e-001
    outer loop
      vertex   -1.094114e+003 -3.614065e+002 5.748078e+002
      vertex   -1.093766e+003 -3.619067e+002 5.749598e+002
      vertex   -1.093766e+003 -3.539067e+002 5.669598e+002
    endloop
  endfacet
  facet normal 5.773503e-001 5.773503e-001 5.773503e-001
    outer loop
      vertex   -1.093766e+003 -3.539067e+002 5.669598e+002
      vertex   -1.044114e+003 -3.437328e+002 5.071338e+002
      vertex   -1.053351e+003 -3.391140e+002 5.117526e+002
    endloop
  endfacet
  facet normal 5.773503e-001 5.773503e-001 5.773503e-001
    outer loop
      vertex   -1.094114e+003 -3.540588e+002 5.674601e+002
      vertex   -1.094432e+003 -3.542489e+002 5.679677e+002
      vertex   -1.093766e+003 -3.539067e+002 5.669598e+002
    endloop
  endfacet
  facet normal 5.773503e-001 5.773503e-001 5.773503e-001
    outer loop
      vertex   -1.093766e+003 -3.539067e+002 5.669598e+002
      vertex   -1.094432e+003 -3.542489e+002 5.679677e+002
      vertex   -1.094716e+003 -3.544757e+002 5.684795e+002
    endloop
  endfacet
  facet normal 5.773503e-001 5.773503e-001 5.773503e-001
    outer loop
      vertex   -1.094967e+003 -3.547379e+002 5.689923e+002
      vertex   -1.093766e+003 -3.539067e+002 5.669598e+002
      vertex   -1.094716e+003 -3.544757e+002 5.684795e+002
    endloop
  endfacet
  facet normal 5.773503e-001 5.773503e-001 5.773503e-001
    outer loop
      vertex   -1.094967e+003 -3.547379e+002 5.689923e+002
      vertex   -1.095182e+003 -3.550339e+002 5.695030e+002
      vertex   -1.093766e+003 -3.539067e+002 5.669598e+002
    endloop
  endfacet
  facet normal 5.773503e-001 5.773503e-001 5.773503e-001
    outer loop
      vertex   -1.093766e+003 -3.539067e+002 5.669598e+002
      vertex   -1.095182e+003 -3.550339e+002 5.695030e+002
      vertex   -1.095359e+003 -3.553619e+002 5.700085e+002
    endloop
  endfacet
  facet normal 5.773503e-001 5.773503e-001 5.773503e-001
    outer loop
      vertex   -1.095499e+003 -3.557198e+002 5.705056e+002
      vertex   -1.093766e+003 -3.539067e+002 5.669598e+002
      vertex   -1.095359e+003 -3.553619e+002 5.700085e+002
    endloop
  endfacet
  facet normal 5.773503e-001 5.773503e-001 5.773503e-001
    outer loop
      vertex   -1.095499e+003 -3.557198e+002 5.705056e+002
      vertex   -1.095599e+003 -3.561054e+002 5.709913e+002
      vertex   -1.093766e+003 -3.539067e+002 5.669598e+002
    endloop
  endfacet
  facet normal 5.773503e-001 5.773503e-001 5.773503e-001
    outer loop
      vertex   -1.093766e+003 -3.539067e+002 5.669598e+002
      vertex   -1.095599e+003 -3.561054e+002 5.709913e+002
      vertex   -1.095659e+003 -3.565164e+002 5.714625e+002
    endloop
  endfacet
  facet normal 5.773503e-001 5.773503e-001 5.773503e-001
    outer loop
      vertex   -1.095679e+003 -3.569501e+002 5.719164e+002
      vertex   -1.093766e+003 -3.539067e+002 5.669598e+002
      vertex   -1.095659e+003 -3.565164e+002 5.714625e+002
    endloop
  endfacet
  facet normal 5.773503e-001 5.773503e-001 5.773503e-001
    outer loop
      vertex   -1.095679e+003 -3.569501e+002 5.719164e+002
      vertex   -1.095659e+003 -3.574040e+002 5.723502e+002
      vertex   -1.093766e+003 -3.539067e+002 5.669598e+002
    endloop
  endfacet
  facet normal 5.773503e-001 5.773503e-001 5.773503e-001
    outer loop
      vertex   -1.093766e+003 -3.539067e+002 5.669598e+002
      vertex   -1.095659e+003 -3.574040e+002 5.723502e+002
      vertex   -1.095599e+003 -3.578753e+002 5.727611e+002
    endloop
  endfacet
  facet normal 5.773503e-001 5.773503e-001 5.773503e-001
    outer loop
      vertex   -1.095499e+003 -3.583609e+002 5.731468e+002
      vertex   -1.093766e+003 -3.539067e+002 5.669598e+002
      vertex   -1.095599e+003 -3.578753e+002 5.727611e+002
    endloop
  endfacet
  facet normal 5.773503e-001 5.773503e-001 5.773503e-001
    outer loop
      vertex   -1.095499e+003 -3.583609e+002 5.731468e+002
      vertex   -1.095359e+003 -3.588580e+002 5.735046e+002
      vertex   -1.093766e+003 -3.539067e+002 5.669598e+002
    endloop
  endfacet
  facet normal 5.773503e-001 5.773503e-001 5.773503e-001
    outer loop
      vertex   -1.093766e+003 -3.539067e+002 5.669598e+002
      vertex   -1.095359e+003 -3.588580e+002 5.735046e+002
      vertex   -1.095182e+003 -3.593635e+002 5.738326e+002
    endloop
  endfacet
  facet normal 5.773503e-001 5.773503e-001 5.773503e-001
    outer loop
      vertex   -1.094967e+003 -3.598742e+002 5.741286e+002
      vertex   -1.093766e+003 -3.539067e+002 5.669598e+002
      vertex   -1.095182e+003 -3.593635e+002 5.738326e+002
    endloop
  endfacet
  facet normal 5.773503e-001 5.773503e-001 5.773503e-001
    outer loop
      vertex   -1.094967e+003 -3.598742e+002 5.741286e+002
      vertex   -1.094716e+003 -3.603871e+002 5.743909e+002
      vertex   -1.093766e+003 -3.539067e+002 5.669598e+002
    endloop
  endfacet
  facet normal 5.773503e-001 5.773503e-001 5.773503e-001
    outer loop
      vertex   -1.093766e+003 -3.539067e+002 5.669598e+002
      vertex   -1.094716e+003 -3.603871e+002 5.743909e+002
      vertex   -1.094432e+003 -3.608989e+002 5.746177e+002
    endloop
  endfacet
  facet normal 5.773503e-001 5.773503e-001 5.773503e-001
    outer loop
      vertex   -1.093766e+003 -3.619067e+002 5.749598e+002
      vertex   -1.053351e+003 -4.171140e+002 5.897526e+002
      vertex   -1.003699e+003 -4.069400e+002 5.299265e+002
    endloop
  endfacet
  facet normal -5.773503e-001 -5.773503e-001 -5.773503e-001
    outer loop
      vertex   -1.044837e+003 -4.221924e+002 5.852772e+002
      vertex   -1.053698e+003 -4.174604e+002 5.894062e+002
      vertex   -1.044460e+003 -4.220792e+002 5.847874e+002
    endloop
  endfacet
  facet normal -5.773503e-001 -5.773503e-001 -5.773503e-001
    outer loop
      vertex   -1.044837e+003 -4.221924e+002 5.852772e+002
      vertex   -1.045240e+003 -4.222660e+002 5.857536e+002
      vertex   -1.053698e+003 -4.174604e+002 5.894062e+002
    endloop
  endfacet
  facet normal -5.773503e-001 -5.773503e-001 -5.773503e-001
    outer loop
      vertex   -1.053698e+003 -4.174604e+002 5.894062e+002
      vertex   -1.045240e+003 -4.222660e+002 5.857536e+002
      vertex   -1.045666e+003 -4.222995e+002 5.862136e+002
    endloop
  endfacet
  facet normal -5.773503e-001 -5.773503e-001 -5.773503e-001
    outer loop
      vertex   -1.046113e+003 -4.222928e+002 5.866543e+002
      vertex   -1.053698e+003 -4.174604e+002 5.894062e+002
      vertex   -1.045666e+003 -4.222995e+002 5.862136e+002
    endloop
  endfacet
  facet normal -5.773503e-001 -5.773503e-001 -5.773503e-001
    outer loop
      vertex   -1.046113e+003 -4.222928e+002 5.866543e+002
      vertex   -1.046579e+003 -4.222459e+002 5.870732e+002
      vertex   -1.053698e+003 -4.174604e+002 5.894062e+002
    endloop
  endfacet
  facet normal -5.773503e-001 -5.773503e-001 -5.773503e-001
    outer loop
      vertex   -1.053698e+003 -4.174604e+002 5.894062e+002
      vertex   -1.046579e+003 -4.222459e+002 5.870732e+002
      vertex   -1.047060e+003 -4.221590e+002 5.874675e+002
    endloop
  endfacet
  facet normal -5.773503e-001 -5.773503e-001 -5.773503e-001
    outer loop
      vertex   -1.047554e+003 -4.220328e+002 5.878349e+002
      vertex   -1.053698e+003 -4.174604e+002 5.894062e+002
      vertex   -1.047060e+003 -4.221590e+002 5.874675e+002
    endloop
  endfacet
  facet normal -5.773503e-001 -5.773503e-001 -5.773503e-001
    outer loop
      vertex   -1.047554e+003 -4.220328e+002 5.878349e+002
      vertex   -1.048057e+003 -4.218679e+002 5.881731e+002
      vertex   -1.053698e+003 -4.174604e+002 5.894062e+002
    endloop
  endfacet
  facet normal -5.773503e-001 -5.773503e-001 -5.773503e-001
    outer loop
      vertex   -1.053698e+003 -4.174604e+002 5.894062e+002
      vertex   -1.048057e+003 -4.218679e+002 5.881731e+002
      vertex   -1.048566e+003 -4.216654e+002 5.884799e+002
    endloop
  endfacet
  facet normal -5.773503e-001 -5.773503e-001 -5.773503e-001
    outer loop
      vertex   -1.049079e+003 -4.214266e+002 5.887536e+002
      vertex   -1.053698e+003 -4.174604e+002 5.894062e+002
      vertex   -1.048566e+003 -4.216654e+002 5.884799e+002
    endloop
  endfacet
  facet normal -5.773503e-001 -5.773503e-001 -5.773503e-001
    outer loop
      vertex   -1.049079e+003 -4.214266e+002 5.887536e+002
      vertex   -1.049591e+003 -4.211529e+002 5.889924e+002
      vertex   -1.053698e+003 -4.174604e+002 5.894062e+002
    endloop
  endfacet
  facet normal -5.773503e-001 -5.773503e-001 -5.773503e-001
    outer loop
      vertex   -1.053698e+003 -4.174604e+002 5.894062e+002
      vertex   -1.049591e+003 -4.211529e+002 5.889924e+002
      vertex   -1.050101e+003 -4.208461e+002 5.891949e+002
    endloop
  endfacet
  facet normal -5.773503e-001 -5.773503e-001 -5.773503e-001
    outer loop
      vertex   -1.050604e+003 -4.205079e+002 5.893598e+002
      vertex   -1.053698e+003 -4.174604e+002 5.894062e+002
      vertex   -1.050101e+003 -4.208461e+002 5.891949e+002
    endloop
  endfacet
  facet normal -5.773503e-001 -5.773503e-001 -5.773503e-001
    outer loop
      vertex   -1.050604e+003 -4.205079e+002 5.893598e+002
      vertex   -1.051097e+003 -4.201405e+002 5.894860e+002
      vertex   -1.053698e+003 -4.174604e+002 5.894062e+002
    endloop
  endfacet
  facet normal -5.773503e-001 -5.773503e-001 -5.773503e-001
    outer loop
      vertex   -1.053698e+003 -4.174604e+002 5.894062e+002
      vertex   -1.051097e+003 -4.201405e+002 5.894860e+002
      vertex   -1.051579e+003 -4.197462e+002 5.895729e+002
    endloop
  endfacet
  facet normal -5.773503e-001 -5.773503e-001 -5.773503e-001
    outer loop
      vertex   -1.052044e+003 -4.193273e+002 5.896198e+002
      vertex   -1.053698e+003 -4.174604e+002 5.894062e+002
      vertex   -1.051579e+003 -4.197462e+002 5.895729e+002
    endloop
  endfacet
  facet normal -5.773503e-001 -5.773503e-001 -5.773503e-001
    outer loop
      vertex   -1.052044e+003 -4.193273e+002 5.896198e+002
      vertex   -1.052492e+003 -4.188866e+002 5.896265e+002
      vertex   -1.053698e+003 -4.174604e+002 5.894062e+002
    endloop
  endfacet
  facet normal -5.773503e-001 -5.773503e-001 -5.773503e-001
    outer loop
      vertex   -1.053698e+003 -4.174604e+002 5.894062e+002
      vertex   -1.052492e+003 -4.188866e+002 5.896265e+002
      vertex   -1.052918e+003 -4.184266e+002 5.895930e+002
    endloop
  endfacet
  facet normal -5.773503e-001 -5.773503e-001 -5.773503e-001
    outer loop
      vertex   -1.053321e+003 -4.179502e+002 5.895194e+002
      vertex   -1.053698e+003 -4.174604e+002 5.894062e+002
      vertex   -1.052918e+003 -4.184266e+002 5.895930e+002
    endloop
  endfacet
  facet normal -5.773503e-001 -5.773503e-001 -5.773503e-001
    outer loop
      vertex   -1.094112e+003 -3.622531e+002 5.746134e+002
      vertex   -1.053698e+003 -3.394604e+002 5.114062e+002
      vertex   -1.053698e+003 -4.174604e+002 5.894062e+002
    endloop
  endfacet
  facet normal -5.773503e-001 -5.773503e-001 -5.773503e-001
    outer loop
      vertex   -1.094112e+003 -3.622531e+002 5.746134e+002
      vertex   -1.094112e+003 -3.542531e+002 5.666134e+002
      vertex   -1.053698e+003 -3.394604e+002 5.114062e+002
    endloop
  endfacet
  facet normal -5.773503e-001 -5.773503e-001 -5.773503e-001
    outer loop
      vertex   -1.094112e+003 -3.622531e+002 5.746134e+002
      vertex   -1.094460e+003 -3.617529e+002 5.744613e+002
      vertex   -1.094112e+003 -3.542531e+002 5.666134e+002
    endloop
  endfacet
  facet normal -5.773503e-001 -5.773503e-001 -5.773503e-001
    outer loop
      vertex   -1.094112e+003 -3.542531e+002 5.666134e+002
      vertex   -1.094460e+003 -3.617529e+002 5.744613e+002
      vertex   -1.094778e+003 -3.612453e+002 5.742713e+002
    endloop
  endfacet
  facet normal -5.773503e-001 -5.773503e-001 -5.773503e-001
    outer loop
      vertex   -1.095063e+003 -3.607335e+002 5.740444e+002
      vertex   -1.094112e+003 -3.542531e+002 5.666134e+002
      vertex   -1.094778e+003 -3.612453e+002 5.742713e+002
    endloop
  endfacet
  facet normal -5.773503e-001 -5.773503e-001 -5.773503e-001
    outer loop
      vertex   -1.095063e+003 -3.607335e+002 5.740444e+002
      vertex   -1.095313e+003 -3.602207e+002 5.737822e+002
      vertex   -1.094112e+003 -3.542531e+002 5.666134e+002
    endloop
  endfacet
  facet normal -5.773503e-001 -5.773503e-001 -5.773503e-001
    outer loop
      vertex   -1.094112e+003 -3.542531e+002 5.666134e+002
      vertex   -1.095313e+003 -3.602207e+002 5.737822e+002
      vertex   -1.095528e+003 -3.597099e+002 5.734862e+002
    endloop
  endfacet
  facet normal -5.773503e-001 -5.773503e-001 -5.773503e-001
    outer loop
      vertex   -1.095706e+003 -3.592044e+002 5.731582e+002
      vertex   -1.094112e+003 -3.542531e+002 5.666134e+002
      vertex   -1.095528e+003 -3.597099e+002 5.734862e+002
    endloop
  endfacet
  facet normal -5.773503e-001 -5.773503e-001 -5.773503e-001
    outer loop
      vertex   -1.095706e+003 -3.592044e+002 5.731582e+002
      vertex   -1.095845e+003 -3.587073e+002 5.728003e+002
      vertex   -1.094112e+003 -3.542531e+002 5.666134e+002
    endloop
  endfacet
  facet normal -5.773503e-001 -5.773503e-001 -5.773503e-001
    outer loop
      vertex   -1.094112e+003 -3.542531e+002 5.666134e+002
      vertex   -1.095845e+003 -3.587073e+002 5.728003e+002
      vertex   -1.095945e+003 -3.582217e+002 5.724147e+002
    endloop
  endfacet
  facet normal -5.773503e-001 -5.773503e-001 -5.773503e-001
    outer loop
      vertex   -1.096005e+003 -3.577504e+002 5.720038e+002
      vertex   -1.094112e+003 -3.542531e+002 5.666134e+002
      vertex   -1.095945e+003 -3.582217e+002 5.724147e+002
    endloop
  endfacet
  facet normal -5.773503e-001 -5.773503e-001 -5.773503e-001
    outer loop
      vertex   -1.096005e+003 -3.577504e+002 5.720038e+002
      vertex   -1.096025e+003 -3.572965e+002 5.715700e+002
      vertex   -1.094112e+003 -3.542531e+002 5.666134e+002
    endloop
  endfacet
  facet normal -5.773503e-001 -5.773503e-001 -5.773503e-001
    outer loop
      vertex   -1.094112e+003 -3.542531e+002 5.666134e+002
      vertex   -1.096025e+003 -3.572965e+002 5.715700e+002
      vertex   -1.096005e+003 -3.568628e+002 5.711161e+002
    endloop
  endfacet
  facet normal -5.773503e-001 -5.773503e-001 -5.773503e-001
    outer loop
      vertex   -1.095945e+003 -3.564518e+002 5.706449e+002
      vertex   -1.094112e+003 -3.542531e+002 5.666134e+002
      vertex   -1.096005e+003 -3.568628e+002 5.711161e+002
    endloop
  endfacet
  facet normal -5.773503e-001 -5.773503e-001 -5.773503e-001
    outer loop
      vertex   -1.095945e+003 -3.564518e+002 5.706449e+002
      vertex   -1.095845e+003 -3.560662e+002 5.701592e+002
      vertex   -1.094112e+003 -3.542531e+002 5.666134e+002
    endloop
  endfacet
  facet normal -5.773503e-001 -5.773503e-001 -5.773503e-001
    outer loop
      vertex   -1.094112e+003 -3.542531e+002 5.666134e+002
      vertex   -1.095845e+003 -3.560662e+002 5.701592e+002
      vertex   -1.095706e+003 -3.557083e+002 5.696621e+002
    endloop
  endfacet
  facet normal -5.773503e-001 -5.773503e-001 -5.773503e-001
    outer loop
      vertex   -1.095528e+003 -3.553804e+002 5.691566e+002
      vertex   -1.094112e+003 -3.542531e+002 5.666134e+002
      vertex   -1.095706e+003 -3.557083e+002 5.696621e+002
    endloop
  endfacet
  facet normal -5.773503e-001 -5.773503e-001 -5.773503e-001
    outer loop
      vertex   -1.095528e+003 -3.553804e+002 5.691566e+002
      vertex   -1.095313e+003 -3.550843e+002 5.686459e+002
      vertex   -1.094112e+003 -3.542531e+002 5.666134e+002
    endloop
  endfacet
  facet normal -5.773503e-001 -5.773503e-001 -5.773503e-001
    outer loop
      vertex   -1.094112e+003 -3.542531e+002 5.666134e+002
      vertex   -1.095313e+003 -3.550843e+002 5.686459e+002
      vertex   -1.095063e+003 -3.548221e+002 5.681330e+002
    endloop
  endfacet
  facet normal -5.773503e-001 -5.773503e-001 -5.773503e-001
    outer loop
      vertex   -1.094778e+003 -3.545953e+002 5.676213e+002
      vertex   -1.094112e+003 -3.542531e+002 5.666134e+002
      vertex   -1.095063e+003 -3.548221e+002 5.681330e+002
    endloop
  endfacet
  facet normal -5.773503e-001 -5.773503e-001 -5.773503e-001
    outer loop
      vertex   -1.094778e+003 -3.545953e+002 5.676213e+002
      vertex   -1.094460e+003 -3.544052e+002 5.671137e+002
      vertex   -1.094112e+003 -3.542531e+002 5.666134e+002
    endloop
  endfacet
  facet normal -5.773503e-001 -5.773503e-001 -5.773503e-001
    outer loop
      vertex   -1.053321e+003 -3.393472e+002 5.109164e+002
      vertex   -1.052918e+003 -3.392736e+002 5.104400e+002
      vertex   -1.053698e+003 -3.394604e+002 5.114062e+002
    endloop
  endfacet
  facet normal -5.773503e-001 -5.773503e-001 -5.773503e-001
    outer loop
      vertex   -1.053698e+003 -3.394604e+002 5.114062e+002
      vertex   -1.052918e+003 -3.392736e+002 5.104400e+002
      vertex   -1.052492e+003 -3.392400e+002 5.099800e+002
    endloop
  endfacet
  facet normal -5.773503e-001 -5.773503e-001 -5.773503e-001
    outer loop
      vertex   -1.052044e+003 -3.392468e+002 5.095392e+002
      vertex   -1.053698e+003 -3.394604e+002 5.114062e+002
      vertex   -1.052492e+003 -3.392400e+002 5.099800e+002
    endloop
  endfacet
  facet normal -5.773503e-001 -5.773503e-001 -5.773503e-001
    outer loop
      vertex   -1.052044e+003 -3.392468e+002 5.095392e+002
      vertex   -1.051579e+003 -3.392937e+002 5.091204e+002
      vertex   -1.053698e+003 -3.394604e+002 5.114062e+002
    endloop
  endfacet
  facet normal -5.773503e-001 -5.773503e-001 -5.773503e-001
    outer loop
      vertex   -1.053698e+003 -3.394604e+002 5.114062e+002
      vertex   -1.051579e+003 -3.392937e+002 5.091204e+002
      vertex   -1.051097e+003 -3.393805e+002 5.087260e+002
    endloop
  endfacet
  facet normal -5.773503e-001 -5.773503e-001 -5.773503e-001
    outer loop
      vertex   -1.050604e+003 -3.395068e+002 5.083586e+002
      vertex   -1.053698e+003 -3.394604e+002 5.114062e+002
      vertex   -1.051097e+003 -3.393805e+002 5.087260e+002
    endloop
  endfacet
  facet normal -5.773503e-001 -5.773503e-001 -5.773503e-001
    outer loop
      vertex   -1.050604e+003 -3.395068e+002 5.083586e+002
      vertex   -1.050101e+003 -3.396717e+002 5.080205e+002
      vertex   -1.053698e+003 -3.394604e+002 5.114062e+002
    endloop
  endfacet
  facet normal -5.773503e-001 -5.773503e-001 -5.773503e-001
    outer loop
      vertex   -1.053698e+003 -3.394604e+002 5.114062e+002
      vertex   -1.050101e+003 -3.396717e+002 5.080205e+002
      vertex   -1.049591e+003 -3.398741e+002 5.077136e+002
    endloop
  endfacet
  facet normal -5.773503e-001 -5.773503e-001 -5.773503e-001
    outer loop
      vertex   -1.049079e+003 -3.401129e+002 5.074399e+002
      vertex   -1.053698e+003 -3.394604e+002 5.114062e+002
      vertex   -1.049591e+003 -3.398741e+002 5.077136e+002
    endloop
  endfacet
  facet normal -5.773503e-001 -5.773503e-001 -5.773503e-001
    outer loop
      vertex   -1.049079e+003 -3.401129e+002 5.074399e+002
      vertex   -1.048566e+003 -3.403866e+002 5.072011e+002
      vertex   -1.053698e+003 -3.394604e+002 5.114062e+002
    endloop
  endfacet
  facet normal -5.773503e-001 -5.773503e-001 -5.773503e-001
    outer loop
      vertex   -1.053698e+003 -3.394604e+002 5.114062e+002
      vertex   -1.048566e+003 -3.403866e+002 5.072011e+002
      vertex   -1.048057e+003 -3.406935e+002 5.069987e+002
    endloop
  endfacet
  facet normal -5.773503e-001 -5.773503e-001 -5.773503e-001
    outer loop
      vertex   -1.047554e+003 -3.410317e+002 5.068338e+002
      vertex   -1.053698e+003 -3.394604e+002 5.114062e+002
      vertex   -1.048057e+003 -3.406935e+002 5.069987e+002
    endloop
  endfacet
  facet normal -5.773503e-001 -5.773503e-001 -5.773503e-001
    outer loop
      vertex   -1.047554e+003 -3.410317e+002 5.068338e+002
      vertex   -1.047060e+003 -3.413990e+002 5.067075e+002
      vertex   -1.053698e+003 -3.394604e+002 5.114062e+002
    endloop
  endfacet
  facet normal -5.773503e-001 -5.773503e-001 -5.773503e-001
    outer loop
      vertex   -1.053698e+003 -3.394604e+002 5.114062e+002
      vertex   -1.047060e+003 -3.413990e+002 5.067075e+002
      vertex   -1.046579e+003 -3.417934e+002 5.066207e+002
    endloop
  endfacet
  facet normal -5.773503e-001 -5.773503e-001 -5.773503e-001
    outer loop
      vertex   -1.046113e+003 -3.422122e+002 5.065738e+002
      vertex   -1.053698e+003 -3.394604e+002 5.114062e+002
      vertex   -1.046579e+003 -3.417934e+002 5.066207e+002
    endloop
  endfacet
  facet normal -5.773503e-001 -5.773503e-001 -5.773503e-001
    outer loop
      vertex   -1.046113e+003 -3.422122e+002 5.065738e+002
      vertex   -1.045666e+003 -3.426530e+002 5.065670e+002
      vertex   -1.053698e+003 -3.394604e+002 5.114062e+002
    endloop
  endfacet
  facet normal -5.773503e-001 -5.773503e-001 -5.773503e-001
    outer loop
      vertex   -1.053698e+003 -3.394604e+002 5.114062e+002
      vertex   -1.045666e+003 -3.426530e+002 5.065670e+002
      vertex   -1.045240e+003 -3.431130e+002 5.066006e+002
    endloop
  endfacet
  facet normal -5.773503e-001 -5.773503e-001 -5.773503e-001
    outer loop
      vertex   -1.044837e+003 -3.435894e+002 5.066742e+002
      vertex   -1.053698e+003 -3.394604e+002 5.114062e+002
      vertex   -1.045240e+003 -3.431130e+002 5.066006e+002
    endloop
  endfacet
  facet normal -5.773503e-001 -5.773503e-001 -5.773503e-001
    outer loop
      vertex   -1.044837e+003 -3.435894e+002 5.066742e+002
      vertex   -1.044460e+003 -3.440792e+002 5.067874e+002
      vertex   -1.053698e+003 -3.394604e+002 5.114062e+002
    endloop
  endfacet
  facet normal -5.773503e-001 -5.773503e-001 -5.773503e-001
    outer loop
      vertex   -1.053698e+003 -3.394604e+002 5.114062e+002
      vertex   -1.044460e+003 -3.440792e+002 5.067874e+002
      vertex   -1.053698e+003 -4.174604e+002 5.894062e+002
    endloop
  endfacet
  facet normal -5.773503e-001 -5.773503e-001 -5.773503e-001
    outer loop
      vertex   -1.053698e+003 -4.174604e+002 5.894062e+002
      vertex   -1.044460e+003 -3.440792e+002 5.067874e+002
      vertex   -1.044460e+003 -4.220792e+002 5.847874e+002
    endloop
  endfacet
  facet normal -5.773503e-001 -5.773503e-001 -5.773503e-001
    outer loop
      vertex   -1.044460e+003 -4.220792e+002 5.847874e+002
      vertex   -1.044460e+003 -3.440792e+002 5.067874e+002
      vertex   -1.004046e+003 -3.992864e+002 5.215801e+002
    endloop
  endfacet
  facet normal -5.773503e-001 -5.773503e-001 -5.773503e-001
    outer loop
      vertex   -1.004046e+003 -4.072864e+002 5.295801e+002
      vertex   -1.004046e+003 -3.992864e+002 5.215801e+002
      vertex   -1.003697e+003 -4.071343e+002 5.290799e+002
    endloop
  endfacet
  facet normal -5.773503e-001 -5.773503e-001 -5.773503e-001
    outer loop
      vertex   -1.004046e+003 -4.072864e+002 5.295801e+002
      vertex   -1.044460e+003 -4.220792e+002 5.847874e+002
      vertex   -1.004046e+003 -3.992864e+002 5.215801e+002
    endloop
  endfacet
  facet normal -5.773503e-001 -5.773503e-001 -5.773503e-001
    outer loop
      vertex   -1.003697e+003 -3.997867e+002 5.217322e+002
      vertex   -1.003380e+003 -4.002943e+002 5.219223e+002
      vertex   -1.004046e+003 -3.992864e+002 5.215801e+002
    endloop
  endfacet
  facet normal -5.773503e-001 -5.773503e-001 -5.773503e-001
    outer loop
      vertex   -1.004046e+003 -3.992864e+002 5.215801e+002
      vertex   -1.003380e+003 -4.002943e+002 5.219223e+002
      vertex   -1.003095e+003 -4.008060e+002 5.221491e+002
    endloop
  endfacet
  facet normal -5.773503e-001 -5.773503e-001 -5.773503e-001
    outer loop
      vertex   -1.002844e+003 -4.013189e+002 5.224113e+002
      vertex   -1.004046e+003 -3.992864e+002 5.215801e+002
      vertex   -1.003095e+003 -4.008060e+002 5.221491e+002
    endloop
  endfacet
  facet normal -5.773503e-001 -5.773503e-001 -5.773503e-001
    outer loop
      vertex   -1.002844e+003 -4.013189e+002 5.224113e+002
      vertex   -1.002630e+003 -4.018296e+002 5.227074e+002
      vertex   -1.004046e+003 -3.992864e+002 5.215801e+002
    endloop
  endfacet
  facet normal -5.773503e-001 -5.773503e-001 -5.773503e-001
    outer loop
      vertex   -1.004046e+003 -3.992864e+002 5.215801e+002
      vertex   -1.002630e+003 -4.018296e+002 5.227074e+002
      vertex   -1.002452e+003 -4.023351e+002 5.230353e+002
    endloop
  endfacet
  facet normal -5.773503e-001 -5.773503e-001 -5.773503e-001
    outer loop
      vertex   -1.002313e+003 -4.028322e+002 5.233932e+002
      vertex   -1.004046e+003 -3.992864e+002 5.215801e+002
      vertex   -1.002452e+003 -4.023351e+002 5.230353e+002
    endloop
  endfacet
  facet normal -5.773503e-001 -5.773503e-001 -5.773503e-001
    outer loop
      vertex   -1.002313e+003 -4.028322e+002 5.233932e+002
      vertex   -1.002213e+003 -4.033179e+002 5.237788e+002
      vertex   -1.004046e+003 -3.992864e+002 5.215801e+002
    endloop
  endfacet
  facet normal -5.773503e-001 -5.773503e-001 -5.773503e-001
    outer loop
      vertex   -1.004046e+003 -3.992864e+002 5.215801e+002
      vertex   -1.002213e+003 -4.033179e+002 5.237788e+002
      vertex   -1.002153e+003 -4.037891e+002 5.241898e+002
    endloop
  endfacet
  facet normal -5.773503e-001 -5.773503e-001 -5.773503e-001
    outer loop
      vertex   -1.002132e+003 -4.042430e+002 5.246235e+002
      vertex   -1.004046e+003 -3.992864e+002 5.215801e+002
      vertex   -1.002153e+003 -4.037891e+002 5.241898e+002
    endloop
  endfacet
  facet normal -5.773503e-001 -5.773503e-001 -5.773503e-001
    outer loop
      vertex   -1.002132e+003 -4.042430e+002 5.246235e+002
      vertex   -1.002153e+003 -4.046768e+002 5.250774e+002
      vertex   -1.004046e+003 -3.992864e+002 5.215801e+002
    endloop
  endfacet
  facet normal -5.773503e-001 -5.773503e-001 -5.773503e-001
    outer loop
      vertex   -1.004046e+003 -3.992864e+002 5.215801e+002
      vertex   -1.002153e+003 -4.046768e+002 5.250774e+002
      vertex   -1.002213e+003 -4.050877e+002 5.255487e+002
    endloop
  endfacet
  facet normal -5.773503e-001 -5.773503e-001 -5.773503e-001
    outer loop
      vertex   -1.002313e+003 -4.054733e+002 5.260343e+002
      vertex   -1.004046e+003 -3.992864e+002 5.215801e+002
      vertex   -1.002213e+003 -4.050877e+002 5.255487e+002
    endloop
  endfacet
  facet normal -5.773503e-001 -5.773503e-001 -5.773503e-001
    outer loop
      vertex   -1.002313e+003 -4.054733e+002 5.260343e+002
      vertex   -1.002452e+003 -4.058312e+002 5.265314e+002
      vertex   -1.004046e+003 -3.992864e+002 5.215801e+002
    endloop
  endfacet
  facet normal -5.773503e-001 -5.773503e-001 -5.773503e-001
    outer loop
      vertex   -1.004046e+003 -3.992864e+002 5.215801e+002
      vertex   -1.002452e+003 -4.058312e+002 5.265314e+002
      vertex   -1.002630e+003 -4.061592e+002 5.270369e+002
    endloop
  endfacet
  facet normal -5.773503e-001 -5.773503e-001 -5.773503e-001
    outer loop
      vertex   -1.002844e+003 -4.064552e+002 5.275477e+002
      vertex   -1.004046e+003 -3.992864e+002 5.215801e+002
      vertex   -1.002630e+003 -4.061592e+002 5.270369e+002
    endloop
  endfacet
  facet normal -5.773503e-001 -5.773503e-001 -5.773503e-001
    outer loop
      vertex   -1.002844e+003 -4.064552e+002 5.275477e+002
      vertex   -1.003095e+003 -4.067174e+002 5.280605e+002
      vertex   -1.004046e+003 -3.992864e+002 5.215801e+002
    endloop
  endfacet
  facet normal -5.773503e-001 -5.773503e-001 -5.773503e-001
    outer loop
      vertex   -1.004046e+003 -3.992864e+002 5.215801e+002
      vertex   -1.003095e+003 -4.067174e+002 5.280605e+002
      vertex   -1.003380e+003 -4.069443e+002 5.285723e+002
    endloop
  endfacet
  facet normal -5.773503e-001 -5.773503e-001 -5.773503e-001
    outer loop
      vertex   -1.003697e+003 -4.071343e+002 5.290799e+002
      vertex   -1.004046e+003 -3.992864e+002 5.215801e+002
      vertex   -1.003380e+003 -4.069443e+002 5.285723e+002
    endloop
  endfacet
endsolid
