solid ascii
  facet normal -3.586010e-013 -5.047617e-001 8.632587e-001
    outer loop
      vertex   -1.101428e+003 -4.305482e+002 5.118585e+002
      vertex   -1.104428e+003 -4.305482e+002 5.118585e+002
      vertex   -1.101428e+003 -4.311788e+002 5.114898e+002
    endloop
  endfacet
  facet normal -3.649367e-013 -4.404013e-001 8.978010e-001
    outer loop
      vertex   -1.101428e+003 -4.305482e+002 5.118585e+002
      vertex   -1.104428e+003 -4.298924e+002 5.121802e+002
      vertex   -1.104428e+003 -4.305482e+002 5.118585e+002
    endloop
  endfacet
  facet normal -3.819504e-013 -4.404013e-001 8.978010e-001
    outer loop
      vertex   -1.101428e+003 -4.305482e+002 5.118585e+002
      vertex   -1.101428e+003 -4.298924e+002 5.121802e+002
      vertex   -1.104428e+003 -4.298924e+002 5.121802e+002
    endloop
  endfacet
  facet normal -3.869051e-013 -3.736912e-001 9.275532e-001
    outer loop
      vertex   -1.104428e+003 -4.298924e+002 5.121802e+002
      vertex   -1.101428e+003 -4.298924e+002 5.121802e+002
      vertex   -1.104428e+003 -4.292149e+002 5.124531e+002
    endloop
  endfacet
  facet normal -3.517513e-013 -3.736912e-001 9.275532e-001
    outer loop
      vertex   -1.104428e+003 -4.292149e+002 5.124531e+002
      vertex   -1.101428e+003 -4.298924e+002 5.121802e+002
      vertex   -1.101428e+003 -4.292149e+002 5.124531e+002
    endloop
  endfacet
  facet normal -3.955761e-013 -3.049872e-001 9.523564e-001
    outer loop
      vertex   -1.104428e+003 -4.285193e+002 5.126759e+002
      vertex   -1.101428e+003 -4.292149e+002 5.124531e+002
      vertex   -1.101428e+003 -4.285193e+002 5.126759e+002
    endloop
  endfacet
  facet normal -3.906046e-013 -2.346561e-001 9.720785e-001
    outer loop
      vertex   -1.104428e+003 -4.278092e+002 5.128473e+002
      vertex   -1.101428e+003 -4.285193e+002 5.126759e+002
      vertex   -1.101428e+003 -4.278092e+002 5.128473e+002
    endloop
  endfacet
  facet normal -3.924222e-013 -1.630729e-001 9.866140e-001
    outer loop
      vertex   -1.104428e+003 -4.270886e+002 5.129664e+002
      vertex   -1.101428e+003 -4.278092e+002 5.128473e+002
      vertex   -1.101428e+003 -4.270886e+002 5.129664e+002
    endloop
  endfacet
  facet normal -3.859815e-013 -9.061967e-002 9.958856e-001
    outer loop
      vertex   -1.104428e+003 -4.263611e+002 5.130326e+002
      vertex   -1.101428e+003 -4.270886e+002 5.129664e+002
      vertex   -1.101428e+003 -4.263611e+002 5.130326e+002
    endloop
  endfacet
  facet normal -3.426823e-013 -1.768294e-002 9.998436e-001
    outer loop
      vertex   -1.104428e+003 -4.256308e+002 5.130455e+002
      vertex   -1.101428e+003 -4.263611e+002 5.130326e+002
      vertex   -1.101428e+003 -4.256308e+002 5.130455e+002
    endloop
  endfacet
  facet normal -3.352932e-013 5.534813e-002 9.984671e-001
    outer loop
      vertex   -1.104428e+003 -4.249015e+002 5.130051e+002
      vertex   -1.101428e+003 -4.256308e+002 5.130455e+002
      vertex   -1.101428e+003 -4.249015e+002 5.130051e+002
    endloop
  endfacet
  facet normal -3.612762e-013 1.280839e-001 9.917633e-001
    outer loop
      vertex   -1.104428e+003 -4.241771e+002 5.129115e+002
      vertex   -1.101428e+003 -4.249015e+002 5.130051e+002
      vertex   -1.101428e+003 -4.241771e+002 5.129115e+002
    endloop
  endfacet
  facet normal -3.151968e-013 2.001363e-001 9.797681e-001
    outer loop
      vertex   -1.104428e+003 -4.234614e+002 5.127653e+002
      vertex   -1.101428e+003 -4.241771e+002 5.129115e+002
      vertex   -1.101428e+003 -4.234614e+002 5.127653e+002
    endloop
  endfacet
  facet normal -3.026067e-013 2.711209e-001 9.625453e-001
    outer loop
      vertex   -1.104428e+003 -4.227583e+002 5.125673e+002
      vertex   -1.101428e+003 -4.234614e+002 5.127653e+002
      vertex   -1.101428e+003 -4.227583e+002 5.125673e+002
    endloop
  endfacet
  facet normal -2.819355e-013 3.406589e-001 9.401870e-001
    outer loop
      vertex   -1.104428e+003 -4.220716e+002 5.123185e+002
      vertex   -1.101428e+003 -4.227583e+002 5.125673e+002
      vertex   -1.101428e+003 -4.220716e+002 5.123185e+002
    endloop
  endfacet
  facet normal -2.726386e-013 4.083793e-001 9.128123e-001
    outer loop
      vertex   -1.104428e+003 -4.214048e+002 5.120202e+002
      vertex   -1.101428e+003 -4.220716e+002 5.123185e+002
      vertex   -1.101428e+003 -4.214048e+002 5.120202e+002
    endloop
  endfacet
  facet normal -2.721193e-013 4.739209e-001 8.805674e-001
    outer loop
      vertex   -1.104428e+003 -4.207616e+002 5.116740e+002
      vertex   -1.101428e+003 -4.214048e+002 5.120202e+002
      vertex   -1.101428e+003 -4.207616e+002 5.116740e+002
    endloop
  endfacet
  facet normal -2.368694e-013 5.369339e-001 8.436243e-001
    outer loop
      vertex   -1.104428e+003 -4.201454e+002 5.112818e+002
      vertex   -1.101428e+003 -4.207616e+002 5.116740e+002
      vertex   -1.101428e+003 -4.201454e+002 5.112818e+002
    endloop
  endfacet
  facet normal -2.435445e-013 5.970822e-001 8.021801e-001
    outer loop
      vertex   -1.104428e+003 -4.195595e+002 5.108457e+002
      vertex   -1.101428e+003 -4.201454e+002 5.112818e+002
      vertex   -1.101428e+003 -4.195595e+002 5.108457e+002
    endloop
  endfacet
  facet normal -2.103845e-013 6.540447e-001 7.564559e-001
    outer loop
      vertex   -1.104428e+003 -4.190069e+002 5.103679e+002
      vertex   -1.101428e+003 -4.195595e+002 5.108457e+002
      vertex   -1.101428e+003 -4.190069e+002 5.103679e+002
    endloop
  endfacet
  facet normal -1.873828e-013 7.075176e-001 7.066957e-001
    outer loop
      vertex   -1.104428e+003 -4.184907e+002 5.098511e+002
      vertex   -1.101428e+003 -4.190069e+002 5.103679e+002
      vertex   -1.101428e+003 -4.184907e+002 5.098511e+002
    endloop
  endfacet
  facet normal -1.634185e-013 7.572157e-001 6.531649e-001
    outer loop
      vertex   -1.104428e+003 -4.180136e+002 5.092980e+002
      vertex   -1.101428e+003 -4.184907e+002 5.098511e+002
      vertex   -1.101428e+003 -4.180136e+002 5.092980e+002
    endloop
  endfacet
  facet normal -1.120446e-013 8.028736e-001 5.961493e-001
    outer loop
      vertex   -1.104428e+003 -4.175782e+002 5.087116e+002
      vertex   -1.101428e+003 -4.180136e+002 5.092980e+002
      vertex   -1.101428e+003 -4.175782e+002 5.087116e+002
    endloop
  endfacet
  facet normal -1.129566e-013 8.442479e-001 5.359529e-001
    outer loop
      vertex   -1.104428e+003 -4.171867e+002 5.080949e+002
      vertex   -1.101428e+003 -4.175782e+002 5.087116e+002
      vertex   -1.101428e+003 -4.171867e+002 5.080949e+002
    endloop
  endfacet
  facet normal -7.780808e-014 8.811177e-001 4.728970e-001
    outer loop
      vertex   -1.104428e+003 -4.168413e+002 5.074513e+002
      vertex   -1.101428e+003 -4.171867e+002 5.080949e+002
      vertex   -1.101428e+003 -4.168413e+002 5.074513e+002
    endloop
  endfacet
  facet normal -6.011348e-014 9.132864e-001 4.073180e-001
    outer loop
      vertex   -1.104428e+003 -4.165437e+002 5.067842e+002
      vertex   -1.101428e+003 -4.168413e+002 5.074513e+002
      vertex   -1.101428e+003 -4.165437e+002 5.067842e+002
    endloop
  endfacet
  facet normal -3.313461e-014 9.405823e-001 3.395658e-001
    outer loop
      vertex   -1.104428e+003 -4.162957e+002 5.060972e+002
      vertex   -1.101428e+003 -4.165437e+002 5.067842e+002
      vertex   -1.101428e+003 -4.162957e+002 5.060972e+002
    endloop
  endfacet
  facet normal 3.051272e-014 9.628598e-001 2.700018e-001
    outer loop
      vertex   -1.104428e+003 -4.160985e+002 5.053938e+002
      vertex   -1.101428e+003 -4.162957e+002 5.060972e+002
      vertex   -1.101428e+003 -4.160985e+002 5.053938e+002
    endloop
  endfacet
  facet normal 2.120311e-014 9.800000e-001 1.989972e-001
    outer loop
      vertex   -1.104428e+003 -4.159531e+002 5.046780e+002
      vertex   -1.101428e+003 -4.160985e+002 5.053938e+002
      vertex   -1.101428e+003 -4.159531e+002 5.046780e+002
    endloop
  endfacet
  facet normal 4.827698e-014 9.919116e-001 1.269310e-001
    outer loop
      vertex   -1.104428e+003 -4.158604e+002 5.039535e+002
      vertex   -1.101428e+003 -4.159531e+002 5.046780e+002
      vertex   -1.101428e+003 -4.158604e+002 5.039535e+002
    endloop
  endfacet
  facet normal 7.406523e-014 9.985308e-001 5.418746e-002
    outer loop
      vertex   -1.104428e+003 -4.158208e+002 5.032241e+002
      vertex   -1.101428e+003 -4.158604e+002 5.039535e+002
      vertex   -1.101428e+003 -4.158208e+002 5.032241e+002
    endloop
  endfacet
  facet normal 8.220481e-014 9.998224e-001 -1.884517e-002
    outer loop
      vertex   -1.104428e+003 -4.158346e+002 5.024938e+002
      vertex   -1.101428e+003 -4.158208e+002 5.032241e+002
      vertex   -1.101428e+003 -4.158346e+002 5.024938e+002
    endloop
  endfacet
  facet normal 1.273802e-013 9.957796e-001 -9.177725e-002
    outer loop
      vertex   -1.104428e+003 -4.159016e+002 5.017664e+002
      vertex   -1.101428e+003 -4.158346e+002 5.024938e+002
      vertex   -1.101428e+003 -4.159016e+002 5.017664e+002
    endloop
  endfacet
  facet normal 1.525763e-013 9.864238e-001 -1.642197e-001
    outer loop
      vertex   -1.104428e+003 -4.160216e+002 5.010459e+002
      vertex   -1.101428e+003 -4.159016e+002 5.017664e+002
      vertex   -1.101428e+003 -4.160216e+002 5.010459e+002
    endloop
  endfacet
  facet normal 1.724874e-013 9.718050e-001 -2.357859e-001
    outer loop
      vertex   -1.104428e+003 -4.161938e+002 5.003361e+002
      vertex   -1.101428e+003 -4.160216e+002 5.010459e+002
      vertex   -1.101428e+003 -4.161938e+002 5.003361e+002
    endloop
  endfacet
  facet normal 2.126264e-013 9.520013e-001 -3.060941e-001
    outer loop
      vertex   -1.104428e+003 -4.164174e+002 4.996407e+002
      vertex   -1.101428e+003 -4.161938e+002 5.003361e+002
      vertex   -1.101428e+003 -4.164174e+002 4.996407e+002
    endloop
  endfacet
  facet normal 2.156536e-013 9.271182e-001 -3.747691e-001
    outer loop
      vertex   -1.104428e+003 -4.166911e+002 4.989635e+002
      vertex   -1.101428e+003 -4.164174e+002 4.996407e+002
      vertex   -1.101428e+003 -4.166911e+002 4.989635e+002
    endloop
  endfacet
  facet normal 2.439245e-013 8.972885e-001 -4.414446e-001
    outer loop
      vertex   -1.104428e+003 -4.170136e+002 4.983081e+002
      vertex   -1.101428e+003 -4.166911e+002 4.989635e+002
      vertex   -1.101428e+003 -4.170136e+002 4.983081e+002
    endloop
  endfacet
  facet normal 2.638103e-013 8.626714e-001 -5.057649e-001
    outer loop
      vertex   -1.104428e+003 -4.173830e+002 4.976779e+002
      vertex   -1.101428e+003 -4.170136e+002 4.983081e+002
      vertex   -1.101428e+003 -4.173830e+002 4.976779e+002
    endloop
  endfacet
  facet normal 2.822775e-013 8.234516e-001 -5.673866e-001
    outer loop
      vertex   -1.104428e+003 -4.177975e+002 4.970765e+002
      vertex   -1.101428e+003 -4.173830e+002 4.976779e+002
      vertex   -1.101428e+003 -4.177975e+002 4.970765e+002
    endloop
  endfacet
  facet normal 2.992501e-013 7.798383e-001 -6.259811e-001
    outer loop
      vertex   -1.104428e+003 -4.182547e+002 4.965068e+002
      vertex   -1.101428e+003 -4.177975e+002 4.970765e+002
      vertex   -1.101428e+003 -4.182547e+002 4.965068e+002
    endloop
  endfacet
  facet normal 3.275210e-013 7.320642e-001 -6.812357e-001
    outer loop
      vertex   -1.104428e+003 -4.187523e+002 4.959721e+002
      vertex   -1.101428e+003 -4.182547e+002 4.965068e+002
      vertex   -1.101428e+003 -4.187523e+002 4.959721e+002
    endloop
  endfacet
  facet normal 3.154121e-013 6.803842e-001 -7.328556e-001
    outer loop
      vertex   -1.104428e+003 -4.192876e+002 4.954751e+002
      vertex   -1.101428e+003 -4.187523e+002 4.959721e+002
      vertex   -1.101428e+003 -4.192876e+002 4.954751e+002
    endloop
  endfacet
  facet normal 3.254437e-013 6.250741e-001 -7.805654e-001
    outer loop
      vertex   -1.104428e+003 -4.198578e+002 4.950186e+002
      vertex   -1.101428e+003 -4.192876e+002 4.954751e+002
      vertex   -1.101428e+003 -4.198578e+002 4.950186e+002
    endloop
  endfacet
  facet normal 3.503453e-013 5.664290e-001 -8.241105e-001
    outer loop
      vertex   -1.104428e+003 -4.204597e+002 4.946048e+002
      vertex   -1.101428e+003 -4.198578e+002 4.950186e+002
      vertex   -1.101428e+003 -4.204597e+002 4.946048e+002
    endloop
  endfacet
  facet normal 3.586037e-013 5.047617e-001 -8.632587e-001
    outer loop
      vertex   -1.104428e+003 -4.210903e+002 4.942361e+002
      vertex   -1.101428e+003 -4.204597e+002 4.946048e+002
      vertex   -1.101428e+003 -4.210903e+002 4.942361e+002
    endloop
  endfacet
  facet normal 3.565897e-013 4.404013e-001 -8.978010e-001
    outer loop
      vertex   -1.104428e+003 -4.217461e+002 4.939144e+002
      vertex   -1.101428e+003 -4.210903e+002 4.942361e+002
      vertex   -1.101428e+003 -4.217461e+002 4.939144e+002
    endloop
  endfacet
  facet normal 3.798194e-013 3.736912e-001 -9.275532e-001
    outer loop
      vertex   -1.104428e+003 -4.224236e+002 4.936415e+002
      vertex   -1.101428e+003 -4.217461e+002 4.939144e+002
      vertex   -1.101428e+003 -4.224236e+002 4.936415e+002
    endloop
  endfacet
  facet normal 3.717511e-013 3.049872e-001 -9.523564e-001
    outer loop
      vertex   -1.104428e+003 -4.231192e+002 4.934187e+002
      vertex   -1.101428e+003 -4.224236e+002 4.936415e+002
      vertex   -1.101428e+003 -4.231192e+002 4.934187e+002
    endloop
  endfacet
  facet normal 3.537715e-013 2.346561e-001 -9.720785e-001
    outer loop
      vertex   -1.104428e+003 -4.238293e+002 4.932473e+002
      vertex   -1.101428e+003 -4.231192e+002 4.934187e+002
      vertex   -1.101428e+003 -4.238293e+002 4.932473e+002
    endloop
  endfacet
  facet normal 3.519413e-013 1.630729e-001 -9.866140e-001
    outer loop
      vertex   -1.104428e+003 -4.245500e+002 4.931282e+002
      vertex   -1.101428e+003 -4.238293e+002 4.932473e+002
      vertex   -1.101428e+003 -4.245500e+002 4.931282e+002
    endloop
  endfacet
  facet normal 3.465265e-013 9.061967e-002 -9.958856e-001
    outer loop
      vertex   -1.104428e+003 -4.252774e+002 4.930620e+002
      vertex   -1.101428e+003 -4.245500e+002 4.931282e+002
      vertex   -1.101428e+003 -4.252774e+002 4.930620e+002
    endloop
  endfacet
  facet normal 3.616269e-013 1.768294e-002 -9.998436e-001
    outer loop
      vertex   -1.104428e+003 -4.260077e+002 4.930491e+002
      vertex   -1.101428e+003 -4.252774e+002 4.930620e+002
      vertex   -1.101428e+003 -4.260077e+002 4.930491e+002
    endloop
  endfacet
  facet normal 3.531635e-013 -5.534813e-002 -9.984671e-001
    outer loop
      vertex   -1.104428e+003 -4.267370e+002 4.930895e+002
      vertex   -1.101428e+003 -4.260077e+002 4.930491e+002
      vertex   -1.101428e+003 -4.267370e+002 4.930895e+002
    endloop
  endfacet
  facet normal 3.449052e-013 -1.280839e-001 -9.917633e-001
    outer loop
      vertex   -1.104428e+003 -4.274615e+002 4.931831e+002
      vertex   -1.101428e+003 -4.267370e+002 4.930895e+002
      vertex   -1.101428e+003 -4.274615e+002 4.931831e+002
    endloop
  endfacet
  facet normal 3.337654e-013 -2.001363e-001 -9.797681e-001
    outer loop
      vertex   -1.104428e+003 -4.281771e+002 4.933292e+002
      vertex   -1.101428e+003 -4.274615e+002 4.931831e+002
      vertex   -1.101428e+003 -4.281771e+002 4.933292e+002
    endloop
  endfacet
  facet normal 3.208332e-013 -2.711209e-001 -9.625453e-001
    outer loop
      vertex   -1.104428e+003 -4.288802e+002 4.935273e+002
      vertex   -1.101428e+003 -4.281771e+002 4.933292e+002
      vertex   -1.101428e+003 -4.288802e+002 4.935273e+002
    endloop
  endfacet
  facet normal 3.062038e-013 -3.406589e-001 -9.401870e-001
    outer loop
      vertex   -1.104428e+003 -4.295670e+002 4.937761e+002
      vertex   -1.101428e+003 -4.288802e+002 4.935273e+002
      vertex   -1.101428e+003 -4.295670e+002 4.937761e+002
    endloop
  endfacet
  facet normal 2.726259e-013 -4.083793e-001 -9.128123e-001
    outer loop
      vertex   -1.104428e+003 -4.302337e+002 4.940744e+002
      vertex   -1.101428e+003 -4.295670e+002 4.937761e+002
      vertex   -1.101428e+003 -4.302337e+002 4.940744e+002
    endloop
  endfacet
  facet normal 2.721193e-013 -4.739209e-001 -8.805674e-001
    outer loop
      vertex   -1.104428e+003 -4.308769e+002 4.944206e+002
      vertex   -1.101428e+003 -4.302337e+002 4.940744e+002
      vertex   -1.101428e+003 -4.308769e+002 4.944206e+002
    endloop
  endfacet
  facet normal 2.528414e-013 -5.369339e-001 -8.436243e-001
    outer loop
      vertex   -1.104428e+003 -4.314931e+002 4.948128e+002
      vertex   -1.101428e+003 -4.308769e+002 4.944206e+002
      vertex   -1.101428e+003 -4.314931e+002 4.948128e+002
    endloop
  endfacet
  facet normal 2.435445e-013 -5.970822e-001 -8.021801e-001
    outer loop
      vertex   -1.104428e+003 -4.320791e+002 4.952489e+002
      vertex   -1.101428e+003 -4.314931e+002 4.948128e+002
      vertex   -1.101428e+003 -4.320791e+002 4.952489e+002
    endloop
  endfacet
  facet normal 1.836336e-013 -6.540447e-001 -7.564559e-001
    outer loop
      vertex   -1.104428e+003 -4.326316e+002 4.957266e+002
      vertex   -1.101428e+003 -4.320791e+002 4.952489e+002
      vertex   -1.101428e+003 -4.326316e+002 4.957266e+002
    endloop
  endfacet
  facet normal 1.874082e-013 -7.075176e-001 -7.066957e-001
    outer loop
      vertex   -1.104428e+003 -4.331478e+002 4.962434e+002
      vertex   -1.101428e+003 -4.326316e+002 4.957266e+002
      vertex   -1.101428e+003 -4.331478e+002 4.962434e+002
    endloop
  endfacet
  facet normal 1.653944e-013 -7.572157e-001 -6.531649e-001
    outer loop
      vertex   -1.104428e+003 -4.336249e+002 4.967965e+002
      vertex   -1.101428e+003 -4.331478e+002 4.962434e+002
      vertex   -1.101428e+003 -4.336249e+002 4.967965e+002
    endloop
  endfacet
  facet normal 1.385675e-013 -8.028736e-001 -5.961493e-001
    outer loop
      vertex   -1.104428e+003 -4.340604e+002 4.973830e+002
      vertex   -1.101428e+003 -4.336249e+002 4.967965e+002
      vertex   -1.101428e+003 -4.340604e+002 4.973830e+002
    endloop
  endfacet
  facet normal 1.289539e-013 -8.442479e-001 -5.359529e-001
    outer loop
      vertex   -1.104428e+003 -4.344518e+002 4.979997e+002
      vertex   -1.101428e+003 -4.340604e+002 4.973830e+002
      vertex   -1.101428e+003 -4.344518e+002 4.979997e+002
    endloop
  endfacet
  facet normal 7.008173e-014 -8.811177e-001 -4.728970e-001
    outer loop
      vertex   -1.104428e+003 -4.347973e+002 4.986433e+002
      vertex   -1.101428e+003 -4.344518e+002 4.979997e+002
      vertex   -1.101428e+003 -4.347973e+002 4.986433e+002
    endloop
  endfacet
  facet normal 4.281154e-014 -9.132864e-001 -4.073180e-001
    outer loop
      vertex   -1.104428e+003 -4.350948e+002 4.993104e+002
      vertex   -1.101428e+003 -4.347973e+002 4.986433e+002
      vertex   -1.101428e+003 -4.350948e+002 4.993104e+002
    endloop
  endfacet
  facet normal 1.531336e-014 -9.405823e-001 -3.395658e-001
    outer loop
      vertex   -1.104428e+003 -4.353428e+002 4.999974e+002
      vertex   -1.101428e+003 -4.350948e+002 4.993104e+002
      vertex   -1.101428e+003 -4.353428e+002 4.999974e+002
    endloop
  endfacet
  facet normal 5.978416e-015 -9.628598e-001 -2.700018e-001
    outer loop
      vertex   -1.104428e+003 -4.355400e+002 5.007007e+002
      vertex   -1.101428e+003 -4.353428e+002 4.999974e+002
      vertex   -1.101428e+003 -4.355400e+002 5.007007e+002
    endloop
  endfacet
  facet normal -2.120311e-014 -9.800000e-001 -1.989972e-001
    outer loop
      vertex   -1.104428e+003 -4.356854e+002 5.014166e+002
      vertex   -1.101428e+003 -4.355400e+002 5.007007e+002
      vertex   -1.101428e+003 -4.356854e+002 5.014166e+002
    endloop
  endfacet
  facet normal -5.068354e-014 -9.919116e-001 -1.269310e-001
    outer loop
      vertex   -1.104428e+003 -4.357781e+002 5.021411e+002
      vertex   -1.101428e+003 -4.356854e+002 5.014166e+002
      vertex   -1.101428e+003 -4.357781e+002 5.021411e+002
    endloop
  endfacet
  facet normal -7.509119e-014 -9.985308e-001 -5.418746e-002
    outer loop
      vertex   -1.104428e+003 -4.358177e+002 5.028705e+002
      vertex   -1.101428e+003 -4.357781e+002 5.021411e+002
      vertex   -1.101428e+003 -4.358177e+002 5.028705e+002
    endloop
  endfacet
  facet normal -1.015064e-013 -9.998224e-001 1.884517e-002
    outer loop
      vertex   -1.104428e+003 -4.358039e+002 5.036008e+002
      vertex   -1.101428e+003 -4.358177e+002 5.028705e+002
      vertex   -1.101428e+003 -4.358039e+002 5.036008e+002
    endloop
  endfacet
  facet normal -1.256417e-013 -9.957796e-001 9.177725e-002
    outer loop
      vertex   -1.104428e+003 -4.357369e+002 5.043281e+002
      vertex   -1.101428e+003 -4.358039e+002 5.036008e+002
      vertex   -1.101428e+003 -4.357369e+002 5.043281e+002
    endloop
  endfacet
  facet normal -1.525699e-013 -9.864238e-001 1.642197e-001
    outer loop
      vertex   -1.104428e+003 -4.356169e+002 5.050487e+002
      vertex   -1.101428e+003 -4.357369e+002 5.043281e+002
      vertex   -1.101428e+003 -4.356169e+002 5.050487e+002
    endloop
  endfacet
  facet normal -1.585420e-013 -9.718050e-001 2.357859e-001
    outer loop
      vertex   -1.104428e+003 -4.354447e+002 5.057585e+002
      vertex   -1.101428e+003 -4.356169e+002 5.050487e+002
      vertex   -1.101428e+003 -4.354447e+002 5.057585e+002
    endloop
  endfacet
  facet normal -2.003909e-013 -9.520013e-001 3.060941e-001
    outer loop
      vertex   -1.104428e+003 -4.352211e+002 5.064539e+002
      vertex   -1.101428e+003 -4.354447e+002 5.057585e+002
      vertex   -1.101428e+003 -4.352211e+002 5.064539e+002
    endloop
  endfacet
  facet normal -2.227467e-013 -9.271182e-001 3.747691e-001
    outer loop
      vertex   -1.104428e+003 -4.349474e+002 5.071311e+002
      vertex   -1.101428e+003 -4.352211e+002 5.064539e+002
      vertex   -1.101428e+003 -4.349474e+002 5.071311e+002
    endloop
  endfacet
  facet normal -2.269265e-013 -8.972885e-001 4.414446e-001
    outer loop
      vertex   -1.104428e+003 -4.346249e+002 5.077865e+002
      vertex   -1.101428e+003 -4.349474e+002 5.071311e+002
      vertex   -1.101428e+003 -4.346249e+002 5.077865e+002
    endloop
  endfacet
  facet normal -2.378700e-013 -8.626714e-001 5.057649e-001
    outer loop
      vertex   -1.104428e+003 -4.342555e+002 5.084166e+002
      vertex   -1.101428e+003 -4.346249e+002 5.077865e+002
      vertex   -1.101428e+003 -4.342555e+002 5.084166e+002
    endloop
  endfacet
  facet normal -2.715240e-013 -8.234516e-001 5.673866e-001
    outer loop
      vertex   -1.104428e+003 -4.338411e+002 5.090181e+002
      vertex   -1.101428e+003 -4.342555e+002 5.084166e+002
      vertex   -1.101428e+003 -4.338411e+002 5.090181e+002
    endloop
  endfacet
  facet normal -2.844561e-013 -7.798383e-001 6.259811e-001
    outer loop
      vertex   -1.104428e+003 -4.333838e+002 5.095877e+002
      vertex   -1.101428e+003 -4.338411e+002 5.090181e+002
      vertex   -1.101428e+003 -4.333838e+002 5.095877e+002
    endloop
  endfacet
  facet normal -3.155641e-013 -7.320642e-001 6.812357e-001
    outer loop
      vertex   -1.104428e+003 -4.328862e+002 5.101225e+002
      vertex   -1.101428e+003 -4.333838e+002 5.095877e+002
      vertex   -1.101428e+003 -4.328862e+002 5.101225e+002
    endloop
  endfacet
  facet normal -3.411751e-013 -6.803842e-001 7.328556e-001
    outer loop
      vertex   -1.104428e+003 -4.323509e+002 5.106194e+002
      vertex   -1.101428e+003 -4.328862e+002 5.101225e+002
      vertex   -1.101428e+003 -4.323509e+002 5.106194e+002
    endloop
  endfacet
  facet normal -3.402378e-013 -6.250741e-001 7.805654e-001
    outer loop
      vertex   -1.104428e+003 -4.317808e+002 5.110760e+002
      vertex   -1.101428e+003 -4.323509e+002 5.106194e+002
      vertex   -1.101428e+003 -4.317808e+002 5.110760e+002
    endloop
  endfacet
  facet normal -3.240124e-013 -5.664290e-001 8.241105e-001
    outer loop
      vertex   -1.104428e+003 -4.311788e+002 5.114898e+002
      vertex   -1.101428e+003 -4.317808e+002 5.110760e+002
      vertex   -1.101428e+003 -4.311788e+002 5.114898e+002
    endloop
  endfacet
  facet normal -3.326800e-013 -5.047617e-001 8.632587e-001
    outer loop
      vertex   -1.104428e+003 -4.305482e+002 5.118585e+002
      vertex   -1.104428e+003 -4.311788e+002 5.114898e+002
      vertex   -1.101428e+003 -4.311788e+002 5.114898e+002
    endloop
  endfacet
  facet normal -3.537054e-013 -3.049872e-001 9.523564e-001
    outer loop
      vertex   -1.104428e+003 -4.292149e+002 5.124531e+002
      vertex   -1.101428e+003 -4.292149e+002 5.124531e+002
      vertex   -1.104428e+003 -4.285193e+002 5.126759e+002
    endloop
  endfacet
  facet normal -3.950524e-013 -2.346561e-001 9.720785e-001
    outer loop
      vertex   -1.104428e+003 -4.285193e+002 5.126759e+002
      vertex   -1.101428e+003 -4.285193e+002 5.126759e+002
      vertex   -1.104428e+003 -4.278092e+002 5.128473e+002
    endloop
  endfacet
  facet normal -3.893328e-013 -1.630729e-001 9.866140e-001
    outer loop
      vertex   -1.104428e+003 -4.278092e+002 5.128473e+002
      vertex   -1.101428e+003 -4.278092e+002 5.128473e+002
      vertex   -1.104428e+003 -4.270886e+002 5.129664e+002
    endloop
  endfacet
  facet normal -3.876992e-013 -9.061967e-002 9.958856e-001
    outer loop
      vertex   -1.104428e+003 -4.270886e+002 5.129664e+002
      vertex   -1.101428e+003 -4.270886e+002 5.129664e+002
      vertex   -1.104428e+003 -4.263611e+002 5.130326e+002
    endloop
  endfacet
  facet normal -3.805721e-013 -1.768294e-002 9.998436e-001
    outer loop
      vertex   -1.104428e+003 -4.263611e+002 5.130326e+002
      vertex   -1.101428e+003 -4.263611e+002 5.130326e+002
      vertex   -1.104428e+003 -4.256308e+002 5.130455e+002
    endloop
  endfacet
  facet normal -3.352941e-013 5.534813e-002 9.984671e-001
    outer loop
      vertex   -1.104428e+003 -4.256308e+002 5.130455e+002
      vertex   -1.101428e+003 -4.256308e+002 5.130455e+002
      vertex   -1.104428e+003 -4.249015e+002 5.130051e+002
    endloop
  endfacet
  facet normal -3.261168e-013 1.280839e-001 9.917633e-001
    outer loop
      vertex   -1.104428e+003 -4.249015e+002 5.130051e+002
      vertex   -1.101428e+003 -4.249015e+002 5.130051e+002
      vertex   -1.104428e+003 -4.241771e+002 5.129115e+002
    endloop
  endfacet
  facet normal -3.485362e-013 2.001363e-001 9.797681e-001
    outer loop
      vertex   -1.104428e+003 -4.241771e+002 5.129115e+002
      vertex   -1.101428e+003 -4.241771e+002 5.129115e+002
      vertex   -1.104428e+003 -4.234614e+002 5.127653e+002
    endloop
  endfacet
  facet normal -3.026005e-013 2.711209e-001 9.625453e-001
    outer loop
      vertex   -1.104428e+003 -4.234614e+002 5.127653e+002
      vertex   -1.101428e+003 -4.234614e+002 5.127653e+002
      vertex   -1.104428e+003 -4.227583e+002 5.125673e+002
    endloop
  endfacet
  facet normal -2.883870e-013 3.406589e-001 9.401870e-001
    outer loop
      vertex   -1.104428e+003 -4.227583e+002 5.125673e+002
      vertex   -1.101428e+003 -4.227583e+002 5.125673e+002
      vertex   -1.104428e+003 -4.220716e+002 5.123185e+002
    endloop
  endfacet
  facet normal -2.648969e-013 4.083793e-001 9.128123e-001
    outer loop
      vertex   -1.104428e+003 -4.220716e+002 5.123185e+002
      vertex   -1.101428e+003 -4.220716e+002 5.123185e+002
      vertex   -1.104428e+003 -4.214048e+002 5.120202e+002
    endloop
  endfacet
  facet normal -2.554280e-013 4.739209e-001 8.805674e-001
    outer loop
      vertex   -1.104428e+003 -4.214048e+002 5.120202e+002
      vertex   -1.101428e+003 -4.214048e+002 5.120202e+002
      vertex   -1.104428e+003 -4.207616e+002 5.116740e+002
    endloop
  endfacet
  facet normal -2.528432e-013 5.369339e-001 8.436243e-001
    outer loop
      vertex   -1.104428e+003 -4.207616e+002 5.116740e+002
      vertex   -1.101428e+003 -4.207616e+002 5.116740e+002
      vertex   -1.104428e+003 -4.201454e+002 5.112818e+002
    endloop
  endfacet
  facet normal -2.170250e-013 5.970822e-001 8.021801e-001
    outer loop
      vertex   -1.104428e+003 -4.201454e+002 5.112818e+002
      vertex   -1.101428e+003 -4.201454e+002 5.112818e+002
      vertex   -1.104428e+003 -4.195595e+002 5.108457e+002
    endloop
  endfacet
  facet normal -2.227596e-013 6.540447e-001 7.564559e-001
    outer loop
      vertex   -1.104428e+003 -4.195595e+002 5.108457e+002
      vertex   -1.101428e+003 -4.195595e+002 5.108457e+002
      vertex   -1.104428e+003 -4.190069e+002 5.103679e+002
    endloop
  endfacet
  facet normal -1.873868e-013 7.075176e-001 7.066957e-001
    outer loop
      vertex   -1.104428e+003 -4.190069e+002 5.103679e+002
      vertex   -1.101428e+003 -4.190069e+002 5.103679e+002
      vertex   -1.104428e+003 -4.184907e+002 5.098511e+002
    endloop
  endfacet
  facet normal -1.634069e-013 7.572157e-001 6.531649e-001
    outer loop
      vertex   -1.104428e+003 -4.184907e+002 5.098511e+002
      vertex   -1.101428e+003 -4.184907e+002 5.098511e+002
      vertex   -1.104428e+003 -4.180136e+002 5.092980e+002
    endloop
  endfacet
  facet normal -1.385552e-013 8.028736e-001 5.961493e-001
    outer loop
      vertex   -1.104428e+003 -4.180136e+002 5.092980e+002
      vertex   -1.101428e+003 -4.180136e+002 5.092980e+002
      vertex   -1.104428e+003 -4.175782e+002 5.087116e+002
    endloop
  endfacet
  facet normal -8.681251e-014 8.442479e-001 5.359529e-001
    outer loop
      vertex   -1.104428e+003 -4.175782e+002 5.087116e+002
      vertex   -1.101428e+003 -4.175782e+002 5.087116e+002
      vertex   -1.104428e+003 -4.171867e+002 5.080949e+002
    endloop
  endfacet
  facet normal -8.677062e-014 8.811177e-001 4.728970e-001
    outer loop
      vertex   -1.104428e+003 -4.171867e+002 5.080949e+002
      vertex   -1.101428e+003 -4.171867e+002 5.080949e+002
      vertex   -1.104428e+003 -4.168413e+002 5.074513e+002
    endloop
  endfacet
  facet normal -5.239622e-014 9.132864e-001 4.073180e-001
    outer loop
      vertex   -1.104428e+003 -4.168413e+002 5.074513e+002
      vertex   -1.101428e+003 -4.168413e+002 5.074513e+002
      vertex   -1.104428e+003 -4.165437e+002 5.067842e+002
    endloop
  endfacet
  facet normal -3.313664e-014 9.405823e-001 3.395658e-001
    outer loop
      vertex   -1.104428e+003 -4.165437e+002 5.067842e+002
      vertex   -1.101428e+003 -4.165437e+002 5.067842e+002
      vertex   -1.104428e+003 -4.162957e+002 5.060972e+002
    endloop
  endfacet
  facet normal -5.982485e-015 9.628598e-001 2.700018e-001
    outer loop
      vertex   -1.104428e+003 -4.162957e+002 5.060972e+002
      vertex   -1.101428e+003 -4.162957e+002 5.060972e+002
      vertex   -1.104428e+003 -4.160985e+002 5.053938e+002
    endloop
  endfacet
  facet normal 5.834129e-014 9.800000e-001 1.989972e-001
    outer loop
      vertex   -1.104428e+003 -4.160985e+002 5.053938e+002
      vertex   -1.101428e+003 -4.160985e+002 5.053938e+002
      vertex   -1.104428e+003 -4.159531e+002 5.046780e+002
    endloop
  endfacet
  facet normal 4.827654e-014 9.919116e-001 1.269310e-001
    outer loop
      vertex   -1.104428e+003 -4.159531e+002 5.046780e+002
      vertex   -1.101428e+003 -4.159531e+002 5.046780e+002
      vertex   -1.104428e+003 -4.158604e+002 5.039535e+002
    endloop
  endfacet
  facet normal 7.509190e-014 9.985308e-001 5.418746e-002
    outer loop
      vertex   -1.104428e+003 -4.158604e+002 5.039535e+002
      vertex   -1.101428e+003 -4.158604e+002 5.039535e+002
      vertex   -1.104428e+003 -4.158208e+002 5.032241e+002
    endloop
  endfacet
  facet normal 1.018637e-013 9.998224e-001 -1.884517e-002
    outer loop
      vertex   -1.104428e+003 -4.158208e+002 5.032241e+002
      vertex   -1.101428e+003 -4.158208e+002 5.032241e+002
      vertex   -1.104428e+003 -4.158346e+002 5.024938e+002
    endloop
  endfacet
  facet normal 1.067729e-013 9.957796e-001 -9.177725e-002
    outer loop
      vertex   -1.104428e+003 -4.158346e+002 5.024938e+002
      vertex   -1.101428e+003 -4.158346e+002 5.024938e+002
      vertex   -1.104428e+003 -4.159016e+002 5.017664e+002
    endloop
  endfacet
  facet normal 1.525733e-013 9.864238e-001 -1.642197e-001
    outer loop
      vertex   -1.104428e+003 -4.159016e+002 5.017664e+002
      vertex   -1.101428e+003 -4.159016e+002 5.017664e+002
      vertex   -1.104428e+003 -4.160216e+002 5.010459e+002
    endloop
  endfacet
  facet normal 1.769527e-013 9.718050e-001 -2.357859e-001
    outer loop
      vertex   -1.104428e+003 -4.160216e+002 5.010459e+002
      vertex   -1.101428e+003 -4.160216e+002 5.010459e+002
      vertex   -1.104428e+003 -4.161938e+002 5.003361e+002
    endloop
  endfacet
  facet normal 1.945883e-013 9.520013e-001 -3.060941e-001
    outer loop
      vertex   -1.104428e+003 -4.161938e+002 5.003361e+002
      vertex   -1.101428e+003 -4.161938e+002 5.003361e+002
      vertex   -1.104428e+003 -4.164174e+002 4.996407e+002
    endloop
  endfacet
  facet normal 2.332201e-013 9.271182e-001 -3.747691e-001
    outer loop
      vertex   -1.104428e+003 -4.164174e+002 4.996407e+002
      vertex   -1.101428e+003 -4.164174e+002 4.996407e+002
      vertex   -1.104428e+003 -4.166911e+002 4.989635e+002
    endloop
  endfacet
  facet normal 2.355676e-013 8.972885e-001 -4.414446e-001
    outer loop
      vertex   -1.104428e+003 -4.166911e+002 4.989635e+002
      vertex   -1.101428e+003 -4.166911e+002 4.989635e+002
      vertex   -1.104428e+003 -4.170136e+002 4.983081e+002
    endloop
  endfacet
  facet normal 2.638082e-013 8.626714e-001 -5.057649e-001
    outer loop
      vertex   -1.104428e+003 -4.170136e+002 4.983081e+002
      vertex   -1.101428e+003 -4.170136e+002 4.983081e+002
      vertex   -1.104428e+003 -4.173830e+002 4.976779e+002
    endloop
  endfacet
  facet normal 2.822769e-013 8.234516e-001 -5.673866e-001
    outer loop
      vertex   -1.104428e+003 -4.173830e+002 4.976779e+002
      vertex   -1.101428e+003 -4.173830e+002 4.976779e+002
      vertex   -1.104428e+003 -4.177975e+002 4.970765e+002
    endloop
  endfacet
  facet normal 2.992395e-013 7.798383e-001 -6.259811e-001
    outer loop
      vertex   -1.104428e+003 -4.177975e+002 4.970765e+002
      vertex   -1.101428e+003 -4.177975e+002 4.970765e+002
      vertex   -1.104428e+003 -4.182547e+002 4.965068e+002
    endloop
  endfacet
  facet normal 3.146056e-013 7.320642e-001 -6.812357e-001
    outer loop
      vertex   -1.104428e+003 -4.182547e+002 4.965068e+002
      vertex   -1.101428e+003 -4.182547e+002 4.965068e+002
      vertex   -1.104428e+003 -4.187523e+002 4.959721e+002
    endloop
  endfacet
  facet normal 3.421791e-013 6.803842e-001 -7.328556e-001
    outer loop
      vertex   -1.104428e+003 -4.187523e+002 4.959721e+002
      vertex   -1.101428e+003 -4.187523e+002 4.959721e+002
      vertex   -1.104428e+003 -4.192876e+002 4.954751e+002
    endloop
  endfacet
  facet normal 3.283852e-013 6.250741e-001 -7.805654e-001
    outer loop
      vertex   -1.104428e+003 -4.192876e+002 4.954751e+002
      vertex   -1.101428e+003 -4.192876e+002 4.954751e+002
      vertex   -1.104428e+003 -4.198578e+002 4.950186e+002
    endloop
  endfacet
  facet normal 3.347345e-013 5.664290e-001 -8.241105e-001
    outer loop
      vertex   -1.104428e+003 -4.198578e+002 4.950186e+002
      vertex   -1.101428e+003 -4.198578e+002 4.950186e+002
      vertex   -1.104428e+003 -4.204597e+002 4.946048e+002
    endloop
  endfacet
  facet normal 3.586010e-013 5.047617e-001 -8.632587e-001
    outer loop
      vertex   -1.104428e+003 -4.204597e+002 4.946048e+002
      vertex   -1.101428e+003 -4.204597e+002 4.946048e+002
      vertex   -1.104428e+003 -4.210903e+002 4.942361e+002
    endloop
  endfacet
  facet normal 3.649390e-013 4.404013e-001 -8.978010e-001
    outer loop
      vertex   -1.104428e+003 -4.210903e+002 4.942361e+002
      vertex   -1.101428e+003 -4.210903e+002 4.942361e+002
      vertex   -1.104428e+003 -4.217461e+002 4.939144e+002
    endloop
  endfacet
  facet normal 3.622494e-013 3.736912e-001 -9.275532e-001
    outer loop
      vertex   -1.104428e+003 -4.217461e+002 4.939144e+002
      vertex   -1.101428e+003 -4.217461e+002 4.939144e+002
      vertex   -1.104428e+003 -4.224236e+002 4.936415e+002
    endloop
  endfacet
  facet normal 3.840167e-013 3.049872e-001 -9.523564e-001
    outer loop
      vertex   -1.104428e+003 -4.224236e+002 4.936415e+002
      vertex   -1.101428e+003 -4.224236e+002 4.936415e+002
      vertex   -1.104428e+003 -4.231192e+002 4.934187e+002
    endloop
  endfacet
  facet normal 3.721874e-013 2.346561e-001 -9.720785e-001
    outer loop
      vertex   -1.104428e+003 -4.231192e+002 4.934187e+002
      vertex   -1.101428e+003 -4.231192e+002 4.934187e+002
      vertex   -1.104428e+003 -4.238293e+002 4.932473e+002
    endloop
  endfacet
  facet normal 3.519445e-013 1.630729e-001 -9.866140e-001
    outer loop
      vertex   -1.104428e+003 -4.238293e+002 4.932473e+002
      vertex   -1.101428e+003 -4.238293e+002 4.932473e+002
      vertex   -1.104428e+003 -4.245500e+002 4.931282e+002
    endloop
  endfacet
  facet normal 3.482425e-013 9.061967e-002 -9.958856e-001
    outer loop
      vertex   -1.104428e+003 -4.245500e+002 4.931282e+002
      vertex   -1.101428e+003 -4.245500e+002 4.931282e+002
      vertex   -1.104428e+003 -4.252774e+002 4.930620e+002
    endloop
  endfacet
  facet normal 3.423474e-013 1.768294e-002 -9.998436e-001
    outer loop
      vertex   -1.104428e+003 -4.252774e+002 4.930620e+002
      vertex   -1.101428e+003 -4.252774e+002 4.930620e+002
      vertex   -1.104428e+003 -4.260077e+002 4.930491e+002
    endloop
  endfacet
  facet normal 3.542128e-013 -5.534813e-002 -9.984671e-001
    outer loop
      vertex   -1.104428e+003 -4.260077e+002 4.930491e+002
      vertex   -1.101428e+003 -4.260077e+002 4.930491e+002
      vertex   -1.104428e+003 -4.267370e+002 4.930895e+002
    endloop
  endfacet
  facet normal 3.424816e-013 -1.280839e-001 -9.917633e-001
    outer loop
      vertex   -1.104428e+003 -4.267370e+002 4.930895e+002
      vertex   -1.101428e+003 -4.267370e+002 4.930895e+002
      vertex   -1.104428e+003 -4.274615e+002 4.931831e+002
    endloop
  endfacet
  facet normal 3.337639e-013 -2.001363e-001 -9.797681e-001
    outer loop
      vertex   -1.104428e+003 -4.274615e+002 4.931831e+002
      vertex   -1.101428e+003 -4.274615e+002 4.931831e+002
      vertex   -1.104428e+003 -4.281771e+002 4.933292e+002
    endloop
  endfacet
  facet normal 3.208386e-013 -2.711209e-001 -9.625453e-001
    outer loop
      vertex   -1.104428e+003 -4.281771e+002 4.933292e+002
      vertex   -1.101428e+003 -4.281771e+002 4.933292e+002
      vertex   -1.104428e+003 -4.288802e+002 4.935273e+002
    endloop
  endfacet
  facet normal 3.062014e-013 -3.406589e-001 -9.401870e-001
    outer loop
      vertex   -1.104428e+003 -4.288802e+002 4.935273e+002
      vertex   -1.101428e+003 -4.288802e+002 4.935273e+002
      vertex   -1.104428e+003 -4.295670e+002 4.937761e+002
    endloop
  endfacet
  facet normal 2.899306e-013 -4.083793e-001 -9.128123e-001
    outer loop
      vertex   -1.104428e+003 -4.295670e+002 4.937761e+002
      vertex   -1.101428e+003 -4.295670e+002 4.937761e+002
      vertex   -1.104428e+003 -4.302337e+002 4.940744e+002
    endloop
  endfacet
  facet normal 2.554280e-013 -4.739209e-001 -8.805674e-001
    outer loop
      vertex   -1.104428e+003 -4.302337e+002 4.940744e+002
      vertex   -1.101428e+003 -4.302337e+002 4.940744e+002
      vertex   -1.104428e+003 -4.308769e+002 4.944206e+002
    endloop
  endfacet
  facet normal 2.528432e-013 -5.369339e-001 -8.436243e-001
    outer loop
      vertex   -1.104428e+003 -4.308769e+002 4.944206e+002
      vertex   -1.101428e+003 -4.308769e+002 4.944206e+002
      vertex   -1.104428e+003 -4.314931e+002 4.948128e+002
    endloop
  endfacet
  facet normal 2.322245e-013 -5.970822e-001 -8.021801e-001
    outer loop
      vertex   -1.104428e+003 -4.314931e+002 4.948128e+002
      vertex   -1.101428e+003 -4.314931e+002 4.948128e+002
      vertex   -1.104428e+003 -4.320791e+002 4.952489e+002
    endloop
  endfacet
  facet normal 2.227596e-013 -6.540447e-001 -7.564559e-001
    outer loop
      vertex   -1.104428e+003 -4.320791e+002 4.952489e+002
      vertex   -1.101428e+003 -4.320791e+002 4.952489e+002
      vertex   -1.104428e+003 -4.326316e+002 4.957266e+002
    endloop
  endfacet
  facet normal 1.605905e-013 -7.075176e-001 -7.066957e-001
    outer loop
      vertex   -1.104428e+003 -4.326316e+002 4.957266e+002
      vertex   -1.101428e+003 -4.326316e+002 4.957266e+002
      vertex   -1.104428e+003 -4.331478e+002 4.962434e+002
    endloop
  endfacet
  facet normal 1.653785e-013 -7.572157e-001 -6.531649e-001
    outer loop
      vertex   -1.104428e+003 -4.331478e+002 4.962434e+002
      vertex   -1.101428e+003 -4.331478e+002 4.962434e+002
      vertex   -1.104428e+003 -4.336249e+002 4.967965e+002
    endloop
  endfacet
  facet normal 1.424722e-013 -8.028736e-001 -5.961493e-001
    outer loop
      vertex   -1.104428e+003 -4.336249e+002 4.967965e+002
      vertex   -1.101428e+003 -4.336249e+002 4.967965e+002
      vertex   -1.104428e+003 -4.340604e+002 4.973830e+002
    endloop
  endfacet
  facet normal 1.129643e-013 -8.442479e-001 -5.359529e-001
    outer loop
      vertex   -1.104428e+003 -4.340604e+002 4.973830e+002
      vertex   -1.101428e+003 -4.340604e+002 4.973830e+002
      vertex   -1.104428e+003 -4.344518e+002 4.979997e+002
    endloop
  endfacet
  facet normal 1.034659e-013 -8.811177e-001 -4.728970e-001
    outer loop
      vertex   -1.104428e+003 -4.344518e+002 4.979997e+002
      vertex   -1.101428e+003 -4.344518e+002 4.979997e+002
      vertex   -1.104428e+003 -4.347973e+002 4.986433e+002
    endloop
  endfacet
  facet normal 4.280922e-014 -9.132864e-001 -4.073180e-001
    outer loop
      vertex   -1.104428e+003 -4.347973e+002 4.986433e+002
      vertex   -1.101428e+003 -4.347973e+002 4.986433e+002
      vertex   -1.104428e+003 -4.350948e+002 4.993104e+002
    endloop
  endfacet
  facet normal 1.531467e-014 -9.405823e-001 -3.395658e-001
    outer loop
      vertex   -1.104428e+003 -4.350948e+002 4.993104e+002
      vertex   -1.101428e+003 -4.350948e+002 4.993104e+002
      vertex   -1.104428e+003 -4.353428e+002 4.999974e+002
    endloop
  endfacet
  facet normal -1.226160e-014 -9.628598e-001 -2.700018e-001
    outer loop
      vertex   -1.104428e+003 -4.353428e+002 4.999974e+002
      vertex   -1.101428e+003 -4.353428e+002 4.999974e+002
      vertex   -1.104428e+003 -4.355400e+002 5.007007e+002
    endloop
  endfacet
  facet normal -2.120359e-014 -9.800000e-001 -1.989972e-001
    outer loop
      vertex   -1.104428e+003 -4.355400e+002 5.007007e+002
      vertex   -1.101428e+003 -4.355400e+002 5.007007e+002
      vertex   -1.104428e+003 -4.356854e+002 5.014166e+002
    endloop
  endfacet
  facet normal -4.827654e-014 -9.919116e-001 -1.269310e-001
    outer loop
      vertex   -1.104428e+003 -4.356854e+002 5.014166e+002
      vertex   -1.101428e+003 -4.356854e+002 5.014166e+002
      vertex   -1.104428e+003 -4.357781e+002 5.021411e+002
    endloop
  endfacet
  facet normal -7.611864e-014 -9.985308e-001 -5.418746e-002
    outer loop
      vertex   -1.104428e+003 -4.357781e+002 5.021411e+002
      vertex   -1.101428e+003 -4.357781e+002 5.021411e+002
      vertex   -1.104428e+003 -4.358177e+002 5.028705e+002
    endloop
  endfacet
  facet normal -1.015066e-013 -9.998224e-001 1.884517e-002
    outer loop
      vertex   -1.104428e+003 -4.358177e+002 5.028705e+002
      vertex   -1.101428e+003 -4.358177e+002 5.028705e+002
      vertex   -1.104428e+003 -4.358039e+002 5.036008e+002
    endloop
  endfacet
  facet normal -1.273798e-013 -9.957796e-001 9.177725e-002
    outer loop
      vertex   -1.104428e+003 -4.358039e+002 5.036008e+002
      vertex   -1.101428e+003 -4.358039e+002 5.036008e+002
      vertex   -1.104428e+003 -4.357369e+002 5.043281e+002
    endloop
  endfacet
  facet normal -1.494617e-013 -9.864238e-001 1.642197e-001
    outer loop
      vertex   -1.104428e+003 -4.357369e+002 5.043281e+002
      vertex   -1.101428e+003 -4.357369e+002 5.043281e+002
      vertex   -1.104428e+003 -4.356169e+002 5.050487e+002
    endloop
  endfacet
  facet normal -1.769527e-013 -9.718050e-001 2.357859e-001
    outer loop
      vertex   -1.104428e+003 -4.356169e+002 5.050487e+002
      vertex   -1.101428e+003 -4.356169e+002 5.050487e+002
      vertex   -1.104428e+003 -4.354447e+002 5.057585e+002
    endloop
  endfacet
  facet normal -1.823498e-013 -9.520013e-001 3.060941e-001
    outer loop
      vertex   -1.104428e+003 -4.354447e+002 5.057585e+002
      vertex   -1.101428e+003 -4.354447e+002 5.057585e+002
      vertex   -1.104428e+003 -4.352211e+002 5.064539e+002
    endloop
  endfacet
  facet normal -2.227543e-013 -9.271182e-001 3.747691e-001
    outer loop
      vertex   -1.104428e+003 -4.352211e+002 5.064539e+002
      vertex   -1.101428e+003 -4.352211e+002 5.064539e+002
      vertex   -1.104428e+003 -4.349474e+002 5.071311e+002
    endloop
  endfacet
  facet normal -2.439320e-013 -8.972885e-001 4.414446e-001
    outer loop
      vertex   -1.104428e+003 -4.349474e+002 5.071311e+002
      vertex   -1.101428e+003 -4.349474e+002 5.071311e+002
      vertex   -1.104428e+003 -4.346249e+002 5.077865e+002
    endloop
  endfacet
  facet normal -2.474625e-013 -8.626714e-001 5.057649e-001
    outer loop
      vertex   -1.104428e+003 -4.346249e+002 5.077865e+002
      vertex   -1.101428e+003 -4.346249e+002 5.077865e+002
      vertex   -1.104428e+003 -4.342555e+002 5.084166e+002
    endloop
  endfacet
  facet normal -2.559236e-013 -8.234516e-001 5.673866e-001
    outer loop
      vertex   -1.104428e+003 -4.342555e+002 5.084166e+002
      vertex   -1.101428e+003 -4.342555e+002 5.084166e+002
      vertex   -1.104428e+003 -4.338411e+002 5.090181e+002
    endloop
  endfacet
  facet normal -2.873785e-013 -7.798383e-001 6.259811e-001
    outer loop
      vertex   -1.104428e+003 -4.338411e+002 5.090181e+002
      vertex   -1.101428e+003 -4.338411e+002 5.090181e+002
      vertex   -1.104428e+003 -4.333838e+002 5.095877e+002
    endloop
  endfacet
  facet normal -3.007345e-013 -7.320642e-001 6.812357e-001
    outer loop
      vertex   -1.104428e+003 -4.333838e+002 5.095877e+002
      vertex   -1.101428e+003 -4.333838e+002 5.095877e+002
      vertex   -1.104428e+003 -4.328862e+002 5.101225e+002
    endloop
  endfacet
  facet normal -3.272988e-013 -6.803842e-001 7.328556e-001
    outer loop
      vertex   -1.104428e+003 -4.328862e+002 5.101225e+002
      vertex   -1.101428e+003 -4.328862e+002 5.101225e+002
      vertex   -1.104428e+003 -4.323509e+002 5.106194e+002
    endloop
  endfacet
  facet normal -3.520727e-013 -6.250741e-001 7.805654e-001
    outer loop
      vertex   -1.104428e+003 -4.323509e+002 5.106194e+002
      vertex   -1.101428e+003 -4.323509e+002 5.106194e+002
      vertex   -1.104428e+003 -4.317808e+002 5.110760e+002
    endloop
  endfacet
  facet normal -3.503496e-013 -5.664290e-001 8.241105e-001
    outer loop
      vertex   -1.104428e+003 -4.317808e+002 5.110760e+002
      vertex   -1.101428e+003 -4.317808e+002 5.110760e+002
      vertex   -1.104428e+003 -4.311788e+002 5.114898e+002
    endloop
  endfacet
  facet normal 1.000000e+000 6.268171e-014 4.583563e-013
    outer loop
      vertex   -1.101428e+003 -4.317808e+002 5.110760e+002
      vertex   -1.101428e+003 -4.210903e+002 4.942361e+002
      vertex   -1.101428e+003 -4.311788e+002 5.114898e+002
    endloop
  endfacet
  facet normal 1.000000e+000 -1.565647e-013 3.191724e-013
    outer loop
      vertex   -1.101428e+003 -4.317808e+002 5.110760e+002
      vertex   -1.101428e+003 -4.217461e+002 4.939144e+002
      vertex   -1.101428e+003 -4.210903e+002 4.942361e+002
    endloop
  endfacet
  facet normal 1.000000e+000 -2.240111e-013 2.797353e-013
    outer loop
      vertex   -1.101428e+003 -4.317808e+002 5.110760e+002
      vertex   -1.101428e+003 -4.323509e+002 5.106194e+002
      vertex   -1.101428e+003 -4.217461e+002 4.939144e+002
    endloop
  endfacet
  facet normal 1.000000e+000 -1.353701e-013 3.360072e-013
    outer loop
      vertex   -1.101428e+003 -4.217461e+002 4.939144e+002
      vertex   -1.101428e+003 -4.323509e+002 5.106194e+002
      vertex   -1.101428e+003 -4.224236e+002 4.936415e+002
    endloop
  endfacet
  facet normal 1.000000e+000 2.548398e-014 4.300613e-013
    outer loop
      vertex   -1.101428e+003 -4.224236e+002 4.936415e+002
      vertex   -1.101428e+003 -4.323509e+002 5.106194e+002
      vertex   -1.101428e+003 -4.328862e+002 5.101225e+002
    endloop
  endfacet
  facet normal 1.000000e+000 -2.694961e-013 2.507845e-013
    outer loop
      vertex   -1.101428e+003 -4.231192e+002 4.934187e+002
      vertex   -1.101428e+003 -4.328862e+002 5.101225e+002
      vertex   -1.101428e+003 -4.333838e+002 5.095877e+002
    endloop
  endfacet
  facet normal 1.000000e+000 -1.317536e-014 4.097394e-013
    outer loop
      vertex   -1.101428e+003 -4.238293e+002 4.932473e+002
      vertex   -1.101428e+003 -4.333838e+002 5.095877e+002
      vertex   -1.101428e+003 -4.338411e+002 5.090181e+002
    endloop
  endfacet
  facet normal 1.000000e+000 -3.257852e-013 2.244773e-013
    outer loop
      vertex   -1.101428e+003 -4.245500e+002 4.931282e+002
      vertex   -1.101428e+003 -4.338411e+002 5.090181e+002
      vertex   -1.101428e+003 -4.342555e+002 5.084166e+002
    endloop
  endfacet
  facet normal 1.000000e+000 -4.593675e-014 3.877678e-013
    outer loop
      vertex   -1.101428e+003 -4.252774e+002 4.930620e+002
      vertex   -1.101428e+003 -4.342555e+002 5.084166e+002
      vertex   -1.101428e+003 -4.346249e+002 5.077865e+002
    endloop
  endfacet
  facet normal 1.000000e+000 -6.468807e-014 3.787401e-013
    outer loop
      vertex   -1.101428e+003 -4.260077e+002 4.930491e+002
      vertex   -1.101428e+003 -4.346249e+002 5.077865e+002
      vertex   -1.101428e+003 -4.349474e+002 5.071311e+002
    endloop
  endfacet
  facet normal 1.000000e+000 -8.621437e-014 3.706037e-013
    outer loop
      vertex   -1.101428e+003 -4.267370e+002 4.930895e+002
      vertex   -1.101428e+003 -4.349474e+002 5.071311e+002
      vertex   -1.101428e+003 -4.352211e+002 5.064539e+002
    endloop
  endfacet
  facet normal 1.000000e+000 -1.118421e-013 3.629377e-013
    outer loop
      vertex   -1.101428e+003 -4.274615e+002 4.931831e+002
      vertex   -1.101428e+003 -4.352211e+002 5.064539e+002
      vertex   -1.101428e+003 -4.354447e+002 5.057585e+002
    endloop
  endfacet
  facet normal 1.000000e+000 -1.213940e-013 3.497676e-013
    outer loop
      vertex   -1.101428e+003 -4.281771e+002 4.933292e+002
      vertex   -1.101428e+003 -4.354447e+002 5.057585e+002
      vertex   -1.101428e+003 -4.356169e+002 5.050487e+002
    endloop
  endfacet
  facet normal 1.000000e+000 -1.316122e-013 3.374779e-013
    outer loop
      vertex   -1.101428e+003 -4.288802e+002 4.935273e+002
      vertex   -1.101428e+003 -4.356169e+002 5.050487e+002
      vertex   -1.101428e+003 -4.357369e+002 5.043281e+002
    endloop
  endfacet
  facet normal 1.000000e+000 -1.748535e-013 3.287179e-013
    outer loop
      vertex   -1.101428e+003 -4.295670e+002 4.937761e+002
      vertex   -1.101428e+003 -4.357369e+002 5.043281e+002
      vertex   -1.101428e+003 -4.358039e+002 5.036008e+002
    endloop
  endfacet
  facet normal 1.000000e+000 -1.959733e-013 3.150321e-013
    outer loop
      vertex   -1.101428e+003 -4.302337e+002 4.940744e+002
      vertex   -1.101428e+003 -4.358039e+002 5.036008e+002
      vertex   -1.101428e+003 -4.358177e+002 5.028705e+002
    endloop
  endfacet
  facet normal 1.000000e+000 3.637407e-013 6.432212e-013
    outer loop
      vertex   -1.101428e+003 -4.308769e+002 4.944206e+002
      vertex   -1.101428e+003 -4.358177e+002 5.028705e+002
      vertex   -1.101428e+003 -4.357781e+002 5.021411e+002
    endloop
  endfacet
  facet normal 1.000000e+000 -8.830800e-013 -1.130042e-013
    outer loop
      vertex   -1.101428e+003 -4.314931e+002 4.948128e+002
      vertex   -1.101428e+003 -4.357781e+002 5.021411e+002
      vertex   -1.101428e+003 -4.356854e+002 5.014166e+002
    endloop
  endfacet
  facet normal 1.000000e+000 5.053874e-013 7.378945e-013
    outer loop
      vertex   -1.101428e+003 -4.320791e+002 4.952489e+002
      vertex   -1.101428e+003 -4.356854e+002 5.014166e+002
      vertex   -1.101428e+003 -4.355400e+002 5.007007e+002
    endloop
  endfacet
  facet normal 1.000000e+000 7.728383e-013 8.632967e-013
    outer loop
      vertex   -1.101428e+003 -4.326316e+002 4.957266e+002
      vertex   -1.101428e+003 -4.355400e+002 5.007007e+002
      vertex   -1.101428e+003 -4.353428e+002 4.999974e+002
    endloop
  endfacet
  facet normal 1.000000e+000 -1.624555e-012 -5.864913e-013
    outer loop
      vertex   -1.101428e+003 -4.331478e+002 4.962434e+002
      vertex   -1.101428e+003 -4.353428e+002 4.999974e+002
      vertex   -1.101428e+003 -4.350948e+002 4.993104e+002
    endloop
  endfacet
  facet normal 1.000000e+000 -8.030798e-013 -1.732851e-014
    outer loop
      vertex   -1.101428e+003 -4.336249e+002 4.967965e+002
      vertex   -1.101428e+003 -4.350948e+002 4.993104e+002
      vertex   -1.101428e+003 -4.347973e+002 4.986433e+002
    endloop
  endfacet
  facet normal 1.000000e+000 3.443002e-012 2.554428e-012
    outer loop
      vertex   -1.101428e+003 -4.340604e+002 4.973830e+002
      vertex   -1.101428e+003 -4.347973e+002 4.986433e+002
      vertex   -1.101428e+003 -4.344518e+002 4.979997e+002
    endloop
  endfacet
  facet normal 1.000000e+000 9.729604e-013 1.110153e-012
    outer loop
      vertex   -1.101428e+003 -4.340604e+002 4.973830e+002
      vertex   -1.101428e+003 -4.336249e+002 4.967965e+002
      vertex   -1.101428e+003 -4.347973e+002 4.986433e+002
    endloop
  endfacet
  facet normal 1.000000e+000 -1.101504e-013 3.439567e-013
    outer loop
      vertex   -1.101428e+003 -4.224236e+002 4.936415e+002
      vertex   -1.101428e+003 -4.328862e+002 5.101225e+002
      vertex   -1.101428e+003 -4.231192e+002 4.934187e+002
    endloop
  endfacet
  facet normal 1.000000e+000 -8.830511e-014 3.658098e-013
    outer loop
      vertex   -1.101428e+003 -4.231192e+002 4.934187e+002
      vertex   -1.101428e+003 -4.333838e+002 5.095877e+002
      vertex   -1.101428e+003 -4.238293e+002 4.932473e+002
    endloop
  endfacet
  facet normal 1.000000e+000 -6.254382e-014 3.783989e-013
    outer loop
      vertex   -1.101428e+003 -4.238293e+002 4.932473e+002
      vertex   -1.101428e+003 -4.338411e+002 5.090181e+002
      vertex   -1.101428e+003 -4.245500e+002 4.931282e+002
    endloop
  endfacet
  facet normal 1.000000e+000 -3.326014e-013 2.201502e-013
    outer loop
      vertex   -1.101428e+003 -4.245500e+002 4.931282e+002
      vertex   -1.101428e+003 -4.342555e+002 5.084166e+002
      vertex   -1.101428e+003 -4.252774e+002 4.930620e+002
    endloop
  endfacet
  facet normal 1.000000e+000 -7.291829e-015 4.123007e-013
    outer loop
      vertex   -1.101428e+003 -4.252774e+002 4.930620e+002
      vertex   -1.101428e+003 -4.346249e+002 5.077865e+002
      vertex   -1.101428e+003 -4.260077e+002 4.930491e+002
    endloop
  endfacet
  facet normal 1.000000e+000 2.411994e-014 4.351180e-013
    outer loop
      vertex   -1.101428e+003 -4.260077e+002 4.930491e+002
      vertex   -1.101428e+003 -4.349474e+002 5.071311e+002
      vertex   -1.101428e+003 -4.267370e+002 4.930895e+002
    endloop
  endfacet
  facet normal 1.000000e+000 5.983685e-014 4.633213e-013
    outer loop
      vertex   -1.101428e+003 -4.267370e+002 4.930895e+002
      vertex   -1.101428e+003 -4.352211e+002 5.064539e+002
      vertex   -1.101428e+003 -4.274615e+002 4.931831e+002
    endloop
  endfacet
  facet normal 1.000000e+000 -2.632016e-013 2.668503e-013
    outer loop
      vertex   -1.101428e+003 -4.274615e+002 4.931831e+002
      vertex   -1.101428e+003 -4.354447e+002 5.057585e+002
      vertex   -1.101428e+003 -4.281771e+002 4.933292e+002
    endloop
  endfacet
  facet normal 1.000000e+000 -2.474095e-013 2.697693e-013
    outer loop
      vertex   -1.101428e+003 -4.281771e+002 4.933292e+002
      vertex   -1.101428e+003 -4.356169e+002 5.050487e+002
      vertex   -1.101428e+003 -4.288802e+002 4.935273e+002
    endloop
  endfacet
  facet normal 1.000000e+000 1.981241e-013 5.468040e-013
    outer loop
      vertex   -1.101428e+003 -4.288802e+002 4.935273e+002
      vertex   -1.101428e+003 -4.357369e+002 5.043281e+002
      vertex   -1.101428e+003 -4.295670e+002 4.937761e+002
    endloop
  endfacet
  facet normal 1.000000e+000 -2.015273e-013 3.117846e-013
    outer loop
      vertex   -1.101428e+003 -4.295670e+002 4.937761e+002
      vertex   -1.101428e+003 -4.358039e+002 5.036008e+002
      vertex   -1.101428e+003 -4.302337e+002 4.940744e+002
    endloop
  endfacet
  facet normal 1.000000e+000 -1.777141e-013 3.266235e-013
    outer loop
      vertex   -1.101428e+003 -4.302337e+002 4.940744e+002
      vertex   -1.101428e+003 -4.358177e+002 5.028705e+002
      vertex   -1.101428e+003 -4.308769e+002 4.944206e+002
    endloop
  endfacet
  facet normal 1.000000e+000 -1.788134e-013 2.987922e-013
    outer loop
      vertex   -1.101428e+003 -4.308769e+002 4.944206e+002
      vertex   -1.101428e+003 -4.357781e+002 5.021411e+002
      vertex   -1.101428e+003 -4.314931e+002 4.948128e+002
    endloop
  endfacet
  facet normal 1.000000e+000 -1.040536e-013 3.815442e-013
    outer loop
      vertex   -1.101428e+003 -4.314931e+002 4.948128e+002
      vertex   -1.101428e+003 -4.356854e+002 5.014166e+002
      vertex   -1.101428e+003 -4.320791e+002 4.952489e+002
    endloop
  endfacet
  facet normal 1.000000e+000 -1.128415e-013 3.454250e-013
    outer loop
      vertex   -1.101428e+003 -4.320791e+002 4.952489e+002
      vertex   -1.101428e+003 -4.355400e+002 5.007007e+002
      vertex   -1.101428e+003 -4.326316e+002 4.957266e+002
    endloop
  endfacet
  facet normal 1.000000e+000 -1.848534e-013 2.553263e-013
    outer loop
      vertex   -1.101428e+003 -4.326316e+002 4.957266e+002
      vertex   -1.101428e+003 -4.353428e+002 4.999974e+002
      vertex   -1.101428e+003 -4.331478e+002 4.962434e+002
    endloop
  endfacet
  facet normal 1.000000e+000 1.481143e-013 5.388505e-013
    outer loop
      vertex   -1.101428e+003 -4.331478e+002 4.962434e+002
      vertex   -1.101428e+003 -4.350948e+002 4.993104e+002
      vertex   -1.101428e+003 -4.336249e+002 4.967965e+002
    endloop
  endfacet
  facet normal 1.000000e+000 8.496390e-014 4.713851e-013
    outer loop
      vertex   -1.101428e+003 -4.210903e+002 4.942361e+002
      vertex   -1.101428e+003 -4.204597e+002 4.946048e+002
      vertex   -1.101428e+003 -4.311788e+002 5.114898e+002
    endloop
  endfacet
  facet normal 1.000000e+000 -1.780115e-013 3.044407e-013
    outer loop
      vertex   -1.101428e+003 -4.311788e+002 5.114898e+002
      vertex   -1.101428e+003 -4.204597e+002 4.946048e+002
      vertex   -1.101428e+003 -4.305482e+002 5.118585e+002
    endloop
  endfacet
  facet normal 1.000000e+000 -2.002937e-013 2.914119e-013
    outer loop
      vertex   -1.101428e+003 -4.305482e+002 5.118585e+002
      vertex   -1.101428e+003 -4.204597e+002 4.946048e+002
      vertex   -1.101428e+003 -4.198578e+002 4.950186e+002
    endloop
  endfacet
  facet normal 1.000000e+000 -2.240111e-013 2.797353e-013
    outer loop
      vertex   -1.101428e+003 -4.298924e+002 5.121802e+002
      vertex   -1.101428e+003 -4.198578e+002 4.950186e+002
      vertex   -1.101428e+003 -4.192876e+002 4.954751e+002
    endloop
  endfacet
  facet normal 1.000000e+000 2.548398e-014 4.300613e-013
    outer loop
      vertex   -1.101428e+003 -4.292149e+002 5.124531e+002
      vertex   -1.101428e+003 -4.192876e+002 4.954751e+002
      vertex   -1.101428e+003 -4.187523e+002 4.959721e+002
    endloop
  endfacet
  facet normal 1.000000e+000 -2.694961e-013 2.507845e-013
    outer loop
      vertex   -1.101428e+003 -4.285193e+002 5.126759e+002
      vertex   -1.101428e+003 -4.187523e+002 4.959721e+002
      vertex   -1.101428e+003 -4.182547e+002 4.965068e+002
    endloop
  endfacet
  facet normal 1.000000e+000 2.745260e-013 5.779632e-013
    outer loop
      vertex   -1.101428e+003 -4.278092e+002 5.128473e+002
      vertex   -1.101428e+003 -4.182547e+002 4.965068e+002
      vertex   -1.101428e+003 -4.177975e+002 4.970765e+002
    endloop
  endfacet
  facet normal 1.000000e+000 -3.145513e-013 2.167367e-013
    outer loop
      vertex   -1.101428e+003 -4.270886e+002 5.129664e+002
      vertex   -1.101428e+003 -4.177975e+002 4.970765e+002
      vertex   -1.101428e+003 -4.173830e+002 4.976779e+002
    endloop
  endfacet
  facet normal 1.000000e+000 -3.540818e-013 2.075902e-013
    outer loop
      vertex   -1.101428e+003 -4.263611e+002 5.130326e+002
      vertex   -1.101428e+003 -4.173830e+002 4.976779e+002
      vertex   -1.101428e+003 -4.170136e+002 4.983081e+002
    endloop
  endfacet
  facet normal 1.000000e+000 -7.901742e-014 3.857898e-013
    outer loop
      vertex   -1.101428e+003 -4.256308e+002 5.130455e+002
      vertex   -1.101428e+003 -4.170136e+002 4.983081e+002
      vertex   -1.101428e+003 -4.166911e+002 4.989635e+002
    endloop
  endfacet
  facet normal 1.000000e+000 -8.621437e-014 3.706037e-013
    outer loop
      vertex   -1.101428e+003 -4.249015e+002 5.130051e+002
      vertex   -1.101428e+003 -4.166911e+002 4.989635e+002
      vertex   -1.101428e+003 -4.164174e+002 4.996407e+002
    endloop
  endfacet
  facet normal 1.000000e+000 -1.118421e-013 3.629377e-013
    outer loop
      vertex   -1.101428e+003 -4.241771e+002 5.129115e+002
      vertex   -1.101428e+003 -4.164174e+002 4.996407e+002
      vertex   -1.101428e+003 -4.161938e+002 5.003361e+002
    endloop
  endfacet
  facet normal 1.000000e+000 2.657660e-013 5.761465e-013
    outer loop
      vertex   -1.101428e+003 -4.234614e+002 5.127653e+002
      vertex   -1.101428e+003 -4.161938e+002 5.003361e+002
      vertex   -1.101428e+003 -4.160216e+002 5.010459e+002
    endloop
  endfacet
  facet normal 1.000000e+000 -5.254269e-013 8.747298e-014
    outer loop
      vertex   -1.101428e+003 -4.227583e+002 5.125673e+002
      vertex   -1.101428e+003 -4.160216e+002 5.010459e+002
      vertex   -1.101428e+003 -4.159016e+002 5.017664e+002
    endloop
  endfacet
  facet normal 1.000000e+000 2.869728e-013 5.987554e-013
    outer loop
      vertex   -1.101428e+003 -4.220716e+002 5.123185e+002
      vertex   -1.101428e+003 -4.159016e+002 5.017664e+002
      vertex   -1.101428e+003 -4.158346e+002 5.024938e+002
    endloop
  endfacet
  facet normal 1.000000e+000 -1.564286e-013 3.142867e-013
    outer loop
      vertex   -1.101428e+003 -4.214048e+002 5.120202e+002
      vertex   -1.101428e+003 -4.158346e+002 5.024938e+002
      vertex   -1.101428e+003 -4.158208e+002 5.032241e+002
    endloop
  endfacet
  facet normal 1.000000e+000 -1.732238e-013 3.023406e-013
    outer loop
      vertex   -1.101428e+003 -4.207616e+002 5.116740e+002
      vertex   -1.101428e+003 -4.158208e+002 5.032241e+002
      vertex   -1.101428e+003 -4.158604e+002 5.039535e+002
    endloop
  endfacet
  facet normal 1.000000e+000 -1.960064e-013 2.887391e-013
    outer loop
      vertex   -1.101428e+003 -4.201454e+002 5.112818e+002
      vertex   -1.101428e+003 -4.158604e+002 5.039535e+002
      vertex   -1.101428e+003 -4.159531e+002 5.046780e+002
    endloop
  endfacet
  facet normal 1.000000e+000 -2.302712e-013 2.708772e-013
    outer loop
      vertex   -1.101428e+003 -4.195595e+002 5.108457e+002
      vertex   -1.101428e+003 -4.159531e+002 5.046780e+002
      vertex   -1.101428e+003 -4.160985e+002 5.053938e+002
    endloop
  endfacet
  facet normal 1.000000e+000 7.728383e-013 8.632967e-013
    outer loop
      vertex   -1.101428e+003 -4.190069e+002 5.103679e+002
      vertex   -1.101428e+003 -4.160985e+002 5.053938e+002
      vertex   -1.101428e+003 -4.162957e+002 5.060972e+002
    endloop
  endfacet
  facet normal 1.000000e+000 -1.895314e-012 -6.842398e-013
    outer loop
      vertex   -1.101428e+003 -4.184907e+002 5.098511e+002
      vertex   -1.101428e+003 -4.162957e+002 5.060972e+002
      vertex   -1.101428e+003 -4.165437e+002 5.067842e+002
    endloop
  endfacet
  facet normal 1.000000e+000 1.653853e-012 1.419281e-012
    outer loop
      vertex   -1.101428e+003 -4.180136e+002 5.092980e+002
      vertex   -1.101428e+003 -4.165437e+002 5.067842e+002
      vertex   -1.101428e+003 -4.168413e+002 5.074513e+002
    endloop
  endfacet
  facet normal 1.000000e+000 -1.572286e-013 2.688971e-013
    outer loop
      vertex   -1.101428e+003 -4.175782e+002 5.087116e+002
      vertex   -1.101428e+003 -4.168413e+002 5.074513e+002
      vertex   -1.101428e+003 -4.171867e+002 5.080949e+002
    endloop
  endfacet
  facet normal 1.000000e+000 -1.703374e-013 2.612322e-013
    outer loop
      vertex   -1.101428e+003 -4.175782e+002 5.087116e+002
      vertex   -1.101428e+003 -4.180136e+002 5.092980e+002
      vertex   -1.101428e+003 -4.168413e+002 5.074513e+002
    endloop
  endfacet
  facet normal 1.000000e+000 -1.565647e-013 3.191724e-013
    outer loop
      vertex   -1.101428e+003 -4.305482e+002 5.118585e+002
      vertex   -1.101428e+003 -4.198578e+002 4.950186e+002
      vertex   -1.101428e+003 -4.298924e+002 5.121802e+002
    endloop
  endfacet
  facet normal 1.000000e+000 -1.353701e-013 3.360072e-013
    outer loop
      vertex   -1.101428e+003 -4.298924e+002 5.121802e+002
      vertex   -1.101428e+003 -4.192876e+002 4.954751e+002
      vertex   -1.101428e+003 -4.292149e+002 5.124531e+002
    endloop
  endfacet
  facet normal 1.000000e+000 -1.101504e-013 3.439567e-013
    outer loop
      vertex   -1.101428e+003 -4.292149e+002 5.124531e+002
      vertex   -1.101428e+003 -4.187523e+002 4.959721e+002
      vertex   -1.101428e+003 -4.285193e+002 5.126759e+002
    endloop
  endfacet
  facet normal 1.000000e+000 -8.830511e-014 3.658098e-013
    outer loop
      vertex   -1.101428e+003 -4.285193e+002 5.126759e+002
      vertex   -1.101428e+003 -4.182547e+002 4.965068e+002
      vertex   -1.101428e+003 -4.278092e+002 5.128473e+002
    endloop
  endfacet
  facet normal 1.000000e+000 -6.038714e-014 3.653507e-013
    outer loop
      vertex   -1.101428e+003 -4.278092e+002 5.128473e+002
      vertex   -1.101428e+003 -4.177975e+002 4.970765e+002
      vertex   -1.101428e+003 -4.270886e+002 5.129664e+002
    endloop
  endfacet
  facet normal 1.000000e+000 -3.582269e-014 3.936816e-013
    outer loop
      vertex   -1.101428e+003 -4.270886e+002 5.129664e+002
      vertex   -1.101428e+003 -4.173830e+002 4.976779e+002
      vertex   -1.101428e+003 -4.263611e+002 5.130326e+002
    endloop
  endfacet
  facet normal 1.000000e+000 -7.561896e-015 4.275711e-013
    outer loop
      vertex   -1.101428e+003 -4.263611e+002 5.130326e+002
      vertex   -1.101428e+003 -4.170136e+002 4.983081e+002
      vertex   -1.101428e+003 -4.256308e+002 5.130455e+002
    endloop
  endfacet
  facet normal 1.000000e+000 -2.980844e-013 2.467198e-013
    outer loop
      vertex   -1.101428e+003 -4.256308e+002 5.130455e+002
      vertex   -1.101428e+003 -4.166911e+002 4.989635e+002
      vertex   -1.101428e+003 -4.249015e+002 5.130051e+002
    endloop
  endfacet
  facet normal 1.000000e+000 5.983685e-014 4.633213e-013
    outer loop
      vertex   -1.101428e+003 -4.249015e+002 5.130051e+002
      vertex   -1.101428e+003 -4.164174e+002 4.996407e+002
      vertex   -1.101428e+003 -4.241771e+002 5.129115e+002
    endloop
  endfacet
  facet normal 1.000000e+000 -2.632016e-013 2.668503e-013
    outer loop
      vertex   -1.101428e+003 -4.241771e+002 5.129115e+002
      vertex   -1.101428e+003 -4.161938e+002 5.003361e+002
      vertex   -1.101428e+003 -4.234614e+002 5.127653e+002
    endloop
  endfacet
  facet normal 1.000000e+000 -2.540643e-013 2.461432e-013
    outer loop
      vertex   -1.101428e+003 -4.234614e+002 5.127653e+002
      vertex   -1.101428e+003 -4.160216e+002 5.010459e+002
      vertex   -1.101428e+003 -4.227583e+002 5.125673e+002
    endloop
  endfacet
  facet normal 1.000000e+000 1.981241e-013 5.468040e-013
    outer loop
      vertex   -1.101428e+003 -4.227583e+002 5.125673e+002
      vertex   -1.101428e+003 -4.159016e+002 5.017664e+002
      vertex   -1.101428e+003 -4.220716e+002 5.123185e+002
    endloop
  endfacet
  facet normal 1.000000e+000 -2.159884e-013 2.794611e-013
    outer loop
      vertex   -1.101428e+003 -4.220716e+002 5.123185e+002
      vertex   -1.101428e+003 -4.158346e+002 5.024938e+002
      vertex   -1.101428e+003 -4.214048e+002 5.120202e+002
    endloop
  endfacet
  facet normal 1.000000e+000 -1.988465e-013 2.873586e-013
    outer loop
      vertex   -1.101428e+003 -4.214048e+002 5.120202e+002
      vertex   -1.101428e+003 -4.158208e+002 5.032241e+002
      vertex   -1.101428e+003 -4.207616e+002 5.116740e+002
    endloop
  endfacet
  facet normal 1.000000e+000 -1.788134e-013 2.987922e-013
    outer loop
      vertex   -1.101428e+003 -4.207616e+002 5.116740e+002
      vertex   -1.101428e+003 -4.158604e+002 5.039535e+002
      vertex   -1.101428e+003 -4.201454e+002 5.112818e+002
    endloop
  endfacet
  facet normal 1.000000e+000 -1.526386e-013 3.162703e-013
    outer loop
      vertex   -1.101428e+003 -4.201454e+002 5.112818e+002
      vertex   -1.101428e+003 -4.159531e+002 5.046780e+002
      vertex   -1.101428e+003 -4.195595e+002 5.108457e+002
    endloop
  endfacet
  facet normal 1.000000e+000 -1.128415e-013 3.454250e-013
    outer loop
      vertex   -1.101428e+003 -4.195595e+002 5.108457e+002
      vertex   -1.101428e+003 -4.160985e+002 5.053938e+002
      vertex   -1.101428e+003 -4.190069e+002 5.103679e+002
    endloop
  endfacet
  facet normal 1.000000e+000 1.023810e-012 1.022621e-012
    outer loop
      vertex   -1.101428e+003 -4.190069e+002 5.103679e+002
      vertex   -1.101428e+003 -4.162957e+002 5.060972e+002
      vertex   -1.101428e+003 -4.184907e+002 5.098511e+002
    endloop
  endfacet
  facet normal 1.000000e+000 -1.331309e-012 -3.261927e-013
    outer loop
      vertex   -1.101428e+003 -4.184907e+002 5.098511e+002
      vertex   -1.101428e+003 -4.165437e+002 5.067842e+002
      vertex   -1.101428e+003 -4.180136e+002 5.092980e+002
    endloop
  endfacet
  facet normal -1.000000e+000 1.784877e-013 -3.052550e-013
    outer loop
      vertex   -1.104428e+003 -4.305482e+002 5.118585e+002
      vertex   -1.104428e+003 -4.198578e+002 4.950186e+002
      vertex   -1.104428e+003 -4.311788e+002 5.114898e+002
    endloop
  endfacet
  facet normal -1.000000e+000 2.222167e-013 -2.774946e-013
    outer loop
      vertex   -1.104428e+003 -4.305482e+002 5.118585e+002
      vertex   -1.104428e+003 -4.192876e+002 4.954751e+002
      vertex   -1.104428e+003 -4.198578e+002 4.950186e+002
    endloop
  endfacet
  facet normal -1.000000e+000 1.578289e-013 -3.217497e-013
    outer loop
      vertex   -1.104428e+003 -4.305482e+002 5.118585e+002
      vertex   -1.104428e+003 -4.298924e+002 5.121802e+002
      vertex   -1.104428e+003 -4.192876e+002 4.954751e+002
    endloop
  endfacet
  facet normal -1.000000e+000 -2.077545e-014 -4.351329e-013
    outer loop
      vertex   -1.104428e+003 -4.192876e+002 4.954751e+002
      vertex   -1.104428e+003 -4.298924e+002 5.121802e+002
      vertex   -1.104428e+003 -4.187523e+002 4.959721e+002
    endloop
  endfacet
  facet normal -1.000000e+000 1.327840e-013 -3.295882e-013
    outer loop
      vertex   -1.104428e+003 -4.187523e+002 4.959721e+002
      vertex   -1.104428e+003 -4.298924e+002 5.121802e+002
      vertex   -1.104428e+003 -4.292149e+002 5.124531e+002
    endloop
  endfacet
  facet normal -1.000000e+000 1.122755e-013 -3.505927e-013
    outer loop
      vertex   -1.104428e+003 -4.182547e+002 4.965068e+002
      vertex   -1.104428e+003 -4.292149e+002 5.124531e+002
      vertex   -1.104428e+003 -4.285193e+002 5.126759e+002
    endloop
  endfacet
  facet normal -1.000000e+000 8.751704e-014 -3.625452e-013
    outer loop
      vertex   -1.104428e+003 -4.177975e+002 4.970765e+002
      vertex   -1.104428e+003 -4.285193e+002 5.126759e+002
      vertex   -1.104428e+003 -4.278092e+002 5.128473e+002
    endloop
  endfacet
  facet normal -1.000000e+000 6.451715e-014 -3.903378e-013
    outer loop
      vertex   -1.104428e+003 -4.173830e+002 4.976779e+002
      vertex   -1.104428e+003 -4.278092e+002 5.128473e+002
      vertex   -1.104428e+003 -4.270886e+002 5.129664e+002
    endloop
  endfacet
  facet normal -1.000000e+000 3.719467e-014 -4.087593e-013
    outer loop
      vertex   -1.104428e+003 -4.170136e+002 4.983081e+002
      vertex   -1.104428e+003 -4.270886e+002 5.129664e+002
      vertex   -1.104428e+003 -4.263611e+002 5.130326e+002
    endloop
  endfacet
  facet normal -1.000000e+000 7.624522e-015 -4.311121e-013
    outer loop
      vertex   -1.104428e+003 -4.166911e+002 4.989635e+002
      vertex   -1.104428e+003 -4.263611e+002 5.130326e+002
      vertex   -1.104428e+003 -4.256308e+002 5.130455e+002
    endloop
  endfacet
  facet normal -1.000000e+000 2.986944e-013 -2.357153e-013
    outer loop
      vertex   -1.104428e+003 -4.164174e+002 4.996407e+002
      vertex   -1.104428e+003 -4.256308e+002 5.130455e+002
      vertex   -1.104428e+003 -4.249015e+002 5.130051e+002
    endloop
  endfacet
  facet normal -1.000000e+000 -6.104717e-014 -4.726928e-013
    outer loop
      vertex   -1.104428e+003 -4.161938e+002 5.003361e+002
      vertex   -1.104428e+003 -4.249015e+002 5.130051e+002
      vertex   -1.104428e+003 -4.241771e+002 5.129115e+002
    endloop
  endfacet
  facet normal -1.000000e+000 2.694231e-013 -2.363930e-013
    outer loop
      vertex   -1.104428e+003 -4.160216e+002 5.010459e+002
      vertex   -1.104428e+003 -4.241771e+002 5.129115e+002
      vertex   -1.104428e+003 -4.234614e+002 5.127653e+002
    endloop
  endfacet
  facet normal -1.000000e+000 2.493999e-013 -2.627029e-013
    outer loop
      vertex   -1.104428e+003 -4.159016e+002 5.017664e+002
      vertex   -1.104428e+003 -4.234614e+002 5.127653e+002
      vertex   -1.104428e+003 -4.227583e+002 5.125673e+002
    endloop
  endfacet
  facet normal -1.000000e+000 -2.069194e-013 -5.710783e-013
    outer loop
      vertex   -1.104428e+003 -4.158346e+002 5.024938e+002
      vertex   -1.104428e+003 -4.227583e+002 5.125673e+002
      vertex   -1.104428e+003 -4.220716e+002 5.123185e+002
    endloop
  endfacet
  facet normal -1.000000e+000 2.178533e-013 -2.752925e-013
    outer loop
      vertex   -1.104428e+003 -4.158208e+002 5.032241e+002
      vertex   -1.104428e+003 -4.220716e+002 5.123185e+002
      vertex   -1.104428e+003 -4.214048e+002 5.120202e+002
    endloop
  endfacet
  facet normal -1.000000e+000 1.998962e-013 -2.854082e-013
    outer loop
      vertex   -1.104428e+003 -4.158604e+002 5.039535e+002
      vertex   -1.104428e+003 -4.214048e+002 5.120202e+002
      vertex   -1.104428e+003 -4.207616e+002 5.116740e+002
    endloop
  endfacet
  facet normal -1.000000e+000 1.411223e-013 -3.580119e-013
    outer loop
      vertex   -1.104428e+003 -4.159531e+002 5.046780e+002
      vertex   -1.104428e+003 -4.207616e+002 5.116740e+002
      vertex   -1.104428e+003 -4.201454e+002 5.112818e+002
    endloop
  endfacet
  facet normal -1.000000e+000 1.471490e-013 -3.236456e-013
    outer loop
      vertex   -1.104428e+003 -4.160985e+002 5.053938e+002
      vertex   -1.104428e+003 -4.201454e+002 5.112818e+002
      vertex   -1.104428e+003 -4.195595e+002 5.108457e+002
    endloop
  endfacet
  facet normal -1.000000e+000 1.979075e-013 -2.470392e-013
    outer loop
      vertex   -1.104428e+003 -4.162957e+002 5.060972e+002
      vertex   -1.104428e+003 -4.195595e+002 5.108457e+002
      vertex   -1.104428e+003 -4.190069e+002 5.103679e+002
    endloop
  endfacet
  facet normal -1.000000e+000 -1.334667e-014 -4.532961e-013
    outer loop
      vertex   -1.104428e+003 -4.165437e+002 5.067842e+002
      vertex   -1.104428e+003 -4.190069e+002 5.103679e+002
      vertex   -1.104428e+003 -4.184907e+002 5.098511e+002
    endloop
  endfacet
  facet normal -1.000000e+000 1.831833e-013 -2.530773e-013
    outer loop
      vertex   -1.104428e+003 -4.168413e+002 5.074513e+002
      vertex   -1.104428e+003 -4.184907e+002 5.098511e+002
      vertex   -1.104428e+003 -4.180136e+002 5.092980e+002
    endloop
  endfacet
  facet normal -1.000000e+000 1.764374e-013 -2.567028e-013
    outer loop
      vertex   -1.104428e+003 -4.171867e+002 5.080949e+002
      vertex   -1.104428e+003 -4.180136e+002 5.092980e+002
      vertex   -1.104428e+003 -4.175782e+002 5.087116e+002
    endloop
  endfacet
  facet normal -1.000000e+000 1.639231e-013 -2.653042e-013
    outer loop
      vertex   -1.104428e+003 -4.171867e+002 5.080949e+002
      vertex   -1.104428e+003 -4.168413e+002 5.074513e+002
      vertex   -1.104428e+003 -4.180136e+002 5.092980e+002
    endloop
  endfacet
  facet normal -1.000000e+000 2.643951e-013 -2.460377e-013
    outer loop
      vertex   -1.104428e+003 -4.187523e+002 4.959721e+002
      vertex   -1.104428e+003 -4.292149e+002 5.124531e+002
      vertex   -1.104428e+003 -4.182547e+002 4.965068e+002
    endloop
  endfacet
  facet normal -1.000000e+000 1.579437e-014 -4.118417e-013
    outer loop
      vertex   -1.104428e+003 -4.182547e+002 4.965068e+002
      vertex   -1.104428e+003 -4.285193e+002 5.126759e+002
      vertex   -1.104428e+003 -4.177975e+002 4.970765e+002
    endloop
  endfacet
  facet normal -1.000000e+000 3.158207e-013 -2.176114e-013
    outer loop
      vertex   -1.104428e+003 -4.177975e+002 4.970765e+002
      vertex   -1.104428e+003 -4.278092e+002 5.128473e+002
      vertex   -1.104428e+003 -4.173830e+002 4.976779e+002
    endloop
  endfacet
  facet normal -1.000000e+000 5.770101e-014 -3.946649e-013
    outer loop
      vertex   -1.104428e+003 -4.173830e+002 4.976779e+002
      vertex   -1.104428e+003 -4.270886e+002 5.129664e+002
      vertex   -1.104428e+003 -4.170136e+002 4.983081e+002
    endloop
  endfacet
  facet normal -1.000000e+000 7.583959e-014 -3.842264e-013
    outer loop
      vertex   -1.104428e+003 -4.170136e+002 4.983081e+002
      vertex   -1.104428e+003 -4.263611e+002 5.130326e+002
      vertex   -1.104428e+003 -4.166911e+002 4.989635e+002
    endloop
  endfacet
  facet normal -1.000000e+000 9.643254e-014 -3.747342e-013
    outer loop
      vertex   -1.104428e+003 -4.166911e+002 4.989635e+002
      vertex   -1.104428e+003 -4.256308e+002 5.130455e+002
      vertex   -1.104428e+003 -4.164174e+002 4.996407e+002
    endloop
  endfacet
  facet normal -1.000000e+000 1.028463e-013 -3.600453e-013
    outer loop
      vertex   -1.104428e+003 -4.164174e+002 4.996407e+002
      vertex   -1.104428e+003 -4.249015e+002 5.130051e+002
      vertex   -1.104428e+003 -4.161938e+002 5.003361e+002
    endloop
  endfacet
  facet normal -1.000000e+000 -2.355562e-013 -5.834762e-013
    outer loop
      vertex   -1.104428e+003 -4.161938e+002 5.003361e+002
      vertex   -1.104428e+003 -4.241771e+002 5.129115e+002
      vertex   -1.104428e+003 -4.160216e+002 5.010459e+002
    endloop
  endfacet
  facet normal -1.000000e+000 5.084564e-013 -8.464774e-014
    outer loop
      vertex   -1.104428e+003 -4.160216e+002 5.010459e+002
      vertex   -1.104428e+003 -4.234614e+002 5.127653e+002
      vertex   -1.104428e+003 -4.159016e+002 5.017664e+002
    endloop
  endfacet
  facet normal -1.000000e+000 1.491439e-013 -3.263483e-013
    outer loop
      vertex   -1.104428e+003 -4.159016e+002 5.017664e+002
      vertex   -1.104428e+003 -4.227583e+002 5.125673e+002
      vertex   -1.104428e+003 -4.158346e+002 5.024938e+002
    endloop
  endfacet
  facet normal -1.000000e+000 -2.798882e-013 -6.174010e-013
    outer loop
      vertex   -1.104428e+003 -4.158346e+002 5.024938e+002
      vertex   -1.104428e+003 -4.220716e+002 5.123185e+002
      vertex   -1.104428e+003 -4.158208e+002 5.032241e+002
    endloop
  endfacet
  facet normal -1.000000e+000 1.754354e-013 -3.022206e-013
    outer loop
      vertex   -1.104428e+003 -4.158208e+002 5.032241e+002
      vertex   -1.104428e+003 -4.214048e+002 5.120202e+002
      vertex   -1.104428e+003 -4.158604e+002 5.039535e+002
    endloop
  endfacet
  facet normal -1.000000e+000 8.134509e-013 1.040941e-013
    outer loop
      vertex   -1.104428e+003 -4.158604e+002 5.039535e+002
      vertex   -1.104428e+003 -4.207616e+002 5.116740e+002
      vertex   -1.104428e+003 -4.159531e+002 5.046780e+002
    endloop
  endfacet
  facet normal -1.000000e+000 -4.346543e-013 -7.235315e-013
    outer loop
      vertex   -1.104428e+003 -4.159531e+002 5.046780e+002
      vertex   -1.104428e+003 -4.201454e+002 5.112818e+002
      vertex   -1.104428e+003 -4.160985e+002 5.053938e+002
    endloop
  endfacet
  facet normal -1.000000e+000 -6.476073e-013 -8.281798e-013
    outer loop
      vertex   -1.104428e+003 -4.160985e+002 5.053938e+002
      vertex   -1.104428e+003 -4.195595e+002 5.108457e+002
      vertex   -1.104428e+003 -4.162957e+002 5.060972e+002
    endloop
  endfacet
  facet normal -1.000000e+000 1.361066e-012 4.913672e-013
    outer loop
      vertex   -1.104428e+003 -4.162957e+002 5.060972e+002
      vertex   -1.104428e+003 -4.190069e+002 5.103679e+002
      vertex   -1.104428e+003 -4.165437e+002 5.067842e+002
    endloop
  endfacet
  facet normal -1.000000e+000 -1.254271e-012 -1.241071e-012
    outer loop
      vertex   -1.104428e+003 -4.165437e+002 5.067842e+002
      vertex   -1.104428e+003 -4.184907e+002 5.098511e+002
      vertex   -1.104428e+003 -4.168413e+002 5.074513e+002
    endloop
  endfacet
  facet normal -1.000000e+000 -5.677219e-014 -4.669542e-013
    outer loop
      vertex   -1.104428e+003 -4.198578e+002 4.950186e+002
      vertex   -1.104428e+003 -4.204597e+002 4.946048e+002
      vertex   -1.104428e+003 -4.311788e+002 5.114898e+002
    endloop
  endfacet
  facet normal -1.000000e+000 -5.677219e-014 -4.669542e-013
    outer loop
      vertex   -1.104428e+003 -4.311788e+002 5.114898e+002
      vertex   -1.104428e+003 -4.204597e+002 4.946048e+002
      vertex   -1.104428e+003 -4.317808e+002 5.110760e+002
    endloop
  endfacet
  facet normal -1.000000e+000 1.784877e-013 -3.052550e-013
    outer loop
      vertex   -1.104428e+003 -4.317808e+002 5.110760e+002
      vertex   -1.104428e+003 -4.204597e+002 4.946048e+002
      vertex   -1.104428e+003 -4.210903e+002 4.942361e+002
    endloop
  endfacet
  facet normal -1.000000e+000 1.578289e-013 -3.217497e-013
    outer loop
      vertex   -1.104428e+003 -4.323509e+002 5.106194e+002
      vertex   -1.104428e+003 -4.210903e+002 4.942361e+002
      vertex   -1.104428e+003 -4.217461e+002 4.939144e+002
    endloop
  endfacet
  facet normal -1.000000e+000 1.327840e-013 -3.295882e-013
    outer loop
      vertex   -1.104428e+003 -4.328862e+002 5.101225e+002
      vertex   -1.104428e+003 -4.217461e+002 4.939144e+002
      vertex   -1.104428e+003 -4.224236e+002 4.936415e+002
    endloop
  endfacet
  facet normal -1.000000e+000 1.122755e-013 -3.505927e-013
    outer loop
      vertex   -1.104428e+003 -4.333838e+002 5.095877e+002
      vertex   -1.104428e+003 -4.224236e+002 4.936415e+002
      vertex   -1.104428e+003 -4.231192e+002 4.934187e+002
    endloop
  endfacet
  facet normal -1.000000e+000 8.751704e-014 -3.625452e-013
    outer loop
      vertex   -1.104428e+003 -4.338411e+002 5.090181e+002
      vertex   -1.104428e+003 -4.231192e+002 4.934187e+002
      vertex   -1.104428e+003 -4.238293e+002 4.932473e+002
    endloop
  endfacet
  facet normal -1.000000e+000 6.451715e-014 -3.903378e-013
    outer loop
      vertex   -1.104428e+003 -4.342555e+002 5.084166e+002
      vertex   -1.104428e+003 -4.238293e+002 4.932473e+002
      vertex   -1.104428e+003 -4.245500e+002 4.931282e+002
    endloop
  endfacet
  facet normal -1.000000e+000 3.719467e-014 -4.087593e-013
    outer loop
      vertex   -1.104428e+003 -4.346249e+002 5.077865e+002
      vertex   -1.104428e+003 -4.245500e+002 4.931282e+002
      vertex   -1.104428e+003 -4.252774e+002 4.930620e+002
    endloop
  endfacet
  facet normal -1.000000e+000 7.624522e-015 -4.311121e-013
    outer loop
      vertex   -1.104428e+003 -4.349474e+002 5.071311e+002
      vertex   -1.104428e+003 -4.252774e+002 4.930620e+002
      vertex   -1.104428e+003 -4.260077e+002 4.930491e+002
    endloop
  endfacet
  facet normal -1.000000e+000 2.986944e-013 -2.357153e-013
    outer loop
      vertex   -1.104428e+003 -4.352211e+002 5.064539e+002
      vertex   -1.104428e+003 -4.260077e+002 4.930491e+002
      vertex   -1.104428e+003 -4.267370e+002 4.930895e+002
    endloop
  endfacet
  facet normal -1.000000e+000 -6.104717e-014 -4.726928e-013
    outer loop
      vertex   -1.104428e+003 -4.354447e+002 5.057585e+002
      vertex   -1.104428e+003 -4.267370e+002 4.930895e+002
      vertex   -1.104428e+003 -4.274615e+002 4.931831e+002
    endloop
  endfacet
  facet normal -1.000000e+000 2.694231e-013 -2.363930e-013
    outer loop
      vertex   -1.104428e+003 -4.356169e+002 5.050487e+002
      vertex   -1.104428e+003 -4.274615e+002 4.931831e+002
      vertex   -1.104428e+003 -4.281771e+002 4.933292e+002
    endloop
  endfacet
  facet normal -1.000000e+000 2.493999e-013 -2.627029e-013
    outer loop
      vertex   -1.104428e+003 -4.357369e+002 5.043281e+002
      vertex   -1.104428e+003 -4.281771e+002 4.933292e+002
      vertex   -1.104428e+003 -4.288802e+002 4.935273e+002
    endloop
  endfacet
  facet normal -1.000000e+000 -2.069194e-013 -5.710783e-013
    outer loop
      vertex   -1.104428e+003 -4.358039e+002 5.036008e+002
      vertex   -1.104428e+003 -4.288802e+002 4.935273e+002
      vertex   -1.104428e+003 -4.295670e+002 4.937761e+002
    endloop
  endfacet
  facet normal -1.000000e+000 2.178533e-013 -2.752925e-013
    outer loop
      vertex   -1.104428e+003 -4.358177e+002 5.028705e+002
      vertex   -1.104428e+003 -4.295670e+002 4.937761e+002
      vertex   -1.104428e+003 -4.302337e+002 4.940744e+002
    endloop
  endfacet
  facet normal -1.000000e+000 1.998962e-013 -2.854082e-013
    outer loop
      vertex   -1.104428e+003 -4.357781e+002 5.021411e+002
      vertex   -1.104428e+003 -4.302337e+002 4.940744e+002
      vertex   -1.104428e+003 -4.308769e+002 4.944206e+002
    endloop
  endfacet
  facet normal -1.000000e+000 1.411223e-013 -3.580119e-013
    outer loop
      vertex   -1.104428e+003 -4.356854e+002 5.014166e+002
      vertex   -1.104428e+003 -4.308769e+002 4.944206e+002
      vertex   -1.104428e+003 -4.314931e+002 4.948128e+002
    endloop
  endfacet
  facet normal -1.000000e+000 1.471490e-013 -3.236456e-013
    outer loop
      vertex   -1.104428e+003 -4.355400e+002 5.007007e+002
      vertex   -1.104428e+003 -4.314931e+002 4.948128e+002
      vertex   -1.104428e+003 -4.320791e+002 4.952489e+002
    endloop
  endfacet
  facet normal -1.000000e+000 1.979075e-013 -2.470392e-013
    outer loop
      vertex   -1.104428e+003 -4.353428e+002 4.999974e+002
      vertex   -1.104428e+003 -4.320791e+002 4.952489e+002
      vertex   -1.104428e+003 -4.326316e+002 4.957266e+002
    endloop
  endfacet
  facet normal -1.000000e+000 -1.334667e-014 -4.532961e-013
    outer loop
      vertex   -1.104428e+003 -4.350948e+002 4.993104e+002
      vertex   -1.104428e+003 -4.326316e+002 4.957266e+002
      vertex   -1.104428e+003 -4.331478e+002 4.962434e+002
    endloop
  endfacet
  facet normal -1.000000e+000 1.831833e-013 -2.530773e-013
    outer loop
      vertex   -1.104428e+003 -4.347973e+002 4.986433e+002
      vertex   -1.104428e+003 -4.331478e+002 4.962434e+002
      vertex   -1.104428e+003 -4.336249e+002 4.967965e+002
    endloop
  endfacet
  facet normal -1.000000e+000 1.764374e-013 -2.567028e-013
    outer loop
      vertex   -1.104428e+003 -4.344518e+002 4.979997e+002
      vertex   -1.104428e+003 -4.336249e+002 4.967965e+002
      vertex   -1.104428e+003 -4.340604e+002 4.973830e+002
    endloop
  endfacet
  facet normal -1.000000e+000 1.639231e-013 -2.653042e-013
    outer loop
      vertex   -1.104428e+003 -4.344518e+002 4.979997e+002
      vertex   -1.104428e+003 -4.347973e+002 4.986433e+002
      vertex   -1.104428e+003 -4.336249e+002 4.967965e+002
    endloop
  endfacet
  facet normal -1.000000e+000 2.222167e-013 -2.774946e-013
    outer loop
      vertex   -1.104428e+003 -4.317808e+002 5.110760e+002
      vertex   -1.104428e+003 -4.210903e+002 4.942361e+002
      vertex   -1.104428e+003 -4.323509e+002 5.106194e+002
    endloop
  endfacet
  facet normal -1.000000e+000 -2.077545e-014 -4.351329e-013
    outer loop
      vertex   -1.104428e+003 -4.323509e+002 5.106194e+002
      vertex   -1.104428e+003 -4.217461e+002 4.939144e+002
      vertex   -1.104428e+003 -4.328862e+002 5.101225e+002
    endloop
  endfacet
  facet normal -1.000000e+000 2.643951e-013 -2.460377e-013
    outer loop
      vertex   -1.104428e+003 -4.328862e+002 5.101225e+002
      vertex   -1.104428e+003 -4.224236e+002 4.936415e+002
      vertex   -1.104428e+003 -4.333838e+002 5.095877e+002
    endloop
  endfacet
  facet normal -1.000000e+000 1.579437e-014 -4.118417e-013
    outer loop
      vertex   -1.104428e+003 -4.333838e+002 5.095877e+002
      vertex   -1.104428e+003 -4.231192e+002 4.934187e+002
      vertex   -1.104428e+003 -4.338411e+002 5.090181e+002
    endloop
  endfacet
  facet normal -1.000000e+000 3.158207e-013 -2.176114e-013
    outer loop
      vertex   -1.104428e+003 -4.338411e+002 5.090181e+002
      vertex   -1.104428e+003 -4.238293e+002 4.932473e+002
      vertex   -1.104428e+003 -4.342555e+002 5.084166e+002
    endloop
  endfacet
  facet normal -1.000000e+000 5.770101e-014 -3.946649e-013
    outer loop
      vertex   -1.104428e+003 -4.342555e+002 5.084166e+002
      vertex   -1.104428e+003 -4.245500e+002 4.931282e+002
      vertex   -1.104428e+003 -4.346249e+002 5.077865e+002
    endloop
  endfacet
  facet normal -1.000000e+000 7.583959e-014 -3.842264e-013
    outer loop
      vertex   -1.104428e+003 -4.346249e+002 5.077865e+002
      vertex   -1.104428e+003 -4.252774e+002 4.930620e+002
      vertex   -1.104428e+003 -4.349474e+002 5.071311e+002
    endloop
  endfacet
  facet normal -1.000000e+000 9.643254e-014 -3.747342e-013
    outer loop
      vertex   -1.104428e+003 -4.349474e+002 5.071311e+002
      vertex   -1.104428e+003 -4.260077e+002 4.930491e+002
      vertex   -1.104428e+003 -4.352211e+002 5.064539e+002
    endloop
  endfacet
  facet normal -1.000000e+000 1.028463e-013 -3.600453e-013
    outer loop
      vertex   -1.104428e+003 -4.352211e+002 5.064539e+002
      vertex   -1.104428e+003 -4.267370e+002 4.930895e+002
      vertex   -1.104428e+003 -4.354447e+002 5.057585e+002
    endloop
  endfacet
  facet normal -1.000000e+000 -2.355562e-013 -5.834762e-013
    outer loop
      vertex   -1.104428e+003 -4.354447e+002 5.057585e+002
      vertex   -1.104428e+003 -4.274615e+002 4.931831e+002
      vertex   -1.104428e+003 -4.356169e+002 5.050487e+002
    endloop
  endfacet
  facet normal -1.000000e+000 5.084564e-013 -8.464774e-014
    outer loop
      vertex   -1.104428e+003 -4.356169e+002 5.050487e+002
      vertex   -1.104428e+003 -4.281771e+002 4.933292e+002
      vertex   -1.104428e+003 -4.357369e+002 5.043281e+002
    endloop
  endfacet
  facet normal -1.000000e+000 1.491439e-013 -3.263483e-013
    outer loop
      vertex   -1.104428e+003 -4.357369e+002 5.043281e+002
      vertex   -1.104428e+003 -4.288802e+002 4.935273e+002
      vertex   -1.104428e+003 -4.358039e+002 5.036008e+002
    endloop
  endfacet
  facet normal -1.000000e+000 -2.798882e-013 -6.174010e-013
    outer loop
      vertex   -1.104428e+003 -4.358039e+002 5.036008e+002
      vertex   -1.104428e+003 -4.295670e+002 4.937761e+002
      vertex   -1.104428e+003 -4.358177e+002 5.028705e+002
    endloop
  endfacet
  facet normal -1.000000e+000 1.754354e-013 -3.022206e-013
    outer loop
      vertex   -1.104428e+003 -4.358177e+002 5.028705e+002
      vertex   -1.104428e+003 -4.302337e+002 4.940744e+002
      vertex   -1.104428e+003 -4.357781e+002 5.021411e+002
    endloop
  endfacet
  facet normal -1.000000e+000 8.134509e-013 1.040941e-013
    outer loop
      vertex   -1.104428e+003 -4.357781e+002 5.021411e+002
      vertex   -1.104428e+003 -4.308769e+002 4.944206e+002
      vertex   -1.104428e+003 -4.356854e+002 5.014166e+002
    endloop
  endfacet
  facet normal -1.000000e+000 -4.346543e-013 -7.235315e-013
    outer loop
      vertex   -1.104428e+003 -4.356854e+002 5.014166e+002
      vertex   -1.104428e+003 -4.314931e+002 4.948128e+002
      vertex   -1.104428e+003 -4.355400e+002 5.007007e+002
    endloop
  endfacet
  facet normal -1.000000e+000 -6.476073e-013 -8.281798e-013
    outer loop
      vertex   -1.104428e+003 -4.355400e+002 5.007007e+002
      vertex   -1.104428e+003 -4.320791e+002 4.952489e+002
      vertex   -1.104428e+003 -4.353428e+002 4.999974e+002
    endloop
  endfacet
  facet normal -1.000000e+000 1.361066e-012 4.913672e-013
    outer loop
      vertex   -1.104428e+003 -4.353428e+002 4.999974e+002
      vertex   -1.104428e+003 -4.326316e+002 4.957266e+002
      vertex   -1.104428e+003 -4.350948e+002 4.993104e+002
    endloop
  endfacet
  facet normal -1.000000e+000 -1.254271e-012 -1.241071e-012
    outer loop
      vertex   -1.104428e+003 -4.350948e+002 4.993104e+002
      vertex   -1.104428e+003 -4.331478e+002 4.962434e+002
      vertex   -1.104428e+003 -4.347973e+002 4.986433e+002
    endloop
  endfacet
endsolid
