solid ascii
  facet normal 3.520771e-013 4.273941e-012 -1.000000e+000
    outer loop
      vertex   -1.068113e+003 -4.152193e+002 5.230623e+002
      vertex   -1.098143e+003 -4.152193e+002 5.230623e+002
      vertex   -1.068113e+003 -4.138893e+002 5.230623e+002
    endloop
  endfacet
  facet normal 3.520771e-013 4.273941e-012 -1.000000e+000
    outer loop
      vertex   -1.068113e+003 -4.138893e+002 5.230623e+002
      vertex   -1.098143e+003 -4.152193e+002 5.230623e+002
      vertex   -1.098143e+003 -4.138893e+002 5.230623e+002
    endloop
  endfacet
  facet normal -3.540038e-013 -4.269928e-012 1.000000e+000
    outer loop
      vertex   -1.067713e+003 -4.134893e+002 5.234623e+002
      vertex   -1.098543e+003 -4.134893e+002 5.234623e+002
      vertex   -1.067713e+003 -4.156193e+002 5.234623e+002
    endloop
  endfacet
  facet normal -3.540038e-013 -4.269928e-012 1.000000e+000
    outer loop
      vertex   -1.067713e+003 -4.156193e+002 5.234623e+002
      vertex   -1.098543e+003 -4.134893e+002 5.234623e+002
      vertex   -1.098543e+003 -4.156193e+002 5.234623e+002
    endloop
  endfacet
  facet normal 1.041088e-013 1.000000e+000 4.294668e-012
    outer loop
      vertex   -1.068113e+003 -4.152193e+002 4.780473e+002
      vertex   -1.098143e+003 -4.152193e+002 4.780473e+002
      vertex   -1.068113e+003 -4.152193e+002 5.230623e+002
    endloop
  endfacet
  facet normal 1.041088e-013 1.000000e+000 4.294668e-012
    outer loop
      vertex   -1.068113e+003 -4.152193e+002 5.230623e+002
      vertex   -1.098143e+003 -4.152193e+002 4.780473e+002
      vertex   -1.098143e+003 -4.152193e+002 5.230623e+002
    endloop
  endfacet
  facet normal 1.000000e+000 -1.511157e-024 3.535745e-013
    outer loop
      vertex   -1.098143e+003 -4.138893e+002 4.780473e+002
      vertex   -1.098143e+003 -4.138893e+002 5.230623e+002
      vertex   -1.098143e+003 -4.152193e+002 4.780473e+002
    endloop
  endfacet
  facet normal 1.000000e+000 -1.511157e-024 3.535745e-013
    outer loop
      vertex   -1.098143e+003 -4.152193e+002 4.780473e+002
      vertex   -1.098143e+003 -4.138893e+002 5.230623e+002
      vertex   -1.098143e+003 -4.152193e+002 5.230623e+002
    endloop
  endfacet
  facet normal -1.000000e+000 1.067482e-013 -3.504604e-013
    outer loop
      vertex   -1.098543e+003 -4.134893e+002 4.780473e+002
      vertex   -1.098543e+003 -4.156193e+002 4.780473e+002
      vertex   -1.098543e+003 -4.134893e+002 5.234623e+002
    endloop
  endfacet
  facet normal -1.000000e+000 2.134964e-013 -3.554669e-013
    outer loop
      vertex   -1.098543e+003 -4.134893e+002 5.234623e+002
      vertex   -1.098543e+003 -4.156193e+002 4.780473e+002
      vertex   -1.098543e+003 -4.156193e+002 5.234623e+002
    endloop
  endfacet
  facet normal -1.032511e-013 -1.000000e+000 -4.295643e-012
    outer loop
      vertex   -1.098543e+003 -4.156193e+002 4.780473e+002
      vertex   -1.067713e+003 -4.156193e+002 4.780473e+002
      vertex   -1.098543e+003 -4.156193e+002 5.234623e+002
    endloop
  endfacet
  facet normal -1.050949e-013 -1.000000e+000 -4.296894e-012
    outer loop
      vertex   -1.098543e+003 -4.156193e+002 5.234623e+002
      vertex   -1.067713e+003 -4.156193e+002 4.780473e+002
      vertex   -1.067713e+003 -4.156193e+002 5.234623e+002
    endloop
  endfacet
  facet normal -1.041088e-013 -1.000000e+000 -4.297193e-012
    outer loop
      vertex   -1.098143e+003 -4.138893e+002 4.780473e+002
      vertex   -1.068113e+003 -4.138893e+002 4.780473e+002
      vertex   -1.098143e+003 -4.138893e+002 5.230623e+002
    endloop
  endfacet
  facet normal -1.041088e-013 -1.000000e+000 -4.297193e-012
    outer loop
      vertex   -1.098143e+003 -4.138893e+002 5.230623e+002
      vertex   -1.068113e+003 -4.138893e+002 4.780473e+002
      vertex   -1.068113e+003 -4.138893e+002 5.230623e+002
    endloop
  endfacet
  facet normal -1.000000e+000 1.709577e-013 -3.535745e-013
    outer loop
      vertex   -1.068113e+003 -4.152193e+002 4.780473e+002
      vertex   -1.068113e+003 -4.152193e+002 5.230623e+002
      vertex   -1.068113e+003 -4.138893e+002 4.780473e+002
    endloop
  endfacet
  facet normal -1.000000e+000 1.709577e-013 -3.535745e-013
    outer loop
      vertex   -1.068113e+003 -4.138893e+002 4.780473e+002
      vertex   -1.068113e+003 -4.152193e+002 5.230623e+002
      vertex   -1.068113e+003 -4.138893e+002 5.230623e+002
    endloop
  endfacet
  facet normal 1.000000e+000 -1.067482e-013 3.554669e-013
    outer loop
      vertex   -1.067713e+003 -4.156193e+002 4.780473e+002
      vertex   -1.067713e+003 -4.134893e+002 4.780473e+002
      vertex   -1.067713e+003 -4.156193e+002 5.234623e+002
    endloop
  endfacet
  facet normal 1.000000e+000 -1.067482e-013 3.554669e-013
    outer loop
      vertex   -1.067713e+003 -4.156193e+002 5.234623e+002
      vertex   -1.067713e+003 -4.134893e+002 4.780473e+002
      vertex   -1.067713e+003 -4.134893e+002 5.234623e+002
    endloop
  endfacet
  facet normal 1.032511e-013 1.000000e+000 4.294391e-012
    outer loop
      vertex   -1.067713e+003 -4.134893e+002 4.780473e+002
      vertex   -1.098543e+003 -4.134893e+002 4.780473e+002
      vertex   -1.067713e+003 -4.134893e+002 5.234623e+002
    endloop
  endfacet
  facet normal 1.032511e-013 1.000000e+000 4.294391e-012
    outer loop
      vertex   -1.067713e+003 -4.134893e+002 5.234623e+002
      vertex   -1.098543e+003 -4.134893e+002 4.780473e+002
      vertex   -1.098543e+003 -4.134893e+002 5.234623e+002
    endloop
  endfacet
  facet normal 2.735322e-013 4.273941e-012 -1.000000e+000
    outer loop
      vertex   -1.068113e+003 -4.152193e+002 4.780473e+002
      vertex   -1.068113e+003 -4.138893e+002 4.780473e+002
      vertex   -1.067713e+003 -4.134893e+002 4.780473e+002
    endloop
  endfacet
  facet normal 1.754674e-013 4.296615e-012 -1.000000e+000
    outer loop
      vertex   -1.067713e+003 -4.156193e+002 4.780473e+002
      vertex   -1.068113e+003 -4.152193e+002 4.780473e+002
      vertex   -1.067713e+003 -4.134893e+002 4.780473e+002
    endloop
  endfacet
  facet normal 3.521600e-013 4.473308e-012 -1.000000e+000
    outer loop
      vertex   -1.067713e+003 -4.156193e+002 4.780473e+002
      vertex   -1.098543e+003 -4.156193e+002 4.780473e+002
      vertex   -1.068113e+003 -4.152193e+002 4.780473e+002
    endloop
  endfacet
  facet normal 3.558629e-013 4.191611e-012 -1.000000e+000
    outer loop
      vertex   -1.068113e+003 -4.152193e+002 4.780473e+002
      vertex   -1.098543e+003 -4.156193e+002 4.780473e+002
      vertex   -1.098143e+003 -4.152193e+002 4.780473e+002
    endloop
  endfacet
  facet normal 2.508583e-013 4.296615e-012 -1.000000e+000
    outer loop
      vertex   -1.098143e+003 -4.152193e+002 4.780473e+002
      vertex   -1.098543e+003 -4.156193e+002 4.780473e+002
      vertex   -1.098543e+003 -4.134893e+002 4.780473e+002
    endloop
  endfacet
  facet normal 3.521600e-013 4.473308e-012 -1.000000e+000
    outer loop
      vertex   -1.098143e+003 -4.138893e+002 4.780473e+002
      vertex   -1.098543e+003 -4.134893e+002 4.780473e+002
      vertex   -1.067713e+003 -4.134893e+002 4.780473e+002
    endloop
  endfacet
  facet normal 3.558629e-013 4.191611e-012 -1.000000e+000
    outer loop
      vertex   -1.068113e+003 -4.138893e+002 4.780473e+002
      vertex   -1.098143e+003 -4.138893e+002 4.780473e+002
      vertex   -1.067713e+003 -4.134893e+002 4.780473e+002
    endloop
  endfacet
  facet normal 1.527934e-013 4.273941e-012 -1.000000e+000
    outer loop
      vertex   -1.098143e+003 -4.138893e+002 4.780473e+002
      vertex   -1.098143e+003 -4.152193e+002 4.780473e+002
      vertex   -1.098543e+003 -4.134893e+002 4.780473e+002
    endloop
  endfacet
endsolid
