solid ascii
  facet normal 3.562188e-013 4.285119e-012 -1.000000e+000
    outer loop
      vertex   -1.068128e+003 -4.152043e+002 5.230473e+002
      vertex   -1.098128e+003 -4.152043e+002 5.230473e+002
      vertex   -1.068128e+003 -4.139043e+002 5.230473e+002
    endloop
  endfacet
  facet normal 3.562188e-013 4.285119e-012 -1.000000e+000
    outer loop
      vertex   -1.068128e+003 -4.139043e+002 5.230473e+002
      vertex   -1.098128e+003 -4.152043e+002 5.230473e+002
      vertex   -1.098128e+003 -4.139043e+002 5.230473e+002
    endloop
  endfacet
  facet normal -3.520771e-013 -4.273941e-012 1.000000e+000
    outer loop
      vertex   -1.098143e+003 -4.152193e+002 5.230623e+002
      vertex   -1.068113e+003 -4.152193e+002 5.230623e+002
      vertex   -1.098143e+003 -4.138893e+002 5.230623e+002
    endloop
  endfacet
  facet normal -3.520771e-013 -4.273941e-012 1.000000e+000
    outer loop
      vertex   -1.098143e+003 -4.138893e+002 5.230623e+002
      vertex   -1.068113e+003 -4.152193e+002 5.230623e+002
      vertex   -1.068113e+003 -4.138893e+002 5.230623e+002
    endloop
  endfacet
  facet normal -1.000000e+000 1.516498e-024 -3.536924e-013
    outer loop
      vertex   -1.068128e+003 -4.139043e+002 5.230473e+002
      vertex   -1.068128e+003 -4.139043e+002 4.780473e+002
      vertex   -1.068128e+003 -4.152043e+002 5.230473e+002
    endloop
  endfacet
  facet normal -1.000000e+000 1.515614e-024 -3.536924e-013
    outer loop
      vertex   -1.068128e+003 -4.152043e+002 5.230473e+002
      vertex   -1.068128e+003 -4.139043e+002 4.780473e+002
      vertex   -1.068128e+003 -4.152043e+002 4.780473e+002
    endloop
  endfacet
  facet normal -1.042129e-013 -1.000000e+000 -4.297362e-012
    outer loop
      vertex   -1.068128e+003 -4.139043e+002 5.230473e+002
      vertex   -1.098128e+003 -4.139043e+002 5.230473e+002
      vertex   -1.068128e+003 -4.139043e+002 4.780473e+002
    endloop
  endfacet
  facet normal -1.023182e-013 -1.000000e+000 -4.296099e-012
    outer loop
      vertex   -1.068128e+003 -4.139043e+002 4.780473e+002
      vertex   -1.098128e+003 -4.139043e+002 5.230473e+002
      vertex   -1.098128e+003 -4.139043e+002 4.780473e+002
    endloop
  endfacet
  facet normal 1.000000e+000 -1.516498e-024 3.536924e-013
    outer loop
      vertex   -1.098128e+003 -4.152043e+002 5.230473e+002
      vertex   -1.098128e+003 -4.152043e+002 4.780473e+002
      vertex   -1.098128e+003 -4.139043e+002 5.230473e+002
    endloop
  endfacet
  facet normal 1.000000e+000 -1.515614e-024 3.536924e-013
    outer loop
      vertex   -1.098128e+003 -4.139043e+002 5.230473e+002
      vertex   -1.098128e+003 -4.152043e+002 4.780473e+002
      vertex   -1.098128e+003 -4.139043e+002 4.780473e+002
    endloop
  endfacet
  facet normal 1.042129e-013 1.000000e+000 4.294836e-012
    outer loop
      vertex   -1.098128e+003 -4.152043e+002 5.230473e+002
      vertex   -1.068128e+003 -4.152043e+002 5.230473e+002
      vertex   -1.098128e+003 -4.152043e+002 4.780473e+002
    endloop
  endfacet
  facet normal 1.042129e-013 1.000000e+000 4.294836e-012
    outer loop
      vertex   -1.098128e+003 -4.152043e+002 4.780473e+002
      vertex   -1.068128e+003 -4.152043e+002 5.230473e+002
      vertex   -1.068128e+003 -4.152043e+002 4.780473e+002
    endloop
  endfacet
  facet normal 1.000000e+000 -1.709577e-013 3.535745e-013
    outer loop
      vertex   -1.068113e+003 -4.152193e+002 5.230623e+002
      vertex   -1.068113e+003 -4.152193e+002 4.780473e+002
      vertex   -1.068113e+003 -4.138893e+002 5.230623e+002
    endloop
  endfacet
  facet normal 1.000000e+000 -1.709577e-013 3.535745e-013
    outer loop
      vertex   -1.068113e+003 -4.138893e+002 5.230623e+002
      vertex   -1.068113e+003 -4.152193e+002 4.780473e+002
      vertex   -1.068113e+003 -4.138893e+002 4.780473e+002
    endloop
  endfacet
  facet normal 1.041088e-013 1.000000e+000 4.297193e-012
    outer loop
      vertex   -1.068113e+003 -4.138893e+002 4.780473e+002
      vertex   -1.098143e+003 -4.138893e+002 4.780473e+002
      vertex   -1.068113e+003 -4.138893e+002 5.230623e+002
    endloop
  endfacet
  facet normal 1.041088e-013 1.000000e+000 4.297193e-012
    outer loop
      vertex   -1.068113e+003 -4.138893e+002 5.230623e+002
      vertex   -1.098143e+003 -4.138893e+002 4.780473e+002
      vertex   -1.098143e+003 -4.138893e+002 5.230623e+002
    endloop
  endfacet
  facet normal -1.000000e+000 1.511157e-024 -3.535745e-013
    outer loop
      vertex   -1.098143e+003 -4.138893e+002 5.230623e+002
      vertex   -1.098143e+003 -4.138893e+002 4.780473e+002
      vertex   -1.098143e+003 -4.152193e+002 5.230623e+002
    endloop
  endfacet
  facet normal -1.000000e+000 1.511157e-024 -3.535745e-013
    outer loop
      vertex   -1.098143e+003 -4.152193e+002 5.230623e+002
      vertex   -1.098143e+003 -4.138893e+002 4.780473e+002
      vertex   -1.098143e+003 -4.152193e+002 4.780473e+002
    endloop
  endfacet
  facet normal -1.041088e-013 -1.000000e+000 -4.294668e-012
    outer loop
      vertex   -1.098143e+003 -4.152193e+002 4.780473e+002
      vertex   -1.068113e+003 -4.152193e+002 4.780473e+002
      vertex   -1.098143e+003 -4.152193e+002 5.230623e+002
    endloop
  endfacet
  facet normal -1.041088e-013 -1.000000e+000 -4.294668e-012
    outer loop
      vertex   -1.098143e+003 -4.152193e+002 5.230623e+002
      vertex   -1.068113e+003 -4.152193e+002 4.780473e+002
      vertex   -1.068113e+003 -4.152193e+002 5.230623e+002
    endloop
  endfacet
  facet normal -4.955580e-013 4.285119e-012 -1.000000e+000
    outer loop
      vertex   -1.068128e+003 -4.139043e+002 4.780473e+002
      vertex   -1.068113e+003 -4.138893e+002 4.780473e+002
      vertex   -1.068128e+003 -4.152043e+002 4.780473e+002
    endloop
  endfacet
  facet normal 3.562188e-013 3.433342e-012 -1.000000e+000
    outer loop
      vertex   -1.068128e+003 -4.139043e+002 4.780473e+002
      vertex   -1.098128e+003 -4.139043e+002 4.780473e+002
      vertex   -1.068113e+003 -4.138893e+002 4.780473e+002
    endloop
  endfacet
  facet normal 3.558629e-013 4.145424e-012 -1.000000e+000
    outer loop
      vertex   -1.068113e+003 -4.138893e+002 4.780473e+002
      vertex   -1.098128e+003 -4.139043e+002 4.780473e+002
      vertex   -1.098143e+003 -4.138893e+002 4.780473e+002
    endloop
  endfacet
  facet normal 4.955580e-013 4.285119e-012 -1.000000e+000
    outer loop
      vertex   -1.098143e+003 -4.138893e+002 4.780473e+002
      vertex   -1.098128e+003 -4.139043e+002 4.780473e+002
      vertex   -1.098128e+003 -4.152043e+002 4.780473e+002
    endloop
  endfacet
  facet normal 3.562188e-013 3.433342e-012 -1.000000e+000
    outer loop
      vertex   -1.098143e+003 -4.152193e+002 4.780473e+002
      vertex   -1.098128e+003 -4.152043e+002 4.780473e+002
      vertex   -1.068128e+003 -4.152043e+002 4.780473e+002
    endloop
  endfacet
  facet normal 4.843800e-013 4.273941e-012 -1.000000e+000
    outer loop
      vertex   -1.068113e+003 -4.152193e+002 4.780473e+002
      vertex   -1.068128e+003 -4.152043e+002 4.780473e+002
      vertex   -1.068113e+003 -4.138893e+002 4.780473e+002
    endloop
  endfacet
  facet normal 3.558629e-013 4.145424e-012 -1.000000e+000
    outer loop
      vertex   -1.068113e+003 -4.152193e+002 4.780473e+002
      vertex   -1.098143e+003 -4.152193e+002 4.780473e+002
      vertex   -1.068128e+003 -4.152043e+002 4.780473e+002
    endloop
  endfacet
  facet normal -4.843800e-013 4.273941e-012 -1.000000e+000
    outer loop
      vertex   -1.098143e+003 -4.138893e+002 4.780473e+002
      vertex   -1.098128e+003 -4.152043e+002 4.780473e+002
      vertex   -1.098143e+003 -4.152193e+002 4.780473e+002
    endloop
  endfacet
endsolid
