solid ascii
  facet normal 3.570001e-013 -3.652202e-002 -9.993328e-001
    outer loop
      vertex   -1.101128e+003 -4.265492e+002 4.930740e+002
      vertex   -1.104128e+003 -4.265492e+002 4.930740e+002
      vertex   -1.101128e+003 -4.258193e+002 4.930473e+002
    endloop
  endfacet
  facet normal 3.495569e-013 -1.093712e-001 -9.940010e-001
    outer loop
      vertex   -1.101128e+003 -4.265492e+002 4.930740e+002
      vertex   -1.104128e+003 -4.272753e+002 4.931539e+002
      vertex   -1.104128e+003 -4.265492e+002 4.930740e+002
    endloop
  endfacet
  facet normal 3.495592e-013 -1.093712e-001 -9.940010e-001
    outer loop
      vertex   -1.101128e+003 -4.265492e+002 4.930740e+002
      vertex   -1.101128e+003 -4.272753e+002 4.931539e+002
      vertex   -1.104128e+003 -4.272753e+002 4.931539e+002
    endloop
  endfacet
  facet normal 3.402533e-013 -1.816369e-001 -9.833657e-001
    outer loop
      vertex   -1.104128e+003 -4.272753e+002 4.931539e+002
      vertex   -1.101128e+003 -4.272753e+002 4.931539e+002
      vertex   -1.104128e+003 -4.279936e+002 4.932865e+002
    endloop
  endfacet
  facet normal 3.368179e-013 -1.816369e-001 -9.833657e-001
    outer loop
      vertex   -1.104128e+003 -4.279936e+002 4.932865e+002
      vertex   -1.101128e+003 -4.272753e+002 4.931539e+002
      vertex   -1.101128e+003 -4.279936e+002 4.932865e+002
    endloop
  endfacet
  facet normal 3.060139e-013 -2.529334e-001 -9.674837e-001
    outer loop
      vertex   -1.104128e+003 -4.287003e+002 4.934713e+002
      vertex   -1.101128e+003 -4.279936e+002 4.932865e+002
      vertex   -1.101128e+003 -4.287003e+002 4.934713e+002
    endloop
  endfacet
  facet normal 2.860900e-013 -3.228804e-001 -9.464398e-001
    outer loop
      vertex   -1.104128e+003 -4.293916e+002 4.937071e+002
      vertex   -1.101128e+003 -4.287003e+002 4.934713e+002
      vertex   -1.101128e+003 -4.293916e+002 4.937071e+002
    endloop
  endfacet
  facet normal 2.942850e-013 -3.911047e-001 -9.203462e-001
    outer loop
      vertex   -1.104128e+003 -4.300638e+002 4.939928e+002
      vertex   -1.101128e+003 -4.293916e+002 4.937071e+002
      vertex   -1.101128e+003 -4.300638e+002 4.939928e+002
    endloop
  endfacet
  facet normal 2.768564e-013 -4.572423e-001 -8.893421e-001
    outer loop
      vertex   -1.104128e+003 -4.307134e+002 4.943268e+002
      vertex   -1.101128e+003 -4.300638e+002 4.939928e+002
      vertex   -1.101128e+003 -4.307134e+002 4.943268e+002
    endloop
  endfacet
  facet normal 2.579459e-013 -5.209403e-001 -8.535931e-001
    outer loop
      vertex   -1.104128e+003 -4.313369e+002 4.947073e+002
      vertex   -1.101128e+003 -4.307134e+002 4.943268e+002
      vertex   -1.101128e+003 -4.313369e+002 4.947073e+002
    endloop
  endfacet
  facet normal 2.222400e-013 -5.818589e-001 -8.132897e-001
    outer loop
      vertex   -1.104128e+003 -4.319310e+002 4.951323e+002
      vertex   -1.101128e+003 -4.313369e+002 4.947073e+002
      vertex   -1.101128e+003 -4.319310e+002 4.951323e+002
    endloop
  endfacet
  facet normal 2.161096e-013 -6.396730e-001 -7.686471e-001
    outer loop
      vertex   -1.104128e+003 -4.324925e+002 4.955996e+002
      vertex   -1.101128e+003 -4.319310e+002 4.951323e+002
      vertex   -1.101128e+003 -4.324925e+002 4.955996e+002
    endloop
  endfacet
  facet normal 1.797831e-013 -6.940742e-001 -7.199035e-001
    outer loop
      vertex   -1.104128e+003 -4.330183e+002 4.961065e+002
      vertex   -1.101128e+003 -4.324925e+002 4.955996e+002
      vertex   -1.101128e+003 -4.330183e+002 4.961065e+002
    endloop
  endfacet
  facet normal 1.570348e-013 -7.447722e-001 -6.673188e-001
    outer loop
      vertex   -1.104128e+003 -4.335057e+002 4.966506e+002
      vertex   -1.101128e+003 -4.330183e+002 4.961065e+002
      vertex   -1.101128e+003 -4.335057e+002 4.966506e+002
    endloop
  endfacet
  facet normal 1.334757e-013 -7.914965e-001 -6.111737e-001
    outer loop
      vertex   -1.104128e+003 -4.339522e+002 4.972287e+002
      vertex   -1.101128e+003 -4.335057e+002 4.966506e+002
      vertex   -1.101128e+003 -4.339522e+002 4.972287e+002
    endloop
  endfacet
  facet normal 1.196317e-013 -8.339978e-001 -5.517677e-001
    outer loop
      vertex   -1.104128e+003 -4.343552e+002 4.978379e+002
      vertex   -1.101128e+003 -4.339522e+002 4.972287e+002
      vertex   -1.101128e+003 -4.343552e+002 4.978379e+002
    endloop
  endfacet
  facet normal 9.357742e-014 -8.720494e-001 -4.894178e-001
    outer loop
      vertex   -1.104128e+003 -4.347127e+002 4.984749e+002
      vertex   -1.101128e+003 -4.343552e+002 4.978379e+002
      vertex   -1.101128e+003 -4.347127e+002 4.984749e+002
    endloop
  endfacet
  facet normal 6.702919e-014 -9.054482e-001 -4.244567e-001
    outer loop
      vertex   -1.104128e+003 -4.350227e+002 4.991362e+002
      vertex   -1.101128e+003 -4.347127e+002 4.984749e+002
      vertex   -1.101128e+003 -4.350227e+002 4.991362e+002
    endloop
  endfacet
  facet normal 4.012632e-014 -9.340161e-001 -3.572309e-001
    outer loop
      vertex   -1.104128e+003 -4.352837e+002 4.998185e+002
      vertex   -1.101128e+003 -4.350227e+002 4.991362e+002
      vertex   -1.101128e+003 -4.352837e+002 4.998185e+002
    endloop
  endfacet
  facet normal 1.299546e-014 -9.576006e-001 -2.880991e-001
    outer loop
      vertex   -1.104128e+003 -4.354941e+002 5.005180e+002
      vertex   -1.101128e+003 -4.352837e+002 4.998185e+002
      vertex   -1.101128e+003 -4.354941e+002 5.005180e+002
    endloop
  endfacet
  facet normal -1.419241e-014 -9.760759e-001 -2.174302e-001
    outer loop
      vertex   -1.104128e+003 -4.356529e+002 5.012309e+002
      vertex   -1.101128e+003 -4.354941e+002 5.005180e+002
      vertex   -1.101128e+003 -4.356529e+002 5.012309e+002
    endloop
  endfacet
  facet normal -4.131060e-014 -9.893434e-001 -1.456012e-001
    outer loop
      vertex   -1.104128e+003 -4.357593e+002 5.019536e+002
      vertex   -1.101128e+003 -4.356529e+002 5.012309e+002
      vertex   -1.101128e+003 -4.357593e+002 5.019536e+002
    endloop
  endfacet
  facet normal -6.820714e-014 -9.973323e-001 -7.299531e-002
    outer loop
      vertex   -1.104128e+003 -4.358126e+002 5.026821e+002
      vertex   -1.101128e+003 -4.357593e+002 5.019536e+002
      vertex   -1.101128e+003 -4.358126e+002 5.026821e+002
    endloop
  endfacet
  facet normal -7.579123e-014 -1.000000e+000 -1.556415e-013
    outer loop
      vertex   -1.104128e+003 -4.358126e+002 5.034125e+002
      vertex   -1.101128e+003 -4.358126e+002 5.026821e+002
      vertex   -1.101128e+003 -4.358126e+002 5.034125e+002
    endloop
  endfacet
  facet normal -1.207653e-013 -9.973323e-001 7.299531e-002
    outer loop
      vertex   -1.104128e+003 -4.357593e+002 5.041410e+002
      vertex   -1.101128e+003 -4.358126e+002 5.034125e+002
      vertex   -1.101128e+003 -4.357593e+002 5.041410e+002
    endloop
  endfacet
  facet normal -1.461482e-013 -9.893434e-001 1.456012e-001
    outer loop
      vertex   -1.104128e+003 -4.356529e+002 5.048637e+002
      vertex   -1.101128e+003 -4.357593e+002 5.041410e+002
      vertex   -1.101128e+003 -4.356529e+002 5.048637e+002
    endloop
  endfacet
  facet normal -1.707522e-013 -9.760759e-001 2.174302e-001
    outer loop
      vertex   -1.104128e+003 -4.354941e+002 5.055766e+002
      vertex   -1.101128e+003 -4.356529e+002 5.048637e+002
      vertex   -1.101128e+003 -4.354941e+002 5.055766e+002
    endloop
  endfacet
  facet normal -1.889788e-013 -9.576006e-001 2.880991e-001
    outer loop
      vertex   -1.104128e+003 -4.352837e+002 5.062761e+002
      vertex   -1.101128e+003 -4.354941e+002 5.055766e+002
      vertex   -1.101128e+003 -4.352837e+002 5.062761e+002
    endloop
  endfacet
  facet normal -2.170849e-013 -9.340161e-001 3.572309e-001
    outer loop
      vertex   -1.104128e+003 -4.350227e+002 5.069583e+002
      vertex   -1.101128e+003 -4.352837e+002 5.062761e+002
      vertex   -1.101128e+003 -4.350227e+002 5.069583e+002
    endloop
  endfacet
  facet normal -2.385920e-013 -9.054482e-001 4.244567e-001
    outer loop
      vertex   -1.104128e+003 -4.347127e+002 5.076197e+002
      vertex   -1.101128e+003 -4.350227e+002 5.069583e+002
      vertex   -1.101128e+003 -4.347127e+002 5.076197e+002
    endloop
  endfacet
  facet normal -2.495356e-013 -8.720494e-001 4.894178e-001
    outer loop
      vertex   -1.104128e+003 -4.343552e+002 5.082567e+002
      vertex   -1.101128e+003 -4.347127e+002 5.076197e+002
      vertex   -1.101128e+003 -4.343552e+002 5.082567e+002
    endloop
  endfacet
  facet normal -2.934617e-013 -8.339978e-001 5.517677e-001
    outer loop
      vertex   -1.104128e+003 -4.339522e+002 5.088659e+002
      vertex   -1.101128e+003 -4.343552e+002 5.082567e+002
      vertex   -1.101128e+003 -4.339522e+002 5.088659e+002
    endloop
  endfacet
  facet normal -2.950196e-013 -7.914965e-001 6.111737e-001
    outer loop
      vertex   -1.104128e+003 -4.335057e+002 5.094440e+002
      vertex   -1.101128e+003 -4.339522e+002 5.088659e+002
      vertex   -1.101128e+003 -4.335057e+002 5.094440e+002
    endloop
  endfacet
  facet normal -3.108017e-013 -7.447722e-001 6.673188e-001
    outer loop
      vertex   -1.104128e+003 -4.330183e+002 5.099880e+002
      vertex   -1.101128e+003 -4.335057e+002 5.094440e+002
      vertex   -1.101128e+003 -4.330183e+002 5.099880e+002
    endloop
  endfacet
  facet normal -3.117643e-013 -6.940742e-001 7.199035e-001
    outer loop
      vertex   -1.104128e+003 -4.324925e+002 5.104950e+002
      vertex   -1.101128e+003 -4.330183e+002 5.099880e+002
      vertex   -1.101128e+003 -4.324925e+002 5.104950e+002
    endloop
  endfacet
  facet normal -3.373245e-013 -6.396730e-001 7.686471e-001
    outer loop
      vertex   -1.104128e+003 -4.319310e+002 5.109623e+002
      vertex   -1.101128e+003 -4.324925e+002 5.104950e+002
      vertex   -1.101128e+003 -4.319310e+002 5.109623e+002
    endloop
  endfacet
  facet normal -3.479388e-013 -5.818589e-001 8.132897e-001
    outer loop
      vertex   -1.104128e+003 -4.313369e+002 5.113873e+002
      vertex   -1.101128e+003 -4.319310e+002 5.109623e+002
      vertex   -1.101128e+003 -4.313369e+002 5.113873e+002
    endloop
  endfacet
  facet normal -3.404784e-013 -5.209403e-001 8.535931e-001
    outer loop
      vertex   -1.104128e+003 -4.307134e+002 5.117678e+002
      vertex   -1.101128e+003 -4.313369e+002 5.113873e+002
      vertex   -1.101128e+003 -4.307134e+002 5.117678e+002
    endloop
  endfacet
  facet normal -3.466468e-013 -4.572423e-001 8.893421e-001
    outer loop
      vertex   -1.104128e+003 -4.300638e+002 5.121018e+002
      vertex   -1.101128e+003 -4.307134e+002 5.117678e+002
      vertex   -1.101128e+003 -4.300638e+002 5.121018e+002
    endloop
  endfacet
  facet normal -3.435436e-013 -3.911047e-001 9.203462e-001
    outer loop
      vertex   -1.104128e+003 -4.293916e+002 5.123874e+002
      vertex   -1.101128e+003 -4.300638e+002 5.121018e+002
      vertex   -1.101128e+003 -4.293916e+002 5.123874e+002
    endloop
  endfacet
  facet normal -3.533852e-013 -3.228804e-001 9.464398e-001
    outer loop
      vertex   -1.104128e+003 -4.287003e+002 5.126233e+002
      vertex   -1.101128e+003 -4.293916e+002 5.123874e+002
      vertex   -1.101128e+003 -4.287003e+002 5.126233e+002
    endloop
  endfacet
  facet normal -3.539299e-013 -2.529334e-001 9.674837e-001
    outer loop
      vertex   -1.104128e+003 -4.279936e+002 5.128080e+002
      vertex   -1.101128e+003 -4.287003e+002 5.126233e+002
      vertex   -1.101128e+003 -4.279936e+002 5.128080e+002
    endloop
  endfacet
  facet normal -3.525936e-013 -1.816369e-001 9.833657e-001
    outer loop
      vertex   -1.104128e+003 -4.272753e+002 5.129407e+002
      vertex   -1.101128e+003 -4.279936e+002 5.128080e+002
      vertex   -1.101128e+003 -4.272753e+002 5.129407e+002
    endloop
  endfacet
  facet normal -3.870455e-013 -1.093712e-001 9.940010e-001
    outer loop
      vertex   -1.104128e+003 -4.265492e+002 5.130206e+002
      vertex   -1.101128e+003 -4.272753e+002 5.129407e+002
      vertex   -1.101128e+003 -4.265492e+002 5.130206e+002
    endloop
  endfacet
  facet normal -3.821627e-013 -3.652202e-002 9.993328e-001
    outer loop
      vertex   -1.104128e+003 -4.258193e+002 5.130473e+002
      vertex   -1.101128e+003 -4.265492e+002 5.130206e+002
      vertex   -1.101128e+003 -4.258193e+002 5.130473e+002
    endloop
  endfacet
  facet normal -3.759357e-013 3.652202e-002 9.993328e-001
    outer loop
      vertex   -1.104128e+003 -4.250893e+002 5.130206e+002
      vertex   -1.101128e+003 -4.258193e+002 5.130473e+002
      vertex   -1.101128e+003 -4.250893e+002 5.130206e+002
    endloop
  endfacet
  facet normal -3.683946e-013 1.093712e-001 9.940010e-001
    outer loop
      vertex   -1.104128e+003 -4.243633e+002 5.129407e+002
      vertex   -1.101128e+003 -4.250893e+002 5.130206e+002
      vertex   -1.101128e+003 -4.243633e+002 5.129407e+002
    endloop
  endfacet
  facet normal -3.181733e-013 1.816369e-001 9.833657e-001
    outer loop
      vertex   -1.104128e+003 -4.236450e+002 5.128080e+002
      vertex   -1.101128e+003 -4.243633e+002 5.129407e+002
      vertex   -1.101128e+003 -4.236450e+002 5.128080e+002
    endloop
  endfacet
  facet normal -3.060012e-013 2.529334e-001 9.674837e-001
    outer loop
      vertex   -1.104128e+003 -4.229383e+002 5.126233e+002
      vertex   -1.101128e+003 -4.236450e+002 5.128080e+002
      vertex   -1.101128e+003 -4.229383e+002 5.126233e+002
    endloop
  endfacet
  facet normal -2.860900e-013 3.228804e-001 9.464398e-001
    outer loop
      vertex   -1.104128e+003 -4.222470e+002 5.123874e+002
      vertex   -1.101128e+003 -4.229383e+002 5.126233e+002
      vertex   -1.101128e+003 -4.222470e+002 5.123874e+002
    endloop
  endfacet
  facet normal -3.117136e-013 3.911047e-001 9.203462e-001
    outer loop
      vertex   -1.104128e+003 -4.215747e+002 5.121018e+002
      vertex   -1.101128e+003 -4.222470e+002 5.123874e+002
      vertex   -1.101128e+003 -4.215747e+002 5.121018e+002
    endloop
  endfacet
  facet normal -2.768564e-013 4.572423e-001 8.893421e-001
    outer loop
      vertex   -1.104128e+003 -4.209251e+002 5.117678e+002
      vertex   -1.101128e+003 -4.215747e+002 5.121018e+002
      vertex   -1.101128e+003 -4.209251e+002 5.117678e+002
    endloop
  endfacet
  facet normal -2.579585e-013 5.209403e-001 8.535931e-001
    outer loop
      vertex   -1.104128e+003 -4.203016e+002 5.113873e+002
      vertex   -1.101128e+003 -4.209251e+002 5.117678e+002
      vertex   -1.101128e+003 -4.203016e+002 5.113873e+002
    endloop
  endfacet
  facet normal -2.222654e-013 5.818589e-001 8.132897e-001
    outer loop
      vertex   -1.104128e+003 -4.197075e+002 5.109623e+002
      vertex   -1.101128e+003 -4.203016e+002 5.113873e+002
      vertex   -1.101128e+003 -4.197075e+002 5.109623e+002
    endloop
  endfacet
  facet normal -2.161096e-013 6.396730e-001 7.686471e-001
    outer loop
      vertex   -1.104128e+003 -4.191461e+002 5.104950e+002
      vertex   -1.101128e+003 -4.197075e+002 5.109623e+002
      vertex   -1.101128e+003 -4.191461e+002 5.104950e+002
    endloop
  endfacet
  facet normal -1.934119e-013 6.940742e-001 7.199035e-001
    outer loop
      vertex   -1.104128e+003 -4.186202e+002 5.099880e+002
      vertex   -1.101128e+003 -4.191461e+002 5.104950e+002
      vertex   -1.101128e+003 -4.186202e+002 5.099880e+002
    endloop
  endfacet
  facet normal -1.696756e-013 7.447722e-001 6.673188e-001
    outer loop
      vertex   -1.104128e+003 -4.181328e+002 5.094440e+002
      vertex   -1.101128e+003 -4.186202e+002 5.099880e+002
      vertex   -1.101128e+003 -4.181328e+002 5.094440e+002
    endloop
  endfacet
  facet normal -1.450273e-013 7.914965e-001 6.111737e-001
    outer loop
      vertex   -1.104128e+003 -4.176864e+002 5.088659e+002
      vertex   -1.101128e+003 -4.181328e+002 5.094440e+002
      vertex   -1.101128e+003 -4.176864e+002 5.088659e+002
    endloop
  endfacet
  facet normal -1.196317e-013 8.339978e-001 5.517677e-001
    outer loop
      vertex   -1.104128e+003 -4.172833e+002 5.082567e+002
      vertex   -1.101128e+003 -4.176864e+002 5.088659e+002
      vertex   -1.101128e+003 -4.172833e+002 5.082567e+002
    endloop
  endfacet
  facet normal -8.430580e-014 8.720494e-001 4.894178e-001
    outer loop
      vertex   -1.104128e+003 -4.169258e+002 5.076197e+002
      vertex   -1.101128e+003 -4.172833e+002 5.082567e+002
      vertex   -1.101128e+003 -4.169258e+002 5.076197e+002
    endloop
  endfacet
  facet normal -5.898620e-014 9.054482e-001 4.244567e-001
    outer loop
      vertex   -1.104128e+003 -4.166158e+002 5.069583e+002
      vertex   -1.101128e+003 -4.169258e+002 5.076197e+002
      vertex   -1.101128e+003 -4.166158e+002 5.069583e+002
    endloop
  endfacet
  facet normal -4.011365e-014 9.340161e-001 3.572309e-001
    outer loop
      vertex   -1.104128e+003 -4.163549e+002 5.062761e+002
      vertex   -1.101128e+003 -4.166158e+002 5.069583e+002
      vertex   -1.101128e+003 -4.163549e+002 5.062761e+002
    endloop
  endfacet
  facet normal -1.299546e-014 9.576006e-001 2.880991e-001
    outer loop
      vertex   -1.104128e+003 -4.161444e+002 5.055766e+002
      vertex   -1.101128e+003 -4.163549e+002 5.062761e+002
      vertex   -1.101128e+003 -4.161444e+002 5.055766e+002
    endloop
  endfacet
  facet normal 1.419241e-014 9.760759e-001 2.174302e-001
    outer loop
      vertex   -1.104128e+003 -4.159856e+002 5.048637e+002
      vertex   -1.101128e+003 -4.161444e+002 5.055766e+002
      vertex   -1.101128e+003 -4.159856e+002 5.048637e+002
    endloop
  endfacet
  facet normal 4.131694e-014 9.893434e-001 1.456012e-001
    outer loop
      vertex   -1.104128e+003 -4.158793e+002 5.041410e+002
      vertex   -1.101128e+003 -4.159856e+002 5.048637e+002
      vertex   -1.101128e+003 -4.158793e+002 5.041410e+002
    endloop
  endfacet
  facet normal 6.820714e-014 9.973323e-001 7.299531e-002
    outer loop
      vertex   -1.104128e+003 -4.158259e+002 5.034125e+002
      vertex   -1.101128e+003 -4.158793e+002 5.041410e+002
      vertex   -1.101128e+003 -4.158259e+002 5.034125e+002
    endloop
  endfacet
  facet normal 7.579123e-014 1.000000e+000 2.334622e-013
    outer loop
      vertex   -1.104128e+003 -4.158259e+002 5.026821e+002
      vertex   -1.101128e+003 -4.158259e+002 5.034125e+002
      vertex   -1.101128e+003 -4.158259e+002 5.026821e+002
    endloop
  endfacet
  facet normal 1.207653e-013 9.973323e-001 -7.299531e-002
    outer loop
      vertex   -1.104128e+003 -4.158793e+002 5.019536e+002
      vertex   -1.101128e+003 -4.158259e+002 5.026821e+002
      vertex   -1.101128e+003 -4.158793e+002 5.019536e+002
    endloop
  endfacet
  facet normal 1.461419e-013 9.893434e-001 -1.456012e-001
    outer loop
      vertex   -1.104128e+003 -4.159856e+002 5.012309e+002
      vertex   -1.101128e+003 -4.158793e+002 5.019536e+002
      vertex   -1.101128e+003 -4.159856e+002 5.012309e+002
    endloop
  endfacet
  facet normal 1.666294e-013 9.760759e-001 -2.174302e-001
    outer loop
      vertex   -1.104128e+003 -4.161444e+002 5.005180e+002
      vertex   -1.101128e+003 -4.159856e+002 5.012309e+002
      vertex   -1.101128e+003 -4.161444e+002 5.005180e+002
    endloop
  endfacet
  facet normal 1.944379e-013 9.576006e-001 -2.880991e-001
    outer loop
      vertex   -1.104128e+003 -4.163549e+002 4.998185e+002
      vertex   -1.101128e+003 -4.161444e+002 5.005180e+002
      vertex   -1.101128e+003 -4.163549e+002 4.998185e+002
    endloop
  endfacet
  facet normal 2.170976e-013 9.340161e-001 -3.572309e-001
    outer loop
      vertex   -1.104128e+003 -4.166158e+002 4.991362e+002
      vertex   -1.101128e+003 -4.163549e+002 4.998185e+002
      vertex   -1.101128e+003 -4.166158e+002 4.991362e+002
    endloop
  endfacet
  facet normal 2.385793e-013 9.054482e-001 -4.244567e-001
    outer loop
      vertex   -1.104128e+003 -4.169258e+002 4.984749e+002
      vertex   -1.101128e+003 -4.166158e+002 4.991362e+002
      vertex   -1.101128e+003 -4.169258e+002 4.984749e+002
    endloop
  endfacet
  facet normal 2.495356e-013 8.720494e-001 -4.894178e-001
    outer loop
      vertex   -1.104128e+003 -4.172833e+002 4.978379e+002
      vertex   -1.101128e+003 -4.169258e+002 4.984749e+002
      vertex   -1.101128e+003 -4.172833e+002 4.978379e+002
    endloop
  endfacet
  facet normal 2.829995e-013 8.339978e-001 -5.517677e-001
    outer loop
      vertex   -1.104128e+003 -4.176864e+002 4.972287e+002
      vertex   -1.101128e+003 -4.172833e+002 4.978379e+002
      vertex   -1.101128e+003 -4.176864e+002 4.972287e+002
    endloop
  endfacet
  facet normal 2.950196e-013 7.914965e-001 -6.111737e-001
    outer loop
      vertex   -1.104128e+003 -4.181328e+002 4.966506e+002
      vertex   -1.101128e+003 -4.176864e+002 4.972287e+002
      vertex   -1.101128e+003 -4.181328e+002 4.966506e+002
    endloop
  endfacet
  facet normal 3.108017e-013 7.447722e-001 -6.673188e-001
    outer loop
      vertex   -1.104128e+003 -4.186202e+002 4.961065e+002
      vertex   -1.101128e+003 -4.181328e+002 4.966506e+002
      vertex   -1.101128e+003 -4.186202e+002 4.961065e+002
    endloop
  endfacet
  facet normal 2.981355e-013 6.940742e-001 -7.199035e-001
    outer loop
      vertex   -1.104128e+003 -4.191461e+002 4.955996e+002
      vertex   -1.101128e+003 -4.186202e+002 4.961065e+002
      vertex   -1.101128e+003 -4.191461e+002 4.955996e+002
    endloop
  endfacet
  facet normal 3.373245e-013 6.396730e-001 -7.686471e-001
    outer loop
      vertex   -1.104128e+003 -4.197075e+002 4.951323e+002
      vertex   -1.101128e+003 -4.191461e+002 4.955996e+002
      vertex   -1.101128e+003 -4.197075e+002 4.951323e+002
    endloop
  endfacet
  facet normal 3.479134e-013 5.818589e-001 -8.132897e-001
    outer loop
      vertex   -1.104128e+003 -4.203016e+002 4.947073e+002
      vertex   -1.101128e+003 -4.197075e+002 4.951323e+002
      vertex   -1.101128e+003 -4.203016e+002 4.947073e+002
    endloop
  endfacet
  facet normal 3.566531e-013 5.209403e-001 -8.535931e-001
    outer loop
      vertex   -1.104128e+003 -4.209251e+002 4.943268e+002
      vertex   -1.101128e+003 -4.203016e+002 4.947073e+002
      vertex   -1.101128e+003 -4.209251e+002 4.943268e+002
    endloop
  endfacet
  facet normal 3.634801e-013 4.572423e-001 -8.893421e-001
    outer loop
      vertex   -1.104128e+003 -4.215747e+002 4.939928e+002
      vertex   -1.101128e+003 -4.209251e+002 4.943268e+002
      vertex   -1.101128e+003 -4.215747e+002 4.939928e+002
    endloop
  endfacet
  facet normal 3.609722e-013 3.911047e-001 -9.203462e-001
    outer loop
      vertex   -1.104128e+003 -4.222470e+002 4.937071e+002
      vertex   -1.101128e+003 -4.215747e+002 4.939928e+002
      vertex   -1.101128e+003 -4.222470e+002 4.937071e+002
    endloop
  endfacet
  facet normal 3.533852e-013 3.228804e-001 -9.464398e-001
    outer loop
      vertex   -1.104128e+003 -4.229383e+002 4.934713e+002
      vertex   -1.101128e+003 -4.222470e+002 4.937071e+002
      vertex   -1.101128e+003 -4.229383e+002 4.934713e+002
    endloop
  endfacet
  facet normal 3.539425e-013 2.529334e-001 -9.674837e-001
    outer loop
      vertex   -1.104128e+003 -4.236450e+002 4.932865e+002
      vertex   -1.101128e+003 -4.229383e+002 4.934713e+002
      vertex   -1.101128e+003 -4.236450e+002 4.932865e+002
    endloop
  endfacet
  facet normal 3.712255e-013 1.816369e-001 -9.833657e-001
    outer loop
      vertex   -1.104128e+003 -4.243633e+002 4.931539e+002
      vertex   -1.101128e+003 -4.236450e+002 4.932865e+002
      vertex   -1.101128e+003 -4.243633e+002 4.931539e+002
    endloop
  endfacet
  facet normal 3.682078e-013 1.093712e-001 -9.940010e-001
    outer loop
      vertex   -1.104128e+003 -4.250893e+002 4.930740e+002
      vertex   -1.101128e+003 -4.243633e+002 4.931539e+002
      vertex   -1.101128e+003 -4.250893e+002 4.930740e+002
    endloop
  endfacet
  facet normal 3.639203e-013 3.652202e-002 -9.993328e-001
    outer loop
      vertex   -1.104128e+003 -4.258193e+002 4.930473e+002
      vertex   -1.101128e+003 -4.250893e+002 4.930740e+002
      vertex   -1.101128e+003 -4.258193e+002 4.930473e+002
    endloop
  endfacet
  facet normal 3.556161e-013 -3.652202e-002 -9.993328e-001
    outer loop
      vertex   -1.104128e+003 -4.265492e+002 4.930740e+002
      vertex   -1.104128e+003 -4.258193e+002 4.930473e+002
      vertex   -1.101128e+003 -4.258193e+002 4.930473e+002
    endloop
  endfacet
  facet normal 3.243395e-013 -2.529334e-001 -9.674837e-001
    outer loop
      vertex   -1.104128e+003 -4.279936e+002 4.932865e+002
      vertex   -1.101128e+003 -4.279936e+002 4.932865e+002
      vertex   -1.104128e+003 -4.287003e+002 4.934713e+002
    endloop
  endfacet
  facet normal 2.922039e-013 -3.228804e-001 -9.464398e-001
    outer loop
      vertex   -1.104128e+003 -4.287003e+002 4.934713e+002
      vertex   -1.101128e+003 -4.287003e+002 4.934713e+002
      vertex   -1.104128e+003 -4.293916e+002 4.937071e+002
    endloop
  endfacet
  facet normal 2.694303e-013 -3.911047e-001 -9.203462e-001
    outer loop
      vertex   -1.104128e+003 -4.293916e+002 4.937071e+002
      vertex   -1.101128e+003 -4.293916e+002 4.937071e+002
      vertex   -1.104128e+003 -4.300638e+002 4.939928e+002
    endloop
  endfacet
  facet normal 2.768519e-013 -4.572423e-001 -8.893421e-001
    outer loop
      vertex   -1.104128e+003 -4.300638e+002 4.939928e+002
      vertex   -1.101128e+003 -4.300638e+002 4.939928e+002
      vertex   -1.104128e+003 -4.307134e+002 4.943268e+002
    endloop
  endfacet
  facet normal 2.579472e-013 -5.209403e-001 -8.535931e-001
    outer loop
      vertex   -1.104128e+003 -4.307134e+002 4.943268e+002
      vertex   -1.101128e+003 -4.307134e+002 4.943268e+002
      vertex   -1.104128e+003 -4.313369e+002 4.947073e+002
    endloop
  endfacet
  facet normal 2.376663e-013 -5.818589e-001 -8.132897e-001
    outer loop
      vertex   -1.104128e+003 -4.313369e+002 4.947073e+002
      vertex   -1.101128e+003 -4.313369e+002 4.947073e+002
      vertex   -1.104128e+003 -4.319310e+002 4.951323e+002
    endloop
  endfacet
  facet normal 2.015532e-013 -6.396730e-001 -7.686471e-001
    outer loop
      vertex   -1.104128e+003 -4.319310e+002 4.951323e+002
      vertex   -1.101128e+003 -4.319310e+002 4.951323e+002
      vertex   -1.104128e+003 -4.324925e+002 4.955996e+002
    endloop
  endfacet
  facet normal 1.934153e-013 -6.940742e-001 -7.199035e-001
    outer loop
      vertex   -1.104128e+003 -4.324925e+002 4.955996e+002
      vertex   -1.101128e+003 -4.324925e+002 4.955996e+002
      vertex   -1.104128e+003 -4.330183e+002 4.961065e+002
    endloop
  endfacet
  facet normal 1.570371e-013 -7.447722e-001 -6.673188e-001
    outer loop
      vertex   -1.104128e+003 -4.330183e+002 4.961065e+002
      vertex   -1.101128e+003 -4.330183e+002 4.961065e+002
      vertex   -1.104128e+003 -4.335057e+002 4.966506e+002
    endloop
  endfacet
  facet normal 1.334616e-013 -7.914965e-001 -6.111737e-001
    outer loop
      vertex   -1.104128e+003 -4.335057e+002 4.966506e+002
      vertex   -1.101128e+003 -4.335057e+002 4.966506e+002
      vertex   -1.104128e+003 -4.339522e+002 4.972287e+002
    endloop
  endfacet
  facet normal 1.091740e-013 -8.339978e-001 -5.517677e-001
    outer loop
      vertex   -1.104128e+003 -4.339522e+002 4.972287e+002
      vertex   -1.101128e+003 -4.339522e+002 4.972287e+002
      vertex   -1.104128e+003 -4.343552e+002 4.978379e+002
    endloop
  endfacet
  facet normal 9.357738e-014 -8.720494e-001 -4.894178e-001
    outer loop
      vertex   -1.104128e+003 -4.343552e+002 4.978379e+002
      vertex   -1.101128e+003 -4.343552e+002 4.978379e+002
      vertex   -1.104128e+003 -4.347127e+002 4.984749e+002
    endloop
  endfacet
  facet normal 6.702665e-014 -9.054482e-001 -4.244567e-001
    outer loop
      vertex   -1.104128e+003 -4.347127e+002 4.984749e+002
      vertex   -1.101128e+003 -4.347127e+002 4.984749e+002
      vertex   -1.104128e+003 -4.350227e+002 4.991362e+002
    endloop
  endfacet
  facet normal 4.011831e-014 -9.340161e-001 -3.572309e-001
    outer loop
      vertex   -1.104128e+003 -4.350227e+002 4.991362e+002
      vertex   -1.101128e+003 -4.350227e+002 4.991362e+002
      vertex   -1.104128e+003 -4.352837e+002 4.998185e+002
    endloop
  endfacet
  facet normal 1.299592e-014 -9.576006e-001 -2.880991e-001
    outer loop
      vertex   -1.104128e+003 -4.352837e+002 4.998185e+002
      vertex   -1.101128e+003 -4.352837e+002 4.998185e+002
      vertex   -1.104128e+003 -4.354941e+002 5.005180e+002
    endloop
  endfacet
  facet normal -1.419581e-014 -9.760759e-001 -2.174302e-001
    outer loop
      vertex   -1.104128e+003 -4.354941e+002 5.005180e+002
      vertex   -1.101128e+003 -4.354941e+002 5.005180e+002
      vertex   -1.104128e+003 -4.356529e+002 5.012309e+002
    endloop
  endfacet
  facet normal -4.131180e-014 -9.893434e-001 -1.456012e-001
    outer loop
      vertex   -1.104128e+003 -4.356529e+002 5.012309e+002
      vertex   -1.101128e+003 -4.356529e+002 5.012309e+002
      vertex   -1.104128e+003 -4.357593e+002 5.019536e+002
    endloop
  endfacet
  facet normal -6.820737e-014 -9.973323e-001 -7.299531e-002
    outer loop
      vertex   -1.104128e+003 -4.357593e+002 5.019536e+002
      vertex   -1.101128e+003 -4.357593e+002 5.019536e+002
      vertex   -1.104128e+003 -4.358126e+002 5.026821e+002
    endloop
  endfacet
  facet normal -9.473903e-014 -1.000000e+000 -2.334622e-013
    outer loop
      vertex   -1.104128e+003 -4.358126e+002 5.026821e+002
      vertex   -1.101128e+003 -4.358126e+002 5.026821e+002
      vertex   -1.104128e+003 -4.358126e+002 5.034125e+002
    endloop
  endfacet
  facet normal -1.004849e-013 -9.973323e-001 7.299531e-002
    outer loop
      vertex   -1.104128e+003 -4.358126e+002 5.034125e+002
      vertex   -1.101128e+003 -4.358126e+002 5.034125e+002
      vertex   -1.104128e+003 -4.357593e+002 5.041410e+002
    endloop
  endfacet
  facet normal -1.461471e-013 -9.893434e-001 1.456012e-001
    outer loop
      vertex   -1.104128e+003 -4.357593e+002 5.041410e+002
      vertex   -1.101128e+003 -4.357593e+002 5.041410e+002
      vertex   -1.104128e+003 -4.356529e+002 5.048637e+002
    endloop
  endfacet
  facet normal -1.707492e-013 -9.760759e-001 2.174302e-001
    outer loop
      vertex   -1.104128e+003 -4.356529e+002 5.048637e+002
      vertex   -1.101128e+003 -4.356529e+002 5.048637e+002
      vertex   -1.104128e+003 -4.354941e+002 5.055766e+002
    endloop
  endfacet
  facet normal -1.944402e-013 -9.576006e-001 2.880991e-001
    outer loop
      vertex   -1.104128e+003 -4.354941e+002 5.055766e+002
      vertex   -1.101128e+003 -4.354941e+002 5.055766e+002
      vertex   -1.104128e+003 -4.352837e+002 5.062761e+002
    endloop
  endfacet
  facet normal -2.103251e-013 -9.340161e-001 3.572309e-001
    outer loop
      vertex   -1.104128e+003 -4.352837e+002 5.062761e+002
      vertex   -1.101128e+003 -4.352837e+002 5.062761e+002
      vertex   -1.104128e+003 -4.350227e+002 5.069583e+002
    endloop
  endfacet
  facet normal -2.385892e-013 -9.054482e-001 4.244567e-001
    outer loop
      vertex   -1.104128e+003 -4.350227e+002 5.069583e+002
      vertex   -1.101128e+003 -4.350227e+002 5.069583e+002
      vertex   -1.104128e+003 -4.347127e+002 5.076197e+002
    endloop
  endfacet
  facet normal -2.588116e-013 -8.720494e-001 4.894178e-001
    outer loop
      vertex   -1.104128e+003 -4.347127e+002 5.076197e+002
      vertex   -1.101128e+003 -4.347127e+002 5.076197e+002
      vertex   -1.104128e+003 -4.343552e+002 5.082567e+002
    endloop
  endfacet
  facet normal -2.671983e-013 -8.339978e-001 5.517677e-001
    outer loop
      vertex   -1.104128e+003 -4.343552e+002 5.082567e+002
      vertex   -1.101128e+003 -4.343552e+002 5.082567e+002
      vertex   -1.104128e+003 -4.339522e+002 5.088659e+002
    endloop
  endfacet
  facet normal -3.100104e-013 -7.914965e-001 6.111737e-001
    outer loop
      vertex   -1.104128e+003 -4.339522e+002 5.088659e+002
      vertex   -1.101128e+003 -4.339522e+002 5.088659e+002
      vertex   -1.104128e+003 -4.335057e+002 5.094440e+002
    endloop
  endfacet
  facet normal -3.107993e-013 -7.447722e-001 6.673188e-001
    outer loop
      vertex   -1.104128e+003 -4.335057e+002 5.094440e+002
      vertex   -1.101128e+003 -4.335057e+002 5.094440e+002
      vertex   -1.104128e+003 -4.330183e+002 5.099880e+002
    endloop
  endfacet
  facet normal -3.249272e-013 -6.940742e-001 7.199035e-001
    outer loop
      vertex   -1.104128e+003 -4.330183e+002 5.099880e+002
      vertex   -1.101128e+003 -4.330183e+002 5.099880e+002
      vertex   -1.104128e+003 -4.324925e+002 5.104950e+002
    endloop
  endfacet
  facet normal -3.252010e-013 -6.396730e-001 7.686471e-001
    outer loop
      vertex   -1.104128e+003 -4.324925e+002 5.104950e+002
      vertex   -1.101128e+003 -4.324925e+002 5.104950e+002
      vertex   -1.104128e+003 -4.319310e+002 5.109623e+002
    endloop
  endfacet
  facet normal -3.479158e-013 -5.818589e-001 8.132897e-001
    outer loop
      vertex   -1.104128e+003 -4.319310e+002 5.109623e+002
      vertex   -1.101128e+003 -4.319310e+002 5.109623e+002
      vertex   -1.104128e+003 -4.313369e+002 5.113873e+002
    endloop
  endfacet
  facet normal -3.566540e-013 -5.209403e-001 8.535931e-001
    outer loop
      vertex   -1.104128e+003 -4.313369e+002 5.113873e+002
      vertex   -1.101128e+003 -4.313369e+002 5.113873e+002
      vertex   -1.104128e+003 -4.307134e+002 5.117678e+002
    endloop
  endfacet
  facet normal -3.466382e-013 -4.572423e-001 8.893421e-001
    outer loop
      vertex   -1.104128e+003 -4.307134e+002 5.117678e+002
      vertex   -1.101128e+003 -4.307134e+002 5.117678e+002
      vertex   -1.104128e+003 -4.300638e+002 5.121018e+002
    endloop
  endfacet
  facet normal -3.509466e-013 -3.911047e-001 9.203462e-001
    outer loop
      vertex   -1.104128e+003 -4.300638e+002 5.121018e+002
      vertex   -1.101128e+003 -4.300638e+002 5.121018e+002
      vertex   -1.104128e+003 -4.293916e+002 5.123874e+002
    endloop
  endfacet
  facet normal -3.472647e-013 -3.228804e-001 9.464398e-001
    outer loop
      vertex   -1.104128e+003 -4.293916e+002 5.123874e+002
      vertex   -1.101128e+003 -4.293916e+002 5.123874e+002
      vertex   -1.104128e+003 -4.287003e+002 5.126233e+002
    endloop
  endfacet
  facet normal -3.539331e-013 -2.529334e-001 9.674837e-001
    outer loop
      vertex   -1.104128e+003 -4.287003e+002 5.126233e+002
      vertex   -1.101128e+003 -4.287003e+002 5.126233e+002
      vertex   -1.104128e+003 -4.279936e+002 5.128080e+002
    endloop
  endfacet
  facet normal -3.525953e-013 -1.816369e-001 9.833657e-001
    outer loop
      vertex   -1.104128e+003 -4.279936e+002 5.128080e+002
      vertex   -1.101128e+003 -4.279936e+002 5.128080e+002
      vertex   -1.104128e+003 -4.272753e+002 5.129407e+002
    endloop
  endfacet
  facet normal -3.493762e-013 -1.093712e-001 9.940010e-001
    outer loop
      vertex   -1.104128e+003 -4.272753e+002 5.129407e+002
      vertex   -1.101128e+003 -4.272753e+002 5.129407e+002
      vertex   -1.104128e+003 -4.265492e+002 5.130206e+002
    endloop
  endfacet
  facet normal -3.821634e-013 -3.652202e-002 9.993328e-001
    outer loop
      vertex   -1.104128e+003 -4.265492e+002 5.130206e+002
      vertex   -1.101128e+003 -4.265492e+002 5.130206e+002
      vertex   -1.104128e+003 -4.258193e+002 5.130473e+002
    endloop
  endfacet
  facet normal -3.752432e-013 3.652202e-002 9.993328e-001
    outer loop
      vertex   -1.104128e+003 -4.258193e+002 5.130473e+002
      vertex   -1.101128e+003 -4.258193e+002 5.130473e+002
      vertex   -1.104128e+003 -4.250893e+002 5.130206e+002
    endloop
  endfacet
  facet normal -3.683934e-013 1.093712e-001 9.940010e-001
    outer loop
      vertex   -1.104128e+003 -4.250893e+002 5.130206e+002
      vertex   -1.101128e+003 -4.250893e+002 5.130206e+002
      vertex   -1.104128e+003 -4.243633e+002 5.129407e+002
    endloop
  endfacet
  facet normal -3.588860e-013 1.816369e-001 9.833657e-001
    outer loop
      vertex   -1.104128e+003 -4.243633e+002 5.129407e+002
      vertex   -1.101128e+003 -4.243633e+002 5.129407e+002
      vertex   -1.104128e+003 -4.236450e+002 5.128080e+002
    endloop
  endfacet
  facet normal -3.060078e-013 2.529334e-001 9.674837e-001
    outer loop
      vertex   -1.104128e+003 -4.236450e+002 5.128080e+002
      vertex   -1.101128e+003 -4.236450e+002 5.128080e+002
      vertex   -1.104128e+003 -4.229383e+002 5.126233e+002
    endloop
  endfacet
  facet normal -2.922039e-013 3.228804e-001 9.464398e-001
    outer loop
      vertex   -1.104128e+003 -4.229383e+002 5.126233e+002
      vertex   -1.101128e+003 -4.229383e+002 5.126233e+002
      vertex   -1.104128e+003 -4.222470e+002 5.123874e+002
    endloop
  endfacet
  facet normal -2.694303e-013 3.911047e-001 9.203462e-001
    outer loop
      vertex   -1.104128e+003 -4.222470e+002 5.123874e+002
      vertex   -1.101128e+003 -4.222470e+002 5.123874e+002
      vertex   -1.104128e+003 -4.215747e+002 5.121018e+002
    endloop
  endfacet
  facet normal -2.937030e-013 4.572423e-001 8.893421e-001
    outer loop
      vertex   -1.104128e+003 -4.215747e+002 5.121018e+002
      vertex   -1.101128e+003 -4.215747e+002 5.121018e+002
      vertex   -1.104128e+003 -4.209251e+002 5.117678e+002
    endloop
  endfacet
  facet normal -2.579472e-013 5.209403e-001 8.535931e-001
    outer loop
      vertex   -1.104128e+003 -4.209251e+002 5.117678e+002
      vertex   -1.101128e+003 -4.209251e+002 5.117678e+002
      vertex   -1.104128e+003 -4.203016e+002 5.113873e+002
    endloop
  endfacet
  facet normal -2.376663e-013 5.818589e-001 8.132897e-001
    outer loop
      vertex   -1.104128e+003 -4.203016e+002 5.113873e+002
      vertex   -1.101128e+003 -4.203016e+002 5.113873e+002
      vertex   -1.104128e+003 -4.197075e+002 5.109623e+002
    endloop
  endfacet
  facet normal -2.015532e-013 6.396730e-001 7.686471e-001
    outer loop
      vertex   -1.104128e+003 -4.197075e+002 5.109623e+002
      vertex   -1.101128e+003 -4.197075e+002 5.109623e+002
      vertex   -1.104128e+003 -4.191461e+002 5.104950e+002
    endloop
  endfacet
  facet normal -1.934153e-013 6.940742e-001 7.199035e-001
    outer loop
      vertex   -1.104128e+003 -4.191461e+002 5.104950e+002
      vertex   -1.101128e+003 -4.191461e+002 5.104950e+002
      vertex   -1.104128e+003 -4.186202e+002 5.099880e+002
    endloop
  endfacet
  facet normal -1.696813e-013 7.447722e-001 6.673188e-001
    outer loop
      vertex   -1.104128e+003 -4.186202e+002 5.099880e+002
      vertex   -1.101128e+003 -4.186202e+002 5.099880e+002
      vertex   -1.104128e+003 -4.181328e+002 5.094440e+002
    endloop
  endfacet
  facet normal -1.450420e-013 7.914965e-001 6.111737e-001
    outer loop
      vertex   -1.104128e+003 -4.181328e+002 5.094440e+002
      vertex   -1.101128e+003 -4.181328e+002 5.094440e+002
      vertex   -1.104128e+003 -4.176864e+002 5.088659e+002
    endloop
  endfacet
  facet normal -1.196288e-013 8.339978e-001 5.517677e-001
    outer loop
      vertex   -1.104128e+003 -4.176864e+002 5.088659e+002
      vertex   -1.101128e+003 -4.176864e+002 5.088659e+002
      vertex   -1.104128e+003 -4.172833e+002 5.082567e+002
    endloop
  endfacet
  facet normal -9.357738e-014 8.720494e-001 4.894178e-001
    outer loop
      vertex   -1.104128e+003 -4.172833e+002 5.082567e+002
      vertex   -1.101128e+003 -4.172833e+002 5.082567e+002
      vertex   -1.104128e+003 -4.169258e+002 5.076197e+002
    endloop
  endfacet
  facet normal -5.898413e-014 9.054482e-001 4.244567e-001
    outer loop
      vertex   -1.104128e+003 -4.169258e+002 5.076197e+002
      vertex   -1.101128e+003 -4.169258e+002 5.076197e+002
      vertex   -1.104128e+003 -4.166158e+002 5.069583e+002
    endloop
  endfacet
  facet normal -3.334957e-014 9.340161e-001 3.572309e-001
    outer loop
      vertex   -1.104128e+003 -4.166158e+002 5.069583e+002
      vertex   -1.101128e+003 -4.166158e+002 5.069583e+002
      vertex   -1.104128e+003 -4.163549e+002 5.062761e+002
    endloop
  endfacet
  facet normal -1.299592e-014 9.576006e-001 2.880991e-001
    outer loop
      vertex   -1.104128e+003 -4.163549e+002 5.062761e+002
      vertex   -1.101128e+003 -4.163549e+002 5.062761e+002
      vertex   -1.104128e+003 -4.161444e+002 5.055766e+002
    endloop
  endfacet
  facet normal 1.419581e-014 9.760759e-001 2.174302e-001
    outer loop
      vertex   -1.104128e+003 -4.161444e+002 5.055766e+002
      vertex   -1.101128e+003 -4.161444e+002 5.055766e+002
      vertex   -1.104128e+003 -4.159856e+002 5.048637e+002
    endloop
  endfacet
  facet normal 4.131180e-014 9.893434e-001 1.456012e-001
    outer loop
      vertex   -1.104128e+003 -4.159856e+002 5.048637e+002
      vertex   -1.101128e+003 -4.159856e+002 5.048637e+002
      vertex   -1.104128e+003 -4.158793e+002 5.041410e+002
    endloop
  endfacet
  facet normal 6.820737e-014 9.973323e-001 7.299531e-002
    outer loop
      vertex   -1.104128e+003 -4.158793e+002 5.041410e+002
      vertex   -1.101128e+003 -4.158793e+002 5.041410e+002
      vertex   -1.104128e+003 -4.158259e+002 5.034125e+002
    endloop
  endfacet
  facet normal 9.473903e-014 1.000000e+000 1.556415e-013
    outer loop
      vertex   -1.104128e+003 -4.158259e+002 5.034125e+002
      vertex   -1.101128e+003 -4.158259e+002 5.034125e+002
      vertex   -1.104128e+003 -4.158259e+002 5.026821e+002
    endloop
  endfacet
  facet normal 1.018680e-013 9.973323e-001 -7.299531e-002
    outer loop
      vertex   -1.104128e+003 -4.158259e+002 5.026821e+002
      vertex   -1.101128e+003 -4.158259e+002 5.026821e+002
      vertex   -1.104128e+003 -4.158793e+002 5.019536e+002
    endloop
  endfacet
  facet normal 1.461471e-013 9.893434e-001 -1.456012e-001
    outer loop
      vertex   -1.104128e+003 -4.158793e+002 5.019536e+002
      vertex   -1.101128e+003 -4.158793e+002 5.019536e+002
      vertex   -1.104128e+003 -4.159856e+002 5.012309e+002
    endloop
  endfacet
  facet normal 1.707492e-013 9.760759e-001 -2.174302e-001
    outer loop
      vertex   -1.104128e+003 -4.159856e+002 5.012309e+002
      vertex   -1.101128e+003 -4.159856e+002 5.012309e+002
      vertex   -1.104128e+003 -4.161444e+002 5.005180e+002
    endloop
  endfacet
  facet normal 1.889814e-013 9.576006e-001 -2.880991e-001
    outer loop
      vertex   -1.104128e+003 -4.161444e+002 5.005180e+002
      vertex   -1.101128e+003 -4.161444e+002 5.005180e+002
      vertex   -1.104128e+003 -4.163549e+002 4.998185e+002
    endloop
  endfacet
  facet normal 2.170939e-013 9.340161e-001 -3.572309e-001
    outer loop
      vertex   -1.104128e+003 -4.163549e+002 4.998185e+002
      vertex   -1.101128e+003 -4.163549e+002 4.998185e+002
      vertex   -1.104128e+003 -4.166158e+002 4.991362e+002
    endloop
  endfacet
  facet normal 2.385892e-013 9.054482e-001 -4.244567e-001
    outer loop
      vertex   -1.104128e+003 -4.166158e+002 4.991362e+002
      vertex   -1.101128e+003 -4.166158e+002 4.991362e+002
      vertex   -1.104128e+003 -4.169258e+002 4.984749e+002
    endloop
  endfacet
  facet normal 2.588116e-013 8.720494e-001 -4.894178e-001
    outer loop
      vertex   -1.104128e+003 -4.169258e+002 4.984749e+002
      vertex   -1.101128e+003 -4.169258e+002 4.984749e+002
      vertex   -1.104128e+003 -4.172833e+002 4.978379e+002
    endloop
  endfacet
  facet normal 2.671983e-013 8.339978e-001 -5.517677e-001
    outer loop
      vertex   -1.104128e+003 -4.172833e+002 4.978379e+002
      vertex   -1.101128e+003 -4.172833e+002 4.978379e+002
      vertex   -1.104128e+003 -4.176864e+002 4.972287e+002
    endloop
  endfacet
  facet normal 2.984300e-013 7.914965e-001 -6.111737e-001
    outer loop
      vertex   -1.104128e+003 -4.176864e+002 4.972287e+002
      vertex   -1.101128e+003 -4.176864e+002 4.972287e+002
      vertex   -1.104128e+003 -4.181328e+002 4.966506e+002
    endloop
  endfacet
  facet normal 3.107993e-013 7.447722e-001 -6.673188e-001
    outer loop
      vertex   -1.104128e+003 -4.181328e+002 4.966506e+002
      vertex   -1.101128e+003 -4.181328e+002 4.966506e+002
      vertex   -1.104128e+003 -4.186202e+002 4.961065e+002
    endloop
  endfacet
  facet normal 3.249272e-013 6.940742e-001 -7.199035e-001
    outer loop
      vertex   -1.104128e+003 -4.186202e+002 4.961065e+002
      vertex   -1.101128e+003 -4.186202e+002 4.961065e+002
      vertex   -1.104128e+003 -4.191461e+002 4.955996e+002
    endloop
  endfacet
  facet normal 3.106368e-013 6.396730e-001 -7.686471e-001
    outer loop
      vertex   -1.104128e+003 -4.191461e+002 4.955996e+002
      vertex   -1.101128e+003 -4.191461e+002 4.955996e+002
      vertex   -1.104128e+003 -4.197075e+002 4.951323e+002
    endloop
  endfacet
  facet normal 3.479158e-013 5.818589e-001 -8.132897e-001
    outer loop
      vertex   -1.104128e+003 -4.197075e+002 4.951323e+002
      vertex   -1.101128e+003 -4.197075e+002 4.951323e+002
      vertex   -1.104128e+003 -4.203016e+002 4.947073e+002
    endloop
  endfacet
  facet normal 3.566540e-013 5.209403e-001 -8.535931e-001
    outer loop
      vertex   -1.104128e+003 -4.203016e+002 4.947073e+002
      vertex   -1.101128e+003 -4.203016e+002 4.947073e+002
      vertex   -1.104128e+003 -4.209251e+002 4.943268e+002
    endloop
  endfacet
  facet normal 3.634893e-013 4.572423e-001 -8.893421e-001
    outer loop
      vertex   -1.104128e+003 -4.209251e+002 4.943268e+002
      vertex   -1.101128e+003 -4.209251e+002 4.943268e+002
      vertex   -1.104128e+003 -4.215747e+002 4.939928e+002
    endloop
  endfacet
  facet normal 3.683852e-013 3.911047e-001 -9.203462e-001
    outer loop
      vertex   -1.104128e+003 -4.215747e+002 4.939928e+002
      vertex   -1.101128e+003 -4.215747e+002 4.939928e+002
      vertex   -1.104128e+003 -4.222470e+002 4.937071e+002
    endloop
  endfacet
  facet normal 3.651977e-013 3.228804e-001 -9.464398e-001
    outer loop
      vertex   -1.104128e+003 -4.222470e+002 4.937071e+002
      vertex   -1.101128e+003 -4.222470e+002 4.937071e+002
      vertex   -1.104128e+003 -4.229383e+002 4.934713e+002
    endloop
  endfacet
  facet normal 3.539331e-013 2.529334e-001 -9.674837e-001
    outer loop
      vertex   -1.104128e+003 -4.229383e+002 4.934713e+002
      vertex   -1.101128e+003 -4.229383e+002 4.934713e+002
      vertex   -1.104128e+003 -4.236450e+002 4.932865e+002
    endloop
  endfacet
  facet normal 3.525953e-013 1.816369e-001 -9.833657e-001
    outer loop
      vertex   -1.104128e+003 -4.236450e+002 4.932865e+002
      vertex   -1.101128e+003 -4.236450e+002 4.932865e+002
      vertex   -1.104128e+003 -4.243633e+002 4.931539e+002
    endloop
  endfacet
  facet normal 3.682103e-013 1.093712e-001 -9.940010e-001
    outer loop
      vertex   -1.104128e+003 -4.243633e+002 4.931539e+002
      vertex   -1.101128e+003 -4.243633e+002 4.931539e+002
      vertex   -1.104128e+003 -4.250893e+002 4.930740e+002
    endloop
  endfacet
  facet normal 3.632282e-013 3.652202e-002 -9.993328e-001
    outer loop
      vertex   -1.104128e+003 -4.250893e+002 4.930740e+002
      vertex   -1.101128e+003 -4.250893e+002 4.930740e+002
      vertex   -1.104128e+003 -4.258193e+002 4.930473e+002
    endloop
  endfacet
  facet normal 1.000000e+000 -3.248218e-013 3.647710e-013
    outer loop
      vertex   -1.101128e+003 -4.250893e+002 4.930740e+002
      vertex   -1.101128e+003 -4.250893e+002 5.130206e+002
      vertex   -1.101128e+003 -4.258193e+002 4.930473e+002
    endloop
  endfacet
  facet normal 1.000000e+000 4.013622e-014 3.647710e-013
    outer loop
      vertex   -1.101128e+003 -4.250893e+002 4.930740e+002
      vertex   -1.101128e+003 -4.243633e+002 5.129407e+002
      vertex   -1.101128e+003 -4.250893e+002 5.130206e+002
    endloop
  endfacet
  facet normal 1.000000e+000 -4.046032e-014 3.677165e-013
    outer loop
      vertex   -1.101128e+003 -4.250893e+002 4.930740e+002
      vertex   -1.101128e+003 -4.243633e+002 4.931539e+002
      vertex   -1.101128e+003 -4.243633e+002 5.129407e+002
    endloop
  endfacet
  facet normal 1.000000e+000 -5.651764e-013 3.677165e-013
    outer loop
      vertex   -1.101128e+003 -4.243633e+002 5.129407e+002
      vertex   -1.101128e+003 -4.243633e+002 4.931539e+002
      vertex   -1.101128e+003 -4.236450e+002 5.128080e+002
    endloop
  endfacet
  facet normal 1.000000e+000 -6.454116e-014 3.494201e-013
    outer loop
      vertex   -1.101128e+003 -4.236450e+002 5.128080e+002
      vertex   -1.101128e+003 -4.243633e+002 4.931539e+002
      vertex   -1.101128e+003 -4.236450e+002 4.932865e+002
    endloop
  endfacet
  facet normal 1.000000e+000 -9.311283e-014 3.561615e-013
    outer loop
      vertex   -1.101128e+003 -4.229383e+002 5.126233e+002
      vertex   -1.101128e+003 -4.236450e+002 4.932865e+002
      vertex   -1.101128e+003 -4.229383e+002 4.934713e+002
    endloop
  endfacet
  facet normal 1.000000e+000 -1.204211e-013 3.529830e-013
    outer loop
      vertex   -1.101128e+003 -4.222470e+002 5.123874e+002
      vertex   -1.101128e+003 -4.229383e+002 4.934713e+002
      vertex   -1.101128e+003 -4.222470e+002 4.937071e+002
    endloop
  endfacet
  facet normal 1.000000e+000 -1.547342e-013 3.641200e-013
    outer loop
      vertex   -1.101128e+003 -4.215747e+002 5.121018e+002
      vertex   -1.101128e+003 -4.222470e+002 4.937071e+002
      vertex   -1.101128e+003 -4.215747e+002 4.939928e+002
    endloop
  endfacet
  facet normal 1.000000e+000 -1.876742e-013 3.650288e-013
    outer loop
      vertex   -1.101128e+003 -4.209251e+002 5.117678e+002
      vertex   -1.101128e+003 -4.215747e+002 4.939928e+002
      vertex   -1.101128e+003 -4.209251e+002 4.943268e+002
    endloop
  endfacet
  facet normal 1.000000e+000 1.483741e-013 3.544203e-013
    outer loop
      vertex   -1.101128e+003 -4.203016e+002 5.113873e+002
      vertex   -1.101128e+003 -4.209251e+002 4.943268e+002
      vertex   -1.101128e+003 -4.203016e+002 4.947073e+002
    endloop
  endfacet
  facet normal 1.000000e+000 -2.569056e-013 3.590883e-013
    outer loop
      vertex   -1.101128e+003 -4.197075e+002 5.109623e+002
      vertex   -1.101128e+003 -4.203016e+002 4.947073e+002
      vertex   -1.101128e+003 -4.197075e+002 4.951323e+002
    endloop
  endfacet
  facet normal 1.000000e+000 1.000951e-013 3.663515e-013
    outer loop
      vertex   -1.101128e+003 -4.191461e+002 5.104950e+002
      vertex   -1.101128e+003 -4.197075e+002 4.951323e+002
      vertex   -1.101128e+003 -4.191461e+002 4.955996e+002
    endloop
  endfacet
  facet normal 1.000000e+000 1.007644e-013 3.439724e-013
    outer loop
      vertex   -1.101128e+003 -4.186202e+002 5.099880e+002
      vertex   -1.101128e+003 -4.191461e+002 4.955996e+002
      vertex   -1.101128e+003 -4.186202e+002 4.961065e+002
    endloop
  endfacet
  facet normal 1.000000e+000 -3.967092e-013 3.554530e-013
    outer loop
      vertex   -1.101128e+003 -4.181328e+002 5.094440e+002
      vertex   -1.101128e+003 -4.186202e+002 4.961065e+002
      vertex   -1.101128e+003 -4.181328e+002 4.966506e+002
    endloop
  endfacet
  facet normal 1.000000e+000 5.386092e-014 3.516940e-013
    outer loop
      vertex   -1.101128e+003 -4.176864e+002 5.088659e+002
      vertex   -1.101128e+003 -4.181328e+002 4.966506e+002
      vertex   -1.101128e+003 -4.176864e+002 4.972287e+002
    endloop
  endfacet
  facet normal 1.000000e+000 3.637840e-014 3.491742e-013
    outer loop
      vertex   -1.101128e+003 -4.172833e+002 5.082567e+002
      vertex   -1.101128e+003 -4.176864e+002 4.972287e+002
      vertex   -1.101128e+003 -4.172833e+002 4.978379e+002
    endloop
  endfacet
  facet normal 1.000000e+000 6.009873e-014 3.232266e-013
    outer loop
      vertex   -1.101128e+003 -4.169258e+002 5.076197e+002
      vertex   -1.101128e+003 -4.172833e+002 4.978379e+002
      vertex   -1.101128e+003 -4.169258e+002 4.984749e+002
    endloop
  endfacet
  facet normal 1.000000e+000 -8.061033e-013 3.778857e-013
    outer loop
      vertex   -1.101128e+003 -4.166158e+002 5.069583e+002
      vertex   -1.101128e+003 -4.169258e+002 4.984749e+002
      vertex   -1.101128e+003 -4.166158e+002 4.991362e+002
    endloop
  endfacet
  facet normal 1.000000e+000 -4.922860e-014 3.521020e-013
    outer loop
      vertex   -1.101128e+003 -4.163549e+002 5.062761e+002
      vertex   -1.101128e+003 -4.166158e+002 4.991362e+002
      vertex   -1.101128e+003 -4.163549e+002 4.998185e+002
    endloop
  endfacet
  facet normal 1.000000e+000 1.115153e-012 3.146314e-013
    outer loop
      vertex   -1.101128e+003 -4.161444e+002 5.055766e+002
      vertex   -1.101128e+003 -4.163549e+002 4.998185e+002
      vertex   -1.101128e+003 -4.161444e+002 5.005180e+002
    endloop
  endfacet
  facet normal 1.000000e+000 -1.966835e-012 4.381313e-013
    outer loop
      vertex   -1.101128e+003 -4.159856e+002 5.048637e+002
      vertex   -1.101128e+003 -4.161444e+002 5.005180e+002
      vertex   -1.101128e+003 -4.159856e+002 5.012309e+002
    endloop
  endfacet
  facet normal 1.000000e+000 -6.872857e-013 4.157834e-013
    outer loop
      vertex   -1.101128e+003 -4.158793e+002 5.041410e+002
      vertex   -1.101128e+003 -4.159856e+002 5.012309e+002
      vertex   -1.101128e+003 -4.158793e+002 5.019536e+002
    endloop
  endfacet
  facet normal 1.000000e+000 4.275800e-012 3.112830e-013
    outer loop
      vertex   -1.101128e+003 -4.158259e+002 5.034125e+002
      vertex   -1.101128e+003 -4.158793e+002 5.019536e+002
      vertex   -1.101128e+003 -4.158259e+002 5.026821e+002
    endloop
  endfacet
  facet normal 1.000000e+000 1.416410e-012 4.157834e-013
    outer loop
      vertex   -1.101128e+003 -4.158259e+002 5.034125e+002
      vertex   -1.101128e+003 -4.158793e+002 5.041410e+002
      vertex   -1.101128e+003 -4.158793e+002 5.019536e+002
    endloop
  endfacet
  facet normal 1.000000e+000 9.135038e-014 3.494201e-013
    outer loop
      vertex   -1.101128e+003 -4.236450e+002 5.128080e+002
      vertex   -1.101128e+003 -4.236450e+002 4.932865e+002
      vertex   -1.101128e+003 -4.229383e+002 5.126233e+002
    endloop
  endfacet
  facet normal 1.000000e+000 -2.073934e-013 3.561615e-013
    outer loop
      vertex   -1.101128e+003 -4.229383e+002 5.126233e+002
      vertex   -1.101128e+003 -4.229383e+002 4.934713e+002
      vertex   -1.101128e+003 -4.222470e+002 5.123874e+002
    endloop
  endfacet
  facet normal 1.000000e+000 1.500015e-013 3.529830e-013
    outer loop
      vertex   -1.101128e+003 -4.222470e+002 5.123874e+002
      vertex   -1.101128e+003 -4.222470e+002 4.937071e+002
      vertex   -1.101128e+003 -4.215747e+002 5.121018e+002
    endloop
  endfacet
  facet normal 1.000000e+000 -1.628079e-013 3.641200e-013
    outer loop
      vertex   -1.101128e+003 -4.215747e+002 5.121018e+002
      vertex   -1.101128e+003 -4.215747e+002 4.939928e+002
      vertex   -1.101128e+003 -4.209251e+002 5.117678e+002
    endloop
  endfacet
  facet normal 1.000000e+000 -1.418999e-013 3.650288e-013
    outer loop
      vertex   -1.101128e+003 -4.209251e+002 5.117678e+002
      vertex   -1.101128e+003 -4.209251e+002 4.943268e+002
      vertex   -1.101128e+003 -4.203016e+002 5.113873e+002
    endloop
  endfacet
  facet normal 1.000000e+000 -1.291795e-013 3.544203e-013
    outer loop
      vertex   -1.101128e+003 -4.203016e+002 5.113873e+002
      vertex   -1.101128e+003 -4.203016e+002 4.947073e+002
      vertex   -1.101128e+003 -4.197075e+002 5.109623e+002
    endloop
  endfacet
  facet normal 1.000000e+000 2.988355e-013 3.590883e-013
    outer loop
      vertex   -1.101128e+003 -4.197075e+002 5.109623e+002
      vertex   -1.101128e+003 -4.197075e+002 4.951323e+002
      vertex   -1.101128e+003 -4.191461e+002 5.104950e+002
    endloop
  endfacet
  facet normal 1.000000e+000 -5.115836e-013 3.663515e-013
    outer loop
      vertex   -1.101128e+003 -4.191461e+002 5.104950e+002
      vertex   -1.101128e+003 -4.191461e+002 4.955996e+002
      vertex   -1.101128e+003 -4.186202e+002 5.099880e+002
    endloop
  endfacet
  facet normal 1.000000e+000 -8.257208e-014 3.439724e-013
    outer loop
      vertex   -1.101128e+003 -4.186202e+002 5.099880e+002
      vertex   -1.101128e+003 -4.186202e+002 4.961065e+002
      vertex   -1.101128e+003 -4.181328e+002 5.094440e+002
    endloop
  endfacet
  facet normal 1.000000e+000 -4.899293e-014 3.554530e-013
    outer loop
      vertex   -1.101128e+003 -4.181328e+002 5.094440e+002
      vertex   -1.101128e+003 -4.181328e+002 4.966506e+002
      vertex   -1.101128e+003 -4.176864e+002 5.088659e+002
    endloop
  endfacet
  facet normal 1.000000e+000 -3.256971e-014 3.516940e-013
    outer loop
      vertex   -1.101128e+003 -4.176864e+002 5.088659e+002
      vertex   -1.101128e+003 -4.176864e+002 4.972287e+002
      vertex   -1.101128e+003 -4.172833e+002 5.082567e+002
    endloop
  endfacet
  facet normal 1.000000e+000 -6.498920e-013 3.491742e-013
    outer loop
      vertex   -1.101128e+003 -4.172833e+002 5.082567e+002
      vertex   -1.101128e+003 -4.172833e+002 4.978379e+002
      vertex   -1.101128e+003 -4.169258e+002 5.076197e+002
    endloop
  endfacet
  facet normal 1.000000e+000 6.895049e-013 3.232266e-013
    outer loop
      vertex   -1.101128e+003 -4.169258e+002 5.076197e+002
      vertex   -1.101128e+003 -4.169258e+002 4.984749e+002
      vertex   -1.101128e+003 -4.166158e+002 5.069583e+002
    endloop
  endfacet
  facet normal 1.000000e+000 -7.547348e-013 3.778857e-013
    outer loop
      vertex   -1.101128e+003 -4.166158e+002 5.069583e+002
      vertex   -1.101128e+003 -4.166158e+002 4.991362e+002
      vertex   -1.101128e+003 -4.163549e+002 5.062761e+002
    endloop
  endfacet
  facet normal 1.000000e+000 8.986533e-014 3.521020e-013
    outer loop
      vertex   -1.101128e+003 -4.163549e+002 5.062761e+002
      vertex   -1.101128e+003 -4.163549e+002 4.998185e+002
      vertex   -1.101128e+003 -4.161444e+002 5.055766e+002
    endloop
  endfacet
  facet normal 1.000000e+000 1.412426e-012 3.146314e-013
    outer loop
      vertex   -1.101128e+003 -4.161444e+002 5.055766e+002
      vertex   -1.101128e+003 -4.161444e+002 5.005180e+002
      vertex   -1.101128e+003 -4.159856e+002 5.048637e+002
    endloop
  endfacet
  facet normal 1.000000e+000 -1.298778e-012 4.381313e-013
    outer loop
      vertex   -1.101128e+003 -4.159856e+002 5.048637e+002
      vertex   -1.101128e+003 -4.159856e+002 5.012309e+002
      vertex   -1.101128e+003 -4.158793e+002 5.041410e+002
    endloop
  endfacet
  facet normal 1.000000e+000 1.288002e-014 3.524292e-013
    outer loop
      vertex   -1.101128e+003 -4.250893e+002 5.130206e+002
      vertex   -1.101128e+003 -4.258193e+002 5.130473e+002
      vertex   -1.101128e+003 -4.258193e+002 4.930473e+002
    endloop
  endfacet
  facet normal 1.000000e+000 -2.986108e-013 3.524292e-013
    outer loop
      vertex   -1.101128e+003 -4.258193e+002 4.930473e+002
      vertex   -1.101128e+003 -4.258193e+002 5.130473e+002
      vertex   -1.101128e+003 -4.265492e+002 4.930740e+002
    endloop
  endfacet
  facet normal 1.000000e+000 -3.244053e-013 3.533719e-013
    outer loop
      vertex   -1.101128e+003 -4.265492e+002 4.930740e+002
      vertex   -1.101128e+003 -4.258193e+002 5.130473e+002
      vertex   -1.101128e+003 -4.265492e+002 5.130206e+002
    endloop
  endfacet
  facet normal 1.000000e+000 -3.919594e-014 3.562254e-013
    outer loop
      vertex   -1.101128e+003 -4.272753e+002 4.931539e+002
      vertex   -1.101128e+003 -4.265492e+002 5.130206e+002
      vertex   -1.101128e+003 -4.272753e+002 5.129407e+002
    endloop
  endfacet
  facet normal 1.000000e+000 -6.454116e-014 3.494201e-013
    outer loop
      vertex   -1.101128e+003 -4.279936e+002 4.932865e+002
      vertex   -1.101128e+003 -4.272753e+002 5.129407e+002
      vertex   -1.101128e+003 -4.279936e+002 5.128080e+002
    endloop
  endfacet
  facet normal 1.000000e+000 -9.311283e-014 3.561615e-013
    outer loop
      vertex   -1.101128e+003 -4.287003e+002 4.934713e+002
      vertex   -1.101128e+003 -4.279936e+002 5.128080e+002
      vertex   -1.101128e+003 -4.287003e+002 5.126233e+002
    endloop
  endfacet
  facet normal 1.000000e+000 -1.204211e-013 3.529830e-013
    outer loop
      vertex   -1.101128e+003 -4.293916e+002 4.937071e+002
      vertex   -1.101128e+003 -4.287003e+002 5.126233e+002
      vertex   -1.101128e+003 -4.293916e+002 5.123874e+002
    endloop
  endfacet
  facet normal 1.000000e+000 -1.547342e-013 3.641200e-013
    outer loop
      vertex   -1.101128e+003 -4.300638e+002 4.939928e+002
      vertex   -1.101128e+003 -4.293916e+002 5.123874e+002
      vertex   -1.101128e+003 -4.300638e+002 5.121018e+002
    endloop
  endfacet
  facet normal 1.000000e+000 -1.809716e-013 3.519921e-013
    outer loop
      vertex   -1.101128e+003 -4.307134e+002 4.943268e+002
      vertex   -1.101128e+003 -4.300638e+002 5.121018e+002
      vertex   -1.101128e+003 -4.307134e+002 5.117678e+002
    endloop
  endfacet
  facet normal 1.000000e+000 1.483741e-013 3.544203e-013
    outer loop
      vertex   -1.101128e+003 -4.313369e+002 4.947073e+002
      vertex   -1.101128e+003 -4.307134e+002 5.117678e+002
      vertex   -1.101128e+003 -4.313369e+002 5.113873e+002
    endloop
  endfacet
  facet normal 1.000000e+000 -2.569056e-013 3.590883e-013
    outer loop
      vertex   -1.101128e+003 -4.319310e+002 4.951323e+002
      vertex   -1.101128e+003 -4.313369e+002 5.113873e+002
      vertex   -1.101128e+003 -4.319310e+002 5.109623e+002
    endloop
  endfacet
  facet normal 1.000000e+000 -3.048800e-013 3.663515e-013
    outer loop
      vertex   -1.101128e+003 -4.324925e+002 4.955996e+002
      vertex   -1.101128e+003 -4.319310e+002 5.109623e+002
      vertex   -1.101128e+003 -4.324925e+002 5.104950e+002
    endloop
  endfacet
  facet normal 1.000000e+000 5.331598e-013 3.439724e-013
    outer loop
      vertex   -1.101128e+003 -4.330183e+002 4.961065e+002
      vertex   -1.101128e+003 -4.324925e+002 5.104950e+002
      vertex   -1.101128e+003 -4.330183e+002 5.099880e+002
    endloop
  endfacet
  facet normal 1.000000e+000 -3.967092e-013 3.554530e-013
    outer loop
      vertex   -1.101128e+003 -4.335057e+002 4.966506e+002
      vertex   -1.101128e+003 -4.330183e+002 5.099880e+002
      vertex   -1.101128e+003 -4.335057e+002 5.094440e+002
    endloop
  endfacet
  facet normal 1.000000e+000 7.916420e-014 3.321555e-013
    outer loop
      vertex   -1.101128e+003 -4.339522e+002 4.972287e+002
      vertex   -1.101128e+003 -4.335057e+002 5.094440e+002
      vertex   -1.101128e+003 -4.339522e+002 5.088659e+002
    endloop
  endfacet
  facet normal 1.000000e+000 -5.607635e-013 3.709976e-013
    outer loop
      vertex   -1.101128e+003 -4.343552e+002 4.978379e+002
      vertex   -1.101128e+003 -4.339522e+002 5.088659e+002
      vertex   -1.101128e+003 -4.343552e+002 5.082567e+002
    endloop
  endfacet
  facet normal 1.000000e+000 1.579655e-014 3.480902e-013
    outer loop
      vertex   -1.101128e+003 -4.347127e+002 4.984749e+002
      vertex   -1.101128e+003 -4.343552e+002 5.082567e+002
      vertex   -1.101128e+003 -4.347127e+002 5.076197e+002
    endloop
  endfacet
  facet normal 1.000000e+000 -1.072736e-014 3.488176e-013
    outer loop
      vertex   -1.101128e+003 -4.350227e+002 4.991362e+002
      vertex   -1.101128e+003 -4.347127e+002 5.076197e+002
      vertex   -1.101128e+003 -4.350227e+002 5.069583e+002
    endloop
  endfacet
  facet normal 1.000000e+000 -4.922860e-014 3.521020e-013
    outer loop
      vertex   -1.101128e+003 -4.352837e+002 4.998185e+002
      vertex   -1.101128e+003 -4.350227e+002 5.069583e+002
      vertex   -1.101128e+003 -4.352837e+002 5.062761e+002
    endloop
  endfacet
  facet normal 1.000000e+000 -1.147170e-013 3.595788e-013
    outer loop
      vertex   -1.101128e+003 -4.354941e+002 5.005180e+002
      vertex   -1.101128e+003 -4.352837e+002 5.062761e+002
      vertex   -1.101128e+003 -4.354941e+002 5.055766e+002
    endloop
  endfacet
  facet normal 1.000000e+000 -2.542133e-013 3.755411e-013
    outer loop
      vertex   -1.101128e+003 -4.356529e+002 5.012309e+002
      vertex   -1.101128e+003 -4.354941e+002 5.055766e+002
      vertex   -1.101128e+003 -4.356529e+002 5.048637e+002
    endloop
  endfacet
  facet normal 1.000000e+000 -6.872857e-013 4.157834e-013
    outer loop
      vertex   -1.101128e+003 -4.357593e+002 5.019536e+002
      vertex   -1.101128e+003 -4.356529e+002 5.048637e+002
      vertex   -1.101128e+003 -4.357593e+002 5.041410e+002
    endloop
  endfacet
  facet normal 1.000000e+000 -4.241671e-012 6.225659e-013
    outer loop
      vertex   -1.101128e+003 -4.358126e+002 5.026821e+002
      vertex   -1.101128e+003 -4.357593e+002 5.041410e+002
      vertex   -1.101128e+003 -4.358126e+002 5.034125e+002
    endloop
  endfacet
  facet normal 1.000000e+000 1.416410e-012 4.157834e-013
    outer loop
      vertex   -1.101128e+003 -4.358126e+002 5.026821e+002
      vertex   -1.101128e+003 -4.357593e+002 5.019536e+002
      vertex   -1.101128e+003 -4.357593e+002 5.041410e+002
    endloop
  endfacet
  facet normal 1.000000e+000 3.888196e-014 3.533719e-013
    outer loop
      vertex   -1.101128e+003 -4.265492e+002 4.930740e+002
      vertex   -1.101128e+003 -4.265492e+002 5.130206e+002
      vertex   -1.101128e+003 -4.272753e+002 4.931539e+002
    endloop
  endfacet
  facet normal 1.000000e+000 -2.507504e-013 3.562254e-013
    outer loop
      vertex   -1.101128e+003 -4.272753e+002 4.931539e+002
      vertex   -1.101128e+003 -4.272753e+002 5.129407e+002
      vertex   -1.101128e+003 -4.279936e+002 4.932865e+002
    endloop
  endfacet
  facet normal 1.000000e+000 9.135038e-014 3.494201e-013
    outer loop
      vertex   -1.101128e+003 -4.279936e+002 4.932865e+002
      vertex   -1.101128e+003 -4.279936e+002 5.128080e+002
      vertex   -1.101128e+003 -4.287003e+002 4.934713e+002
    endloop
  endfacet
  facet normal 1.000000e+000 -2.073934e-013 3.561615e-013
    outer loop
      vertex   -1.101128e+003 -4.287003e+002 4.934713e+002
      vertex   -1.101128e+003 -4.287003e+002 5.126233e+002
      vertex   -1.101128e+003 -4.293916e+002 4.937071e+002
    endloop
  endfacet
  facet normal 1.000000e+000 1.500015e-013 3.529830e-013
    outer loop
      vertex   -1.101128e+003 -4.293916e+002 4.937071e+002
      vertex   -1.101128e+003 -4.293916e+002 5.123874e+002
      vertex   -1.101128e+003 -4.300638e+002 4.939928e+002
    endloop
  endfacet
  facet normal 1.000000e+000 -5.128227e-013 3.641200e-013
    outer loop
      vertex   -1.101128e+003 -4.300638e+002 4.939928e+002
      vertex   -1.101128e+003 -4.300638e+002 5.121018e+002
      vertex   -1.101128e+003 -4.307134e+002 4.943268e+002
    endloop
  endfacet
  facet normal 1.000000e+000 2.148176e-013 3.519921e-013
    outer loop
      vertex   -1.101128e+003 -4.307134e+002 4.943268e+002
      vertex   -1.101128e+003 -4.307134e+002 5.117678e+002
      vertex   -1.101128e+003 -4.313369e+002 4.947073e+002
    endloop
  endfacet
  facet normal 1.000000e+000 -1.291795e-013 3.544203e-013
    outer loop
      vertex   -1.101128e+003 -4.313369e+002 4.947073e+002
      vertex   -1.101128e+003 -4.313369e+002 5.113873e+002
      vertex   -1.101128e+003 -4.319310e+002 4.951323e+002
    endloop
  endfacet
  facet normal 1.000000e+000 -1.061396e-013 3.590883e-013
    outer loop
      vertex   -1.101128e+003 -4.319310e+002 4.951323e+002
      vertex   -1.101128e+003 -4.319310e+002 5.109623e+002
      vertex   -1.101128e+003 -4.324925e+002 4.955996e+002
    endloop
  endfacet
  facet normal 1.000000e+000 -7.918818e-014 3.663515e-013
    outer loop
      vertex   -1.101128e+003 -4.324925e+002 4.955996e+002
      vertex   -1.101128e+003 -4.324925e+002 5.104950e+002
      vertex   -1.101128e+003 -4.330183e+002 4.961065e+002
    endloop
  endfacet
  facet normal 1.000000e+000 -8.257208e-014 3.439724e-013
    outer loop
      vertex   -1.101128e+003 -4.330183e+002 4.961065e+002
      vertex   -1.101128e+003 -4.330183e+002 5.099880e+002
      vertex   -1.101128e+003 -4.335057e+002 4.966506e+002
    endloop
  endfacet
  facet normal 1.000000e+000 -5.583129e-013 3.554530e-013
    outer loop
      vertex   -1.101128e+003 -4.335057e+002 4.966506e+002
      vertex   -1.101128e+003 -4.335057e+002 5.094440e+002
      vertex   -1.101128e+003 -4.339522e+002 4.972287e+002
    endloop
  endfacet
  facet normal 1.000000e+000 5.020535e-013 3.321555e-013
    outer loop
      vertex   -1.101128e+003 -4.339522e+002 4.972287e+002
      vertex   -1.101128e+003 -4.339522e+002 5.088659e+002
      vertex   -1.101128e+003 -4.343552e+002 4.978379e+002
    endloop
  endfacet
  facet normal 1.000000e+000 -6.110069e-013 3.709976e-013
    outer loop
      vertex   -1.101128e+003 -4.343552e+002 4.978379e+002
      vertex   -1.101128e+003 -4.343552e+002 5.082567e+002
      vertex   -1.101128e+003 -4.347127e+002 4.984749e+002
    endloop
  endfacet
  facet normal 1.000000e+000 9.175709e-015 3.480902e-013
    outer loop
      vertex   -1.101128e+003 -4.347127e+002 4.984749e+002
      vertex   -1.101128e+003 -4.347127e+002 5.076197e+002
      vertex   -1.101128e+003 -4.350227e+002 4.991362e+002
    endloop
  endfacet
  facet normal 1.000000e+000 4.064116e-014 3.488176e-013
    outer loop
      vertex   -1.101128e+003 -4.350227e+002 4.991362e+002
      vertex   -1.101128e+003 -4.350227e+002 5.069583e+002
      vertex   -1.101128e+003 -4.352837e+002 4.998185e+002
    endloop
  endfacet
  facet normal 1.000000e+000 8.986533e-014 3.521020e-013
    outer loop
      vertex   -1.101128e+003 -4.352837e+002 4.998185e+002
      vertex   -1.101128e+003 -4.352837e+002 5.062761e+002
      vertex   -1.101128e+003 -4.354941e+002 5.005180e+002
    endloop
  endfacet
  facet normal 1.000000e+000 1.825560e-013 3.595788e-013
    outer loop
      vertex   -1.101128e+003 -4.354941e+002 5.005180e+002
      vertex   -1.101128e+003 -4.354941e+002 5.055766e+002
      vertex   -1.101128e+003 -4.356529e+002 5.012309e+002
    endloop
  endfacet
  facet normal 1.000000e+000 4.138437e-013 3.755411e-013
    outer loop
      vertex   -1.101128e+003 -4.356529e+002 5.012309e+002
      vertex   -1.101128e+003 -4.356529e+002 5.048637e+002
      vertex   -1.101128e+003 -4.357593e+002 5.019536e+002
    endloop
  endfacet
  facet normal -1.000000e+000 2.985763e-013 -3.533719e-013
    outer loop
      vertex   -1.104128e+003 -4.265492e+002 4.930740e+002
      vertex   -1.104128e+003 -4.265492e+002 5.130206e+002
      vertex   -1.104128e+003 -4.258193e+002 4.930473e+002
    endloop
  endfacet
  facet normal -1.000000e+000 3.888196e-014 -3.533719e-013
    outer loop
      vertex   -1.104128e+003 -4.265492e+002 4.930740e+002
      vertex   -1.104128e+003 -4.272753e+002 5.129407e+002
      vertex   -1.104128e+003 -4.265492e+002 5.130206e+002
    endloop
  endfacet
  facet normal -1.000000e+000 -3.919594e-014 -3.562254e-013
    outer loop
      vertex   -1.104128e+003 -4.265492e+002 4.930740e+002
      vertex   -1.104128e+003 -4.272753e+002 4.931539e+002
      vertex   -1.104128e+003 -4.272753e+002 5.129407e+002
    endloop
  endfacet
  facet normal -1.000000e+000 6.579816e-014 -3.562254e-013
    outer loop
      vertex   -1.104128e+003 -4.272753e+002 5.129407e+002
      vertex   -1.104128e+003 -4.272753e+002 4.931539e+002
      vertex   -1.104128e+003 -4.279936e+002 5.128080e+002
    endloop
  endfacet
  facet normal -1.000000e+000 2.520074e-013 -3.494201e-013
    outer loop
      vertex   -1.104128e+003 -4.279936e+002 5.128080e+002
      vertex   -1.104128e+003 -4.272753e+002 4.931539e+002
      vertex   -1.104128e+003 -4.279936e+002 4.932865e+002
    endloop
  endfacet
  facet normal -1.000000e+000 -9.311283e-014 -3.561615e-013
    outer loop
      vertex   -1.104128e+003 -4.287003e+002 5.126233e+002
      vertex   -1.104128e+003 -4.279936e+002 4.932865e+002
      vertex   -1.104128e+003 -4.287003e+002 4.934713e+002
    endloop
  endfacet
  facet normal -1.000000e+000 2.084778e-013 -3.529830e-013
    outer loop
      vertex   -1.104128e+003 -4.293916e+002 5.123874e+002
      vertex   -1.104128e+003 -4.287003e+002 4.934713e+002
      vertex   -1.104128e+003 -4.293916e+002 4.937071e+002
    endloop
  endfacet
  facet normal -1.000000e+000 -1.547342e-013 -3.641200e-013
    outer loop
      vertex   -1.104128e+003 -4.300638e+002 5.121018e+002
      vertex   -1.104128e+003 -4.293916e+002 4.937071e+002
      vertex   -1.104128e+003 -4.300638e+002 4.939928e+002
    endloop
  endfacet
  facet normal -1.000000e+000 1.623406e-013 -3.650288e-013
    outer loop
      vertex   -1.104128e+003 -4.307134e+002 5.117678e+002
      vertex   -1.104128e+003 -4.300638e+002 4.939928e+002
      vertex   -1.104128e+003 -4.307134e+002 4.943268e+002
    endloop
  endfacet
  facet normal -1.000000e+000 1.483741e-013 -3.544203e-013
    outer loop
      vertex   -1.104128e+003 -4.313369e+002 5.113873e+002
      vertex   -1.104128e+003 -4.307134e+002 4.943268e+002
      vertex   -1.104128e+003 -4.313369e+002 4.947073e+002
    endloop
  endfacet
  facet normal -1.000000e+000 1.258399e-013 -3.590883e-013
    outer loop
      vertex   -1.104128e+003 -4.319310e+002 5.109623e+002
      vertex   -1.104128e+003 -4.313369e+002 4.947073e+002
      vertex   -1.104128e+003 -4.319310e+002 4.951323e+002
    endloop
  endfacet
  facet normal -1.000000e+000 1.000951e-013 -3.663515e-013
    outer loop
      vertex   -1.104128e+003 -4.324925e+002 5.104950e+002
      vertex   -1.104128e+003 -4.319310e+002 4.951323e+002
      vertex   -1.104128e+003 -4.324925e+002 4.955996e+002
    endloop
  endfacet
  facet normal -1.000000e+000 1.007644e-013 -3.439724e-013
    outer loop
      vertex   -1.104128e+003 -4.330183e+002 5.099880e+002
      vertex   -1.104128e+003 -4.324925e+002 4.955996e+002
      vertex   -1.104128e+003 -4.330183e+002 4.961065e+002
    endloop
  endfacet
  facet normal -1.000000e+000 6.975899e-014 -3.554530e-013
    outer loop
      vertex   -1.104128e+003 -4.335057e+002 5.094440e+002
      vertex   -1.104128e+003 -4.330183e+002 4.961065e+002
      vertex   -1.104128e+003 -4.335057e+002 4.966506e+002
    endloop
  endfacet
  facet normal -1.000000e+000 5.884842e-013 -3.321555e-013
    outer loop
      vertex   -1.104128e+003 -4.339522e+002 5.088659e+002
      vertex   -1.104128e+003 -4.335057e+002 4.966506e+002
      vertex   -1.104128e+003 -4.339522e+002 4.972287e+002
    endloop
  endfacet
  facet normal -1.000000e+000 -5.277774e-013 -3.491742e-013
    outer loop
      vertex   -1.104128e+003 -4.343552e+002 5.082567e+002
      vertex   -1.104128e+003 -4.339522e+002 4.972287e+002
      vertex   -1.104128e+003 -4.343552e+002 4.978379e+002
    endloop
  endfacet
  facet normal -1.000000e+000 6.518236e-013 -3.480902e-013
    outer loop
      vertex   -1.104128e+003 -4.347127e+002 5.076197e+002
      vertex   -1.104128e+003 -4.343552e+002 4.978379e+002
      vertex   -1.104128e+003 -4.347127e+002 4.984749e+002
    endloop
  endfacet
  facet normal -1.000000e+000 -1.072736e-014 -3.488176e-013
    outer loop
      vertex   -1.104128e+003 -4.350227e+002 5.069583e+002
      vertex   -1.104128e+003 -4.347127e+002 4.984749e+002
      vertex   -1.104128e+003 -4.350227e+002 4.991362e+002
    endloop
  endfacet
  facet normal -1.000000e+000 -4.922860e-014 -3.521020e-013
    outer loop
      vertex   -1.104128e+003 -4.352837e+002 5.062761e+002
      vertex   -1.104128e+003 -4.350227e+002 4.991362e+002
      vertex   -1.104128e+003 -4.352837e+002 4.998185e+002
    endloop
  endfacet
  facet normal -1.000000e+000 -1.147170e-013 -3.595788e-013
    outer loop
      vertex   -1.104128e+003 -4.354941e+002 5.055766e+002
      vertex   -1.104128e+003 -4.352837e+002 4.998185e+002
      vertex   -1.104128e+003 -4.354941e+002 5.005180e+002
    endloop
  endfacet
  facet normal -1.000000e+000 -2.542133e-013 -3.755411e-013
    outer loop
      vertex   -1.104128e+003 -4.356529e+002 5.048637e+002
      vertex   -1.104128e+003 -4.354941e+002 5.005180e+002
      vertex   -1.104128e+003 -4.356529e+002 5.012309e+002
    endloop
  endfacet
  facet normal -1.000000e+000 -6.872857e-013 -4.157834e-013
    outer loop
      vertex   -1.104128e+003 -4.357593e+002 5.041410e+002
      vertex   -1.104128e+003 -4.356529e+002 5.012309e+002
      vertex   -1.104128e+003 -4.357593e+002 5.019536e+002
    endloop
  endfacet
  facet normal -1.000000e+000 -4.241671e-012 -6.225659e-013
    outer loop
      vertex   -1.104128e+003 -4.358126e+002 5.034125e+002
      vertex   -1.104128e+003 -4.357593e+002 5.019536e+002
      vertex   -1.104128e+003 -4.358126e+002 5.026821e+002
    endloop
  endfacet
  facet normal -1.000000e+000 1.416410e-012 -4.157834e-013
    outer loop
      vertex   -1.104128e+003 -4.358126e+002 5.034125e+002
      vertex   -1.104128e+003 -4.357593e+002 5.041410e+002
      vertex   -1.104128e+003 -4.357593e+002 5.019536e+002
    endloop
  endfacet
  facet normal -1.000000e+000 9.135038e-014 -3.494201e-013
    outer loop
      vertex   -1.104128e+003 -4.279936e+002 5.128080e+002
      vertex   -1.104128e+003 -4.279936e+002 4.932865e+002
      vertex   -1.104128e+003 -4.287003e+002 5.126233e+002
    endloop
  endfacet
  facet normal -1.000000e+000 1.215054e-013 -3.561615e-013
    outer loop
      vertex   -1.104128e+003 -4.287003e+002 5.126233e+002
      vertex   -1.104128e+003 -4.287003e+002 4.934713e+002
      vertex   -1.104128e+003 -4.293916e+002 5.123874e+002
    endloop
  endfacet
  facet normal -1.000000e+000 1.500015e-013 -3.529830e-013
    outer loop
      vertex   -1.104128e+003 -4.293916e+002 5.123874e+002
      vertex   -1.104128e+003 -4.293916e+002 4.937071e+002
      vertex   -1.104128e+003 -4.300638e+002 5.121018e+002
    endloop
  endfacet
  facet normal -1.000000e+000 1.872070e-013 -3.641200e-013
    outer loop
      vertex   -1.104128e+003 -4.300638e+002 5.121018e+002
      vertex   -1.104128e+003 -4.300638e+002 4.939928e+002
      vertex   -1.104128e+003 -4.307134e+002 5.117678e+002
    endloop
  endfacet
  facet normal -1.000000e+000 -1.418999e-013 -3.650288e-013
    outer loop
      vertex   -1.104128e+003 -4.307134e+002 5.117678e+002
      vertex   -1.104128e+003 -4.307134e+002 4.943268e+002
      vertex   -1.104128e+003 -4.313369e+002 5.113873e+002
    endloop
  endfacet
  facet normal -1.000000e+000 2.535660e-013 -3.544203e-013
    outer loop
      vertex   -1.104128e+003 -4.313369e+002 5.113873e+002
      vertex   -1.104128e+003 -4.313369e+002 4.947073e+002
      vertex   -1.104128e+003 -4.319310e+002 5.109623e+002
    endloop
  endfacet
  facet normal -1.000000e+000 2.988355e-013 -3.590883e-013
    outer loop
      vertex   -1.104128e+003 -4.319310e+002 5.109623e+002
      vertex   -1.104128e+003 -4.319310e+002 4.951323e+002
      vertex   -1.104128e+003 -4.324925e+002 5.104950e+002
    endloop
  endfacet
  facet normal -1.000000e+000 -5.115836e-013 -3.663515e-013
    outer loop
      vertex   -1.104128e+003 -4.324925e+002 5.104950e+002
      vertex   -1.104128e+003 -4.324925e+002 4.955996e+002
      vertex   -1.104128e+003 -4.330183e+002 5.099880e+002
    endloop
  endfacet
  facet normal -1.000000e+000 3.838961e-013 -3.439724e-013
    outer loop
      vertex   -1.104128e+003 -4.330183e+002 5.099880e+002
      vertex   -1.104128e+003 -4.330183e+002 4.961065e+002
      vertex   -1.104128e+003 -4.335057e+002 5.094440e+002
    endloop
  endfacet
  facet normal -1.000000e+000 -4.899293e-014 -3.554530e-013
    outer loop
      vertex   -1.104128e+003 -4.335057e+002 5.094440e+002
      vertex   -1.104128e+003 -4.335057e+002 4.966506e+002
      vertex   -1.104128e+003 -4.339522e+002 5.088659e+002
    endloop
  endfacet
  facet normal -1.000000e+000 -6.210227e-014 -3.321555e-013
    outer loop
      vertex   -1.104128e+003 -4.339522e+002 5.088659e+002
      vertex   -1.104128e+003 -4.339522e+002 4.972287e+002
      vertex   -1.104128e+003 -4.343552e+002 5.082567e+002
    endloop
  endfacet
  facet normal -1.000000e+000 6.221620e-013 -3.491742e-013
    outer loop
      vertex   -1.104128e+003 -4.343552e+002 5.082567e+002
      vertex   -1.104128e+003 -4.343552e+002 4.978379e+002
      vertex   -1.104128e+003 -4.347127e+002 5.076197e+002
    endloop
  endfacet
  facet normal -1.000000e+000 9.175709e-015 -3.480902e-013
    outer loop
      vertex   -1.104128e+003 -4.347127e+002 5.076197e+002
      vertex   -1.104128e+003 -4.347127e+002 4.984749e+002
      vertex   -1.104128e+003 -4.350227e+002 5.069583e+002
    endloop
  endfacet
  facet normal -1.000000e+000 4.064116e-014 -3.488176e-013
    outer loop
      vertex   -1.104128e+003 -4.350227e+002 5.069583e+002
      vertex   -1.104128e+003 -4.350227e+002 4.991362e+002
      vertex   -1.104128e+003 -4.352837e+002 5.062761e+002
    endloop
  endfacet
  facet normal -1.000000e+000 8.986533e-014 -3.521020e-013
    outer loop
      vertex   -1.104128e+003 -4.352837e+002 5.062761e+002
      vertex   -1.104128e+003 -4.352837e+002 4.998185e+002
      vertex   -1.104128e+003 -4.354941e+002 5.055766e+002
    endloop
  endfacet
  facet normal -1.000000e+000 1.825560e-013 -3.595788e-013
    outer loop
      vertex   -1.104128e+003 -4.354941e+002 5.055766e+002
      vertex   -1.104128e+003 -4.354941e+002 5.005180e+002
      vertex   -1.104128e+003 -4.356529e+002 5.048637e+002
    endloop
  endfacet
  facet normal -1.000000e+000 4.138437e-013 -3.755411e-013
    outer loop
      vertex   -1.104128e+003 -4.356529e+002 5.048637e+002
      vertex   -1.104128e+003 -4.356529e+002 5.012309e+002
      vertex   -1.104128e+003 -4.357593e+002 5.041410e+002
    endloop
  endfacet
  facet normal -1.000000e+000 3.243708e-013 -3.524292e-013
    outer loop
      vertex   -1.104128e+003 -4.265492e+002 5.130206e+002
      vertex   -1.104128e+003 -4.258193e+002 5.130473e+002
      vertex   -1.104128e+003 -4.258193e+002 4.930473e+002
    endloop
  endfacet
  facet normal -1.000000e+000 3.243708e-013 -3.524292e-013
    outer loop
      vertex   -1.104128e+003 -4.258193e+002 4.930473e+002
      vertex   -1.104128e+003 -4.258193e+002 5.130473e+002
      vertex   -1.104128e+003 -4.250893e+002 4.930740e+002
    endloop
  endfacet
  facet normal -1.000000e+000 -1.333107e-014 -3.647710e-013
    outer loop
      vertex   -1.104128e+003 -4.250893e+002 4.930740e+002
      vertex   -1.104128e+003 -4.258193e+002 5.130473e+002
      vertex   -1.104128e+003 -4.250893e+002 5.130206e+002
    endloop
  endfacet
  facet normal -1.000000e+000 -4.046032e-014 -3.677165e-013
    outer loop
      vertex   -1.104128e+003 -4.243633e+002 4.931539e+002
      vertex   -1.104128e+003 -4.250893e+002 5.130206e+002
      vertex   -1.104128e+003 -4.243633e+002 5.129407e+002
    endloop
  endfacet
  facet normal -1.000000e+000 5.685559e-013 -3.494201e-013
    outer loop
      vertex   -1.104128e+003 -4.236450e+002 4.932865e+002
      vertex   -1.104128e+003 -4.243633e+002 5.129407e+002
      vertex   -1.104128e+003 -4.236450e+002 5.128080e+002
    endloop
  endfacet
  facet normal -1.000000e+000 -9.311283e-014 -3.561615e-013
    outer loop
      vertex   -1.104128e+003 -4.229383e+002 4.934713e+002
      vertex   -1.104128e+003 -4.236450e+002 5.128080e+002
      vertex   -1.104128e+003 -4.229383e+002 5.126233e+002
    endloop
  endfacet
  facet normal -1.000000e+000 2.084778e-013 -3.529830e-013
    outer loop
      vertex   -1.104128e+003 -4.222470e+002 4.937071e+002
      vertex   -1.104128e+003 -4.229383e+002 5.126233e+002
      vertex   -1.104128e+003 -4.222470e+002 5.123874e+002
    endloop
  endfacet
  facet normal -1.000000e+000 -1.547342e-013 -3.641200e-013
    outer loop
      vertex   -1.104128e+003 -4.215747e+002 4.939928e+002
      vertex   -1.104128e+003 -4.222470e+002 5.123874e+002
      vertex   -1.104128e+003 -4.215747e+002 5.121018e+002
    endloop
  endfacet
  facet normal -1.000000e+000 1.623406e-013 -3.650288e-013
    outer loop
      vertex   -1.104128e+003 -4.209251e+002 4.943268e+002
      vertex   -1.104128e+003 -4.215747e+002 5.121018e+002
      vertex   -1.104128e+003 -4.209251e+002 5.117678e+002
    endloop
  endfacet
  facet normal -1.000000e+000 1.483741e-013 -3.544203e-013
    outer loop
      vertex   -1.104128e+003 -4.203016e+002 4.947073e+002
      vertex   -1.104128e+003 -4.209251e+002 5.117678e+002
      vertex   -1.104128e+003 -4.203016e+002 5.113873e+002
    endloop
  endfacet
  facet normal -1.000000e+000 1.258399e-013 -3.590883e-013
    outer loop
      vertex   -1.104128e+003 -4.197075e+002 4.951323e+002
      vertex   -1.104128e+003 -4.203016e+002 5.113873e+002
      vertex   -1.104128e+003 -4.197075e+002 5.109623e+002
    endloop
  endfacet
  facet normal -1.000000e+000 1.127984e-013 -3.510869e-013
    outer loop
      vertex   -1.104128e+003 -4.191461e+002 4.955996e+002
      vertex   -1.104128e+003 -4.197075e+002 5.109623e+002
      vertex   -1.104128e+003 -4.191461e+002 5.104950e+002
    endloop
  endfacet
  facet normal -1.000000e+000 1.007644e-013 -3.439724e-013
    outer loop
      vertex   -1.104128e+003 -4.186202e+002 4.961065e+002
      vertex   -1.104128e+003 -4.191461e+002 5.104950e+002
      vertex   -1.104128e+003 -4.186202e+002 5.099880e+002
    endloop
  endfacet
  facet normal -1.000000e+000 6.975899e-014 -3.554530e-013
    outer loop
      vertex   -1.104128e+003 -4.181328e+002 4.966506e+002
      vertex   -1.104128e+003 -4.186202e+002 5.099880e+002
      vertex   -1.104128e+003 -4.181328e+002 5.094440e+002
    endloop
  endfacet
  facet normal -1.000000e+000 5.386092e-014 -3.516940e-013
    outer loop
      vertex   -1.104128e+003 -4.176864e+002 4.972287e+002
      vertex   -1.104128e+003 -4.181328e+002 5.094440e+002
      vertex   -1.104128e+003 -4.176864e+002 5.088659e+002
    endloop
  endfacet
  facet normal -1.000000e+000 3.637840e-014 -3.491742e-013
    outer loop
      vertex   -1.104128e+003 -4.172833e+002 4.978379e+002
      vertex   -1.104128e+003 -4.176864e+002 5.088659e+002
      vertex   -1.104128e+003 -4.172833e+002 5.082567e+002
    endloop
  endfacet
  facet normal -1.000000e+000 6.518236e-013 -3.480902e-013
    outer loop
      vertex   -1.104128e+003 -4.169258e+002 4.984749e+002
      vertex   -1.104128e+003 -4.172833e+002 5.082567e+002
      vertex   -1.104128e+003 -4.169258e+002 5.076197e+002
    endloop
  endfacet
  facet normal -1.000000e+000 -1.072736e-014 -3.488176e-013
    outer loop
      vertex   -1.104128e+003 -4.166158e+002 4.991362e+002
      vertex   -1.104128e+003 -4.169258e+002 5.076197e+002
      vertex   -1.104128e+003 -4.166158e+002 5.069583e+002
    endloop
  endfacet
  facet normal -1.000000e+000 -4.922860e-014 -3.521020e-013
    outer loop
      vertex   -1.104128e+003 -4.163549e+002 4.998185e+002
      vertex   -1.104128e+003 -4.166158e+002 5.069583e+002
      vertex   -1.104128e+003 -4.163549e+002 5.062761e+002
    endloop
  endfacet
  facet normal -1.000000e+000 -1.147170e-013 -3.595788e-013
    outer loop
      vertex   -1.104128e+003 -4.161444e+002 5.005180e+002
      vertex   -1.104128e+003 -4.163549e+002 5.062761e+002
      vertex   -1.104128e+003 -4.161444e+002 5.055766e+002
    endloop
  endfacet
  facet normal -1.000000e+000 -2.542133e-013 -3.755411e-013
    outer loop
      vertex   -1.104128e+003 -4.159856e+002 5.012309e+002
      vertex   -1.104128e+003 -4.161444e+002 5.055766e+002
      vertex   -1.104128e+003 -4.159856e+002 5.048637e+002
    endloop
  endfacet
  facet normal -1.000000e+000 -6.872857e-013 -4.157834e-013
    outer loop
      vertex   -1.104128e+003 -4.158793e+002 5.019536e+002
      vertex   -1.104128e+003 -4.159856e+002 5.048637e+002
      vertex   -1.104128e+003 -4.158793e+002 5.041410e+002
    endloop
  endfacet
  facet normal -1.000000e+000 1.137627e-014 -3.112830e-013
    outer loop
      vertex   -1.104128e+003 -4.158259e+002 5.026821e+002
      vertex   -1.104128e+003 -4.158793e+002 5.041410e+002
      vertex   -1.104128e+003 -4.158259e+002 5.034125e+002
    endloop
  endfacet
  facet normal -1.000000e+000 -2.848014e-012 -4.157834e-013
    outer loop
      vertex   -1.104128e+003 -4.158259e+002 5.026821e+002
      vertex   -1.104128e+003 -4.158793e+002 5.019536e+002
      vertex   -1.104128e+003 -4.158793e+002 5.041410e+002
    endloop
  endfacet
  facet normal -1.000000e+000 4.013622e-014 -3.647710e-013
    outer loop
      vertex   -1.104128e+003 -4.250893e+002 4.930740e+002
      vertex   -1.104128e+003 -4.250893e+002 5.130206e+002
      vertex   -1.104128e+003 -4.243633e+002 4.931539e+002
    endloop
  endfacet
  facet normal -1.000000e+000 6.792068e-014 -3.677165e-013
    outer loop
      vertex   -1.104128e+003 -4.243633e+002 4.931539e+002
      vertex   -1.104128e+003 -4.243633e+002 5.129407e+002
      vertex   -1.104128e+003 -4.236450e+002 4.932865e+002
    endloop
  endfacet
  facet normal -1.000000e+000 9.135038e-014 -3.494201e-013
    outer loop
      vertex   -1.104128e+003 -4.236450e+002 4.932865e+002
      vertex   -1.104128e+003 -4.236450e+002 5.128080e+002
      vertex   -1.104128e+003 -4.229383e+002 4.934713e+002
    endloop
  endfacet
  facet normal -1.000000e+000 1.215054e-013 -3.561615e-013
    outer loop
      vertex   -1.104128e+003 -4.229383e+002 4.934713e+002
      vertex   -1.104128e+003 -4.229383e+002 5.126233e+002
      vertex   -1.104128e+003 -4.222470e+002 4.937071e+002
    endloop
  endfacet
  facet normal -1.000000e+000 1.500015e-013 -3.529830e-013
    outer loop
      vertex   -1.104128e+003 -4.222470e+002 4.937071e+002
      vertex   -1.104128e+003 -4.222470e+002 5.123874e+002
      vertex   -1.104128e+003 -4.215747e+002 4.939928e+002
    endloop
  endfacet
  facet normal -1.000000e+000 1.872070e-013 -3.641200e-013
    outer loop
      vertex   -1.104128e+003 -4.215747e+002 4.939928e+002
      vertex   -1.104128e+003 -4.215747e+002 5.121018e+002
      vertex   -1.104128e+003 -4.209251e+002 4.943268e+002
    endloop
  endfacet
  facet normal -1.000000e+000 -1.418999e-013 -3.650288e-013
    outer loop
      vertex   -1.104128e+003 -4.209251e+002 4.943268e+002
      vertex   -1.104128e+003 -4.209251e+002 5.117678e+002
      vertex   -1.104128e+003 -4.203016e+002 4.947073e+002
    endloop
  endfacet
  facet normal -1.000000e+000 2.535660e-013 -3.544203e-013
    outer loop
      vertex   -1.104128e+003 -4.203016e+002 4.947073e+002
      vertex   -1.104128e+003 -4.203016e+002 5.113873e+002
      vertex   -1.104128e+003 -4.197075e+002 4.951323e+002
    endloop
  endfacet
  facet normal -1.000000e+000 -1.061396e-013 -3.590883e-013
    outer loop
      vertex   -1.104128e+003 -4.197075e+002 4.951323e+002
      vertex   -1.104128e+003 -4.197075e+002 5.109623e+002
      vertex   -1.104128e+003 -4.191461e+002 4.955996e+002
    endloop
  endfacet
  facet normal -1.000000e+000 -9.390514e-014 -3.510869e-013
    outer loop
      vertex   -1.104128e+003 -4.191461e+002 4.955996e+002
      vertex   -1.104128e+003 -4.191461e+002 5.104950e+002
      vertex   -1.104128e+003 -4.186202e+002 4.961065e+002
    endloop
  endfacet
  facet normal -1.000000e+000 3.838961e-013 -3.439724e-013
    outer loop
      vertex   -1.104128e+003 -4.186202e+002 4.961065e+002
      vertex   -1.104128e+003 -4.186202e+002 5.099880e+002
      vertex   -1.104128e+003 -4.181328e+002 4.966506e+002
    endloop
  endfacet
  facet normal -1.000000e+000 -4.899293e-014 -3.554530e-013
    outer loop
      vertex   -1.104128e+003 -4.181328e+002 4.966506e+002
      vertex   -1.104128e+003 -4.181328e+002 5.094440e+002
      vertex   -1.104128e+003 -4.176864e+002 4.972287e+002
    endloop
  endfacet
  facet normal -1.000000e+000 -3.256971e-014 -3.516940e-013
    outer loop
      vertex   -1.104128e+003 -4.176864e+002 4.972287e+002
      vertex   -1.104128e+003 -4.176864e+002 5.088659e+002
      vertex   -1.104128e+003 -4.172833e+002 4.978379e+002
    endloop
  endfacet
  facet normal -1.000000e+000 6.221620e-013 -3.491742e-013
    outer loop
      vertex   -1.104128e+003 -4.172833e+002 4.978379e+002
      vertex   -1.104128e+003 -4.172833e+002 5.082567e+002
      vertex   -1.104128e+003 -4.169258e+002 4.984749e+002
    endloop
  endfacet
  facet normal -1.000000e+000 9.175709e-015 -3.480902e-013
    outer loop
      vertex   -1.104128e+003 -4.169258e+002 4.984749e+002
      vertex   -1.104128e+003 -4.169258e+002 5.076197e+002
      vertex   -1.104128e+003 -4.166158e+002 4.991362e+002
    endloop
  endfacet
  facet normal -1.000000e+000 4.064116e-014 -3.488176e-013
    outer loop
      vertex   -1.104128e+003 -4.166158e+002 4.991362e+002
      vertex   -1.104128e+003 -4.166158e+002 5.069583e+002
      vertex   -1.104128e+003 -4.163549e+002 4.998185e+002
    endloop
  endfacet
  facet normal -1.000000e+000 8.986533e-014 -3.521020e-013
    outer loop
      vertex   -1.104128e+003 -4.163549e+002 4.998185e+002
      vertex   -1.104128e+003 -4.163549e+002 5.062761e+002
      vertex   -1.104128e+003 -4.161444e+002 5.005180e+002
    endloop
  endfacet
  facet normal -1.000000e+000 1.825560e-013 -3.595788e-013
    outer loop
      vertex   -1.104128e+003 -4.161444e+002 5.005180e+002
      vertex   -1.104128e+003 -4.161444e+002 5.055766e+002
      vertex   -1.104128e+003 -4.159856e+002 5.012309e+002
    endloop
  endfacet
  facet normal -1.000000e+000 4.138437e-013 -3.755411e-013
    outer loop
      vertex   -1.104128e+003 -4.159856e+002 5.012309e+002
      vertex   -1.104128e+003 -4.159856e+002 5.048637e+002
      vertex   -1.104128e+003 -4.158793e+002 5.019536e+002
    endloop
  endfacet
endsolid
